<svg width="680" height="400" viewBox="0 0 680 400" fill="none" xmlns="http://www.w3.org/2000/svg">
<rect width="680" height="400" fill="#11342B"/>
<mask id="mask0_2285_18212" style="mask-type:alpha" maskUnits="userSpaceOnUse" x="165" y="119" width="350" height="142">
<rect x="165" y="119" width="350" height="142" fill="white"/>
</mask>
<g mask="url(#mask0_2285_18212)">
<path d="M510.639 245.765V245.548C510.334 245.548 510.015 245.532 509.677 245.499C509.342 245.468 509.109 245.427 508.982 245.378C508.852 245.332 508.773 245.283 508.741 245.234C508.692 245.137 508.67 244.928 508.67 244.604V238.187C508.67 237.476 508.42 236.862 507.926 236.346C507.331 235.731 506.531 235.425 505.525 235.425C505.378 235.425 505.059 235.453 504.562 235.509C504.065 235.565 503.594 235.963 503.145 236.7C502.824 237.231 502.615 237.841 502.518 238.53V235.448L498.174 235.836V236.052C499.23 236.052 499.838 236.109 499.997 236.223L500.143 236.466C500.205 236.547 500.241 236.659 500.25 236.806C500.256 236.951 500.263 237.096 500.263 237.243V244.6C500.263 244.99 500.214 245.225 500.116 245.306C499.844 245.403 499.539 245.468 499.194 245.499C498.85 245.531 498.502 245.548 498.148 245.548V245.765H504.296V245.548C504.059 245.548 503.783 245.531 503.468 245.499C503.155 245.467 502.941 245.427 502.821 245.378C502.7 245.329 502.625 245.281 502.593 245.232C502.544 245.136 502.518 244.924 502.518 244.6V239.842C502.664 238.693 502.911 237.771 503.266 237.074C503.73 236.153 504.328 235.69 505.066 235.69C505.625 235.69 506.012 236.022 506.22 236.686C506.346 237.091 506.412 237.68 506.412 238.458V244.6C506.412 244.99 506.363 245.224 506.269 245.305C506.012 245.403 505.716 245.467 505.378 245.499C505.043 245.531 504.744 245.548 504.491 245.548V245.764H510.639V245.765ZM508.592 214.46C509.957 212.232 510.639 208.115 510.639 202.113C510.555 200.312 510.512 198.428 510.512 196.454V190.537H508.975V196.681C508.975 203.85 508.598 208.713 507.845 211.273C506.756 215.026 504.497 216.903 501.066 216.903C498.135 216.903 496.25 215.281 495.411 212.029C495.077 210.662 494.911 207.667 494.911 203.049V168.159H509.615V164.428H494.911V137.29H492.737C492.737 143.749 491.31 149.563 488.464 154.731C484.923 161.189 479.655 165.279 472.661 167.001V168.159H482.892V204.685C482.892 209.316 484.083 212.875 486.472 215.361C488.858 217.849 492.607 219.091 497.725 219.091C503.094 219.091 506.716 217.548 508.592 214.46V214.46ZM474.345 235.449C473.529 235.449 472.834 235.744 472.266 236.332C471.697 236.918 471.415 237.632 471.415 238.469C471.415 239.403 471.752 240.153 472.428 240.716C472.99 241.183 473.78 241.521 474.803 241.73C475.824 241.941 476.535 242.181 476.935 242.456C477.452 242.81 477.709 243.35 477.709 244.073C477.709 244.637 477.513 245.073 477.13 245.378C476.809 245.636 476.396 245.765 475.899 245.765C475.239 245.765 474.746 245.72 474.414 245.632C474.085 245.544 473.734 245.322 473.368 244.968C473.092 244.711 472.835 244.316 472.594 243.783C472.419 243.398 472.191 242.706 471.918 241.706H471.752V245.984C471.782 245.95 472.119 245.556 472.76 244.799C473.289 245.346 473.776 245.692 474.225 245.838C474.527 245.935 475.035 245.984 475.739 245.984C476.588 245.984 477.292 245.782 477.851 245.378C478.557 244.881 478.908 244.107 478.908 243.06C478.908 241.933 478.582 241.112 477.926 240.595C477.464 240.226 476.658 239.902 475.509 239.629C474.361 239.355 473.595 239.106 473.211 238.88C472.672 238.558 472.399 238.106 472.399 237.527C472.399 236.818 472.646 236.312 473.142 236.005C473.514 235.778 473.984 235.666 474.559 235.666C475.314 235.666 476.003 235.997 476.626 236.657C477.205 237.27 477.605 238.059 477.828 239.025L478.021 239.072V235.448C477.988 235.481 477.66 235.731 477.036 236.198C476.938 236.182 476.587 236.036 475.98 235.763C475.516 235.554 474.969 235.448 474.345 235.448V235.449ZM438.776 217.932H471.765V216.775C469.975 216.775 468.184 216.691 466.397 216.518C464.606 216.346 463.368 216.131 462.686 215.873C462.003 215.616 461.578 215.357 461.409 215.099C461.152 214.584 461.025 213.468 461.025 211.748V177.581C461.025 173.715 459.829 170.449 457.444 167.785C454.458 164.519 449.983 162.884 444.017 162.884C443.675 162.884 443.101 162.929 442.292 163.013C441.479 163.099 440.735 163.143 440.052 163.143C436.643 163.487 433.703 165.63 431.23 169.574C429.267 172.746 428.032 176.048 427.522 179.476V133.946L402.969 136.132V137.29C408.256 137.29 411.664 137.507 413.198 137.938C413.712 138.11 414.264 138.627 414.862 139.487C415.203 139.919 415.395 140.522 415.437 141.298C415.479 142.074 415.502 143.019 415.502 144.141V211.735C415.502 213.803 415.245 215.053 414.735 215.484C413.283 216.002 411.557 216.346 409.556 216.518C407.55 216.691 405.315 216.775 402.842 216.775V217.932H436.985V216.775C435.705 216.775 434.235 216.691 432.572 216.518C430.911 216.346 429.758 216.131 429.121 215.87C428.481 215.614 428.075 215.355 427.905 215.096C427.648 214.578 427.522 213.46 427.522 211.735V185.885C428.289 180.198 429.738 175.373 431.87 171.408C434.427 166.669 437.495 164.299 441.076 164.299C444.4 164.299 446.659 165.723 447.854 168.564C448.622 170.375 449.005 173.131 449.005 176.839V211.736C449.005 213.803 448.748 215.053 448.238 215.484C446.874 216.002 445.298 216.346 443.507 216.518C441.716 216.691 440.137 216.776 438.776 216.776V217.933V217.932ZM412.083 230.181H402.839V230.399C404.087 230.399 404.968 230.497 405.481 230.689C405.64 230.754 405.734 230.82 405.766 230.884C405.832 231.013 405.864 231.303 405.864 231.755V241.361C405.864 242.845 406.537 244.006 407.882 244.846C409.097 245.605 410.612 245.984 412.421 245.984C413.384 245.984 414.303 245.675 415.184 245.063C416.448 244.176 417.081 242.861 417.081 241.119V233.86C417.081 232.715 417.224 231.901 417.513 231.416C417.913 230.738 418.716 230.399 419.915 230.399V230.181H413.455V230.399C414.622 230.399 415.463 230.718 415.977 231.354C416.49 231.99 416.743 233.138 416.743 234.797V241.102C416.743 242.648 416.192 243.841 415.086 244.678C414.303 245.274 413.494 245.572 412.662 245.572C411.158 245.572 410.115 245.153 409.539 244.316C409.059 243.623 408.818 242.471 408.818 240.861V231.753C408.818 231.317 408.857 231.028 408.939 230.882C408.971 230.818 409.091 230.746 409.299 230.665C409.507 230.585 409.839 230.52 410.297 230.473C410.751 230.424 411.35 230.399 412.084 230.399V230.181H412.083ZM351.184 204.943C351.184 202.027 352.402 199.926 354.846 198.641C356.702 197.697 359.103 197.224 362.05 197.224C365.547 198.598 369.254 199.283 373.176 199.283C378.717 199.283 383.705 197.784 388.137 194.781C393.08 191.438 395.553 187.152 395.553 181.92C395.553 178.405 394.594 175.319 392.677 172.66C390.76 170.002 388.137 167.859 384.813 166.228C384.813 165.375 384.768 164.05 384.687 162.254C384.687 160.115 384.959 158.428 385.515 157.188C386.071 155.947 387.199 155.2 388.905 154.943C388.648 155.379 388.437 155.815 388.264 156.25C388.092 156.683 388.011 157.161 388.011 157.682C388.011 160.465 389.457 161.855 392.359 161.855C395.169 161.855 396.577 160.334 396.577 157.29C396.577 155.899 396.109 154.769 395.169 153.9C394.231 153.031 393.125 152.595 391.845 152.595C388.947 152.595 386.795 153.218 385.388 154.46C383.981 155.703 383.279 158.34 383.279 162.37V165.457C381.743 164.771 380.082 164.214 378.291 163.784C376.5 163.356 374.795 163.142 373.176 163.142C367.721 163.142 362.733 164.9 358.215 168.415C353.27 172.273 350.797 176.947 350.797 182.434C350.797 185.694 351.567 188.436 353.101 190.666C354.634 192.896 356.763 194.697 359.492 196.068C355.57 196.068 352.544 197.224 350.413 199.54C348.281 201.855 347.218 204.814 347.218 208.415C347.218 211.846 348.453 214.633 350.927 216.775C352.716 218.318 355.485 219.776 359.239 221.148C355.06 222.348 351.993 223.505 350.029 224.62C347.218 226.248 345.811 228.263 345.811 230.666C345.811 234.35 348.369 237.631 353.483 240.505C358.599 243.376 365.458 244.814 374.069 244.814C381.316 244.814 387.179 243.097 391.652 239.668C396.127 236.237 398.366 231.35 398.366 225.007C398.366 219.003 395.9 214.717 390.97 212.144C387.058 210.087 381.319 209.057 373.754 209.057H366.355C360.405 209.057 356.411 208.672 354.37 207.901C352.245 207.215 351.182 206.228 351.182 204.943L351.184 204.943ZM374.779 220.634C381.743 220.634 386.519 221.365 389.11 222.832C391.7 224.296 392.996 227.099 392.996 231.238C392.996 234.687 391.411 237.619 388.236 240.035C385.058 242.448 380.593 243.656 374.835 243.656C366.535 243.656 360.816 242.283 357.683 239.541C355.65 237.74 354.635 235.039 354.635 231.438C354.635 227.663 355.87 225.007 358.343 223.463C361.316 221.576 366.795 220.634 374.78 220.634H374.779ZM362.307 181.277C362.307 176.008 363.171 171.86 364.897 168.835C366.622 165.814 369.384 164.299 373.177 164.299C377.304 164.299 380.212 165.899 381.899 169.095C383.329 171.773 384.047 175.835 384.047 181.277C384.047 187.068 383.202 191.324 381.519 194.045C379.832 196.766 377.054 198.126 373.177 198.126C368.878 198.126 365.992 196.832 364.52 194.239C363.045 191.647 362.307 187.328 362.307 181.278L362.307 181.277ZM306.172 217.932H343.512V216.775C337.884 216.775 334.176 216.474 332.385 215.87C331.788 215.614 331.404 215.355 331.235 215.096C330.979 214.578 330.852 213.46 330.852 211.735V163.013L306.172 165.072V166.228C311.627 166.228 315.124 166.446 316.658 166.876C317.168 167.048 317.724 167.568 318.322 168.432C318.66 168.866 318.832 169.903 318.832 171.543V211.722C318.832 213.794 318.575 215.05 318.065 215.48C316.616 215.998 314.887 216.343 312.885 216.517C310.88 216.689 308.644 216.775 306.172 216.775V217.932H306.172ZM335.024 146.007C335.024 145.957 335.037 145.906 335.044 145.854C335.044 145.578 335.044 145.301 335.044 145.025C335.031 144.885 335.018 144.745 335.008 144.605C334.894 143.046 334.462 141.581 333.721 140.209C333.081 139.019 332.245 137.98 331.219 137.101C329.672 135.777 327.901 134.942 325.896 134.612C325.519 134.548 325.132 134.525 324.749 134.485C324.687 134.477 324.626 134.47 324.564 134.462C324.288 134.462 324.015 134.462 323.738 134.462C323.488 134.483 323.237 134.501 322.988 134.53C321.158 134.726 319.478 135.344 317.967 136.401C315.913 137.838 314.5 139.763 313.736 142.161C313.453 143.046 313.297 143.956 313.255 144.882C313.252 144.931 313.242 144.978 313.236 145.025C313.236 145.301 313.236 145.578 313.236 145.854C313.252 146.016 313.265 146.179 313.278 146.342C313.405 147.879 313.834 149.327 314.574 150.676C315.728 152.771 317.382 154.336 319.536 155.362C320.827 155.974 322.184 156.308 323.609 156.377C323.65 156.379 323.696 156.389 323.739 156.395C324.015 156.395 324.288 156.395 324.564 156.395C324.801 156.374 325.041 156.355 325.281 156.329C326.536 156.199 327.729 155.858 328.863 155.305C330.01 154.75 331.03 154.015 331.918 153.1C333.334 151.64 334.283 149.918 334.751 147.929C334.901 147.296 334.991 146.656 335.025 146.007L335.024 146.007ZM327.186 135.794C327.167 135.821 327.15 135.851 327.127 135.873C327.063 135.936 326.984 135.954 326.926 135.875C326.848 135.777 326.819 135.818 326.78 135.905C326.725 136.026 326.627 136.099 326.504 136.151C326.458 136.17 326.416 136.21 326.383 136.251C326.335 136.315 326.283 136.384 326.253 136.459C326.162 136.681 325.997 136.773 325.766 136.791C325.691 136.798 325.607 136.852 325.555 136.909C325.328 137.166 325.113 137.432 324.896 137.696C324.798 137.813 324.788 137.815 324.662 137.725C324.422 137.556 324.32 137.301 324.245 137.032C324.184 136.8 324.161 136.574 324.284 136.349C324.34 136.244 324.372 136.128 324.415 136.016C324.441 135.943 324.428 135.887 324.333 135.889C324.235 135.891 324.135 135.897 324.037 135.902C324.07 135.987 324.096 136.076 324.135 136.155C324.19 136.256 324.187 136.321 324.083 136.393C323.93 136.5 323.794 136.625 323.658 136.75C323.586 136.814 323.55 136.825 323.476 136.744C323.394 136.654 323.287 136.56 323.174 136.534C323.053 136.504 322.914 136.551 322.78 136.57C322.742 136.575 322.702 136.598 322.663 136.604C322.563 136.618 322.465 136.624 322.393 136.524C322.342 136.451 322.274 136.476 322.215 136.516C322.078 136.614 321.942 136.717 321.806 136.82C321.779 136.836 321.753 136.852 321.731 136.868C321.511 137.01 321.422 137.242 321.491 137.496C321.532 137.639 321.636 137.696 321.773 137.635C322 137.537 322.218 137.43 322.325 137.179C322.335 137.155 322.413 137.134 322.44 137.148C322.608 137.244 322.735 137.174 322.859 137.061C322.93 136.997 323.008 136.941 323.093 136.898C323.18 136.854 323.255 136.889 323.32 136.962C323.391 137.045 323.472 137.123 323.557 137.195C323.671 137.292 323.693 137.368 323.622 137.506C323.58 137.588 323.527 137.664 323.486 137.747C323.469 137.777 323.476 137.817 323.472 137.853C323.506 137.853 323.541 137.86 323.57 137.853C323.706 137.827 323.713 137.827 323.684 137.962C323.651 138.114 323.622 138.271 323.557 138.41C323.45 138.647 323.242 138.696 323.024 138.556C322.78 138.398 322.735 138.41 322.559 138.651C322.527 138.698 322.465 138.743 322.41 138.752C322.247 138.78 322.082 138.807 321.916 138.803C321.64 138.796 321.393 138.89 321.146 138.989C321.039 139.035 320.932 139.093 320.821 139.131C320.762 139.152 320.688 139.165 320.639 139.143C320.541 139.1 320.486 139.148 320.421 139.198C320.151 139.407 319.856 139.568 319.534 139.677C319.466 139.701 319.433 139.736 319.424 139.809C319.385 140.093 319.339 140.377 319.29 140.66C319.284 140.7 319.248 140.759 319.219 140.766C319.177 140.775 319.102 140.755 319.085 140.722C319.018 140.601 318.946 140.475 318.913 140.341C318.828 139.962 318.618 139.769 318.228 139.775C317.675 139.782 317.253 140.045 316.948 140.489C316.824 140.671 316.804 140.904 316.853 141.126C316.889 141.298 317.029 141.383 317.216 141.363C317.285 141.357 317.357 141.344 317.425 141.33C317.535 141.305 317.61 141.35 317.665 141.444C317.718 141.537 317.684 141.623 317.62 141.689C317.545 141.762 317.461 141.823 317.38 141.888C317.25 141.993 317.25 142.101 317.393 142.188C317.473 142.237 317.49 142.292 317.484 142.38C317.467 142.557 317.465 142.735 317.465 142.914C317.467 143.081 317.546 143.207 317.682 143.296C317.77 143.352 317.857 143.412 317.952 143.455C318.215 143.574 318.413 143.512 318.579 143.275C318.754 143.019 318.882 143.017 319.138 143.195C319.316 143.321 319.524 143.417 319.733 143.49C320.003 143.583 320.243 143.704 320.425 143.931C320.471 143.984 320.542 144.021 320.61 144.048C321.01 144.21 321.36 144.438 321.621 144.788C321.67 144.851 321.725 144.913 321.747 144.986C321.861 145.363 322.144 145.645 322.317 145.99C322.336 146.027 322.391 146.061 322.436 146.071C322.819 146.155 323.181 146.294 323.486 146.551C323.762 146.781 323.801 146.919 323.704 147.263C323.635 147.493 323.508 147.682 323.317 147.823C323.229 147.888 323.174 147.968 323.142 148.07C323.086 148.226 323.021 148.377 322.969 148.533C322.865 148.86 322.651 149.124 322.43 149.371C322.316 149.503 322.114 149.586 321.936 149.628C321.689 149.687 321.511 149.804 321.377 150.02C321.26 150.212 321.114 150.388 321 150.584C320.841 150.853 320.637 151.063 320.373 151.231C320.142 151.379 319.935 151.562 319.729 151.744C319.648 151.816 319.59 151.923 319.531 152.019C319.482 152.095 319.463 152.186 319.418 152.261C319.291 152.461 319.288 152.667 319.339 152.893C319.399 153.13 319.433 153.373 319.479 153.616C319.499 153.713 319.469 153.744 319.375 153.706C319.271 153.663 319.171 153.611 319.083 153.546C318.765 153.31 318.527 152.997 318.348 152.647C318.287 152.523 318.291 152.365 318.267 152.221C318.231 152.01 318.209 151.799 318.134 151.591C318.078 151.437 318.091 151.255 318.099 151.085C318.105 150.93 318.138 150.775 318.163 150.62C318.189 150.46 318.193 150.31 318.147 150.141C318.105 149.972 318.147 149.775 318.17 149.593C318.209 149.285 318.264 148.981 318.306 148.677C318.313 148.643 318.3 148.596 318.28 148.576C318.069 148.379 318.046 148.133 318.111 147.874C318.134 147.776 318.108 147.73 318.029 147.675C317.64 147.401 317.367 147.019 317.114 146.623C317.078 146.567 317.061 146.492 317.052 146.422C317.026 146.254 317.01 146.085 316.99 145.917C316.951 145.589 316.98 145.278 317.195 145.005C317.321 144.842 317.435 144.665 317.555 144.494C317.689 144.304 317.754 144.089 317.751 143.854C317.748 143.733 317.702 143.63 317.598 143.559C317.568 143.538 317.542 143.509 317.51 143.493C317.273 143.372 317.156 143.173 317.134 142.914C317.115 142.731 317.026 142.593 316.874 142.496C316.77 142.427 316.76 142.336 316.779 142.225C316.818 142.002 316.815 142.003 316.617 141.904C316.406 141.8 316.207 141.676 316.064 141.482C315.977 141.365 315.93 141.235 315.947 141.086C315.96 140.945 315.973 140.803 315.996 140.664C316.035 140.451 315.973 140.269 315.849 140.099C315.704 139.899 315.704 139.897 315.84 139.695C317.1 137.877 318.765 136.594 320.844 135.851C321.864 135.487 322.943 135.307 324.127 135.293C325.143 135.296 326.135 135.442 327.106 135.745C327.135 135.753 327.158 135.776 327.187 135.793L327.186 135.794ZM334.218 145.331C334.195 147.62 333.565 149.603 332.291 151.375C331.534 152.428 330.605 153.299 329.513 153.997C329.507 154.001 329.5 154.007 329.493 154.01C329.467 154.019 329.441 154.028 329.415 154.038C329.431 154.014 329.447 153.99 329.46 153.965C329.519 153.86 329.597 153.759 329.633 153.645C329.656 153.572 329.639 153.461 329.594 153.396C329.522 153.284 329.513 153.181 329.562 153.069C329.679 152.792 329.802 152.516 329.922 152.241C329.971 152.135 330.016 152.029 330.069 151.927C330.143 151.78 330.15 151.628 330.114 151.471C330.084 151.347 330.058 151.223 330.036 151.098C329.967 150.705 330.156 150.398 330.374 150.104C330.443 150.016 330.526 149.941 330.601 149.858C330.839 149.59 330.933 149.289 330.803 148.939C330.767 148.846 330.741 148.747 330.702 148.654C330.598 148.394 330.615 148.138 330.718 147.882C330.757 147.781 330.786 147.677 330.829 147.578C330.926 147.351 330.92 147.122 330.862 146.888C330.839 146.792 330.79 146.776 330.705 146.809C330.667 146.827 330.624 146.857 330.582 146.855C330.526 146.854 330.449 146.848 330.413 146.81C330.318 146.703 330.199 146.663 330.069 146.661C329.829 146.656 329.584 146.646 329.347 146.672C328.977 146.709 328.648 146.61 328.366 146.389C328.019 146.118 327.693 145.818 327.368 145.518C327.306 145.462 327.284 145.346 327.277 145.252C327.238 144.842 327.336 144.447 327.43 144.051C327.485 143.809 327.525 143.563 327.57 143.319C327.576 143.282 327.576 143.238 327.56 143.208C327.485 143.079 327.537 142.966 327.595 142.852C327.732 142.583 327.94 142.394 328.226 142.305C328.346 142.268 328.444 142.208 328.509 142.105C328.684 141.829 328.931 141.686 329.246 141.6C329.692 141.476 330.127 141.455 330.566 141.605C330.63 141.629 330.705 141.629 330.773 141.634C330.923 141.645 331.073 141.638 331.215 141.67C331.339 141.698 331.462 141.753 331.566 141.826C331.784 141.979 331.989 142.154 332.203 142.311C332.261 142.354 332.343 142.378 332.414 142.384C332.629 142.405 332.844 142.408 333.057 142.424C333.129 142.429 333.139 142.403 333.133 142.342C333.093 141.985 332.827 141.711 332.47 141.671C332.265 141.648 332.183 141.572 332.125 141.364C332.115 141.326 332.096 141.29 332.083 141.253C332.053 141.279 332.025 141.307 331.995 141.331C331.94 141.377 331.885 141.421 331.829 141.466C331.787 141.405 331.735 141.347 331.699 141.282C331.664 141.218 331.647 141.144 331.619 141.074C331.589 141.006 331.547 140.993 331.495 141.054C331.472 141.083 331.449 141.123 331.42 141.134C331.351 141.161 331.274 141.198 331.209 141.185C331.124 141.168 331.066 141.097 331.06 140.996C331.056 140.912 331.05 140.827 331.037 140.742C331.027 140.675 330.994 140.657 330.93 140.696C330.894 140.716 330.835 140.722 330.8 140.708C330.624 140.634 330.452 140.556 330.286 140.468C330.222 140.433 330.209 140.45 330.201 140.505C330.175 140.681 330.147 140.857 330.126 141.036C330.12 141.127 330.091 141.181 329.997 141.196C329.915 141.207 329.834 141.226 329.76 141.252C329.396 141.375 329.152 141.243 328.944 140.935C328.827 140.762 328.739 140.572 328.633 140.391C328.597 140.325 328.616 140.291 328.674 140.258C328.892 140.132 329.12 140.052 329.38 140.05C329.584 140.049 329.737 139.903 329.877 139.764C329.948 139.691 330.007 139.602 330.062 139.514C330.081 139.483 330.092 139.424 330.075 139.394C329.988 139.227 329.967 139.056 330.014 138.875C330.036 138.785 330.014 138.727 329.906 138.734C329.893 138.734 329.877 138.726 329.864 138.727C329.652 138.734 329.503 138.653 329.425 138.444C329.393 138.352 329.295 138.345 329.218 138.348C329.006 138.355 328.895 138.227 328.867 138.045C328.831 137.819 328.828 137.587 328.821 137.357C328.818 137.329 328.873 137.281 328.908 137.274C329.019 137.252 329.13 137.244 329.24 137.235C329.397 137.224 329.487 137.146 329.514 136.992C329.529 136.9 329.559 136.893 329.637 136.945C331.16 137.957 332.337 139.278 333.159 140.921C333.721 142.046 334.053 143.236 334.17 144.489C334.199 144.804 334.209 145.121 334.219 145.332L334.218 145.331ZM304.894 173.046C304.894 171.759 304.573 170.303 303.935 168.673C303.295 167.044 302.038 165.694 300.163 164.621C298.285 163.55 296.537 163.013 294.918 163.013C290.655 163.013 287.119 165.159 284.305 169.445C282.261 172.532 281.065 175.833 280.725 179.348V163.014L256.047 164.944V166.102C261.5 166.102 264.996 166.319 266.53 166.747C267.044 166.921 267.596 167.439 268.194 168.304C268.536 168.738 268.704 169.817 268.704 171.546V211.722C268.704 213.795 268.451 215.05 267.937 215.481C266.487 215.999 264.762 216.344 262.761 216.518C260.756 216.69 258.517 216.776 256.048 216.776V217.933H293.385V216.776C287.759 216.776 284.052 216.475 282.261 215.871C281.663 215.615 281.28 215.356 281.108 215.096C280.855 214.579 280.725 213.461 280.725 211.736V187.695C280.725 180.372 282.339 174.382 285.566 169.729C288.025 166.112 290.49 164.3 292.949 164.3C295.497 164.3 297.024 165.201 297.534 167.002C295.984 166.66 294.629 167.258 293.466 168.802C292.302 170.345 291.724 171.889 291.724 173.433C291.724 175.834 292.325 177.635 293.531 178.835C294.736 180.036 296.199 180.635 297.921 180.635C299.039 180.635 299.942 180.464 300.631 180.12C303.475 178.835 304.895 176.477 304.895 173.047L304.894 173.046ZM244.556 182.557C239.796 177.927 232.315 174.967 222.116 173.681C231.799 172.224 238.383 169.738 241.866 166.223C244.501 163.65 245.817 159.794 245.817 154.65C245.817 150.449 243.643 146.378 239.295 142.432C233.84 137.461 226.508 134.975 217.302 134.975H165V136.132C173.355 136.132 178.766 136.607 181.242 137.552C182.178 137.898 182.73 138.241 182.902 138.585C183.243 139.274 183.416 140.822 183.416 143.228V209.422C183.416 211.916 183.243 213.486 182.902 214.13C182.561 214.778 181.963 215.272 181.112 215.614C179.321 216.303 173.953 216.647 165 216.647V217.933H224.591C232.263 217.933 238.655 215.489 243.77 210.6C248.202 206.4 250.421 201.895 250.421 197.094C250.421 191.177 248.465 186.331 244.555 182.557H244.556ZM210.988 173.174H199.144V143.256C199.144 140.752 199.248 139.071 199.462 138.206C199.674 137.342 200.204 136.781 201.055 136.522C201.9 136.264 203.216 136.132 205.003 136.132H211.112C217.992 136.132 222.873 137.601 225.758 140.536C228.644 143.472 230.09 148.567 230.09 155.819C230.09 162.296 228.306 166.917 224.741 169.678C221.768 172.008 217.182 173.174 210.989 173.174H210.988ZM234.181 197.166C234.181 203.186 232.809 207.875 230.073 211.23C227.077 214.927 222.544 216.775 216.471 216.775C210.651 216.775 206.949 216.734 205.367 216.647C203.784 216.562 202.501 216.325 201.517 215.937C200.536 215.551 199.892 215.012 199.593 214.326C199.294 213.639 199.145 212.002 199.145 209.422V174.332H214.287C220.962 174.332 226.009 176.44 229.431 180.654C232.596 184.525 234.181 190.027 234.181 197.165V197.166ZM425.875 237.119L419.964 245.766H429.067V240.645H428.874C428.651 242.473 428.182 243.8 427.47 244.626C426.955 245.241 426.327 245.548 425.583 245.548H423.162C422.824 245.548 422.655 245.516 422.655 245.451C422.655 245.403 422.918 244.992 423.452 244.217L429.476 235.449H421.238V239.846H421.404C421.693 238.032 422.161 236.841 422.818 236.274C423.263 235.884 424.052 235.691 425.183 235.691H426.139C426.522 235.691 426.714 235.732 426.714 235.812L425.875 237.119H425.875ZM429.235 230.617C430.197 230.617 430.812 230.658 431.084 230.738C431.182 230.77 431.276 230.852 431.373 230.98C431.471 231.11 431.517 231.335 431.517 231.657V245.984H431.709L432.742 244.114C433.271 244.865 433.772 245.364 434.243 245.612C434.717 245.859 435.442 245.984 436.417 245.984C437.489 245.984 438.438 245.464 439.264 244.425C440.089 243.386 440.502 242.133 440.502 240.667C440.502 239.525 440.18 238.437 439.54 237.407C438.724 236.102 437.596 235.449 436.154 235.449C435.514 235.449 434.957 235.774 434.483 236.424C434.012 237.075 433.774 237.768 433.774 238.507V229.989L429.235 230.399V230.617H429.235ZM433.775 240.522C433.775 238.951 434.032 237.722 434.545 236.832C434.978 236.071 435.514 235.69 436.154 235.69C436.745 235.69 437.203 236.071 437.522 236.832C437.843 237.593 438.003 238.879 438.003 240.692C438.003 242.213 437.86 243.439 437.571 244.37C437.282 245.3 436.81 245.765 436.154 245.765C435.481 245.765 434.968 245.588 434.617 245.231C434.055 244.664 433.775 243.62 433.775 242.1V240.522ZM442.974 236.826C441.95 237.889 441.438 239.267 441.438 240.957C441.438 242.52 441.957 243.784 443.001 244.75C443.881 245.573 444.856 245.984 445.928 245.984C447.212 245.984 448.235 245.597 449.005 244.823C449.773 244.05 450.156 243.06 450.156 241.852H449.964C449.964 243.1 449.558 244.087 448.739 244.817C448.067 245.418 447.289 245.717 446.409 245.717C445.577 245.717 444.956 245.329 444.547 244.551C444.141 243.775 443.936 242.52 443.936 240.788H450.11C450.11 238.743 449.603 237.27 448.596 236.367C447.907 235.755 447.042 235.449 446.002 235.449C444.881 235.449 443.871 235.907 442.974 236.826H442.974ZM443.937 240.499C443.937 238.855 444.115 237.643 444.469 236.862C444.826 236.081 445.441 235.69 446.312 235.69C446.93 235.69 447.374 236.102 447.651 236.923C447.93 237.744 448.067 238.937 448.067 240.499H443.937ZM452.847 245.378C452.512 245.492 451.862 245.548 450.9 245.548V245.765H457.101V245.548C456.905 245.548 456.658 245.532 456.353 245.499C456.051 245.467 455.84 245.427 455.719 245.377C455.599 245.33 455.521 245.28 455.488 245.232C455.443 245.134 455.417 244.924 455.417 244.601V241.416L456.69 240.112L458.949 244.626C459.076 244.884 459.141 245.062 459.141 245.158C459.141 245.369 458.998 245.488 458.709 245.511C458.42 245.537 458.013 245.548 457.484 245.548V245.765H463.343V245.548C462.735 245.548 462.299 245.496 462.036 245.39C461.77 245.285 461.552 245.054 461.373 244.698L458.299 238.531L459.787 237.051C460.382 236.5 460.85 236.136 461.195 235.957C461.539 235.78 462.014 235.69 462.624 235.69V235.449H457.122V235.69C457.811 235.69 458.325 235.776 458.66 235.947C458.998 236.117 459.164 236.356 459.164 236.666C459.164 237.041 458.923 237.463 458.445 237.934L455.416 240.982V229.989L450.926 230.4V230.618C451.887 230.618 452.495 230.659 452.752 230.738C452.83 230.755 452.917 230.831 453.015 230.97C453.113 231.106 453.158 231.336 453.158 231.661V244.603C453.158 244.991 453.112 245.225 453.015 245.306L452.846 245.378H452.847ZM467.863 232.309C468.116 232.051 468.242 231.729 468.242 231.342C468.242 230.955 468.116 230.634 467.863 230.375C467.61 230.118 467.291 229.989 466.91 229.989C466.53 229.989 466.212 230.118 465.958 230.375C465.704 230.634 465.578 230.955 465.578 231.342C465.578 231.729 465.704 232.05 465.958 232.309C466.212 232.567 466.53 232.695 466.91 232.695C467.291 232.695 467.61 232.567 467.863 232.309ZM468.172 235.449L463.537 235.836V236.053C464.562 236.053 465.217 236.094 465.507 236.174C465.601 236.208 465.705 236.305 465.819 236.467C465.881 236.548 465.913 236.742 465.913 237.052V244.599C465.913 244.988 465.868 245.224 465.77 245.305C465.498 245.401 465.172 245.467 464.798 245.499C464.422 245.532 463.999 245.548 463.537 245.548V245.765H470.55V245.548C469.495 245.548 468.796 245.491 468.461 245.378C468.347 245.33 468.276 245.282 468.243 245.232C468.198 245.136 468.172 244.925 468.172 244.601V235.449H468.172ZM479.366 236.198V236.416H481.287V243.277C481.287 244.147 481.51 244.816 481.959 245.283C482.408 245.75 483.113 245.984 484.075 245.984C485.082 245.984 485.762 245.692 486.115 245.113C486.372 244.694 486.5 243.922 486.5 242.793C486.483 242.456 486.476 242.101 486.476 241.73V240.62H486.187V241.773C486.187 243.12 486.115 244.033 485.976 244.515C485.771 245.221 485.345 245.573 484.702 245.573C484.15 245.573 483.795 245.267 483.639 244.655C483.578 244.399 483.545 243.837 483.545 242.969V236.416H486.307V235.715H483.545V230.618H483.136C483.136 231.83 482.869 232.923 482.333 233.894C481.67 235.107 480.679 235.875 479.367 236.199L479.366 236.198ZM488.416 241.314C487.747 241.911 487.412 242.645 487.412 243.516C487.412 244.401 487.757 245.064 488.446 245.498C488.942 245.822 489.524 245.984 490.197 245.984C490.869 245.984 491.406 245.903 491.809 245.743C492.482 245.472 492.986 244.945 493.32 244.162C493.45 244.85 493.717 245.336 494.119 245.623C494.457 245.863 494.97 245.984 495.663 245.984C496.55 245.984 497.138 245.782 497.427 245.378C497.652 245.057 497.765 244.428 497.765 243.494C497.749 243.189 497.743 242.867 497.743 242.528V241.465H497.454V241.681C497.454 241.921 497.457 242.154 497.467 242.378C497.473 242.601 497.476 242.826 497.476 243.049C497.476 243.866 497.405 244.491 497.262 244.924C497.116 245.355 496.836 245.572 496.42 245.572C495.955 245.572 495.666 245.299 495.555 244.752C495.507 244.528 495.484 243.932 495.484 242.969V237.642C495.484 237.032 495.212 236.525 494.666 236.125C494.058 235.674 493.161 235.448 491.975 235.448C491.318 235.448 490.672 235.554 490.031 235.763C489.135 236.052 488.572 236.512 488.348 237.139C488.255 237.43 488.206 237.689 488.206 237.913C488.206 238.38 488.44 238.767 488.907 239.072C489.069 239.186 489.255 239.242 489.466 239.242C489.791 239.242 490.073 239.129 490.314 238.904C490.558 238.677 490.678 238.388 490.678 238.034C490.678 237.727 490.584 237.453 490.392 237.213C490.197 236.97 489.95 236.849 489.644 236.849C489.55 236.849 489.469 236.859 489.407 236.874C489.534 236.512 489.807 236.225 490.22 236.011C490.635 235.798 491.119 235.69 491.669 235.69C492.345 235.69 492.787 235.804 492.991 236.031C493.193 236.257 493.297 236.694 493.297 237.341V238.749C493.297 239.362 493.128 239.757 492.793 239.934C492.458 240.111 491.815 240.242 490.856 240.322C489.901 240.402 489.086 240.733 488.416 241.314L488.416 241.314ZM489.693 243.338C489.693 242.463 489.852 241.784 490.174 241.299C490.447 240.894 490.814 240.635 491.279 240.522C491.63 240.473 491.998 240.421 492.371 240.363C492.747 240.307 493.034 240.149 493.226 239.891V243.12C493.226 243.847 492.981 244.467 492.492 244.978C492.004 245.488 491.454 245.741 490.847 245.741C490.447 245.741 490.155 245.575 489.969 245.245C489.788 244.912 489.693 244.277 489.693 243.338V243.338Z" fill="white"/>
</g>
</svg>
