<svg width="17" height="16" viewBox="0 0 17 16" fill="none" xmlns="http://www.w3.org/2000/svg">
<g clip-path="url(#clip0_2285_18207)">
<path d="M8.00781 16C12.4261 16 16.0078 12.4183 16.0078 8C16.0078 3.58172 12.4261 0 8.00781 0C3.58953 0 0.0078125 3.58172 0.0078125 8C0.0078125 12.4183 3.58953 16 8.00781 16Z" fill="url(#paint0_linear_2285_18207)"/>
<path d="M5.42188 8.58479L6.37101 11.2119C6.37101 11.2119 6.48968 11.4577 6.61674 11.4577C6.74381 11.4577 8.63374 9.49152 8.63374 9.49152L10.7354 5.43219L5.45574 7.90666L5.42188 8.58479Z" fill="#C8DAEA"/>
<path d="M6.68148 9.25854L6.49928 11.1949C6.49928 11.1949 6.42302 11.7883 7.01622 11.1949C7.60942 10.6016 8.17722 10.1441 8.17722 10.1441" fill="#A9C6D8"/>
<path d="M5.44191 8.67854L3.48951 8.0424C3.48951 8.0424 3.25618 7.94774 3.33131 7.73307C3.34678 7.6888 3.37798 7.65114 3.47131 7.5864C3.90391 7.28487 11.4784 4.5624 11.4784 4.5624C11.4784 4.5624 11.6922 4.49034 11.8184 4.53827C11.8496 4.54793 11.8777 4.5657 11.8997 4.58978C11.9218 4.61385 11.9371 4.64335 11.944 4.67527C11.9577 4.73165 11.9634 4.78965 11.961 4.8476C11.9604 4.89774 11.9543 4.9442 11.9497 5.01707C11.9036 5.7614 10.523 11.3166 10.523 11.3166C10.523 11.3166 10.4404 11.6417 10.1445 11.6528C10.0718 11.6552 9.99933 11.6428 9.93147 11.6166C9.86361 11.5903 9.80173 11.5507 9.74951 11.5C9.16878 11.0005 7.16158 9.65154 6.71805 9.35487C6.70804 9.34805 6.69962 9.33917 6.69334 9.32882C6.68706 9.31847 6.68307 9.30689 6.68165 9.29487C6.67545 9.2636 6.70945 9.22487 6.70945 9.22487C6.70945 9.22487 10.2045 6.1182 10.2975 5.79207C10.3047 5.7668 10.2775 5.75434 10.241 5.7654C10.0088 5.8508 5.98471 8.39207 5.54058 8.67254C5.50861 8.68221 5.47482 8.68426 5.44191 8.67854Z" fill="white"/>
</g>
<defs>
<linearGradient id="paint0_linear_2285_18207" x1="8.00781" y1="16" x2="8.00781" y2="0" gradientUnits="userSpaceOnUse">
<stop stop-color="#1D93D2"/>
<stop offset="1" stop-color="#38B0E3"/>
</linearGradient>
<clipPath id="clip0_2285_18207">
<rect width="16" height="16" fill="white" transform="translate(0.0078125)"/>
</clipPath>
</defs>
</svg>
