<svg width="20" height="16" viewBox="0 0 20 16" fill="none" xmlns="http://www.w3.org/2000/svg">
<g clip-path="url(#clip0_2285_18193)">
<path d="M17.4153 4.02274C17.4271 4.19293 17.4271 4.36313 17.4271 4.53489C17.4271 9.76862 13.4428 15.8047 6.15731 15.8047V15.8016C4.00515 15.8047 1.8977 15.1882 0.0859375 14.0259C0.398879 14.0635 0.713388 14.0823 1.02868 14.0831C2.81221 14.0847 4.54476 13.4863 5.9479 12.3843C4.253 12.3521 2.76672 11.247 2.24751 9.63372C2.84123 9.74823 3.453 9.7247 4.03574 9.56548C2.1879 9.19215 0.858487 7.56862 0.858487 5.68313V5.63293C1.40907 5.9396 2.02555 6.10979 2.65613 6.12862C0.915741 4.96548 0.379271 2.65019 1.43025 0.83999C3.44123 3.3145 6.40829 4.81881 9.59339 4.97803C9.27417 3.60234 9.71025 2.16077 10.7393 1.19372C12.3346 -0.305892 14.8436 -0.229029 16.3432 1.36548C17.2303 1.19058 18.0804 0.865088 18.8585 0.403912C18.5628 1.32077 17.944 2.0996 17.1173 2.5945C17.9024 2.50195 18.6695 2.29175 19.3918 1.97097C18.8601 2.76783 18.1902 3.46195 17.4153 4.02274Z" fill="#1D9BF0"/>
</g>
<defs>
<clipPath id="clip0_2285_18193">
<rect width="19.451" height="16" fill="white" transform="translate(0.0078125)"/>
</clipPath>
</defs>
</svg>
