<svg width="21" height="14" viewBox="0 0 21 14" fill="none" xmlns="http://www.w3.org/2000/svg">
<g clip-path="url(#clip0_2285_18204)">
<path d="M19.8289 2.22727C19.6 1.37073 18.9396 0.699998 18.0931 0.470907C16.956 0.0267252 5.94212 -0.190911 2.74715 0.483634C1.90061 0.715271 1.23771 1.38345 1.0113 2.24C0.49809 4.51818 0.459097 9.44363 1.02388 11.7727C1.25281 12.6293 1.91318 13.3 2.75973 13.5291C5.0113 14.0535 15.7157 14.1273 18.1056 13.5291C18.9522 13.2975 19.6151 12.6293 19.8415 11.7727C20.3887 9.29091 20.4276 4.67091 19.8289 2.22727Z" fill="#FF0000"/>
<path d="M13.6633 7L8.53125 4.02182V9.97818L13.6633 7Z" fill="white"/>
</g>
<defs>
<clipPath id="clip0_2285_18204">
<rect width="20" height="14" fill="white" transform="translate(0.457031)"/>
</clipPath>
</defs>
</svg>
