<svg width="34" height="33" fill="none" xmlns="http://www.w3.org/2000/svg"><path d="M20.116.566a15.66 15.66 0 0 0-1.36-.184c-.162-.01-.111.044.071.085.087.015.153.045.148.064-.016.058-.221.073-.375.031-.142-.038-.241-.142-.173-.182.05-.032-.053-.047-.149-.027-.044.013-.087.034-.092.053-.01.035.222.183.41.262.182.074.197.11.025.064-.173-.046-.41-.023-.31.033.037.018.09.02.12.003a.161.161 0 0 1 .106-.017c.046.013.043.024-.007.06-.035.023-.116.03-.177.014a.682.682 0 0 0-.273.005c-.108.02-.285.006-.561-.052-.41-.085-.529-.129-.468-.187.021-.019 0-.032-.062-.029-.074.001-.085-.006-.03-.024a.174.174 0 0 1 .135.016c.046.028.06.024.048-.012-.01-.04.003-.04.056-.01.06.04.074.032.08-.036.008-.092.026-.096.258-.075.104.012.145.027.123.05-.022.018.05.025.152.016.106-.013.207-.04.227-.067.02-.027.014-.037-.025-.027-.122.041-.323.037-.364-.007-.032-.038-.026-.044.024-.03.035.008.077.003.094-.013.11-.102-2.094.019-3.058.168-3.98.61-7.729 2.821-10.258 6.045-.58.737-1.137 1.59-1.234 1.89-.33 1.033-.306.99-.47 1.016a.243.243 0 0 0-.159.134c-.05.098-.048.135.002.207.066.091.066.091-.113.528-.208.504-.525 1.41-.628 1.793-.063.234-.083.266-.186.312-.097.04-.125.082-.171.254-.049.18-.046.218.031.313.088.102.087.122-.005.648-.09.506-.232 1.739-.21 1.814.007.019-.044.07-.113.114a.357.357 0 0 0-.16.196l-.027.116.113-.085a.448.448 0 0 1 .14-.074c.022.007.016.367-.006.451-.02.073-.094.012-.173-.137-.065-.128-.082-.14-.098-.08-.01.039.04.172.117.3.128.214.133.24.127.753 0 .295.01.804.032 1.139.024.372.02.618-.009.63-.143.09-.116.512.058.768.062.091.136.337.2.666.098.508.324 1.415.407 1.655a.4.4 0 0 1 .023.192.299.299 0 0 0 .012.155c.031.082.035.083.08.025.021-.035.03-.086.018-.114-.016-.033.009-.096.07-.17l.093-.12.051.134.27.648c.122.283.215.518.206.523-.025.014-.349-.266-.44-.385a1.087 1.087 0 0 1-.155-.325c-.032-.111-.067-.195-.078-.185-.015.008-.002.069.02.14.026.07.035.146.02.17-.014.021.007.08.048.128.044.05.122.206.176.356.054.15.113.285.132.307.02.017-.006-.072-.054-.2l-.09-.233.282.252c.236.211.32.324.55.743l.272.5-.072.286c-.064.238-.064.3-.014.39l.062.108-.006-.15c-.003-.157.103-.429.155-.394.067.043.605.996.634 1.12.014.069.038.117.053.108.014-.008.012-.046-.005-.088-.02-.037-.016-.065.007-.06.035.01.286.5.275.54-.008.03-.333-.214-.588-.442-.127-.112-.227-.184-.218-.153.018.054.666.626.735.645.023.006.058.044.077.082.018.038.048.066.066.059.023-.006.046.012.055.04.008.034.003.037-.02.014-.023-.022-.042-.027-.047-.008-.013.062.055.18.161.273.056.052.105.131.11.17.002.041.07.158.146.257.08.1.194.274.254.384.098.187.197.296.162.18-.019-.067.035-.04.088.04.026.04.18.2.339.361.163.16.252.27.202.244-.05-.026 0 .029.11.128.11.095.227.18.26.193.122.037.55.345.72.522.182.192.876.81.922.822.012.004-.062-.09-.167-.205-.16-.183-.274-.39-.226-.414.014-.008.171.067 1.042.485.164.077.341.153.39.166.055.015.097.055.102.085.004.046-.01.05-.052.023-.084-.055.055.118.155.19.174.133-.064.024-.323-.145-.147-.096-.285-.166-.31-.16-.064.02.007.14.095.165a.11.11 0 0 1 .075.102c0 .045.018.087.041.093.065.018.404.318.379.336-.043.021-.25-.096-.239-.138.005-.02-.063-.054-.152-.078-.123-.029-.152-.028-.113.01.09.091 1.176.674 1.505.811.175.068.5.204.722.297.226.093.794.307 1.264.47.743.265.954.321 1.605.454.9.184 1.507.269 2.287.317.663.042.997.037 1.837-.03.69-.053.815-.077.76-.137-.029-.028-.02-.043.03-.046.038-.006.053.002.035.022-.076.07.152.032.681-.117.192-.056.424-.096.519-.096.308 0 .908-.044 1.028-.078.066-.015.09-.03.056-.026-.032 0-.267.015-.518.03-.25.015-.476.012-.503-.008-.024-.018-.11-.017-.191.007-.16.047-.288.03-.258-.036.016-.029-.019-.05-.113-.068-.177-.03-.154-.04.232-.098a18.2 18.2 0 0 0 .747-.133c.23-.049.42-.08.418-.073-.003.012-.19.093-.42.184-.226.095-.405.179-.4.189.014.028.342-.094.8-.296.354-.156 1.288-.452 1.361-.433.039.01-.01.178-.083.278-.033.049-.139.136-.23.198l-.166.115.195-.083c.218-.094.452-.335.46-.486.005-.084.046-.114.263-.188.14-.048.387-.093.546-.104.493-.029 1.342-.192 1.31-.254-.01-.01-.09 0-.189.028-.197.062-.626.128-.957.15l-.23.017.123-.062c.066-.031.286-.129.49-.214.2-.086.58-.264.842-.399.5-.256.541-.254.471.007a.389.389 0 0 1-.169.23c-.07.051-.102.092-.068.089a.58.58 0 0 0 .184-.107c.1-.08.138-.144.19-.34l.068-.236.343-.209c.19-.11.432-.262.538-.336.166-.112.758-.295.74-.23-.008.031-.613.494-.951.728-.166.112-.25.184-.193.154.127-.06.85-.578 1.138-.813.11-.09.283-.196.386-.242.102-.043.18-.092.172-.106-.008-.015-.05-.01-.097.01-.07.031-.074.03-.03-.012a1.67 1.67 0 0 1 .152-.136c.054-.05.096-.097.087-.112-.004-.014-.108.066-.222.17a.972.972 0 0 1-.45.254c-.13.035-.24.051-.249.036-.008-.014.146-.145.341-.29.195-.146.413-.313.478-.37.143-.122.214-.095.176.064-.063.279-.064.27.023.203a.315.315 0 0 0 .101-.145c.012-.046.219-.28.454-.512.236-.237.583-.612.774-.833.244-.284.388-.422.499-.466.223-.097.456-.306.488-.441a.88.88 0 0 0 .016-.259c-.013-.135 0-.156.304-.46.396-.405.515-.57.792-1.084.146-.269.28-.46.385-.563.191-.175.277-.402.207-.54-.038-.072-.029-.123.053-.307.052-.117.202-.476.335-.79.13-.315.272-.63.31-.698.04-.071.124-.246.19-.397.063-.148.157-.312.203-.361a.337.337 0 0 0 .105-.223c.004-.077.108-.526.227-1.004.19-.767.32-1.513.325-1.886l.003-.102-.053.089-.048.09v-.095c0-.061.018-.098.056-.1.067-.007.076-.239.012-.322-.025-.03-.015-.16.032-.349.169-.707.036-2.621-.289-4.139-.388-1.818-.993-3.353-1.977-5.02-1.21-2.038-2.865-3.789-4.774-5.044-.572-.38-.862-.527-.881-.454-.008.027-.026.034-.042.017-.015-.02-.041-.015-.054.002-.035.053-.47-.04-.546-.11-.036-.033-.297-.149-.584-.258-.679-.26-.768-.325-.36-.257.366.065.638.047.565-.034-.066-.075-.168-.094-.207-.043-.02.028-.164.03-.36.01-.284-.03-.329-.046-.354-.106a.403.403 0 0 0-.178-.134c-.138-.066-.143-.064-.085.014.114.154-.045.058-.343-.211-.162-.147-.34-.277-.4-.288-.104-.024-.104-.024.004.033.06.033.19.134.289.226.1.088.215.193.255.229.044.036.074.077.07.092-.003.012-.158-.01-.344-.05-.299-.068-.358-.093-.489-.218l-.148-.138.089.13.088.13-.42-.116c-.231-.062-.374-.112-.31-.104.111.014.17-.049.07-.076-.093-.024-.04-.117.082-.138.09-.013.106-.029.08-.085-.026-.056-.019-.067.04-.055.06.016.06.007-.005-.043-.045-.032-.063-.074-.046-.09.044-.042-1.063-.33-1.748-.46zm1.394.858c.007.023-.022.036-.064.024-.046-.012-.075-.04-.07-.06.006-.023.033-.032.064-.023.03.008.065.033.07.06zm1.862.693c.06.082.105.16.104.18-.005.019-.11-.005-.236-.055a6.012 6.012 0 0 0-.373-.125.412.412 0 0 1-.23-.156l-.089-.115.18.024c.409.052.527.1.644.247zm.179-.022c.017.058-.071.034-.134-.036-.038-.043-.032-.05.037-.032.046.013.091.041.097.068zm-1.015-.17.08.129-.225-.081a3.406 3.406 0 0 0-.75-.205c-.26-.045-.301-.06-.309-.124-.002-.038.006-.085.027-.1.017-.016.27.036.562.114.517.138.536.147.614.267zm-1.419-.339c-.012.046-.08.04-.406-.047-.41-.11-.461-.152-.138-.115.371.042.562.097.544.162zm-.06.223c-.034.13-.131.186-.325.188-.115-.002-.181.017-.193.06-.013.05-.054.047-.28-.03-.142-.05-.255-.077-.25-.06.006.019-.02.04-.058.043-.113.01-.145-.01-.104-.07.038-.05.008-.063-.273-.118-.172-.033-.31-.07-.307-.082a.968.968 0 0 1 .17-.14c.267-.2.42-.207 1.08-.03.564.15.564.15.54.239zm1.397.296c-.042.021-.585-.103-.575-.138.004-.015.138.004.303.049.162.043.282.083.272.089zm.286.101c.008.031-.02.028-.089-.007-.136-.074-.146-.097-.024-.064.054.014.106.049.113.071zm.268.072c-.016.016-.056.026-.087.018-.03-.008-.06-.037-.066-.059-.01-.027.03-.033.087-.018.057.016.088.04.066.06zm.46.144a.327.327 0 0 1-.173.015.327.327 0 0 1-.142-.1c-.052-.067-.04-.068.171-.011.211.056.222.063.143.096zM16.284.518c-.016.016-.064.024-.097.01-.054-.014-.048-.02.02-.03.116-.015.116-.015.077.02zm5.163 1.416c.03.028-.124.14-.178.125-.015-.004-.017-.058 0-.123.03-.111.067-.11.178-.002zM17.73.987c-.018.098-.05.098-.777-.048-.573-.116-.687-.15-.527-.162.04 0 .116-.005.164-.013.353-.045.436-.035.826.06.304.078.329.093.314.163zm1.814.474a.562.562 0 0 1-.215.065c-.094.012-.133.035-.111.061.109.116-.489.243-.773.167-.096-.025-.096-.025.067-.11.086-.046.243-.094.342-.11a.65.65 0 0 0 .254-.087c.038-.035.155-.057.253-.056.256.011.26.012.183.07zm3.333 1.016c.03.058.031.083-.003.086-.054.002-.14-.104-.127-.154.014-.053.075-.02.13.068zM15.418.532c-.016.016-.06.025-.09.017-.031-.008-.042-.032-.025-.048.018-.02.06-.025.09-.017.032.009.043.028.025.048zm1.996 1.036c-.034.049-.205.028-.191-.022.007-.027.087-.034.183-.025.02.005.022.026.008.047zm.222.076c-.014.009-.05.003-.074-.015-.027-.02-.013-.028.03-.017.043.007.063.025.044.032zm.285.134c-.035.053-.028.075.022.088.053.015.054.027.01.052-.034.02-.062.05-.066.065-.013.046.274.065.396.024a.255.255 0 0 1 .178.01c.05.03.111.03.164.003.047-.024.082-.031.078-.016-.011.043-.335.317-.415.354-.093.04-.985-.19-.97-.248.006-.023.04-.043.074-.046.035-.007.07-.03.077-.057.02-.077.377-.331.438-.315.042.012.044.037.014.086zm-.709-.025.192.051-.173.139c-.193.154-.347.162-.266.01.048-.085.041-.09-.104-.13-.085-.023-.15-.056-.145-.076.015-.053.21-.108.259-.074.028.016.134.052.237.08zm1.467.524c-.034.02-.054.019-.048-.004.015-.054.073-.088.093-.054.004.014-.015.042-.045.058zm-.514.2c-.003.011-.137.16-.302.33l-.294.316-.518-.139-.514-.138.153-.156c.084-.084.227-.219.315-.302l.164-.15.314.069c.174.042.4.09.504.114.101.023.18.048.178.056zm.824.348c.08.103.152.168.174.15.049-.045.277.024.316.092.028.049.047.054.082.018.032-.028.052-.027.06.008.008.027.057.06.107.074.061.016.098.063.116.163.037.17.028.204-.049.184-.034-.01-.06.008-.054.035a.19.19 0 0 1-.05.11c-.047.053-.134.038-.985-.19-.51-.137-.938-.26-.947-.275-.014-.024.303-.391.496-.574.11-.102.122-.103.352-.041.219.058.257.085.382.246zm1.1.237c.109.116.199.132.188.034-.003-.034.032-.04.1-.018.25.079.242.06.165.348-.065.242-.08.267-.145.25-.06-.017-.31-.33-.372-.467a.578.578 0 0 0-.079-.09c-.075-.074-.081-.203-.008-.184a.535.535 0 0 1 .15.127zm-3.478-.599-.318.297-.452-.137c-.253-.072-.472-.16-.49-.185-.083-.117.1-.372.207-.294.027.02.105.037.171.034.07.002.135.02.15.044.013.024.068.018.135-.017a.32.32 0 0 1 .236-.02.481.481 0 0 0 .28-.015.5.5 0 0 1 .274-.029l.124.029-.317.293zm-1.595-.661c-.008.03-.03.053-.053.047-.02-.005-.035-.026-.03-.045.006-.02-.018-.054-.05-.071-.04-.023-.022-.026.044-.013.07.015.1.043.09.082zm.29.098c-.008.047-.035.073-.07.063-.077-.02-.132.064-.107.169.016.066-.001.098-.092.144-.173.093-.225.042-.07-.073L15.1 2.1l-.085-.097-.086-.093.096-.007c.056-.01.086-.03.078-.061-.008-.031-.002-.038.02-.015.02.017.048.02.07.002.06-.054.13-.01.112.071zm6.127 1.794c.01.019.177.076.371.132.35.094.357.096.576.335.383.415.426.406-.66.115l-.966-.259.063-.205.063-.205.128.06c.085.034.121.04.11.004-.02-.067.275-.046.315.023zM14.69 1.94a.313.313 0 0 1-.143-.002c-.06-.02-.06-.024.028-.03.146-.005.196.008.115.032zm.484.417c.007.022-.014.038-.048.028-.035-.009-.045-.032-.028-.048.018-.02.04-.03.048-.028.008.002.023.022.028.048zm-.797.062c-.1.035-.32.12-.49.185-.167.07-.341.14-.39.155-.068.023-.028.042.217.107l.295.083-.192.163c-.346.294-.29.284-.83.139-.433-.12-.474-.135-.396-.168a.34.34 0 0 1 .177-.014c.046.012.11.001.146-.023.035-.023.05-.048.03-.053-.015-.004-.006-.022.028-.042.146-.084.054-.092-.152-.016-.151.058-.27.075-.355.053-.219-.059-.248-.24-.052-.343.09-.046.093-.057.036-.073-.1-.026-.025-.076.104-.066.178.01.301-.051.261-.132-.023-.051-.011-.08.048-.13.07-.06.126-.057.513.034.382.09.466.1.675.057.13-.026.3-.03.374-.014l.134.035-.181.063zm.385.02c-.01.04-.313.217-.355.206-.016-.004-.014-.024.007-.043.024-.027.006-.036-.06-.033-.125.004-.072-.027.168-.107.197-.062.252-.068.24-.022zm.597.198c.03.073.198.21.233.186.02-.011-.002-.038-.044-.066-.175-.096-.041-.105.289-.017.199.054.337.107.324.124-.01.022-.205.245-.433.497l-.412.465-.81-.2a26.04 26.04 0 0 1-.82-.212c-.006-.006.078-.09.19-.188.174-.155.388-.25.496-.22.023.006.09-.013.155-.041.065-.028.097-.056.07-.064-.035-.009-.02-.03.04-.071.08-.053.082-.06.028-.075-.1-.027-.055-.101.121-.206.148-.092.168-.09.356-.024.113.039.21.09.217.112zm2.109.598c-.002.007-.125.16-.27.334-.151.178-.31.386-.36.467l-.087.141-.257-.069a9.714 9.714 0 0 0-.555-.123c-.22-.039-.3-.064-.29-.099.006-.023.185-.246.395-.494l.388-.451.518.139c.288.077.52.147.518.155zm1.616.458c.652.174.682.186.64.25-.03.049-.016.077.072.117.079.042.102.077.087.134-.013.05.014.103.065.141.051.039.078.091.066.137-.011.042.014.119.056.175.057.077.066.137.033.26l-.042.157-1.554-.416c-.855-.23-1.55-.428-1.547-.44.01-.034.33-.462.532-.712l.19-.233.361.126c.197.065.665.203 1.041.304zm3.929 1.126c.028.049.016.062-.057.059-.05.003-.098.027-.106.058-.008.03-.028.042-.044.025-.015-.02-.041-.015-.056.01-.02.027-.06.008-.13-.064-.101-.1-.105-.102-.205-.05-.114.055-.243.016-.289-.09-.023-.052-.047.008-.119.276-.148.552-.075.527-.843.309l-.657-.189.125-.513.126-.513 1.109.31c.838.232 1.118.324 1.146.372zM12.565 2.28c-.047.04-.507.114-.527.08-.011-.02.508-.13.55-.12.008.003-.005.02-.023.04zm9.779 3.03c.02.06.036.171.03.24-.012.123-.018.13-.126.101-.119-.032-.117-.023-.096-.346.01-.19.12-.19.192.006zM12.044 3a.46.46 0 0 1-.163-.007c-.066-.014-.064-.022-.01-.04a.361.361 0 0 1 .163.006c.088.024.087.028.01.04zm7.902 2.466-.09.288-1.644-.444c-.909-.244-1.655-.452-1.66-.466-.01-.019.198-.354.286-.45.047-.053.163-.026 1.624.366l1.573.421-.089.285zm2.117.325c.003.033-.033.106-.08.16-.081.088-.083.096-.02.088.047-.004.088.028.11.083.031.083.036.08.047-.037.007-.072.01-.174.01-.235.002-.103.01-.104.153-.066.134.036.169.074.352.403l.204.358-.837-.22c-.464-.124-1.03-.271-1.263-.334l-.423-.11.067-.294.07-.294.802.215c.69.185.803.224.808.283zm-6.936-1.732c-.056.072-.128.172-.167.223l-.067.097-.808-.22c-.45-.12-.84-.242-.875-.264-.05-.042-.037-.063.13-.208l.187-.163.36.08c.194.048.576.138.85.207l.49.123-.1.125zm1.437.344a2.779 2.779 0 0 1-.16.245l-.106.149-.552-.148-.556-.15.046-.081c.025-.047.103-.154.172-.242l.129-.159.54.145.538.144-.051.097zm-3.235-.907a1.523 1.523 0 0 1-.175.179l-.169.152-.295-.08c-.614-.164-1.337-.41-1.31-.449a.874.874 0 0 1 .263-.094c.207-.051.293-.049.647.026.612.126 1.047.235 1.039.266zm-1.9-.427a.672.672 0 0 1-.149.124c-.131.093-.14.094-.359.007-.245-.099-.25-.096.13-.18.144-.03.39.003.378.049zm-.408.293a9.394 9.394 0 0 1-.512.471c-.455.409-.636.578-1.106 1.057l-.153.156-.383-.103-.384-.102.1-.11c.144-.154.95-.859 1.266-1.107.198-.153.313-.216.413-.219.078 0 .139-.028.148-.063.03-.11.13-.13.375-.064.134.036.24.073.236.084zm1.813.568c.006.01-.13.163-.304.338-.174.175-.52.547-.763.823l-.445.51-.917-.245a15.076 15.076 0 0 1-.916-.262c.02-.073 1.119-1.14 1.523-1.483l.217-.18.799.242c.44.135.804.249.806.257zm1.944.558a3.2 3.2 0 0 1-.196.285c-.11.147-.372.53-.585.846l-.384.576-1.027-.263c-.865-.224-1.028-.276-1.016-.322.03-.111 1.207-1.436 1.424-1.6.032-.028.284.03.912.216.477.14.869.257.871.262zm1.278.367c.18.049.18.049.114.142-.106.152-.545.886-.748 1.259l-.193.351-.25-.063c-.14-.033-.416-.103-.617-.153l-.365-.094.037-.092c.056-.133.905-1.415 1.017-1.54l.098-.106.365.126c.2.066.443.144.542.17zm3.752 1.022c.005.01-.102.425-.243.922l-.254.902-1.918-.514-1.914-.513.051-.101c.042-.08.455-.808.828-1.464l.086-.15 1.676.45c.92.246 1.682.458 1.688.468zm2.062.573c-.01.038-.205.044-.24.006-.013-.012-.04.013-.059.066-.017.049-.01.096.016.107.133.044.194.093.225.176.026.085.038.088.15.065.097-.02.202 0 .349.068.006.006-.012.026-.042.047-.04.026-.04.055-.001.098.048.05.058.044.077-.029.023-.117-.042-.286-.115-.277-.054.002-.114-.17-.09-.259.003-.015.195.02.422.08.376.101.424.122.47.213.06.123.268.314.368.341.039.01.094.005.123-.012.078-.045.353.246.365.385.011.098.01 1.023-.003 1.286-.005.11-.01.113-.179.068a.58.58 0 0 1-.248-.133.955.955 0 0 0-.303-.155c-.2-.066-.239-.093-.294-.21a.934.934 0 0 1-.067-.211c-.002-.038-.024-.077-.043-.082-.023-.006-.038.019-.035.052.008.077-.035.07-.125-.025-.197-.2-.33-.516-.285-.685.027-.116-.029-.275-.084-.224-.017.017-.046.02-.063.004-.013-.012-.059.021-.107.078-.07.093-.075.128-.044.256a.393.393 0 0 0 .08.177c.028.02.035.084.02.145-.016.058-.016.132-.002.156a.3.3 0 0 1 .018.149c-.022.142.005.244.066.26.03.008.046-.004.041-.03-.005-.026.011-.026.039-.006.172.124-.079.078-1.21-.226l-1.243-.333.23-.908c.127-.5.242-.914.251-.92.04-.022 1.58.411 1.572.442zm-11.982-3c-.09.029-.14.015-.096-.026.018-.02.064-.024.099-.015.057.015.055.023-.003.04zm-.289.218c-.184.152-1.101.95-1.23 1.076-.071.068-.69-.032-.641-.106.015-.025.094-.06.177-.08.083-.018.172-.056.196-.087a.141.141 0 0 1 .12-.03c.053.015.117-.038.233-.196.088-.116.175-.208.198-.202a.122.122 0 0 0 .082-.015c.025-.018.014-.02-.022-.01-.048.012-.054.002-.021-.043a.386.386 0 0 0 .054-.096c.005-.02.029-.03.052-.023.023.006.023.035.002.066-.078.107.148.003.253-.113.048-.057.12-.1.155-.09.035.01.151-.042.258-.116.105-.07.221-.121.26-.115.062.016.037.047-.126.18zM24.276 8.04c.017.061.005.091-.047.114-.038.019-.067.02-.061 0a.918.918 0 0 0 .01-.129c-.004-.111.072-.103.098.015zm.71.478c.024.174.026.627.006.7-.008.03-.078.016-.223-.04-.25-.099-.36-.24-.318-.393.015-.057.016-.123-.004-.14-.057-.061-.002-.145.096-.143.115.001.188-.073.13-.134-.025-.027 0-.042.065-.04.198-.005.232.02.249.19zm.515.228c-.03.053-.052.056-.074.017-.023-.039-.014-.057.036-.073a.607.607 0 0 1 .075-.02s-.013.033-.037.076zM8.071 5.014c-.005.02-.214.263-.466.541-.34.382-.986 1.195-1.224 1.547-.005.003-.15-.02-.331-.052l-.33-.06.054-.092c.163-.302.163-.302.075-.235a.374.374 0 0 0-.118.178c-.032.12-.035.118-.273.083-.283-.047-.58-.122-.572-.149.01-.038.514-.647.838-1.013.199-.218.397-.407.454-.42.095-.033.098-.028.035.116a2.103 2.103 0 0 1-.22.331c-.15.178-.441.725-.417.772.038.06.37-.32.629-.72.353-.534.558-.75.9-.921l.262-.132.357.096c.195.052.352.11.347.13zm.953.28c-.003.011-.1.13-.218.262-.286.314-.938 1.15-1.18 1.505l-.196.285-.198-.029c-.253-.039-.684-.15-.675-.18.02-.073.91-1.204 1.262-1.598l.424-.475.39.105c.22.058.394.113.39.125zm2.078.606c-.309.415-.69.979-.979 1.444l-.355.575-1.033-.244c-.569-.132-1.039-.25-1.043-.263-.028-.049.738-1.085 1.35-1.817l.213-.26.948.254c.882.237.942.257.899.311zm2.332.58c-.003.011-.122.226-.267.475-.23.395-.657 1.177-.816 1.496l-.055.112-1.144-.286a25.566 25.566 0 0 1-1.157-.301c-.028-.05.766-1.296 1.271-1.999l.064-.086 1.055.283c.58.155 1.052.294 1.049.306zm1.602.466c-.01.034-.093.21-.184.395-.226.445-.431.887-.59 1.268l-.157.353c-.023.039-.63-.07-1.145-.208-.272-.073-.279-.08-.237-.158.02-.044.18-.347.346-.677a27 27 0 0 1 .723-1.319c.02-.031.185 0 .645.124.522.14.612.172.599.222zm4.046 1.545-.31 1.109-.174.623-2.11-.565c-2.021-.542-2.109-.57-2.091-.634.032-.12.415-.983.773-1.734.079-.172.146-.314.148-.322 0-.004.88.228 1.954.515l1.949.523-.139.485zm4.24.675c.018.038.045.074.064.079.02.005.042-.018.05-.048.008-.03.042-.05.077-.041.038.01.047.037.028.065-.02.027-.017.077.008.109.023.035.035.083.027.11-.006.023.012.094.041.155.035.07.058.09.068.055.011-.042.019-.04.037.014.016.05.031.037.058-.063.06-.226.073-.087.038.397l-.035.467-.116.048a.7.7 0 0 1-.273.037c-.167-.02-.262.041-.362.216-.035.069-.104.112-.198.127-.117.023-.16.06-.24.204l-.1.17-1.66-.445-1.66-.445.048-.184c.027-.1.15-.601.275-1.118l.226-.935 1.784.478c1.538.412 1.785.487 1.814.548zm1.06.366a.348.348 0 0 1-.09.137c-.074.046-.127.307-.07.351.063.046.047.12-.043.194-.059.05-.066.003-.045-.37.03-.539.025-.523.17-.468.109.041.118.056.078.156zM5.98 5.317c-.086.063-.157.143-.154.176.005.03-.042.096-.105.149-.086.076-.1.08-.061.012.074-.124.023-.1-.16.073-.191.179-.26.205-.113.04.111-.123.489-.458.605-.538.15-.103.143-.027-.012.088zM5.13 6.33c-.285.356-.385.452-.452.443-.072-.007-.077-.021-.033-.092.128-.204.813-.871.845-.821.005.01-.158.22-.36.47zm-.326.049a2.354 2.354 0 0 0-.217.287c-.013.05-.148.108-.168.074-.026-.04.534-.626.584-.612.003 0-.084.113-.2.25zm27.905 7.386c.013.09.014.16.007.159-.027-.008-.075-.259-.061-.309.018-.069.032-.028.054.15zm.27.587c-.052.027-.091-.058-.13-.294a3.343 3.343 0 0 1-.038-.26c.003-.012.05.103.1.256.053.154.084.286.068.298zM13.983 9.233c-.012.03-.052.134-.095.23l-.072.178-.687-.184c-.375-.1-.69-.198-.693-.219a1.086 1.086 0 0 1 .08-.221l.088-.19.26.053c.145.03.46.111.702.176.367.102.438.13.417.177zm4.497 1.399-.081.257-.64-.171c-.358-.096-1.316-.357-2.138-.585l-1.494-.409.029-.107c.015-.058.056-.166.09-.243l.064-.135 2.125.57 2.125.569-.08.254zm3.866.793c-.004.015-.043.038-.088.05a.523.523 0 0 0-.178.175c-.054.08-.118.149-.138.147-.025.002-.7-.163-1.498-.364l-1.456-.365.072-.269.072-.268 1.611.431c.886.238 1.608.444 1.603.463zm-10.188-2.59c-.03.066-.08.16-.109.205l-.047.082-1.126-.306c-.617-.17-1.135-.32-1.148-.336-.013-.012.012-.075.05-.14.04-.058.089-.132.1-.157.022-.036.09-.03.237.018.114.035.223.06.242.048.016-.012.441.09.944.224l.916.246-.06.116zm-2.535-.638c-.113.224-.084.224-.87.01-.398-.112-.863-.249-1.028-.305l-.304-.11.073-.117.072-.116.526.124c.288.074.763.189 1.056.263l.535.135-.06.116zm-2.387-.558-.074.108-.397-.131c-.215-.07-.398-.14-.406-.154-.01-.011.014-.054.048-.09.057-.059.106-.058.461.029.217.05.405.1.418.112.015.008-.008.063-.05.126zm-1.015-.276c-.045.074-.057.071-.483-.072a3.787 3.787 0 0 1-.47-.179c-.054-.06.193-.03.605.076.377.097.387.103.348.175zm-1.919-.374c.025.044-.479.743-.597.83-.097.073-.106.075-.086.002.017-.065.322-.514.543-.8.056-.071.11-.086.14-.032zm.205.125c-.021.08-.09.12-.159.101-.072-.02-.074-.045-.014-.131.047-.066.192-.04.173.03zm28.67 8.154c.102.476.13.804.113 1.433-.01.317-.083.187-.1-.175a5.962 5.962 0 0 0-.093-.67c-.09-.477-.163-1.125-.129-1.145.064-.037.1.06.209.557zM4.666 7.198c-.029.029-.016.028.035.005.182-.08.536.242.437.396a.123.123 0 0 0 .006.13c.057.08.043.13-.051.191-.07.047-.06.054.126.096.296.062.304.064.315.022.006-.023-.015-.082-.049-.14-.03-.054-.045-.107-.03-.115.014-.009-.003-.054-.032-.1a.265.265 0 0 1-.042-.179l.014-.099.303.098c.167.052.31.103.312.108.03.045-.109.238-.159.225-.03-.009-.058.004-.065.027-.005.02.012.032.04.023.084-.022-.065.225-.16.274-.061.029-.081.056-.061.09.02.034.002.1-.06.194-.08.13-.095.139-.17.082-.097-.071-.165-.06-.158.02.003.033.046.057.107.06.12.013.11.047-.107.478-.09.181-.194.384-.226.457l-.06.136-.307-.053a17.16 17.16 0 0 0-.7-.101c-.577-.073-.552-.062-.432-.215.13-.162.22-.487.153-.559-.053-.06.035-.22.562-1.021.334-.51.402-.595.46-.58.023.006.02.03-.001.05zm2.367.724s-.125.221-.286.483c-.156.262-.398.686-.532.942-.133.252-.262.473-.285.483-.064.036-.804-.117-.79-.167.006-.023.092-.205.19-.405.18-.375.353-.563.47-.524.03.012.086.015.125.01.035-.008.11.02.162.055.123.09.202-.003.109-.131-.036-.05-.049-.095-.033-.108.018-.007.01-.022-.013-.028-.027-.007-.041-.031-.035-.054.018-.066-.084-.179-.178-.208l-.081-.022.137-.218c.074-.124.154-.222.175-.225.021-.002.039-.039.038-.08 0-.074.02-.073.408.056.227.073.416.136.419.14zm1.742.508c.389.116.417.132.48.252.035.067.053.137.038.15-.029.03-.47.984-.62 1.343l-.091.222-.468-.097-1.165-.238c-.382-.078-.704-.152-.708-.165-.017-.03.335-.716.404-.788a.342.342 0 0 0 .077-.136c.023-.084.466-.85.54-.928.053-.056.137-.033 1.513.385zm2.45.706.684.212-.27.59c-.148.325-.312.693-.359.82l-.09.227-.262-.046c-.142-.026-.68-.146-1.198-.272l-.94-.223.055-.125c.03-.07.172-.381.31-.694.14-.312.298-.656.351-.76l.1-.188.467.125c.261.07.78.222 1.153.334zm2.425.941c-.055.142-.186.51-.298.82l-.201.568-.749-.168c-.414-.095-.76-.187-.772-.203-.013-.028.367-.954.592-1.44l.097-.209.713.191.71.19-.092.251zm2.824.523 1.887.505-.21.787c-.16.598-.225.79-.262.793-.03 0-1.046-.256-2.256-.572l-2.2-.568.049-.12c.029-.061.146-.392.266-.733.12-.342.243-.66.275-.704.055-.08.067-.08.31.013.138.05 1.102.32 2.141.599zm5.159 1.567c-.037.093-.057.166-.037.167.017 0 .08.07.135.16.086.138.09.168.03.221-.078.078-.122.214-.069.229.054.014.085.298.045.447a.7.7 0 0 1-.098.212l-.065.09-1.477-.396c-1.235-.33-1.49-.407-1.524-.466-.03-.057.002-.221.162-.82l.202-.752 1.384.372 1.385.37-.073.166zM3.983 7.919c-.167.255-.34.533-.392.618-.063.115-.1.146-.148.125-.076-.04-.098-.002.346-.618.328-.455.445-.6.483-.59.008.002-.123.213-.289.465zm29.374 9.424-.013.14-.018-.148c-.007-.08-.007-.22.004-.307l.018-.16.009.167c.004.092.004.231 0 .308zm-15.518-4.396c0 .05-.095.402-.21.783l-.21.695-2.148-.596c-1.182-.329-2.183-.613-2.226-.637-.08-.038-.08-.054.027-.453.061-.227.16-.55.222-.718l.108-.312.601.149c.331.084 1.332.34 2.219.573l1.62.427-.003.089zm3.624 1.004c-.02.077-.086.154-.205.229l-.173.11.06.094c.088.134.125.333.073.377-.027.022-.06.1-.076.173-.015.074-.04.182-.05.237a.167.167 0 0 0 .053.167c.057.048-.119.013-.713-.146a75.335 75.335 0 0 0-1.589-.393l-.804-.19.212-.791.213-.794 1.515.406 1.515.406-.03.115zm-8.516-1.863c-.084.25-.183.576-.223.722l-.07.26-.59-.158a13.117 13.117 0 0 1-.811-.241l-.22-.084.185-.493c.101-.27.214-.568.256-.663l.072-.174.468.109c.258.065.61.147.776.187l.305.073-.148.462zm-2.05-.372c-.11.287-.225.577-.256.647l-.053.121-.539-.169c-.296-.092-.808-.253-1.138-.354l-.6-.186.116-.326c.3-.845.278-.806.436-.8.17.009 2.183.478 2.213.519.012.015-.07.26-.18.548zm-2.44-.995c-.036.089-.111.295-.168.46-.057.166-.126.35-.151.412l-.05.11-.254-.08c-.66-.206-2.062-.684-2.073-.704-.018-.025.325-.784.373-.825.024-.026 1.58.276 2.185.421l.205.051-.066.155zm-2.594-.687c-.007.023-.287.61-.338.707-.037.077-.058.08-.274.009-.215-.07-.236-.084-.236-.178v-.103l-.05.077c-.029.046-.081.073-.124.061-.088-.023-.064-.144.1-.495.118-.256.118-.256.477-.185.379.077.449.092.445.107zm-2.816-.631c-.04.055-.116.063-.1.006.01-.039.118-.104.132-.08.006.01-.008.043-.032.074zm1.784.49c-.04.15-.245.547-.29.564-.056.022-.356-.083-.925-.326-.51-.215-.483-.191-.388-.36.065-.121.1-.14.204-.133.14.013.958.12 1.18.155.074.012.162.023.189.03.024.003.04.036.03.07zM2.948 9.71c-.026.1-.087.113-.111.032-.02-.063.045-.152.099-.138.019.005.027.053.012.106zm-.12.297c-.001.004-.046.095-.096.204-.168.35-.463 1.114-.634 1.644-.094.307-.18.519-.203.513-.05-.014.275-1.057.542-1.746.252-.648.283-.705.345-.66.028.02.048.037.046.045zm.734.328c.255.106.469.2.475.206.002.009-.028.046-.076.086a.376.376 0 0 0-.111.168.454.454 0 0 1-.164.198.694.694 0 0 0-.187.176c-.033.062-.046.033-.055-.133-.018-.285-.09-.357-.261-.268-.071.035-.146.056-.167.042-.074-.049-.02-.696.057-.676.015.005.235.092.489.201zm-.752.337a.285.285 0 0 0 .03.21c.032.05.054.105.048.128-.018.065.025.274.06.283.015.004.043-.054.063-.127.034-.13.179-.301.24-.285.046.012.066.231.023.298a.597.597 0 0 0-.042.235c.002.116-.046.309-.13.562l-.133.388-.21-.012a6.064 6.064 0 0 0-.473-.003l-.265.007.142-.422c.219-.661.554-1.5.616-1.545.05-.032.059-.022.059.056.002.054-.014.157-.028.227zm2.562.428c-.01.038-.054.047-.13.027-.078-.021-.11-.05-.1-.089.01-.038.053-.047.13-.027.077.021.11.05.1.089zm2.142.656.526.17-.173.554a7.931 7.931 0 0 1-.191.561 3.153 3.153 0 0 1-.352-.053l-.328-.063-.056-.176-.073-.25c-.009-.043-.039-.084-.062-.09-.027-.007-.083-.12-.126-.252-.09-.258-.179-.405-.26-.427-.072-.02-.153-.193-.095-.21.026-.006.052-.028.059-.05.011-.043-.323-.087-.351-.041-.012.013-.055.018-.093.008-.038-.01-.088-.007-.106.012-.049.045-.158.008-.223-.072-.04-.051-.04-.084.007-.15l.064-.085.652.22c.362.121.894.3 1.181.394zm2.097.66c.487.148.891.28.897.29.01.024-.278.838-.306.851-.015.009-.705-.13-1.763-.357l-.517-.11.087-.326c.048-.18.127-.426.171-.546l.085-.224.234.075c.125.042.63.198 1.112.348zm2.74.821.242.065-.071.265c-.04.145-.096.311-.125.373l-.054.11-.57-.129c-.31-.067-.686-.155-.834-.187l-.27-.064.07-.228c.04-.124.105-.317.15-.428l.08-.2.569.176c.314.101.679.211.813.247zm3.308.928 1.718.46-.086.322-.085.319-2.031-.508a414.15 414.15 0 0 0-2.265-.57l-.23-.061.075-.325c.04-.179.093-.35.113-.377.033-.045.114-.027.554.112.284.092 1.29.374 2.237.628zm6.057 1.775c.05.087.112.165.131.17.088.024.282.5.21.521-.009.002-.49-.135-1.066-.302a133.68 133.68 0 0 0-2.11-.598l-1.065-.29.088-.325.088-.33 1.815.498 1.812.498.097.158zm-4.768.288c-.145.541-.218.768-.262.794-.044.025-.047.036-.012.046.034.009.015.127-.061.41l-.106.396-.263-.046a5.764 5.764 0 0 1-.495-.104c-.184-.049-.215-.07-.184-.11.02-.028.023-.056.004-.061-.019-.005-.06.012-.096.036-.05.035-.188.011-.76-.142a79.384 79.384 0 0 0-1.663-.405c-.674-.155-.972-.24-.98-.27-.016-.046.203-1.02.448-2.01l.11-.443.792.191c.437.105 1.454.36 2.264.574l1.467.385-.203.76zm4.174.334c.743.22.874.267.805.293a.281.281 0 0 1-.145.02c-.069-.02-.104.033-.133.206-.018.098-.277.341-.346.323-.023-.006-.068-.084-.102-.172-.034-.087-.075-.164-.098-.17-.02-.005-.06-.065-.091-.135l-.057-.126-.231.049c-.13.026-.266.04-.3.03a1.358 1.358 0 0 0-.35.03 1.867 1.867 0 0 1-.33.035.38.38 0 0 0-.159.027c-.064.024-.116.035-.123.029-.022-.04-.33.13-.346.187-.018.069-.239.141-.343.113-.046-.012-.16.077-.175.134-.003.012.028.032.07.044.111.03.061.156-.09.23a.566.566 0 0 0-.205.151c-.05.06-.106.087-.155.074-.05-.014-.074-.004-.07.026.01.027-.02.048-.07.047-.049 0-.092.025-.1.052-.008.03-.044.058-.078.06-.102.015-.093.087.012.082.049 0 .18.003.288.012.199.012.335-.055.55-.26a.415.415 0 0 1 .25-.09c.134-.005.167.009.21.078.03.044.047.102.039.133-.022.08.18.266.337.308.076.02.148.06.157.088.008.03.048.004.103-.063.132-.17.343-.204.405-.068.034.07.322.164.336.11.005-.019-.04-.11-.099-.199-.111-.165-.109-.268.014-.358a.837.837 0 0 0 .12-.112c.066-.076.457-.186.566-.16a.561.561 0 0 0 .233-.041c.19-.068.239-.063.217.017a.061.061 0 0 0 .042.073c.035.01.068-.023.084-.084.018-.065.052-.101.109-.099.094.001.127-.06.047-.082a.532.532 0 0 1-.146-.1l-.096-.088.161.044c.12.031.178.027.22-.02.067-.068.242-.079.34-.015.053.034.057.08.021.215-.033.122-.06.164-.103.153-.057-.015-.192.105-.167.149.008.014.046.012.088-.006.041-.017.079-.02.091-.004.016.033-.503 1.662-.537 1.682-.01.005-.509-.141-1.113-.327a79.236 79.236 0 0 0-1.903-.552 26.17 26.17 0 0 1-1.228-.357l-.427-.14.322-1.204.322-1.2 1.239.331c.679.182 1.635.45 2.118.597zm-9.044-1.322c-.126.53-.25 1.084-.273 1.234l-.048.271-.754-.227a21.52 21.52 0 0 1-.908-.292l-.16-.064.242-.888c.136-.49.287-1.009.342-1.15l.095-.263.447.095c.245.053.626.147.849.207l.402.112-.234.965zm-1.98-1.283c-.04.109-.199.621-.354 1.139-.255.86-.285.943-.347.926-.146-.039-.293-.132-.281-.178.015-.057-.022-.285-.072-.467a.693.693 0 0 0-.15-.242.458.458 0 0 1-.116-.146c-.003-.021-.037-.047-.075-.057-.092-.025-.149-.213-.11-.358a.28.28 0 0 0-.032-.219c-.135-.2-.417-.56-.452-.569a.772.772 0 0 1-.164-.155c-.13-.146-.145-.318-.027-.328.055-.006 1.698.324 2.053.41l.204.051-.077.193zm-2.455-.641c.018.165-.274.149-.433-.026l-.111-.12.122.004c.232.009.413.07.422.142zm19.471 5.324c-.027.1-.225.302-.278.287-.058-.015-.121.1-.231.448-.097.299-.102.335-.036.303.038-.019.066-.015.06.008-.006.019.02.042.06.049.059.011.057.048-.032.336-.056.179-.128.336-.157.353-.047.025-2.064-.368-2.477-.483-.134-.036-.068-.236.108-.324.076-.041.105-.07.07-.076-.158-.026-.157-.03-.01-.578.161-.603.111-.554.517-.503.18.02.186.025.164.11-.019.069-.01.08.024.047.038-.035.064-.024.142.067.09.11.094.111.133.044.032-.061.065-.06.27.006.176.06.232.067.244.024.008-.03.052-.043.106-.029.119.032.225.02.237-.026.016-.058.143-.118.216-.099.038.01.113-.007.165-.034.077-.04.483-.051.7-.018.016 0 .017.042.005.088zm-4.218-.875a.326.326 0 0 1-.001.127c-.017.061.003.079.094.095.06.008.135.048.161.088.026.04.126.145.223.228.109.1.166.177.146.204-.04.055.003.19.042.135a.354.354 0 0 1 .25-.135c.09 0 .09 0-.032.46l-.125.464-.15-.04c-.084-.022-.16-.063-.166-.085a.081.081 0 0 0-.05-.055c-.089-.024.05.133.188.215.146.084.15.09.1.224l-.049.139-.25-.067c-.226-.06-.247-.074-.238-.154.015-.132-.215-.424-.399-.506-.19-.084-.19-.042.007.13.08.07.172.202.211.286l.069.158-.207-.026a4.637 4.637 0 0 1-.386-.079c-.219-.059-.231.05.125-1.035.133-.405.253-.775.262-.822.016-.062.036-.073.089-.042.04.023.078.062.086.093zM2.883 12.64a.534.534 0 0 1-.14.139.622.622 0 0 0-.165.231c-.042.096-.1.175-.134.178-.034.003-.067.035-.075.066-.019.07-.123.029-.374-.141-.118-.081-.12-.086-.07-.32l.05-.236.282-.007c.261-.008.56-.006.64.007.02.001.01.04-.014.083zm25.55 7.2c.015.065-.01.157-.092.34a5.021 5.021 0 0 0-.16.398c-.04.133-.056.149-.167.148-.114-.002-1.212-.201-1.22-.22-.002-.005.079-.23.176-.5.124-.34.207-.512.266-.565.176-.15.299-.225.287-.179-.023.085.2.16.414.14.118-.01.215-.033.219-.048.012-.046.249.375.277.485zM1.855 12.713a.385.385 0 0 1-.082.154c-.038.035-.043.005-.01-.117.024-.088.063-.156.082-.151.023.006.026.056.01.114zm-.207.113c-.017.003-.051-.022-.08-.054-.038-.056-.03-.07.046-.124.088-.054.088-.054.079.058-.005.065-.024.121-.045.12zm.429.596c.139.078.157.103.124.18-.082.213-.136.507-.118.64.02.128.006.161-.084.281-.091.128-.103.17-.117.438a3.92 3.92 0 0 0-.01.359c.008.047-.053.076-.226.108l-.235.048v-.095c.004-.196.155-1.126.261-1.632.111-.505.115-.52.18-.474.034.03.136.094.225.147zm25.856 7.639c-.075.05-.08.069-.058.276.011.127.016.23.008.233-.01.005-.275-.095-.59-.224-.316-.126-.607-.237-.64-.25-.054-.014-.06-.053-.028-.172.024-.092.063-.16.096-.159.064-.008.805.125 1.083.192.2.05.204.054.129.104zm-1.573-.224-.038.142-.193-.076c-.107-.046-.46-.17-.78-.283-.32-.11-.606-.22-.634-.24-.045-.033.97.153 1.5.278l.182.04-.037.139zm-14.69-3.817c.014.024-.005.217-.046.42l-.071.37-.272-.06c-.16-.034-.275-.078-.284-.105-.005-.026-.058-.06-.112-.075a1.395 1.395 0 0 1-.303-.172c-.146-.1-.22-.132-.258-.11-.063.037-.21-.11-.189-.186.02-.073-.085-.294-.135-.279-.067.02-.201-.152-.179-.237.015-.053.055-.067.17-.049.296.046 1.655.435 1.68.483zm11.771 3.158c.006.072-.563 1.917-.6 1.936-.012.01-.065-.021-.115-.064-.111-.091-.182-.472-.116-.61.055-.113-.002-.317-.062-.23-.063.081-.122.04-.093-.067.02-.073.006-.1-.042-.106-.055-.006-.062-.029-.032-.107a.162.162 0 0 0-.027-.176c-.041-.048-.049-.095-.022-.133.026-.038.02-.06-.022-.072-.038-.01-.095-.075-.133-.146l-.066-.125-.146.055-.143.057.107-.292c.06-.165.119-.305.136-.322.015-.012.33.056.698.155.576.154.67.187.678.247zm-7.678-2.016.615.19-.286 1.07-.287 1.07-.852-.228c-.775-.208-.843-.23-.755-.265.123-.045.333-.215.314-.252-.008-.015-.129.035-.264.11-.247.14-.25.138-.568.082a10.454 10.454 0 0 1-.498-.109l-.176-.047-.013-.304c-.006-.162-.03-.332-.052-.375-.02-.047-.122-.111-.238-.155a1.193 1.193 0 0 1-.596-.505 1.043 1.043 0 0 0-.192-.252c-.103-.09-.105-.099-.04-.43.033-.189.074-.417.082-.509l.025-.17 1.58.444c.87.245 1.859.53 2.201.635zm5.879 1.719c-.03.111-.065.18-.084.159-.016-.017-.014-.054.006-.081.02-.028.005-.081-.03-.12-.039-.038-.062-.09-.055-.117.006-.023-.043-.069-.106-.094-.075-.028-.038-.027.1.006l.221.051-.052.196zm3.607.884c.537.19.982.354.988.364.04.068-1.072 2.298-1.161 2.324-.023.006-.387-.12-.811-.287l-.772-.298-.11-.202a1.009 1.009 0 0 0-.156-.23c-.038-.027 0-.173.193-.767.133-.404.284-.89.333-1.074l.09-.338.217.083c.116.043.653.232 1.189.425zm-6.22-1.63c-.027.06-.08.16-.108.223-.045.09-.07.104-.127.072-.103-.06-.24.039-.327.242-.039.096-.103.198-.142.22a1.025 1.025 0 0 0-.176.258c-.07.137-.141.22-.194.235-.172.045-.458.157-.464.18a1.137 1.137 0 0 1-.131.138.738.738 0 0 0-.129.142c-.004.016-.19-.026-.415-.09-.4-.12-.41-.127-.384-.21l.292-1.06.27-.973.38.085c.203.051.675.165 1.04.259l.67.17-.054.11zm1.35.338c-.004.056.017.115.045.135.024.019.032.083.016.14a1.018 1.018 0 0 0-.033.217c-.001.095-.024.117-.194.17-.108.033-.27.085-.36.114a.54.54 0 0 1-.203.04c-.023-.006-.096.02-.164.059-.21.12-.285.05-.285-.258 0-.135.14-.768.209-.947.008-.014.226.032.49.103.476.127.48.128.478.227zm6.924 2.065c.703.278.671.258.77.547.09.267.128.553.079.597-.016.012-.027.1-.03.19-.01.617-.023.713-.114.791-.086.076-.107.169-.125.484-.005.065-.014.112-.022.11-.007-.002-.325-.042-.71-.096l-.699-.093-.542-.231c-.294-.129-.543-.244-.551-.259-.009-.015.116-.265.273-.56.235-.447.506-.999.82-1.68.056-.116.06-.119.212-.054.085.035.375.15.64.254zm-25.356-5.82c.004.075.027.344.048.6.023.254.041.476.037.492-.01.038-.608-.369-.646-.44-.044-.082-.023-.636.022-.681.038-.035.453-.126.506-.111.012.003.027.068.033.14zm29.643 8.403c-.026.05-.07.088-.088.083-.043-.01 0-.217.053-.244.063-.037.087.072.035.161zM2.148 17.454c.037.2.06.39.05.425-.008.03.017.152.052.268.038.118.063.223.061.23-.003.012-.148.047-.318.084a2.272 2.272 0 0 0-.399.107c-.08.036-.088.022-.122-.205-.029-.197-.138-1.707-.125-1.756.002-.008.167.098.369.234l.37.247.062.366zm13.497 3.683c-.062.275-.124.509-.14.521-.033.032-3.005-.813-3.278-.932-.14-.062-.163-.08-.1-.088.148-.014.597-.338.72-.523l.12-.173.315.068c.17.041.795.196 1.39.352l1.08.281-.107.494zm1.29-.107c-.01.038-.117.133-.241.21-.123.075-.227.158-.232.177-.006.023-.04.022-.072.006-.057-.032-.07-.011-.118.21-.048.226-.057.244-.13.225-.077-.02-.075-.041.058-.54l.14-.518.306.083c.268.072.305.09.29.147zm7.427 2.356c.317.122.59.24.6.26.016.02-.002.069-.035.101-.053.06-.129.052-.735-.065-.371-.071-.712-.134-.76-.138-.081-.006-.082-.018-.016-.202.101-.285.112-.295.247-.234.067.03.382.156.699.278zm1.283.537c.005.01-.092.004-.218-.017-.245-.037-.266-.051-.213-.123.026-.038.074-.034.225.035.107.045.196.094.206.105zm2.117.584c-.046.156-.091.156-.376.006l-.266-.142.3.032c.163.019.311.034.331.035.016.004.02.034.01.069zm-.625.075c.174.087.311.174.304.2a.315.315 0 0 1-.08.102c-.039.035-.11.119-.157.184-.05.065-.178.236-.29.375-.353.444-.505.736-.469.894.02.092-.13.837-.168.826a6.978 6.978 0 0 1-.422-.236 27.9 27.9 0 0 0-1.85-.932c-.112-.046-.192-.1-.186-.123.008-.027.11-.18.23-.337.122-.161.397-.56.613-.889l.39-.594.56.084c.652.1 1.08.224 1.525.446zm-2.375-.542c-.015.058-.699 1.091-.94 1.425-.196.269-.25.316-.318.294a22.896 22.896 0 0 1-.728-.29l-.648-.268.07-.216a.834.834 0 0 1 .18-.318.573.573 0 0 0 .122-.164c.01-.035.095-.123.193-.195a1.19 1.19 0 0 0 .215-.206.755.755 0 0 1 .18-.153c.085-.055.11-.082.063-.078-.08.008-.11-.05-.059-.118.025-.03.1-.039.183-.021.077.017.399.074.713.13.735.126.786.136.774.178zM1.376 18.23c.017.153.033.309.039.348.004.046-.007.072-.03.066-.035-.01-.09-.617-.066-.705.014-.053.033.03.057.291zm14.038 3.659c.025.015-.005.204-.092.543l-.13.52-.402-.084a92.011 92.011 0 0 1-1.462-.342 49.678 49.678 0 0 0-1.51-.35c-.245-.05-.457-.103-.47-.119a3.23 3.23 0 0 1 .023-.454l.04-.425.133-.096a.668.668 0 0 0 .18-.166l.047-.07 1.8.508c.994.283 1.822.52 1.843.535zm.623.483c-.038.343-.024.61.041.751.037.08.028.082-.156.032l-.2-.053.144-.537c.08-.296.16-.533.175-.529.02.005.015.156-.004.336zm-13.28-3.246c.273.48.307.555.333.842.015.172.041.414.053.536.017.124.02.232.01.237-.048.029-.823-.438-1.186-.712l-.242-.184-.1-.52c-.082-.43-.089-.526-.033-.564.076-.054.734-.194.811-.174.027.008.188.252.353.539zm-1.22.175c.074.43.07.475-.026.346-.05-.062-.144-.659-.12-.751.031-.115.075.012.147.405zm28.327 7.487c-.026.096-.07.138-.228.206-.15.067-.183.07-.145.02.291-.412.331-.455.367-.404.02.03.024.11.006.178zm-28.51-7.54c.032.25.029.262-.032.197-.103-.122-.138-.296-.076-.407.07-.121.066-.122.108.21zm18.544 4.78c.012.015-.129.282-.153.296-.011.009-.167-.037-.347-.102-.271-.093-.325-.124-.31-.177.02-.077.166-.116.349-.092a.37.37 0 0 0 .188-.011c.044-.025.245.037.273.085zm.486.319a.725.725 0 0 1 .212.188l.1.134-.294-.1c-.166-.052-.31-.115-.325-.136-.014-.024-.001-.087.028-.136.04-.072.068-.085.113-.052.03.024.109.07.166.102zm-1.872-.456c-.005.019-.03.033-.052.027-.02-.005-.022-.027-.005-.043.017-.02.04-.03.052-.027.008.002.011.02.005.043zm-3.613.137-.247.92-1.076-.312c-1.167-.338-1.175-.34-1.2-.58l-.013-.107-.093.07c-.056.038-.099.047-.108.02-.026-.09-.094-.066-.096.036l-.003.102-.403-.108a2.88 2.88 0 0 1-.398-.123c0-.004.007-.196.012-.416.01-.557.04-1.161.06-1.238.015-.054.095-.045.612.065.766.165 2.04.46 2.69.626l.508.128-.245.917zm1.252-.454c.01.114.011.312 0 .444-.015.24-.012.244.12.304.078.033.174.12.217.19.099.166.176.186.314.084l.108-.082.059.135c.055.13.07.138.2.127a4.33 4.33 0 0 1 .268-.002.41.41 0 0 0 .372-.209c.067-.126.252-.232.314-.187.038.027.047.021.043-.025-.007-.08.122-.239.157-.2.016.016.02.062.009.104-.013.046.007.08.05.088.039.01.05 0 .026-.018-.025-.015-.032-.082-.015-.144.024-.092.045-.107.122-.086.065.017.098.063.114.154.024.158.053.17.132.047.062-.094.066-.093.386.001.174.055.367.119.421.146.095.046.098.063.047.164-.146.298-.721 1.34-.75 1.358-.015.008-.555-.108-1.2-.264l-1.17-.285.103-.12c.126-.148.116-.175-.055-.163a.35.35 0 0 1-.246-.066c-.132-.089-.195-.056-.21.108-.005.097-.024.105-.156.094-.228-.024-.736-.169-.753-.214-.006-.022.108-.436.25-.92l.265-.879.222.06.219.059.017.197zm-5.097-1.078c-.006.176-.016.551-.019.838l-.005.525-.352-.098c-.47-.13-.533-.172-.49-.32a.363.363 0 0 1 .142-.176c.054-.031.108-.082.116-.11.008-.03.052-.072.104-.099.067-.035.092-.082.117-.236.027-.161.048-.192.13-.224.078-.028.1-.064.1-.145.005-.123.086-.29.14-.276.02.005.026.151.017.322zm9.536 2.309c.165.06.326.12.355.132.03.008.102.036.158.055.066.017.145.104.215.226.062.107.14.202.17.21.08.021.054.105-.175.59-.104.22-.19.402-.19.406-.01.038-1.91-.348-1.938-.396-.011-.02.556-1.076.762-1.416.02-.031.074-.03.185.017.089.036.293.115.458.176zM1.76 20.339c.055.212.163.59.244.843.132.442.135.463.058.582a.44.44 0 0 1-.094.12c-.042-.012-.486-1.944-.464-2.029.004-.015.04.003.084.04.04.035.12.229.173.444zm20.828 5.22c.697.28.85.358.832.424a3.84 3.84 0 0 1-.317.412l-.295.353-.446-.07a9.89 9.89 0 0 1-.66-.128l-.217-.054.215-.448.276-.584c.06-.132.069-.134.178-.084l.434.178zM1.942 20.185c.113.1.786.532 1.095.7.083.044.122.095.117.147a.79.79 0 0 0 .011.172c.022.117.047.103-.29.18a2.983 2.983 0 0 0-.46.15l-.184.09-.05-.125c-.144-.396-.427-1.442-.385-1.43a.937.937 0 0 1 .146.116zM24.28 26.3c.54.256 1.53.78 1.56.825.03.054-.89-.053-2.593-.3-.094-.017-.166-.04-.16-.06.004-.014.142-.191.31-.389.27-.318.308-.353.38-.313.047.02.273.13.503.237zm4.263 1.722c-.3.34-.686.717-.72.708-.077-.02-.024-.126.134-.273a5.45 5.45 0 0 0 .296-.29c.152-.17.446-.407.463-.378.009.015-.07.121-.173.233zm-2.518-.424c-.14.152-.615.58-1.041.926-.278.222-.81.626-.825.622a7.65 7.65 0 0 1-.27-.175 12.788 12.788 0 0 0-1.396-.802c-.253-.13-.465-.244-.466-.256-.003-.022.361-.413.752-.81.08-.086.171-.135.224-.133.048.004.488.065.98.135.49.07 1.179.155 1.532.188.468.047.641.077.64.114.001.025-.06.112-.13.191zM3.228 21.752c.01.114.033.37.04.57.013.2.038.413.06.472a.58.58 0 0 1 .027.189c0 .045.043.22.104.393.074.217.09.312.049.31-.033-.001-.178-.09-.33-.196l-.274-.189-.222-.507c-.122-.28-.262-.617-.312-.754l-.085-.249.15-.067c.206-.096.698-.232.74-.204.018.013.043.118.053.232zm19.072 5.57a6.98 6.98 0 0 1-.423.43l-.09.07-.41-.183c-.33-.15-.405-.195-.373-.236.02-.027.11-.196.204-.377.093-.18.174-.327.179-.33.041-.018 1.234.211 1.235.236.004.018-.142.196-.322.39zm-1.304-.64-.178.342c-.128.246-.157.279-.23.26-.042-.012-.39-.142-.77-.289s-.757-.29-.84-.316c-.143-.05-.15-.056-.11-.173.101-.285.128-.294.53-.215.2.037.582.114.852.166.796.16.788.158.746.224zm-9.981-2.597c.023.052.034.396.01.41-.01.005-.386-.05-.84-.122a38.522 38.522 0 0 0-1.085-.168c-.394-.048-.394-.048-.394-.22.007-.377.002-.358.159-.377.08-.008.157-.032.17-.053.038-.048 1.948.464 1.98.53zm1.206.393c.018.026.031.066.025.09-.007.026.038.088.1.133.109.087.105.085-.226.03-.538-.095-.819-.166-.847-.215a.483.483 0 0 1-.007-.203l.014-.16.452.14c.246.08.466.163.489.185zm6.518 1.681c.006.022-.038.113-.097.208l-.103.17-.155-.066c-.178-.072-1.462-.482-2.575-.822-.742-.223-.753-.23-.72-.308.032-.073.056-.07.512.039.266.067.507.136.533.16.03.024.075.044.096.041.025-.001.584.12 1.243.272l1.229.275a.04.04 0 0 1 .037.031zm-4.154-.96c-.023.083-.039.083-.344.026-.18-.032-.548-.118-.817-.19-.495-.133-.578-.175-.782-.41-.03-.042.26.024.963.212l1.005.27-.025.091zm-6.258-1.254-.018.16-.169-.017a.576.576 0 0 1-.196-.049c-.064-.07.023-.195.191-.285.198-.108.22-.085.192.19zm6.148 1.709c-.024.137-.132.585-.239 1l-.194.754-.694-.157c-.38-.085-.966-.213-1.31-.28-.34-.067-.628-.14-.642-.165-.019-.038-.126-1.666-.125-1.945-.002-.144.004-.151.105-.145.06.004.323.054.588.109l.478.103.103.196c.101.192.254.295.337.218.017-.02.067-.023.106-.013.107.029.149-.034.107-.156l-.035-.112.643.16c.358.092.687.168.73.175.08.013.08.038.042.258zm2.178.39c.796.234 1.785.565 1.808.6.01.023-.684 1.079-.952 1.45-.116.159-.234.292-.268.295-.03.004-.349-.094-.707-.214-.358-.121-.976-.315-1.367-.437l-.714-.22.276-.937c.154-.514.29-.959.308-.982.017-.033.119-.014.394.077.206.063.753.23 1.222.368zm8.748 2.381c-.118.162-.834.948-.874.958-.036.011-.191-.084-.247-.152-.007-.006.088-.084.214-.17.122-.086.385-.287.58-.444.193-.154.359-.282.37-.279.008.002-.015.041-.043.087zm.015.678c-.15.301-.2.366-.331.438-.17.098-.333.108-.407.03-.035-.038.043-.144.42-.573l.47-.524.012.139c.007.113-.025.203-.164.49zm-14.343-3.917c.042.719.055.854.098 1.231.021.182.036.343.03.362-.02.076-.844-.132-1.652-.414-.443-.16-.81-.291-.817-.297a51.389 51.389 0 0 1-.034-1.666l.005-.126.566.081c.855.123 1.58.243 1.682.274.082.03.096.084.122.555zM19.73 27.1c.433.165.8.313.819.334.04.035-.185.46-.625 1.181-.197.321-.257.392-.331.392-.045 0-.429-.073-.85-.157-.713-.146-1.27-.312-1.252-.377.004-.015.14-.2.301-.417.165-.215.431-.596.595-.84.165-.247.312-.459.324-.472.015-.012.075-.004.132.015.055.023.458.176.887.34zm1.593.652c.201.091.369.173.375.18.018.024-1.093 1.01-1.28 1.144-.117.08-.451.023-.386-.066.103-.137.544-.85.7-1.124.1-.17.19-.307.2-.304.012.003.185.078.39.17zM8.33 24.604c0 .2.013.55.026.775.013.23.016.42.006.425-.04.027-.435-1.214-.436-1.366-.005-.228.01-.248.133-.236.275.033.267.018.271.402zm14.926 4.135c.223.133.49.3.587.37l.184.128-.232.16c-.155.102-.272.153-.36.146-.446-.025-2.596-.3-2.815-.36-.046-.012.052-.113.351-.358.228-.19.527-.446.665-.578l.253-.236.48.244c.26.135.662.354.887.484zM7.916 25.002c.056.175.148.43.201.568.051.133.091.259.086.278-.007.027-.742-.236-1.039-.373-.168-.078-.129-.178.137-.325.16-.093.227-.157.248-.238.03-.111.167-.255.229-.239.019.005.082.154.138.33zm18 4.89a9.69 9.69 0 0 1-.493.307l-.193.104-.099-.182a1.041 1.041 0 0 1-.09-.214c.009-.034.636-.15.709-.13a.32.32 0 0 0 .161-.035.52.52 0 0 1 .272-.05c.017 0-.102.091-.267.2zM3.35 23.737c.206.137.233.173.268.335.04.203.031.267-.045.337-.043.038-.075.004-.194-.196-.193-.323-.376-.717-.315-.668.028.02.156.108.286.192zm21.013 5.766c.03.057.027.069-.044.087a1.27 1.27 0 0 1-.242 0 2.947 2.947 0 0 0-.24-.01c-.066-.002-.047-.025.092-.128.149-.112.184-.12.282-.072a.5.5 0 0 1 .152.123zm.437.425c.175.207.298.438.254.48-.07.063-1.246.631-1.685.81-.341.139-.5.178-.693.176-.344-.002-.355-.009-.176-.138a16.128 16.128 0 0 0 1.457-1.126c.44-.384.49-.416.597-.387a.608.608 0 0 1 .246.185zm-.622-.179c-.015.054-.942.845-1.317 1.123-.558.414-.537.411-.699.216a3.084 3.084 0 0 0-.279-.293l-.146-.13.183-.082c.222-.093 1.153-.575 1.178-.61a3.2 3.2 0 0 1 .263-.151.794.794 0 0 1 .504-.116c.32.016.32.016.313.043zm-.85-.05c-.005.018-.308.196-.668.392-.806.43-1 .525-1.017.496-.034-.059-.746-.517-1.153-.745-.243-.135-.45-.252-.455-.266-.006-.01.07-.076.171-.147l.183-.132.446.07c.552.087 2.389.307 2.418.29.038-.018.084.007.075.041zM3.75 24.81c.02.047-.005.02-.057-.064-.062-.103-.082-.17-.05-.198.034-.032.05-.016.057.064.008.064.03.152.05.199zm4.22 1.131c.326.117.407.196.465.442.025.089.05.087-.493.06a9.942 9.942 0 0 0-.938.017l-.53.03-.108-.148c-.095-.136-.097-.162-.043-.287.054-.125.053-.15-.03-.255-.084-.1-.087-.122-.027-.192.065-.073.086-.075.27-.01.172.063.214.062.303.004.1-.064.104-.063.46.081.196.082.498.196.67.258zm6.006 1.688-.026.096-.563-.155a74.345 74.345 0 0 1-1.192-.353c-.57-.177-.603-.19-.364-.159.142.022.64.126 1.108.236.465.107.896.202.957.219.09.016.102.035.08.116zm2.008.5c.369.112.727.233.792.266.123.062-1.184-.23-1.99-.446-.375-.101-.412-.119-.395-.18.01-.039.034-.082.053-.093.024-.01.224.04.455.114.227.073.717.225 1.085.34zm4.12 1.191a.789.789 0 0 1-.177.125c-.163.088-.21.018-.09-.135.072-.087.109-.102.205-.076.1.026.108.04.063.086zM9.427 26.471c.272.073.133.102-.258.055-.343-.039-.369-.05-.397-.127-.062-.152-.026-.163.24-.067.138.053.323.115.415.14zm10.098 2.756a.463.463 0 0 1-.056.087c-.021.02-.537-.234-.531-.257.005-.02.117-.01.254.019l.312.063c.06.008.062.029.021.088zm-8.59-2.245c.21.073.34.137.334.164-.007.023.066.412.157.869.093.452.162.824.158.823a27.84 27.84 0 0 1-.785-.091l-.914-.105c-.13-.019-.152-.045-.593-.825-.48-.844-.598-1.16-.444-1.18.11-.015 1.323.124 1.547.18.108.025.35.102.54.165zm7.806 2.166c.332.142.61.27.614.284.018.025-.304.49-.45.656-.153.169-.974.623-1.145.635-.176.01-.4-.09-.353-.156.046-.066-.074-.14-.2-.128a.817.817 0 0 1-.235-.03c-.43-.14-.398-.123-.294-.19l.094-.06-.146.038c-.119.03-.147.027-.161-.027-.017-.045-.069-.067-.204-.083a.54.54 0 0 1-.18-.036c.002-.007.212-.235.46-.502.253-.269.522-.567.594-.667l.139-.18.218.042c.515.105.678.157 1.249.404zm-5.898-1.572 1.053.307-.073.379c-.043.206-.113.512-.16.685l-.082.31-.468-.096c-.256-.056-.673-.143-.925-.198l-.46-.095-.138-.744a8.906 8.906 0 0 1-.133-.866l.008-.125.163.068c.089.036.636.203 1.215.375zm4.227 1.087a7.25 7.25 0 0 1-.283.365c-.346.433-.753.863-.842.888-.1.035-.348-.097-.303-.16.047-.065.019-.068-.098 0-.112.064-.24.034-1.103-.243l-.519-.164.204-.669c.11-.365.208-.668.213-.67.005-.007.559.12 1.228.28.668.158 1.283.302 1.364.324.078.017.142.038.139.05zm2.62.965c-.006.02-.042.047-.08.066-.076.037-.08.02-.02-.063.04-.06.115-.06.1-.003zM8.495 26.827c.01.113.08.51.156.888l.14.692-.14-.063a25.88 25.88 0 0 0-.61-.25c-.457-.184-.486-.2-.674-.418-.246-.28-.783-.991-.778-1.023.008-.03.984-.082 1.396-.07.482.01.486.011.51.244zm11.715 3.028c.6.321 1.268.763 1.251.824-.009.035-.8.365-1.157.484-.238.075-.276.078-.94-.018-.824-.118-.832-.12-.813-.193.009-.03.164-.227.344-.438.179-.207.331-.392.335-.408.01-.034.621-.43.656-.42.015.004.163.08.324.169zm-13.954-3.51c.107.153.104.193 0 .198a3.09 3.09 0 0 0-.342.081c-.218.061-.273.067-.32.013-.077-.082-.116-.06-.063.037.022.039.028.077.013.09-.015.008-.1-.118-.187-.285-.088-.163-.15-.3-.14-.305.009-.005.074.045.15.11.212.193.349.189.28-.011-.07-.187-.032-.206.252-.13.23.062.28.088.357.203zm.46.646c.137.177.337.428.447.556.106.127.19.24.189.248-.008.027-1.239-.55-1.597-.748l-.167-.095.174-.085c.142-.069.638-.215.693-.205.007.002.128.15.26.33zm2.707 1.236c.139.218.237.404.221.416a1.17 1.17 0 0 1-.294-.054l-.264-.07-.109-.576a5.786 5.786 0 0 1-.103-.612c.006-.023.076.082.157.227.076.144.254.447.392.669zm12.396 2.741c.104.106.222.249.26.308l.063.116-.276-.012c-.412-.016-1.381-.095-1.477-.12-.061-.017-.003-.05.21-.125.164-.06.443-.165.62-.241.18-.075.345-.138.368-.132.02.002.127.096.232.206zm.715.558c-.106.041-.158.036-.145-.014.012-.043.089-.055.174-.036.043.011.036.022-.03.05zm-4.124-.83c-.112.127-.189.184-.196.15-.009-.028-.048-.05-.087-.045-.037.003-.067-.01-.06-.032.011-.046.453-.298.499-.286.015.004-.056.1-.156.213zM6.177 27.348c.22.113.615.3.875.42.461.21.486.224.797.55.176.188.333.357.348.377.01.02-.039.052-.117.068a1.468 1.468 0 0 0-.355.16c-.16.092-.232.114-.281.08-.046-.028-.057-.064-.032-.095.028-.042.015-.057-.056-.068-.118-.02-.159-.05-.55-.386-.589-.503-.933-.862-1.09-1.151-.143-.26-.15-.27-.045-.214.061.033.29.148.506.26zm16.035 4.215c.026.056-.022.084-.288.17-.175.055-.33.096-.345.092-.016-.005.1-.084.26-.177.161-.093.3-.166.316-.162.015.004.039.039.057.077zm-16.685-4.38c-.034.019-.093-.054-.08-.1.006-.023.029-.017.055.023.027.036.035.07.025.076zm16.027 4.536c-.4.23-.44.248-1.196.395-.429.083-.822.154-.867.154-.07.002-.1-.026-.13-.145a.957.957 0 0 0-.192-.311.855.855 0 0 1-.142-.178c.007-.01.248-.081.537-.16.52-.145.54-.143 1.06-.094.294.025.701.056.9.064l.405.026c.02.002-.15.116-.375.25zm-8.038-2.195c-.018.115-.039.146-.107.157-.051.006-.148.03-.224.05-.116.035-.219.02-.705-.114l-.57-.157-.066-.215c-.035-.116-.051-.223-.037-.232.04-.022.746.118 1.281.253l.45.116-.022.142zm.996.181c-.046.02-.1.022-.116.006-.017-.017-.053-.018-.085-.006-.056.026-.258-.004-.393-.052-.042-.012-.06-.053-.048-.1.02-.072.048-.069.378.02.313.088.343.1.264.132zm-2.816-.582c.028.094.058.197.07.232.014.054-.068.036-.558-.116-.913-.29-1.337-.44-1.295-.458.039-.022.876.058 1.395.131.155.021.29.04.306.041.015.004.052.08.082.17zm-3.316-.79c.238.093.427.185.45.224.052.083.056.08-.262.119l-.264.032-.276-.288c-.333-.353-.351-.378-.186-.305.07.035.315.13.538.218zm11.43 2.989a2.902 2.902 0 0 1-.326.114c-.385.115-.662.09-.662-.062 0-.09-.018-.104-.162-.089-.062.004-.133-.023-.215-.086l-.118-.098.2.021c.617.063 1.291.17 1.283.2zM5.965 27.85c.026.057.188.277.357.491l.32.415c.036.054-.198-.148-.3-.262a.66.66 0 0 0-.137-.13c-.103-.029-.388-.516-.361-.616.011-.042.075.012.12.102zm4.244 1.483c.188.235.453.549.59.697.141.149.249.284.239.306-.024.043-.187.008-.206-.046-.01-.024-.076-.037-.162-.04-.083.003-.154-.008-.162-.023-.009-.014-.167-.07-.35-.118-.531-.138-.641-.25-.835-.816-.085-.249-.149-.471-.143-.494.019-.07.266-.057.486.027.187.07.24.121.543.507zm.794-.05c.594.192.836.285.846.325.034.12.25.65.326.795l.082.153-.135-.016c-.766-.073-.817-.083-.902-.147-.217-.173-1.162-1.294-1.205-1.425-.006-.026.023-.026.074 0 .043.024.457.164.914.315zm-4.371-.917c.262.235.558.495.665.573.151.11.193.167.19.244-.011.117-.05.11-.326-.046-.23-.136-.508-.448-.994-1.121-.11-.157-.018-.087.465.35zm5.905 1.406c.026.027.032.05.017.046-.07-.019.159.28.25.325.141.071.283.34.248.47-.029.107-.034.11-.177.047a.894.894 0 0 0-.332-.064c-.149.001-.195-.011-.234-.063-.092-.132-.361-.861-.343-.93.01-.039.521.11.571.169zm-3.494-.628.12.345-.347-.311c-.193-.171-.35-.324-.346-.336.008-.03.303-.075.388-.052.031.005.115.167.185.354zm4.251.872c-.005.02-.037.031-.071.022-.031-.008-.041-.032-.025-.048a.076.076 0 0 1 .072-.022c.02.005.03.025.024.048zm-4.484-.77c.306.267.45.425.493.535.073.176.073.221.004.17-.038-.027-.05-.014-.052.056 0 .09-.003.09-.272-.012a3.008 3.008 0 0 1-.486-.24c-.254-.16-.242-.156-.222-.093.008.03-.01.034-.052.01a4.835 4.835 0 0 0-.317-.154c-.149-.073-.253-.142-.256-.18-.012-.106.041-.092.246.05.107.077.202.136.215.131.01-.005-.077-.078-.191-.158-.115-.08-.204-.161-.198-.184.022-.081.192-.196.391-.262.112-.035.219-.064.238-.06.015.005.223.18.459.39zm10.263 2.725c.047.07.09.168.103.213.017.074.01.072-.077-.033-.053-.064-.114-.113-.141-.104a1.542 1.542 0 0 1-.3-.034c-.31-.055-.319-.11-.03-.255.192-.101.196-.1.278-.008.048.05.125.148.167.221zM7.358 29.31c.095.059.224.237.21.29-.01.035-.356-.284-.413-.377-.029-.045-.014-.04.203.087zm2.314.661c.05.063.047.07-.004.061a.182.182 0 0 1-.096-.087c-.041-.09.02-.073.1.026zm9.885 2.604a.758.758 0 0 1-.203.065c-.216.057-.251.019-.06-.066.107-.045.275-.045.263 0zm-1.142.273c-.133.035-.172.028-.16-.018.008-.03.1-.038.23-.016.024.002-.008.018-.07.034z" fill="#0B212B"/></svg>