<svg width="34" height="33" viewBox="0 0 34 33" fill="none" xmlns="http://www.w3.org/2000/svg">
<path d="M20.1164 0.565842C19.7487 0.496079 19.0663 0.403685 18.7555 0.382081C18.5939 0.371655 18.645 0.426457 18.8273 0.467093C18.9138 0.482033 18.9797 0.51204 18.9746 0.531219C18.9592 0.588756 18.7537 0.603602 18.6003 0.56249C18.4584 0.524462 18.359 0.41972 18.4271 0.380408C18.4767 0.348492 18.3739 0.333277 18.2782 0.352859C18.2337 0.365596 18.191 0.387032 18.1858 0.406211C18.1766 0.440733 18.4082 0.589123 18.5966 0.668391C18.7784 0.741768 18.7932 0.778622 18.6206 0.73237C18.4479 0.686119 18.2116 0.709112 18.3118 0.764743C18.3481 0.782692 18.401 0.784547 18.4302 0.767697C18.4594 0.750851 18.5067 0.742978 18.5374 0.7512C18.5834 0.763534 18.5803 0.775041 18.5297 0.810792C18.4946 0.834284 18.4145 0.841606 18.3531 0.825162C18.2918 0.808717 18.1723 0.809597 18.0804 0.830207C17.9722 0.850541 17.7952 0.836004 17.5188 0.778373C17.1098 0.693469 16.9902 0.649072 17.0509 0.591333C17.0724 0.57243 17.0514 0.558592 16.9887 0.562354C16.9146 0.563032 16.9041 0.556113 16.9583 0.53776C16.9952 0.522968 17.0548 0.530713 17.0939 0.553527C17.1396 0.582231 17.1532 0.577643 17.1423 0.541818C17.1323 0.502157 17.1449 0.501404 17.1983 0.532164C17.2573 0.572652 17.2719 0.564228 17.2779 0.495936C17.2862 0.403601 17.3036 0.400041 17.5363 0.421296C17.6402 0.432675 17.6813 0.447817 17.6588 0.470556C17.6373 0.48946 17.7094 0.496453 17.8107 0.486598C17.9169 0.473935 18.0185 0.447706 18.0382 0.420103C18.0579 0.3925 18.0523 0.382773 18.0127 0.392702C17.8906 0.433995 17.6903 0.429666 17.6487 0.385618C17.6175 0.348486 17.6234 0.341842 17.6733 0.355204C17.7078 0.364454 17.7503 0.359389 17.7669 0.343293C17.8765 0.241104 15.6734 0.36202 14.7086 0.510509C10.7296 1.12172 6.97997 3.33197 4.45108 6.55589C3.87132 7.29267 3.31367 8.14639 3.21713 8.4453C2.88668 9.47912 2.91052 9.43617 2.74729 9.46232C2.68639 9.47479 2.62391 9.52383 2.58802 9.59643C2.53725 9.69383 2.53951 9.73144 2.59033 9.80261C2.65621 9.89427 2.65621 9.89427 2.4774 10.3315C2.26857 10.8346 1.95183 11.7406 1.84905 12.1242C1.78635 12.3581 1.76559 12.3896 1.6627 12.436C1.56571 12.4758 1.53803 12.5177 1.49178 12.6903C1.44347 12.8706 1.44573 12.9082 1.52313 13.003C1.611 13.1046 1.6097 13.1248 1.518 13.6512C1.42761 14.1573 1.28646 15.3898 1.30735 15.4653C1.31475 15.4837 1.26378 15.5359 1.19466 15.579C1.11582 15.6278 1.05485 15.7019 1.03532 15.7748L1.00832 15.8909L1.12149 15.8061C1.18677 15.7619 1.24897 15.7292 1.26047 15.7323C1.28349 15.7385 1.27743 16.0986 1.25482 16.183C1.23529 16.2559 1.16118 16.1949 1.0818 16.0462C1.0175 15.918 1.00037 15.9052 0.983928 15.9665C0.97365 16.0049 1.0244 16.1377 1.10124 16.2652C1.22863 16.4802 1.23397 16.5063 1.22824 17.0187C1.22712 17.3144 1.23879 17.8232 1.26013 18.1578C1.28373 18.5301 1.2796 18.7756 1.25144 18.7886C1.10834 18.8777 1.13495 19.3001 1.30885 19.5564C1.3709 19.647 1.44479 19.8929 1.5086 20.2225C1.60699 20.7298 1.83254 21.6372 1.91616 21.8775C1.94013 21.9415 1.94923 22.0302 1.93895 22.0686C1.92765 22.1108 1.93422 22.1783 1.95079 22.2239C1.98215 22.3063 1.98599 22.3073 2.03031 22.2493C2.0521 22.214 2.06162 22.1631 2.04861 22.135C2.03279 22.102 2.05794 22.0388 2.11891 21.9647L2.21242 21.8459L2.26316 21.9787C2.29275 22.0524 2.41595 22.3444 2.53354 22.6267C2.65496 22.91 2.7483 23.1447 2.73858 23.1503C2.71426 23.1643 2.39049 22.8844 2.29906 22.7653C2.24337 22.6969 2.1755 22.5513 2.14366 22.44C2.11182 22.3287 2.07662 22.2453 2.06586 22.2547C2.05127 22.2631 2.06373 22.324 2.08565 22.3957C2.11242 22.4645 2.12077 22.5408 2.10591 22.5656C2.09207 22.5865 2.11323 22.6456 2.15385 22.6935C2.1983 22.7424 2.27562 22.8988 2.32992 23.049C2.38423 23.1993 2.44265 23.3341 2.46155 23.3556C2.48148 23.3733 2.45601 23.2843 2.40807 23.1563L2.31856 22.9227L2.60041 23.175C2.83575 23.386 2.92055 23.4992 3.1495 23.9182L3.42235 24.4189L3.35013 24.7038C3.28641 24.9416 3.28633 25.0032 3.33585 25.0946L3.39763 25.2016L3.39243 25.0522C3.3893 24.8951 3.49501 24.6234 3.54741 24.658C3.61412 24.7005 4.15196 25.6545 4.18072 25.7773C4.19496 25.8469 4.2192 25.8945 4.23379 25.8861C4.24838 25.8777 4.24613 25.8401 4.22853 25.7984C4.2099 25.7605 4.21326 25.7326 4.23627 25.7388C4.27079 25.748 4.52166 26.2387 4.51138 26.2771C4.50316 26.3077 4.17781 26.0643 3.92254 25.8356C3.79631 25.7237 3.69638 25.6517 3.70452 25.6826C3.72288 25.7369 4.37116 26.3094 4.44021 26.3279C4.46322 26.334 4.49822 26.3722 4.51685 26.4101C4.53548 26.448 4.56486 26.4764 4.58329 26.469C4.60555 26.4626 4.62932 26.4813 4.63849 26.5085C4.64562 26.5433 4.64075 26.5461 4.61801 26.5235C4.59527 26.501 4.57609 26.4958 4.57095 26.515C4.55835 26.5774 4.62574 26.6942 4.73204 26.7884C4.788 26.8404 4.83676 26.9193 4.84285 26.9579C4.84408 26.9993 4.91148 27.1161 4.98784 27.2146C5.06805 27.3142 5.18167 27.4886 5.24242 27.5994C5.34042 27.786 5.43878 27.8946 5.40413 27.7784C5.38502 27.7116 5.43947 27.7385 5.49207 27.8184C5.51837 27.8584 5.67269 28.0189 5.83083 28.1805C5.99385 28.3393 6.0835 28.4497 6.03288 28.4238C5.98227 28.3979 6.03336 28.4527 6.14247 28.5518C6.25261 28.6471 6.36966 28.7319 6.40316 28.745C6.52487 28.7817 6.95221 29.0895 7.12262 29.2667C7.30528 29.4595 7.99905 30.0771 8.04508 30.0894C8.05659 30.0925 7.98303 29.9988 7.87803 29.8843C7.71735 29.7015 7.60428 29.4944 7.65188 29.4702C7.66648 29.4617 7.82319 29.5366 8.6937 29.9549C8.85809 30.0318 9.03501 30.108 9.08488 30.1214C9.13858 30.1357 9.18125 30.176 9.18556 30.2059C9.1896 30.2522 9.17604 30.2568 9.13412 30.2291C9.05028 30.1738 9.18898 30.3466 9.28891 30.4186C9.46295 30.5516 9.22493 30.4426 8.96575 30.2744C8.81903 30.1776 8.68149 30.1078 8.6554 30.1132C8.59244 30.1333 8.66264 30.2549 8.75087 30.2785C8.79306 30.2898 8.826 30.3357 8.82621 30.3809C8.82641 30.4262 8.84401 30.4679 8.86702 30.4741C8.93223 30.4916 9.27107 30.792 9.24572 30.8099C9.20298 30.8314 8.99592 30.7142 9.00722 30.672C9.01236 30.6528 8.94359 30.618 8.85537 30.5943C8.73159 30.5653 8.70269 30.5657 8.74152 30.6049C8.83248 30.6951 9.91792 31.2778 10.247 31.4153C10.4221 31.4828 10.7473 31.6193 10.9693 31.7116C11.195 31.805 11.7626 32.0188 12.2329 32.1818C12.9759 32.4467 13.1869 32.5032 13.8377 32.6365C14.7382 32.8202 15.3446 32.9046 16.125 32.9533C16.788 32.9953 17.1223 32.9903 17.9625 32.9236C18.6512 32.8696 18.7768 32.8457 18.7229 32.7861C18.6935 32.7576 18.7014 32.7433 18.7516 32.7403C18.7902 32.7342 18.8045 32.7422 18.7869 32.7621C18.7106 32.8321 18.9385 32.7945 19.468 32.6445C19.6596 32.589 19.8924 32.5486 19.9868 32.5492C20.2951 32.5496 20.895 32.5047 21.015 32.4711C21.0808 32.4558 21.1051 32.4418 21.0713 32.4451C21.0386 32.4445 20.8042 32.4599 20.5535 32.4749C20.3028 32.49 20.0775 32.4871 20.0499 32.4674C20.0261 32.4487 19.9394 32.4501 19.859 32.4738C19.6983 32.5212 19.5715 32.5037 19.6015 32.4377C19.6174 32.4091 19.5821 32.3873 19.488 32.3703C19.3113 32.3394 19.3345 32.3292 19.7199 32.2721C19.8956 32.2452 20.2318 32.1873 20.4667 32.1392C20.6977 32.0901 20.8871 32.0586 20.885 32.0663C20.8819 32.0778 20.6956 32.1594 20.4658 32.25C20.2388 32.3454 20.0601 32.429 20.0658 32.4388C20.0788 32.4669 20.4074 32.3453 20.8645 32.143C21.2187 31.9871 22.1532 31.6907 22.2261 31.7103C22.2645 31.7206 22.2154 31.8883 22.1434 31.9882C22.1098 32.0368 22.0043 32.1236 21.9137 32.1857L21.7471 32.3014L21.9421 32.218C22.1604 32.1243 22.3937 31.8826 22.4011 31.7325C22.4073 31.6478 22.4483 31.6177 22.6653 31.5443C22.8058 31.4956 23.0522 31.4506 23.2113 31.4398C23.704 31.4115 24.5534 31.2485 24.5208 31.1863C24.5113 31.1756 24.4302 31.1867 24.3325 31.214C24.1349 31.2762 23.7061 31.3422 23.3753 31.3645L23.1448 31.3809L23.2682 31.3194C23.3342 31.2877 23.5536 31.1903 23.7573 31.1051C23.9572 31.0189 24.3378 30.8413 24.6001 30.706C25.1005 30.4495 25.141 30.4521 25.0711 30.713C25.0454 30.8089 24.9931 30.8812 24.9025 30.9433C24.8313 30.9941 24.7998 31.035 24.8336 31.0317C24.8635 31.0274 24.95 30.9807 25.0184 30.925C25.118 30.8448 25.1556 30.7809 25.2081 30.5852L25.2756 30.3485L25.6192 30.1404C25.8088 30.0309 26.0513 29.8779 26.1575 29.8036C26.3232 29.6918 26.9148 29.5091 26.8973 29.5743C26.8891 29.605 26.2841 30.0678 25.9459 30.3019C25.7802 30.4138 25.6952 30.4856 25.7526 30.4557C25.8798 30.3952 26.6023 29.8776 26.8914 29.6426C27.0017 29.5529 27.174 29.447 27.2769 29.4005C27.3787 29.3579 27.4576 29.3092 27.4492 29.2946C27.4407 29.28 27.3983 29.2851 27.3517 29.3055C27.2818 29.3361 27.278 29.3351 27.322 29.2934C27.3456 29.2668 27.416 29.2035 27.4736 29.1573C27.5284 29.1062 27.5697 29.0597 27.5612 29.0451C27.5567 29.0315 27.4532 29.1107 27.3388 29.2157C27.1813 29.3585 27.0656 29.422 26.8885 29.4691C26.7598 29.5045 26.6487 29.52 26.6403 29.5054C26.6319 29.4908 26.7863 29.3595 26.9814 29.2145C27.1765 29.0694 27.3941 28.9016 27.4587 28.8449C27.6023 28.7231 27.6731 28.7503 27.6348 28.9085C27.5723 29.1878 27.5706 29.1791 27.6584 29.1122C27.6993 29.0821 27.7457 29.0164 27.7591 28.9665C27.7714 28.9205 27.9776 28.6879 28.2127 28.4549C28.4488 28.2181 28.7962 27.8425 28.9867 27.6222C29.2314 27.3383 29.3753 27.2001 29.4859 27.1557C29.709 27.0593 29.9418 26.8503 29.974 26.715C29.9914 26.6498 29.9972 26.5363 29.9899 26.4562C29.9767 26.3211 29.9906 26.3001 30.2943 25.9951C30.6903 25.5914 30.8086 25.4258 31.086 24.9122C31.2322 24.643 31.3654 24.4526 31.4712 24.3494C31.662 24.1744 31.7477 23.9466 31.6777 23.8086C31.6395 23.7367 31.649 23.6858 31.7311 23.5022C31.7831 23.3846 31.9327 23.0259 32.0661 22.7122C32.1957 22.3974 32.3377 22.0819 32.3765 22.0142C32.4162 21.9426 32.5 21.7678 32.5652 21.6167C32.6293 21.4694 32.7226 21.3053 32.7687 21.256C32.8294 21.1982 32.8653 21.1256 32.8736 21.0333C32.8778 20.9563 32.9817 20.5072 33.1015 20.0295C33.2907 19.2621 33.4207 18.5158 33.426 18.1431L33.4287 18.0411L33.3762 18.1298L33.3275 18.2195L33.3281 18.1251C33.3282 18.0635 33.3461 18.0272 33.3837 18.0249C33.4513 18.0183 33.46 17.7863 33.3959 17.7034C33.3713 17.6721 33.3812 17.5432 33.4277 17.3542C33.5967 16.6471 33.4641 14.7328 33.139 13.215C32.7506 11.3966 32.1464 9.86152 31.1621 8.19584C29.9528 6.15744 28.2965 4.40628 26.3882 3.15081C25.8156 2.77129 25.5262 2.62385 25.5067 2.69673C25.4995 2.72359 25.4811 2.73098 25.465 2.71433C25.4499 2.69385 25.4238 2.69919 25.411 2.71632C25.3764 2.76871 24.9406 2.67662 24.8648 2.60695C24.8287 2.57263 24.5677 2.45746 24.2806 2.34763C23.602 2.08769 23.5125 2.02261 23.9217 2.09114C24.2867 2.15604 24.5586 2.13846 24.4858 2.05728C24.4196 1.982 24.3179 1.96295 24.2794 2.01432C24.2597 2.04192 24.1152 2.0443 23.919 2.02463C23.6353 1.99385 23.5903 1.97768 23.5653 1.91754C23.5467 1.87965 23.4688 1.81766 23.3875 1.78354C23.2489 1.71763 23.244 1.72044 23.3015 1.7975C23.4164 1.95164 23.2572 1.85552 22.9592 1.58657C22.797 1.44031 22.6181 1.31015 22.5595 1.29857C22.4549 1.27466 22.4549 1.27466 22.5628 1.33234C22.6239 1.36516 22.7532 1.46559 22.8518 1.55779C22.9515 1.64616 23.0672 1.75118 23.1071 1.78653C23.1508 1.8229 23.1809 1.86387 23.1768 1.87922C23.1737 1.89072 23.019 1.86982 22.8328 1.82815C22.5344 1.76052 22.4751 1.7364 22.3443 1.6109L22.1963 1.47259L22.2847 1.60316L22.373 1.73372L21.9521 1.61683C21.7219 1.55516 21.5793 1.5046 21.6427 1.51337C21.7542 1.52681 21.8121 1.4642 21.7124 1.43748C21.6203 1.41281 21.6739 1.32028 21.7946 1.29919C21.8844 1.28625 21.9011 1.27015 21.8751 1.21385C21.849 1.15754 21.856 1.14706 21.9145 1.15864C21.9759 1.17509 21.9741 1.16639 21.9095 1.11617C21.8647 1.08363 21.8471 1.04192 21.8638 1.02582C21.9078 0.984177 20.8011 0.695842 20.1164 0.565842ZM21.5103 1.42445C21.5167 1.44671 21.4885 1.45972 21.4463 1.44842C21.4003 1.43609 21.3709 1.40766 21.376 1.38848C21.3822 1.36546 21.4093 1.35628 21.44 1.3645C21.4707 1.37273 21.505 1.39835 21.5103 1.42445ZM23.3722 2.11658C23.4325 2.19851 23.4774 2.27632 23.4761 2.29653C23.471 2.31571 23.3664 2.29179 23.2401 2.24151C23.1127 2.19505 22.9432 2.1373 22.8665 2.11674C22.7744 2.09207 22.6906 2.03672 22.637 1.96068L22.5484 1.84649L22.7271 1.86972C23.1366 1.92189 23.2552 1.97012 23.3722 2.11658ZM23.5508 2.09454C23.5681 2.15262 23.4799 2.12898 23.4166 2.05856C23.3787 2.01554 23.3846 2.0089 23.4537 2.0274C23.4997 2.03973 23.5455 2.06844 23.5508 2.09454ZM22.5355 1.92526L22.6162 2.05377L22.3911 1.97292C22.0465 1.84768 21.9621 1.82506 21.6403 1.76764C21.381 1.72282 21.3399 1.70767 21.3323 1.64397C21.33 1.60636 21.3385 1.55931 21.359 1.54424C21.3756 1.52814 21.6291 1.57961 21.9206 1.65772C22.4384 1.79647 22.4566 1.80545 22.5355 1.92526ZM21.1175 1.58641C21.1051 1.63244 21.0368 1.62648 20.7108 1.53911C20.3004 1.42914 20.25 1.38687 20.573 1.42409C20.9442 1.46598 21.1349 1.52121 21.1175 1.58641ZM21.0578 1.80889C21.0229 1.93931 20.9256 1.99547 20.732 1.99703C20.6174 1.9951 20.5506 2.0142 20.5393 2.0564C20.5259 2.10626 20.4855 2.10366 20.2595 2.02664C20.1168 1.97608 20.0045 1.95011 20.0081 1.96751C20.0155 1.98594 19.9891 2.00765 19.9515 2.00991C19.8377 2.02051 19.8062 1.99976 19.8467 1.94071C19.8851 1.88934 19.8555 1.87728 19.5742 1.82246C19.4023 1.78875 19.2642 1.75174 19.2673 1.74024C19.2704 1.72873 19.3446 1.6664 19.4363 1.60052C19.7036 1.4008 19.8579 1.3928 20.5176 1.56958C21.0815 1.72067 21.0815 1.72067 21.0578 1.80889ZM22.4544 2.10499C22.4117 2.12643 21.8695 2.00171 21.8788 1.96719C21.8829 1.95185 22.0174 1.97145 22.1824 2.01565C22.3435 2.05881 22.4641 2.09937 22.4544 2.10499ZM22.7398 2.20612C22.7479 2.23708 22.72 2.23372 22.6513 2.19885C22.5148 2.12527 22.5046 2.10198 22.6273 2.13487C22.681 2.14926 22.7334 2.18385 22.7398 2.20612ZM23.0083 2.27806C22.9916 2.29416 22.952 2.30409 22.9213 2.29587C22.8906 2.28764 22.8612 2.25921 22.8549 2.23695C22.8457 2.20983 22.8843 2.20373 22.9418 2.21915C22.9994 2.23457 23.0298 2.25916 23.0083 2.27806ZM23.4673 2.42161C23.4169 2.44099 23.3406 2.44934 23.2946 2.437C23.2486 2.42467 23.1867 2.37932 23.1527 2.33733C23.1009 2.26999 23.1134 2.26924 23.3244 2.32577C23.5354 2.38229 23.5458 2.38921 23.4673 2.42161ZM16.2853 0.517769C16.2687 0.533864 16.2214 0.541737 16.1879 0.528651C16.1342 0.514262 16.1401 0.507618 16.2086 0.497213C16.3235 0.482769 16.3235 0.482769 16.2853 0.517769ZM21.4478 1.93393C21.4772 1.96236 21.3241 2.07345 21.2704 2.05906C21.255 2.05495 21.253 2.00098 21.2705 1.93577C21.3003 1.82453 21.3369 1.82611 21.4478 1.93393ZM17.7301 0.987104C17.712 1.08506 17.6793 1.08451 16.9535 0.939364C16.3804 0.822799 16.2663 0.78813 16.4255 0.777321C16.4669 0.776092 16.5421 0.771577 16.5895 0.763704C16.9428 0.718593 17.0264 0.728669 17.4159 0.824806C17.7199 0.902166 17.7447 0.917033 17.7301 0.987104ZM19.5436 1.46072C19.5037 1.48702 19.4088 1.51914 19.3287 1.52646C19.2351 1.53837 19.1961 1.56083 19.2179 1.58721C19.3267 1.70271 18.7292 1.8304 18.4454 1.75435C18.3495 1.72865 18.3495 1.72865 18.5118 1.64469C18.5983 1.59798 18.7552 1.54956 18.8537 1.53484C18.9522 1.52013 19.0655 1.48061 19.1075 1.44664C19.1457 1.41164 19.2626 1.38953 19.3608 1.39118C19.6169 1.40223 19.6207 1.40326 19.5436 1.46072ZM22.8768 2.47718C22.9067 2.53451 22.9082 2.55958 22.8744 2.56287C22.8204 2.56485 22.7336 2.45935 22.7469 2.40949C22.7613 2.35579 22.8224 2.3886 22.8768 2.47718ZM15.4182 0.532079C15.4015 0.548175 15.358 0.557076 15.3273 0.548853C15.2966 0.540631 15.2864 0.517341 15.3031 0.501245C15.3208 0.481314 15.3632 0.476249 15.3939 0.484471C15.4246 0.492694 15.4358 0.512148 15.4182 0.532079ZM17.414 1.56842C17.3804 1.61698 17.2093 1.5958 17.2227 1.54594C17.2298 1.51909 17.3099 1.51176 17.4061 1.52109C17.4253 1.52623 17.4278 1.54746 17.414 1.56842ZM17.6362 1.64441C17.6216 1.65283 17.586 1.64741 17.5623 1.62871C17.5347 1.60898 17.5492 1.60056 17.5914 1.61186C17.6347 1.61933 17.6546 1.63701 17.6362 1.64441ZM17.921 1.77827C17.8864 1.83067 17.8927 1.85294 17.9426 1.8663C17.9963 1.88069 17.9971 1.89322 17.9533 1.91849C17.9192 1.93815 17.8908 1.96753 17.8867 1.98288C17.8744 2.02891 18.1611 2.04818 18.2832 2.00689C18.3374 1.98853 18.4182 1.99375 18.4612 2.01759C18.5108 2.04732 18.5724 2.04739 18.6249 2.02034C18.6725 1.99609 18.7073 1.98897 18.7032 2.00432C18.6919 2.04651 18.3675 2.32137 18.2879 2.3576C18.1947 2.39841 17.3027 2.16763 17.3182 2.1101C17.3243 2.08708 17.3584 2.06743 17.3921 2.06414C17.4269 2.05702 17.462 2.03353 17.4692 2.00668C17.4898 1.92996 17.8456 1.67586 17.907 1.69231C17.9492 1.70361 17.9507 1.72868 17.921 1.77827ZM17.2124 1.75287L17.4042 1.80426L17.2314 1.94295C17.0381 2.09672 16.8838 2.10472 16.9653 1.95389C17.013 1.868 17.0064 1.86211 16.8606 1.82305C16.7762 1.80044 16.7113 1.76659 16.7164 1.74742C16.7308 1.69371 16.9263 1.63921 16.9749 1.67278C17.0035 1.68867 17.1089 1.72512 17.2124 1.75287ZM18.6793 2.27749C18.6453 2.29714 18.6251 2.29584 18.6313 2.27282C18.6456 2.21912 18.704 2.18543 18.7237 2.21947C18.7282 2.23304 18.7085 2.26064 18.6793 2.27749ZM18.1654 2.47691C18.1624 2.48842 18.0279 2.63739 17.8632 2.80704L17.5689 3.12286L17.0511 2.98411L16.5371 2.84638L16.69 2.69002C16.7742 2.6057 16.9171 2.47132 17.0052 2.38804L17.1686 2.23859L17.4834 2.3065C17.6571 2.34891 17.8826 2.39702 17.9872 2.42093C18.088 2.44382 18.1675 2.46924 18.1654 2.47691ZM18.989 2.82502C19.0681 2.92846 19.1412 2.99326 19.1627 2.97436C19.2116 2.92991 19.4397 2.99925 19.4791 3.06734C19.5071 3.11598 19.5263 3.12111 19.5606 3.08509C19.5929 3.05673 19.6131 3.05803 19.6202 3.09283C19.6294 3.11996 19.678 3.15353 19.7278 3.16689C19.7892 3.18333 19.826 3.23019 19.8445 3.32972C19.8812 3.49987 19.8719 3.53439 19.7952 3.51384C19.7607 3.50459 19.7353 3.52246 19.7407 3.54856C19.7412 3.57747 19.7191 3.62911 19.6907 3.6585C19.6435 3.71165 19.5571 3.69671 18.7055 3.46853C18.1954 3.33184 17.7678 3.20905 17.7594 3.19446C17.7454 3.17014 18.0617 2.80268 18.2546 2.62001C18.3642 2.51782 18.3767 2.51707 18.6068 2.57873C18.8255 2.63732 18.8636 2.66397 18.989 2.82502ZM20.0889 3.06218C20.1977 3.17768 20.288 3.19365 20.2771 3.09618C20.2738 3.06241 20.3086 3.05529 20.3767 3.07762C20.6267 3.15696 20.6193 3.13854 20.5423 3.42622C20.4775 3.66788 20.4626 3.69268 20.3974 3.6752C20.3361 3.65876 20.087 3.34536 20.0248 3.20945C20.0163 3.19486 19.9824 3.15287 19.9463 3.11855C19.8715 3.04504 19.865 2.91585 19.9379 2.93538C19.9609 2.94155 20.0322 2.99765 20.0889 3.06218ZM16.611 2.46328L16.2929 2.7604L15.8405 2.62275C15.5884 2.55108 15.3693 2.46359 15.3514 2.43824C15.2676 2.32124 15.4511 2.06617 15.5577 2.14406C15.5853 2.16379 15.663 2.18051 15.7295 2.17777C15.7989 2.1799 15.8641 2.19738 15.8781 2.22169C15.8922 2.24601 15.9472 2.24019 16.0142 2.20472C16.0851 2.17027 16.1701 2.16014 16.2496 2.18556C16.3253 2.20995 16.4342 2.20215 16.5292 2.17003C16.6126 2.13483 16.7352 2.12244 16.8042 2.14095L16.928 2.17L16.611 2.46328ZM15.0163 1.80166C15.0081 1.83234 14.9855 1.85508 14.9625 1.84892C14.9433 1.84378 14.9283 1.8233 14.9334 1.80412C14.9386 1.78494 14.9151 1.74986 14.8826 1.73294C14.8435 1.71013 14.8609 1.70657 14.9271 1.72021C14.9972 1.73487 15.0266 1.7633 15.0163 1.80166ZM15.3065 1.89998C15.298 1.94704 15.2706 1.97258 15.2361 1.96333C15.1594 1.94278 15.104 2.02661 15.1292 2.13203C15.1445 2.19779 15.1276 2.23026 15.0372 2.27594C14.8642 2.36936 14.8121 2.31839 14.9662 2.20346L15.1009 2.09977L15.0158 2.00297L14.9297 1.91001L15.0262 1.90297C15.0822 1.89331 15.1124 1.87263 15.1043 1.84167C15.0961 1.81071 15.102 1.80406 15.1247 1.8266C15.1447 1.84427 15.1725 1.84763 15.1941 1.82873C15.2537 1.77483 15.3243 1.8184 15.3065 1.89998ZM21.4326 3.69358C21.4439 3.71303 21.6096 3.76976 21.8042 3.82602C22.1532 3.91955 22.1609 3.9216 22.3803 4.1613C22.7625 4.57615 22.806 4.56725 21.7205 4.27639L20.7539 4.01738L20.817 3.8123L20.8802 3.60722L21.0083 3.66621C21.0934 3.70136 21.129 3.70677 21.118 3.67095C21.0989 3.60416 21.3933 3.62549 21.4326 3.69358ZM14.6913 1.94068C14.6554 1.95164 14.59 1.95054 14.5478 1.93923C14.4874 1.91895 14.4884 1.91511 14.5762 1.90985C14.7218 1.90363 14.7716 1.91699 14.6913 1.94068ZM15.1755 2.35822C15.1819 2.38048 15.1614 2.39555 15.1269 2.3863C15.0924 2.37705 15.0822 2.35376 15.0988 2.33766C15.1165 2.31773 15.1398 2.30753 15.1474 2.30958C15.1551 2.31164 15.1702 2.33212 15.1755 2.35822ZM14.3778 2.41993C14.278 2.45486 14.0579 2.53978 13.8883 2.60532C13.7214 2.67572 13.5469 2.74407 13.4975 2.75961C13.4297 2.78255 13.4698 2.80153 13.7153 2.86731L14.0096 2.95028L13.8181 3.11275C13.4721 3.40651 13.5282 3.39685 12.9873 3.25193C12.5549 3.13195 12.5137 3.11681 12.5923 3.08442C12.6427 3.06504 12.7228 3.05772 12.7688 3.07005C12.8149 3.08238 12.8796 3.07095 12.9147 3.04746C12.9497 3.02397 12.9646 2.99917 12.9454 2.99403C12.9301 2.98992 12.9391 2.97177 12.9731 2.95211C13.119 2.86787 13.0267 2.85958 12.8212 2.93607C12.6699 2.99421 12.5502 3.01146 12.4658 2.98885C12.2472 2.93027 12.2175 2.74964 12.4138 2.64602C12.5041 2.60034 12.5072 2.58883 12.4497 2.57341C12.3499 2.54669 12.425 2.4969 12.5539 2.50677C12.7319 2.51747 12.8553 2.45597 12.8152 2.37535C12.792 2.3239 12.804 2.29424 12.8627 2.24418C12.9321 2.18466 12.9889 2.18754 13.3755 2.27881C13.7584 2.36906 13.842 2.37913 14.0508 2.33641C14.1813 2.3097 14.3509 2.30582 14.4248 2.32151L14.559 2.35748L14.3778 2.41993ZM14.7628 2.44086C14.7525 2.47922 14.45 2.65715 14.4078 2.64584C14.3924 2.64173 14.3937 2.62153 14.4152 2.60262C14.4388 2.57605 14.4206 2.56707 14.3541 2.56981C14.2298 2.5735 14.2833 2.54261 14.5226 2.46283C14.7201 2.40065 14.7751 2.39483 14.7628 2.44086ZM15.3596 2.63777C15.3892 2.71148 15.5584 2.84726 15.5934 2.82377C15.6129 2.81254 15.5912 2.78616 15.5493 2.75849C15.3737 2.66209 15.5077 2.65279 15.8376 2.74118C16.037 2.79463 16.1749 2.848 16.162 2.86512C16.152 2.88711 15.9566 3.11019 15.7289 3.36163L15.3165 3.82669L14.5069 3.6262C14.0637 3.51567 13.6944 3.42084 13.6878 3.41495C13.6811 3.40906 13.7654 3.32474 13.8778 3.22742C14.0509 3.07235 14.2654 2.97771 14.3728 3.00648C14.3958 3.01265 14.4626 2.99355 14.5276 2.96574C14.5926 2.93794 14.6249 2.90958 14.598 2.90239C14.5635 2.89314 14.5773 2.87218 14.6378 2.83081C14.7176 2.77821 14.7197 2.77054 14.666 2.75615C14.5663 2.72943 14.6109 2.65504 14.787 2.55012C14.9349 2.4582 14.9551 2.45951 15.1428 2.52624C15.2558 2.56475 15.3532 2.61551 15.3596 2.63777ZM17.4688 3.23581C17.4667 3.24348 17.3437 3.39554 17.1982 3.57033C17.0479 3.74793 16.8893 3.95622 16.8388 4.03725L16.7516 4.17835L16.4946 4.10949C16.3527 4.07146 16.1041 4.01719 15.9399 3.98553C15.72 3.94715 15.6405 3.92173 15.6497 3.88721C15.6559 3.86419 15.835 3.64084 16.0453 3.39296L16.4334 2.94193L16.9512 3.08068C17.2389 3.15777 17.4708 3.22814 17.4688 3.23581ZM19.0851 3.69358C19.7372 3.86831 19.7669 3.88037 19.7254 3.94325C19.6956 3.99284 19.7086 4.02099 19.7966 4.061C19.8758 4.10279 19.8993 4.13786 19.8839 4.1954C19.8706 4.24527 19.8976 4.29774 19.949 4.33617C20.0003 4.3746 20.0274 4.42707 20.0151 4.4731C20.0038 4.5153 20.0285 4.59181 20.0709 4.64839C20.1283 4.72546 20.137 4.78533 20.1041 4.90807L20.0619 5.06534L18.5084 4.64908C17.6531 4.41988 16.958 4.22132 16.9611 4.20981C16.9704 4.17529 17.2906 3.7472 17.4933 3.49727L17.6831 3.26446L18.0441 3.38998C18.2405 3.45493 18.7092 3.59286 19.0851 3.69358ZM23.0137 4.82024C23.0418 4.86887 23.03 4.88216 22.9568 4.879C22.9067 4.88201 22.8591 4.90626 22.8509 4.93694C22.8426 4.96763 22.8232 4.97886 22.8071 4.96221C22.792 4.94173 22.7659 4.94707 22.751 4.97187C22.7313 4.99947 22.6912 4.98049 22.6202 4.90802C22.5197 4.80711 22.5159 4.80608 22.4158 4.85738C22.3022 4.91326 22.1728 4.87448 22.1274 4.76776C22.1042 4.71631 22.0801 4.77563 22.0081 5.04414C21.8601 5.59649 21.9328 5.57074 21.1649 5.35265L20.5082 5.16436L20.6334 4.65111L20.7586 4.13787L21.8679 4.44744C22.7059 4.6802 22.9856 4.7716 23.0137 4.82024ZM12.5654 2.27963C12.5175 2.32025 12.0577 2.39439 12.0381 2.36035C12.0269 2.34089 12.546 2.22922 12.5882 2.24052C12.5959 2.24258 12.5831 2.2597 12.5654 2.27963ZM22.3437 5.31083C22.3648 5.36995 22.3803 5.48098 22.3743 5.54928C22.3616 5.67332 22.3558 5.67997 22.2483 5.65119C22.1294 5.61933 22.1312 5.62803 22.1521 5.30472C22.162 5.11416 22.2728 5.11506 22.3437 5.31083ZM12.0437 2.99909C11.9964 3.00697 11.9232 3.00381 11.881 2.9925C11.8148 2.97887 11.8169 2.97119 11.8711 2.95284C11.9069 2.94188 11.9801 2.94504 12.0338 2.95943C12.122 2.98307 12.121 2.98691 12.0437 2.99909ZM19.9463 5.46605L19.8567 5.75448L18.2122 5.30972C17.3031 5.06613 16.5572 4.85804 16.5526 4.84448C16.5414 4.82502 16.7502 4.49043 16.8376 4.39461C16.8847 4.34146 17.0008 4.36845 18.4623 4.76005L20.0349 5.18144L19.9463 5.46605ZM22.063 5.79064C22.0663 5.82441 22.0304 5.89701 21.9832 5.95016C21.9018 6.03934 21.8997 6.04701 21.9634 6.03941C22.0097 6.03537 22.0506 6.06689 22.0728 6.12217C22.1042 6.20457 22.109 6.20177 22.1197 6.08539C22.1267 6.01326 22.1293 5.9112 22.1294 5.84955C22.1321 5.74749 22.1408 5.74571 22.2827 5.78374C22.417 5.81971 22.452 5.85787 22.6352 6.18653L22.8392 6.54541L22.002 6.32519C21.5378 6.20083 20.9729 6.05357 20.739 5.99088L20.316 5.88166L20.3826 5.58705L20.453 5.29348L21.2547 5.50829C21.9452 5.69329 22.0582 5.7318 22.063 5.79064ZM15.1267 4.0595C15.0706 4.1308 14.9986 4.23074 14.9601 4.28211L14.893 4.37923L14.0847 4.15853C13.6359 4.03828 13.2449 3.91707 13.2096 3.89528C13.1593 3.85302 13.1731 3.83206 13.3393 3.68747L13.527 3.52398L13.8878 3.60423C14.0807 3.65178 14.4635 3.74203 14.7369 3.81116L15.2261 3.93402L15.1267 4.0595ZM16.5639 4.40349C16.5321 4.46075 16.4619 4.56938 16.4037 4.64835L16.2981 4.79685L15.7458 4.64884L15.1896 4.49981L15.2362 4.41776C15.2611 4.37098 15.339 4.2644 15.4079 4.17597L15.5368 4.01727L16.0776 4.16219L16.6146 4.30609L16.5639 4.40349ZM13.329 3.49561C13.326 3.50712 13.2466 3.58862 13.1536 3.67472L12.9854 3.82697L12.69 3.74783C12.0763 3.58338 11.3532 3.33618 11.3798 3.2981C11.3926 3.28098 11.5119 3.23482 11.6434 3.20428C11.8504 3.15285 11.9361 3.15526 12.2903 3.22961C12.9018 3.35645 13.3373 3.46492 13.329 3.49561ZM11.4289 3.0687C11.4248 3.08404 11.3565 3.13973 11.2804 3.19336C11.1488 3.28554 11.1401 3.28732 10.921 3.19983C10.6761 3.10131 10.6712 3.10412 11.0512 3.02093C11.1952 2.98963 11.4413 3.02267 11.4289 3.0687ZM11.0214 3.36239C11.0183 3.37389 10.7883 3.58773 10.5087 3.83347C10.0539 4.24196 9.87283 4.41134 9.40337 4.88989L9.25047 5.04626L8.86689 4.94348L8.48331 4.8407L8.58243 4.73159C8.72663 4.577 9.53223 3.87195 9.84947 3.62395C10.0466 3.47122 10.1623 3.40766 10.2616 3.40548C10.3396 3.40583 10.4008 3.37699 10.41 3.34247C10.4398 3.23123 10.5393 3.21268 10.7848 3.27846C10.9191 3.31443 11.0244 3.35088 11.0214 3.36239ZM12.8343 3.93039C12.8399 3.94012 12.7044 4.09293 12.53 4.2682C12.3556 4.44347 12.0093 4.81525 11.7667 5.09148L11.3218 5.60127L10.405 5.35563C9.89872 5.21996 9.48651 5.10129 9.48856 5.09361C9.50809 5.02073 10.6078 3.95459 11.0124 3.61076L11.2292 3.43042L12.0276 3.67311C12.4684 3.80768 12.8325 3.92169 12.8343 3.93039ZM14.7775 4.48806C14.7803 4.49293 14.6924 4.62149 14.582 4.77279C14.4726 4.92026 14.2099 5.30212 13.9975 5.61931L13.6131 6.19467L12.5858 5.93175C11.7207 5.70817 11.5578 5.6563 11.5702 5.61027C11.6 5.49903 12.7772 4.1741 12.9938 4.01014C13.0261 3.98178 13.2775 4.04092 13.9063 4.22585C14.3827 4.36583 14.7747 4.4832 14.7775 4.48806ZM16.0563 4.85539C16.2366 4.9037 16.2366 4.9037 16.1705 4.99699C16.0639 5.14932 15.6248 5.88269 15.422 6.25592L15.2293 6.60716L14.9789 6.54419C14.8398 6.51103 14.5626 6.44086 14.3621 6.39125L13.9967 6.29745L14.0339 6.20463C14.09 6.07168 14.9391 4.79036 15.051 4.66413L15.1491 4.55886L15.514 4.6854C15.7142 4.75138 15.9566 4.82867 16.0563 4.85539ZM19.8075 5.87696C19.8131 5.88668 19.7059 6.30198 19.5646 6.79858L19.3106 7.70074L17.3927 7.18684L15.4786 6.67397L15.5304 6.57273C15.5722 6.49349 15.9851 5.76545 16.3584 5.109L16.4437 4.9592L18.12 5.40835C19.0406 5.65502 19.8018 5.86723 19.8075 5.87696ZM21.8698 6.45012C21.8595 6.48848 21.6649 6.49387 21.6299 6.45572C21.6166 6.44393 21.5892 6.46948 21.571 6.52215C21.5538 6.57099 21.5616 6.61832 21.5875 6.62935C21.7197 6.673 21.7805 6.72219 21.8118 6.80459C21.8383 6.88981 21.8499 6.89289 21.9629 6.86975C22.0586 6.85017 22.1643 6.87024 22.3105 6.93821C22.3171 6.9441 22.2995 6.96403 22.2693 6.98471C22.2293 7.01101 22.2298 7.03992 22.2676 7.08294C22.3159 7.13288 22.3256 7.12726 22.3452 7.05438C22.3683 6.93725 22.3028 6.76758 22.2304 6.77695C22.1764 6.77894 22.1157 6.60645 22.1394 6.51823C22.1435 6.50289 22.3355 6.53791 22.5619 6.59855C22.9378 6.69927 22.9856 6.7203 23.0313 6.81066C23.0928 6.93403 23.3005 7.12536 23.4002 7.15208C23.4386 7.16236 23.4936 7.15654 23.5228 7.13969C23.6006 7.09477 23.876 7.38646 23.8881 7.52537C23.899 7.62284 23.8979 8.54757 23.8848 8.81129C23.88 8.92102 23.8752 8.92383 23.7064 8.8786C23.6105 8.85291 23.4988 8.7942 23.4582 8.74631C23.4165 8.70226 23.279 8.63252 23.1545 8.59093C22.9542 8.52495 22.9162 8.4983 22.8613 8.38082C22.8279 8.30609 22.7996 8.21218 22.7945 8.16971C22.7923 8.1321 22.7698 8.09319 22.7506 8.08805C22.7276 8.08189 22.7128 8.10668 22.716 8.14045C22.7244 8.21669 22.6812 8.20922 22.5912 8.11523C22.3943 7.91445 22.2609 7.59914 22.3061 7.43037C22.3331 7.31426 22.277 7.15534 22.2222 7.20644C22.2055 7.22253 22.1756 7.22684 22.1595 7.2102C22.1462 7.19842 22.1004 7.23136 22.0522 7.28835C21.9823 7.38061 21.9769 7.41616 22.0084 7.54384C22.0245 7.62214 22.0645 7.70276 22.0883 7.72146C22.1159 7.74119 22.1235 7.8049 22.1071 7.86627C22.0916 7.92381 22.0923 7.99799 22.1064 8.02231C22.1232 8.05149 22.1298 8.11903 22.1241 8.17095C22.1024 8.31315 22.1287 8.41474 22.19 8.43118C22.2207 8.4394 22.2363 8.42714 22.231 8.40104C22.2256 8.37495 22.242 8.37522 22.2696 8.39495C22.4419 8.51922 22.1913 8.47262 21.0597 8.16942L19.8169 7.83641L20.0479 6.92808C20.1739 6.42737 20.2887 6.01413 20.2984 6.00851C20.3374 5.98605 21.8781 6.41943 21.8698 6.45012ZM9.88805 3.44928C9.79797 3.47859 9.7481 3.46523 9.79215 3.42359C9.80983 3.40366 9.85613 3.39962 9.89065 3.40887C9.94819 3.42429 9.94614 3.43196 9.88805 3.44928ZM9.59924 3.6679C9.41463 3.81988 8.49764 4.61843 8.36933 4.74438C8.29788 4.81157 7.67922 4.71158 7.72765 4.63822C7.74252 4.61343 7.82212 4.5772 7.90527 4.55837C7.98843 4.53954 8.07673 4.50153 8.10132 4.47112C8.12872 4.44557 8.18195 4.43106 8.22031 4.44133C8.27401 4.45572 8.33751 4.40285 8.45383 4.2449C8.54248 4.12887 8.6288 4.03689 8.65181 4.04306C8.67483 4.04922 8.70962 4.0421 8.73394 4.02806C8.75929 4.01018 8.74778 4.0071 8.71195 4.01806C8.66359 4.02977 8.65798 4.02004 8.69052 3.97531C8.71614 3.94107 8.73998 3.89812 8.74512 3.87894C8.75026 3.85976 8.77355 3.84956 8.79656 3.85572C8.81958 3.86189 8.82006 3.8908 8.7993 3.92224C8.72141 4.02881 8.94664 3.92472 9.05165 3.80896C9.09981 3.75198 9.17277 3.70986 9.20729 3.71911C9.24181 3.72836 9.35826 3.67734 9.46451 3.60302C9.56973 3.53255 9.68618 3.48153 9.72557 3.48797C9.78694 3.50441 9.76235 3.53482 9.59924 3.6679ZM24.2763 8.04051C24.2926 8.10243 24.2805 8.13209 24.2291 8.15531C24.1912 8.17394 24.1623 8.17441 24.1675 8.15523C24.1726 8.13606 24.1755 8.07927 24.1773 8.02632C24.1744 7.91453 24.2504 7.92255 24.2763 8.04051ZM24.9869 8.51869C25.0099 8.69343 25.0119 9.1462 24.9924 9.21908C24.9842 9.24977 24.9141 9.2351 24.7686 9.17968C24.5199 9.08013 24.4095 8.93956 24.4506 8.78613C24.4661 8.72859 24.4672 8.6631 24.4472 8.64543C24.3895 8.58474 24.4448 8.5009 24.5431 8.50255C24.6577 8.50448 24.7312 8.42962 24.6734 8.36892C24.6479 8.34152 24.6722 8.32748 24.7377 8.32858C24.9362 8.32422 24.9704 8.34984 24.9869 8.51869ZM25.5013 8.74697C25.4705 8.80039 25.4493 8.80293 25.4268 8.76402C25.4043 8.72511 25.4133 8.70696 25.4627 8.69141C25.4985 8.68046 25.5344 8.6695 25.5382 8.67053C25.5382 8.67053 25.5251 8.70402 25.5013 8.74697ZM8.071 5.0139C8.06586 5.03308 7.85658 5.27712 7.6053 5.55513C7.26463 5.93663 6.61903 6.75034 6.38097 7.10178C6.37611 7.10459 6.23007 7.0819 6.04951 7.04997L5.72011 6.99048L5.77368 6.89795C5.93674 6.5963 5.93674 6.5963 5.84892 6.66321C5.80309 6.69615 5.74876 6.77615 5.73129 6.84136C5.69943 6.96027 5.69559 6.95925 5.45825 6.92443C5.17488 6.87728 4.87849 6.80197 4.88569 6.77512C4.89596 6.73676 5.40037 6.12779 5.7244 5.76238C5.92265 5.54416 6.12138 5.35485 6.17844 5.34136C6.27338 5.30924 6.27619 5.31411 6.21309 5.45754C6.17616 5.53398 6.07826 5.68453 5.9927 5.78905C5.84233 5.96665 5.55185 6.51372 5.5761 6.56133C5.61363 6.62072 5.9456 6.241 6.2047 5.84174C6.55758 5.30728 6.7635 5.09112 7.10546 4.91963L7.36679 4.7882L7.72352 4.88379C7.91915 4.93621 8.07614 4.99472 8.071 5.0139ZM9.02379 5.29386C9.0207 5.30537 8.92336 5.42318 8.80553 5.55605C8.51993 5.87009 7.86817 6.70681 7.62524 7.06106L7.42973 7.34579L7.23177 7.31742C6.97908 7.27849 6.54844 7.16721 6.55667 7.13652C6.57619 7.06364 7.46697 5.9333 7.81943 5.5385L8.24258 5.06398L8.63384 5.16882C8.85248 5.2274 9.02687 5.28235 9.02379 5.29386ZM11.102 5.90004C10.7935 6.31484 10.4122 6.87869 10.1231 7.3439L9.76759 7.91878L8.7352 7.67504C8.1662 7.54313 7.69618 7.42541 7.69159 7.41185C7.66351 7.36321 8.43037 6.32711 9.04184 5.59471L9.25524 5.33532L10.2027 5.58919C11.0849 5.82558 11.1453 5.84587 11.102 5.90004ZM13.4339 6.47967C13.4309 6.49118 13.3116 6.70591 13.1668 6.95489C12.9377 7.34983 12.5103 8.13156 12.3508 8.45061L12.2959 8.56336L11.1516 8.27728C10.5232 8.12125 10.0005 7.98531 9.99493 7.97558C9.96685 7.92694 10.7613 6.68035 11.2664 5.97698L11.3304 5.89136L12.3853 6.17401C12.9645 6.32921 13.437 6.46816 13.4339 6.47967ZM15.0357 6.94587C15.0265 6.98039 14.9426 7.15526 14.8518 7.34061C14.6257 7.78569 14.4208 8.22824 14.2612 8.60894C14.1861 8.78203 14.115 8.93977 14.105 8.96176C14.0822 9.00087 13.4743 8.89143 12.9603 8.7537C12.6879 8.68073 12.6813 8.67483 12.7231 8.59558C12.7431 8.55161 12.9023 8.24893 13.0687 7.9194C13.3315 7.41425 13.6874 6.76136 13.7922 6.60033C13.8129 6.56889 13.9771 6.60055 14.4374 6.72388C14.9591 6.86366 15.0491 6.896 15.0357 6.94587ZM19.0825 8.49064C19.0057 8.76196 18.8682 9.25959 18.7729 9.59995L18.5977 10.2231L16.488 9.65783C14.4665 9.11618 14.3793 9.08871 14.3968 9.0235C14.4287 8.90459 14.8121 8.0412 15.1696 7.29008C15.2486 7.11802 15.3155 6.97562 15.3176 6.96795C15.3186 6.96411 16.198 7.19564 17.2721 7.48343L19.2207 8.00555L19.0825 8.49064ZM23.3211 9.16592C23.3397 9.2038 23.367 9.2399 23.3862 9.24504C23.4054 9.25018 23.4279 9.22744 23.4361 9.19676C23.4444 9.16607 23.4784 9.14641 23.5129 9.15566C23.5513 9.16594 23.5605 9.19307 23.5407 9.22067C23.521 9.24827 23.524 9.29841 23.5485 9.32965C23.572 9.36472 23.5837 9.41308 23.5765 9.43993C23.5704 9.46295 23.5885 9.53357 23.6173 9.59474C23.6517 9.66564 23.6755 9.68435 23.6848 9.64982C23.6961 9.60763 23.7037 9.60968 23.7221 9.66394C23.7376 9.71333 23.7532 9.70107 23.78 9.60133C23.8406 9.37502 23.8527 9.51394 23.8176 9.99787L23.7828 10.4654L23.6673 10.5126C23.6023 10.5404 23.4788 10.5567 23.3941 10.5504C23.2268 10.5303 23.1324 10.5913 23.0321 10.7659C22.9973 10.8346 22.9282 10.8778 22.8335 10.8935C22.7166 10.9157 22.6735 10.9535 22.5941 11.0966L22.4949 11.2674L20.834 10.8223L19.1731 10.3773L19.2224 10.1932C19.2491 10.0934 19.3712 9.59171 19.4974 9.07463L19.7232 8.14019L21.5068 8.61812C23.045 9.03027 23.2922 9.10475 23.3211 9.16592ZM24.3822 9.53248C24.3581 9.59179 24.3166 9.65467 24.2923 9.66871C24.2183 9.71467 24.1648 9.97578 24.2228 10.0201C24.2846 10.0655 24.2689 10.1394 24.1791 10.2139C24.1204 10.264 24.1125 10.2167 24.1342 9.84426C24.1635 9.30532 24.1594 9.32066 24.3049 9.37609C24.413 9.4174 24.4215 9.43199 24.3822 9.53248ZM5.97945 5.31682C5.89266 5.3799 5.82196 5.45963 5.82525 5.4934C5.82956 5.52333 5.78318 5.58902 5.71968 5.64189C5.63364 5.71751 5.62008 5.72209 5.65878 5.65435C5.73311 5.53038 5.68167 5.55359 5.49959 5.72681C5.30778 5.90564 5.23893 5.93242 5.38622 5.76632C5.49713 5.64393 5.87458 5.30928 5.99056 5.22935C6.1416 5.12593 6.13358 5.20189 5.97945 5.31682ZM5.12821 6.33032C4.84384 6.6858 4.74396 6.78237 4.6767 6.77257C4.60457 6.76558 4.59998 6.75201 4.64355 6.68146C4.77221 6.47749 5.45677 5.80989 5.48869 5.85956C5.4943 5.86929 5.33085 6.08038 5.12821 6.33032ZM4.80277 6.37878C4.68775 6.51653 4.59115 6.64687 4.58602 6.66605C4.57265 6.71591 4.43778 6.77433 4.41812 6.74028C4.39182 6.70035 4.95171 6.11446 5.00157 6.12782C5.00541 6.12885 4.91779 6.24105 4.80277 6.37878ZM32.7079 13.7655C32.7208 13.8553 32.7225 13.9256 32.7148 13.9236C32.688 13.9164 32.6402 13.6651 32.6536 13.6153C32.6721 13.5462 32.6858 13.5869 32.7079 13.7655ZM32.9783 14.3519C32.9258 14.3789 32.8868 14.2944 32.8474 14.0578C32.8256 13.9245 32.8083 13.8047 32.8104 13.7971C32.8135 13.7856 32.8607 13.901 32.9101 14.054C32.9634 14.2081 32.9939 14.3396 32.9783 14.3519ZM13.9829 9.23327C13.9709 9.26293 13.9306 9.36725 13.8885 9.46287L13.8162 9.64082L13.1295 9.45685C12.7536 9.35612 12.4384 9.25931 12.4358 9.23807C12.4323 9.22067 12.4705 9.12403 12.5156 9.0169L12.6036 8.82669L12.8647 8.88021C13.0087 8.91056 13.3243 8.99101 13.5659 9.05576C13.9331 9.15826 14.004 9.18546 13.9829 9.23327ZM18.48 10.6315L18.3986 10.8893L17.7581 10.7176C17.4013 10.622 16.4434 10.3612 15.6208 10.1326L14.1269 9.72407L14.1556 9.61667C14.1711 9.55914 14.2124 9.45098 14.2455 9.37351L14.3103 9.23878L16.4354 9.80818L18.5604 10.3776L18.48 10.6315ZM22.3458 11.4248C22.3417 11.4401 22.3028 11.4626 22.2583 11.4753C22.2127 11.4919 22.1343 11.5696 22.08 11.6496C22.0257 11.7296 21.9619 11.7988 21.9417 11.7975C21.9166 11.799 21.2413 11.6345 20.4442 11.4332L18.9881 11.0677L19.06 10.7992L19.1319 10.5307L20.743 10.9624C21.6291 11.1998 22.3509 11.4056 22.3458 11.4248ZM12.1575 8.83459C12.1275 8.90056 12.0777 8.99412 12.049 9.03987L12.0024 9.12193L10.8757 8.81592C10.2591 8.64661 9.74055 8.49532 9.72829 8.4797C9.715 8.46792 9.74015 8.40477 9.77783 8.34086C9.81831 8.28182 9.86675 8.20846 9.87778 8.18264C9.89956 8.14736 9.96786 8.15333 10.1154 8.20109C10.2294 8.23576 10.3379 8.2607 10.3573 8.24947C10.3729 8.23721 10.798 8.33876 11.3005 8.4734L12.2172 8.71904L12.1575 8.83459ZM9.62324 8.19666C9.50965 8.42112 9.53855 8.42064 8.75324 8.20611C8.35535 8.09538 7.89046 7.95848 7.72477 7.90175L7.42126 7.79165L7.49354 7.67534L7.56581 7.55904L8.09159 7.68348C8.38031 7.75673 8.8552 7.87164 9.14775 7.94592L9.68298 8.08111L9.62324 8.19666ZM7.23599 7.63922L7.16193 7.74683L6.76534 7.61589C6.54978 7.5458 6.36697 7.47626 6.35854 7.46167C6.34909 7.45091 6.37293 7.40797 6.40725 7.37194C6.46411 7.31317 6.51322 7.314 6.86817 7.40088C7.08503 7.45077 7.27299 7.50113 7.28628 7.51292C7.30059 7.52086 7.2775 7.57634 7.23599 7.63922ZM6.22053 7.36302C6.17593 7.4374 6.16442 7.43432 5.73817 7.29133C5.49679 7.21021 5.28815 7.12963 5.26822 7.11196C5.21432 7.05229 5.46139 7.08149 5.87285 7.18763C6.24978 7.28452 6.26026 7.29144 6.22053 7.36302ZM4.3022 6.98879C4.32747 7.03256 3.82347 7.73209 3.70544 7.81969C3.60789 7.89222 3.59919 7.894 3.61872 7.82112C3.6362 7.75591 3.94139 7.30734 4.16198 7.0211C4.21809 6.9498 4.27131 6.93529 4.3022 6.98879ZM4.5072 7.11361C4.48562 7.19416 4.41753 7.23347 4.34849 7.21497C4.2756 7.19544 4.2741 7.17037 4.33432 7.08373C4.3807 7.01804 4.5257 7.04456 4.5072 7.11361ZM33.1767 15.2684C33.2795 15.744 33.3068 16.072 33.2904 16.7007C33.2793 17.0184 33.2073 16.8882 33.1893 16.5257C33.1813 16.3714 33.1392 16.0682 33.0975 15.8556C33.0073 15.3792 32.9344 14.7306 32.9684 14.711C33.0316 14.6745 33.0676 14.7705 33.1767 15.2684ZM4.6657 7.19719C4.63727 7.22657 4.64981 7.22582 4.70125 7.2026C4.88271 7.12378 5.23661 7.44472 5.13769 7.59911C5.1159 7.63438 5.11686 7.69219 5.14418 7.72829C5.20062 7.8092 5.18726 7.85906 5.09279 7.92009C5.02265 7.96707 5.03313 7.97399 5.2193 8.01565C5.51493 8.07842 5.52261 8.08048 5.53391 8.03828C5.54008 8.01527 5.51892 7.95615 5.48522 7.89779C5.45433 7.84429 5.43982 7.79106 5.45441 7.78264C5.469 7.77422 5.45243 7.72866 5.42332 7.68386C5.39037 7.63804 5.37052 7.55871 5.38107 7.50399L5.39526 7.40501L5.69801 7.50257C5.86473 7.55547 6.00741 7.60603 6.01022 7.61089C6.03932 7.6557 5.90122 7.84892 5.85135 7.83556C5.82066 7.82733 5.79251 7.84035 5.78634 7.86336C5.7812 7.88254 5.79833 7.89535 5.82545 7.88617C5.90964 7.86351 5.76098 8.11146 5.66576 8.15995C5.60459 8.18878 5.58486 8.21638 5.60452 8.25043C5.62417 8.28447 5.6067 8.34968 5.54443 8.444C5.4642 8.57462 5.44961 8.58304 5.37448 8.52591C5.27838 8.45494 5.20981 8.46534 5.21713 8.54542C5.22042 8.57919 5.26336 8.60303 5.32399 8.60694C5.4442 8.61859 5.43495 8.65311 5.21674 9.08388C5.127 9.26539 5.02341 9.46786 4.99135 9.5415L4.9303 9.67725L4.62391 9.62394C4.4587 9.59611 4.14259 9.54841 3.92339 9.52257C3.34665 9.45025 3.37247 9.46128 3.4916 9.3082C3.62149 9.14567 3.71269 8.82065 3.64549 8.7492C3.59159 8.68953 3.68004 8.52823 4.20692 7.72794C4.5411 7.21725 4.60899 7.13266 4.66653 7.14807C4.68954 7.15424 4.68721 7.17828 4.6657 7.19719ZM7.0328 7.9219C7.0328 7.9219 6.9077 8.14327 6.74726 8.40451C6.59065 8.66678 6.34943 9.09137 6.21508 9.34727C6.08176 9.59933 5.95283 9.81968 5.92954 9.82989C5.86631 9.86639 5.1262 9.7133 5.13957 9.66344C5.14573 9.64042 5.23164 9.45788 5.33037 9.25822C5.50911 8.88266 5.68277 8.69485 5.79963 8.73438C5.82928 8.74644 5.88607 8.74932 5.9247 8.74323C5.9595 8.73611 6.03416 8.76434 6.08656 8.79893C6.21026 8.88964 6.2889 8.79559 6.19569 8.66784C6.15994 8.61715 6.1472 8.57262 6.16282 8.56036C6.18124 8.55297 6.17282 8.53837 6.1498 8.53221C6.12295 8.52501 6.10891 8.5007 6.11508 8.47768C6.13255 8.41247 6.03139 8.29903 5.93652 8.2695L5.85597 8.24791L5.99258 8.02962C6.06691 7.90565 6.14658 7.80777 6.16781 7.80524C6.18905 7.80271 6.207 7.7664 6.20577 7.72496C6.20509 7.65078 6.2253 7.65208 6.61422 7.78096C6.84128 7.85413 7.02999 7.91703 7.0328 7.9219ZM8.77548 8.42996C9.16365 8.5463 9.19228 8.5622 9.25481 8.68173C9.29029 8.74879 9.30837 8.81942 9.29275 8.83168C9.26432 8.86106 8.82345 9.81596 8.67389 10.1747L8.58153 10.3966L8.11404 10.3001C7.85677 10.2476 7.33455 10.1406 6.94864 10.0618C6.56656 9.98413 6.2451 9.91033 6.24052 9.89677C6.22367 9.86758 6.57622 9.18092 6.64486 9.10887C6.67815 9.07668 6.71097 9.01558 6.72227 8.97338C6.74489 8.889 7.18834 8.12391 7.26287 8.04521C7.31487 7.98926 7.39926 8.01187 8.77548 8.42996ZM11.2257 9.13584L11.909 9.34769L11.6399 9.93751C11.4909 10.2635 11.3268 10.6306 11.2803 10.7579L11.1908 10.9847L10.9276 10.9389C10.7864 10.9134 10.2471 10.7935 9.73002 10.6673L8.79072 10.4444L8.84485 10.3191C8.87588 10.2493 9.01695 9.93769 9.15418 9.62501C9.29524 9.31336 9.45323 8.96924 9.50605 8.86416L9.60552 8.67704L10.0735 8.80243C10.3343 8.87232 10.8529 9.02361 11.2257 9.13584ZM13.6499 10.0773C13.5955 10.2189 13.4641 10.5866 13.3519 10.8978L13.1507 11.4647L12.4021 11.297C11.9876 11.2024 11.6424 11.1099 11.6301 11.0942C11.6171 11.0661 11.9968 10.14 12.2217 9.65349L12.3187 9.44513L13.0321 9.6363L13.7418 9.82645L13.6499 10.0773ZM16.4741 10.5997L18.3613 11.1054L18.1506 11.8917C17.9903 12.4901 17.9263 12.6826 17.8887 12.6849C17.8598 12.6854 16.8431 12.4294 15.6327 12.1133L13.4335 11.5446L13.4817 11.4259C13.5107 11.3638 13.628 11.0334 13.7484 10.6916C13.8688 10.3497 13.9907 10.0329 14.0232 9.9882C14.0775 9.90819 14.0901 9.90744 14.3322 10.0011C14.471 10.0506 15.4346 10.3211 16.4741 10.5997ZM21.633 12.167C21.5958 12.2598 21.5763 12.3327 21.5965 12.334C21.6129 12.3343 21.6762 12.4047 21.7306 12.4933C21.8169 12.6315 21.8212 12.6615 21.7615 12.7154C21.6832 12.793 21.6385 12.9291 21.6922 12.9435C21.7459 12.9578 21.7768 13.2416 21.7367 13.3912C21.7182 13.4602 21.6761 13.5558 21.6387 13.6034L21.5736 13.6928L20.0969 13.2971C18.8617 12.9662 18.6068 12.8896 18.5731 12.8313C18.5432 12.7739 18.5749 12.6097 18.7352 12.0114L18.9367 11.2595L20.3214 11.6306L21.7061 12.0016L21.633 12.167ZM3.98312 7.91876C3.81604 8.1741 3.64278 8.45247 3.59126 8.53733C3.52769 8.65185 3.49056 8.68302 3.44275 8.66198C3.36733 8.62122 3.34452 8.66033 3.78933 8.04361C4.11679 7.58868 4.23387 7.44326 4.27223 7.45354C4.2799 7.4556 4.14919 7.66725 3.98312 7.91876ZM33.3566 17.3434L33.3437 17.4838L33.326 17.3352C33.3186 17.2551 33.3191 17.1154 33.3302 17.028L33.3483 16.8684L33.357 17.0352C33.3613 17.1267 33.3608 17.2664 33.3566 17.3434ZM17.839 12.947C17.8382 12.9961 17.7437 13.349 17.6294 13.7295L17.4183 14.4253L15.2715 13.8295C14.0893 13.5004 13.0885 13.2158 13.0455 13.192C12.9652 13.154 12.9655 13.1376 13.0724 12.7387C13.1331 12.5124 13.2319 12.1895 13.2935 12.021L13.4018 11.7087L14.0033 11.8576C14.3342 11.9421 15.3346 12.1979 16.2217 12.4314L17.8425 12.8575L17.839 12.947ZM21.4633 13.951C21.4428 14.0278 21.3769 14.1047 21.2582 14.1797L21.0849 14.2895L21.1459 14.384C21.2332 14.5184 21.2703 14.7174 21.2176 14.7609C21.1912 14.7826 21.1581 14.8601 21.1424 14.934C21.1267 15.0079 21.1018 15.1163 21.0912 15.171C21.0786 15.2334 21.0949 15.2954 21.1452 15.3376C21.2022 15.3858 21.0265 15.351 20.432 15.1917C19.9975 15.0794 19.2848 14.9008 18.8434 14.799L18.0394 14.6082L18.2511 13.818L18.4639 13.024L19.979 13.43L21.4942 13.836L21.4633 13.951ZM12.9466 12.0883C12.8634 12.3374 12.7635 12.6642 12.7244 12.8099L12.6545 13.0708L12.0638 12.9125C11.7416 12.8262 11.3765 12.716 11.253 12.6706L11.0328 12.5869L11.2184 12.0939C11.3192 11.8249 11.4321 11.5263 11.4742 11.4307L11.5455 11.2566L12.0138 11.3656C12.2718 11.4306 12.6239 11.5126 12.7899 11.553L13.095 11.6265L12.9466 12.0883ZM10.8962 11.7157C10.7864 12.0029 10.6717 12.2928 10.6407 12.3626L10.5876 12.484L10.0491 12.3151C9.75297 12.2234 9.2413 12.0616 8.91067 11.9607L8.31078 11.7753L8.42705 11.4488C8.72735 10.6042 8.70454 10.6433 8.86338 10.6489C9.03374 10.6575 11.0458 11.1268 11.076 11.1678C11.0882 11.1834 11.0061 11.4286 10.8962 11.7157ZM8.45759 10.7211C8.42142 10.81 8.34571 11.0159 8.28898 11.1816C8.23225 11.3472 8.16271 11.5301 8.13756 11.5932L8.08755 11.7032L7.83364 11.6228C7.1734 11.4171 5.77217 10.9389 5.76094 10.9194C5.74307 10.8941 6.08624 10.135 6.13412 10.0944C6.15769 10.0678 7.71312 10.3695 8.31945 10.5155L8.52378 10.5661L8.45759 10.7211ZM5.86253 10.0339C5.85636 10.057 5.57582 10.6437 5.52505 10.7411C5.48812 10.8175 5.46689 10.8201 5.25133 10.75C5.03577 10.6799 5.01481 10.666 5.01544 10.5716L5.01428 10.4686L4.96482 10.5457C4.93611 10.5915 4.88364 10.6186 4.84145 10.6072C4.75323 10.5836 4.77742 10.4626 4.94129 10.1119C5.05927 9.8557 5.05927 9.8557 5.41833 9.92725C5.79657 10.0039 5.86664 10.0186 5.86253 10.0339ZM3.0469 9.40283C3.00744 9.45803 2.9312 9.46638 2.94662 9.40885C2.9569 9.37049 3.06492 9.30488 3.07896 9.32919C3.08458 9.33892 3.07149 9.37242 3.0469 9.40283ZM4.8313 9.89329C4.79122 10.0429 4.5861 10.4402 4.54055 10.4567C4.48527 10.4789 4.18457 10.3737 3.61647 10.131C3.10666 9.91629 3.13323 9.93986 3.22757 9.77191C3.2932 9.64971 3.32725 9.63006 3.43212 9.6376C3.57254 9.65056 4.39046 9.75872 4.61143 9.79326C4.68637 9.80512 4.77384 9.81622 4.80069 9.82342C4.82473 9.82575 4.84055 9.85877 4.8313 9.89329ZM2.94831 9.70942C2.92158 9.80915 2.86069 9.82161 2.83699 9.74126C2.81686 9.67831 2.88194 9.58885 2.93564 9.60324C2.95482 9.60838 2.9627 9.65571 2.94831 9.70942ZM2.82772 10.006C2.8267 10.0098 2.78182 10.1006 2.73181 10.2105C2.5641 10.5603 2.26901 11.324 2.09827 11.8538C2.00351 12.1614 1.91807 12.3729 1.89506 12.3667C1.84519 12.3533 2.17003 11.3098 2.43689 10.6207C2.68861 9.97284 2.7204 9.91558 2.78225 9.96093C2.80985 9.98066 2.82978 9.99833 2.82772 10.006ZM3.562 10.3343C3.81742 10.4397 4.03064 10.5339 4.03729 10.5398C4.03907 10.5485 4.00858 10.5855 3.9607 10.6261C3.91384 10.6629 3.86438 10.7401 3.84999 10.7938C3.83457 10.8514 3.76182 10.9388 3.68578 10.9924C3.60591 11.045 3.52268 11.1255 3.49884 11.1684C3.46602 11.2295 3.45301 11.2013 3.44426 11.0346C3.42592 10.7501 3.3549 10.6776 3.18289 10.7672C3.11199 10.8016 3.0365 10.8225 3.01555 10.8087C2.94219 10.7602 2.99643 10.1129 3.07314 10.1334C3.08849 10.1375 3.3076 10.225 3.562 10.3343ZM2.80979 10.6713C2.7941 10.7452 2.80423 10.8302 2.83998 10.8809C2.87189 10.9305 2.89408 10.9858 2.88792 11.0088C2.87044 11.074 2.91317 11.2828 2.94769 11.2921C2.96303 11.2962 2.99099 11.2379 3.01051 11.165C3.04546 11.0346 3.18994 10.8636 3.25131 10.8801C3.29734 10.8924 3.31677 11.1114 3.27423 11.1781C3.25245 11.2134 3.23237 11.319 3.23174 11.4134C3.23365 11.529 3.1861 11.7218 3.10189 11.9747L2.96918 12.3626L2.75841 12.3514C2.64484 12.3456 2.43202 12.342 2.28646 12.3482L2.02144 12.3553L2.1634 11.9329C2.38162 11.2719 2.71747 10.4328 2.77892 10.3876C2.82858 10.3557 2.83804 10.3664 2.83769 10.4445C2.83967 10.4984 2.82445 10.6012 2.80979 10.6713ZM5.37165 11.0988C5.36137 11.1371 5.31788 11.146 5.24116 11.1255C5.16444 11.1049 5.13122 11.0755 5.1415 11.0371C5.15178 10.9987 5.19528 10.9898 5.27199 11.0104C5.34871 11.031 5.38193 11.0604 5.37165 11.0988ZM7.51449 11.7552L8.04047 11.9249L7.8674 12.4787C7.77086 12.7777 7.68563 13.0344 7.6759 13.04C7.66234 13.0446 7.50863 13.0198 7.32423 12.9869L6.99586 12.9236L6.94005 12.7483C6.91177 12.6544 6.87993 12.543 6.86719 12.4985C6.85829 12.455 6.82815 12.4141 6.80514 12.4079C6.77829 12.4007 6.7224 12.2871 6.67933 12.1563C6.58832 11.8976 6.50024 11.7506 6.41969 11.729C6.34681 11.7095 6.26593 11.5357 6.32401 11.5184C6.35011 11.5131 6.37649 11.4913 6.38265 11.4683C6.39396 11.4261 6.06044 11.382 6.03174 11.4278C6.01996 11.441 5.97749 11.4461 5.93913 11.4358C5.90077 11.4255 5.85063 11.4286 5.83296 11.4485C5.78404 11.4929 5.67486 11.4555 5.60973 11.3763C5.57014 11.3246 5.57069 11.2919 5.61707 11.2262L5.68112 11.1406L6.33341 11.3606C6.69548 11.4823 7.22708 11.6617 7.51449 11.7552ZM9.61103 12.4156C10.0979 12.5625 10.5022 12.6955 10.5078 12.7052C10.518 12.7285 10.2297 13.5434 10.2016 13.5564C10.187 13.5648 9.49675 13.4251 8.43902 13.1993L7.92167 13.0894L8.00903 12.7634C8.05734 12.5831 8.13565 12.3368 8.18005 12.2172L8.26473 11.9932L8.49947 12.0684C8.62399 12.11 9.12902 12.2659 9.61103 12.4156ZM12.3512 13.2362L12.5929 13.3009L12.522 13.5656C12.4829 13.7113 12.4262 13.877 12.3972 13.9392L12.3433 14.0481L11.7733 13.92C11.4623 13.8531 11.0872 13.7649 10.9394 13.7335L10.6688 13.6693L10.7381 13.4412C10.7797 13.3167 10.8437 13.1241 10.8898 13.0131L10.9684 12.8122L11.5376 12.9894C11.8518 13.09 12.217 13.2002 12.3512 13.2362ZM15.6589 14.1636L17.3774 14.624L17.291 14.9462L17.2057 15.2646L15.175 14.7575C14.0547 14.4737 13.0379 14.2177 12.9103 14.1877L12.6801 14.126L12.755 13.8007C12.7946 13.6222 12.8485 13.4516 12.8682 13.424C12.9008 13.3793 12.9824 13.3971 13.4222 13.5355C13.7057 13.6279 14.7115 13.9097 15.6589 14.1636ZM21.716 15.9387C21.7665 16.0262 21.8278 16.1043 21.847 16.1094C21.9352 16.1331 22.1286 16.6083 22.0569 16.6303C22.0482 16.632 21.567 16.4949 20.9908 16.3282C20.4157 16.1576 19.4637 15.8902 18.8817 15.7301L17.8164 15.4406L17.9037 15.1145L17.9921 14.7846L19.8072 15.2833L21.6185 15.781L21.716 15.9387ZM16.9477 16.2274C16.8028 16.7682 16.7296 16.9953 16.6859 17.0206C16.6421 17.0459 16.639 17.0574 16.6735 17.0666C16.7081 17.0759 16.6887 17.194 16.6127 17.4779L16.5068 17.873L16.2436 17.8271C16.0938 17.8034 15.8759 17.7573 15.7493 17.7234C15.5652 17.6741 15.5337 17.6533 15.5653 17.6124C15.585 17.5848 15.5883 17.557 15.5692 17.5518C15.55 17.5467 15.5083 17.5643 15.4732 17.5878C15.4225 17.6235 15.2852 17.5991 14.7136 17.4459C14.3329 17.348 13.5846 17.164 13.0501 17.0413C12.3765 16.8855 12.0784 16.8015 12.0702 16.7705C12.0536 16.725 12.2733 15.7519 12.5182 14.7609L12.6288 14.3178L13.4202 14.5093C13.8568 14.6139 14.8735 14.8699 15.6839 15.083L17.1512 15.4679L16.9477 16.2274ZM21.1218 16.5606C21.8646 16.7802 21.9958 16.8277 21.927 16.8544C21.8852 16.872 21.8167 16.8824 21.7821 16.8732C21.7131 16.8547 21.6785 16.9071 21.6486 17.08C21.6306 17.1779 21.3722 17.4211 21.3032 17.4026C21.2801 17.3965 21.2352 17.3187 21.201 17.2314C21.1669 17.1441 21.1258 17.0673 21.1028 17.0612C21.0836 17.056 21.0422 16.9956 21.0116 16.9257L20.955 16.7996L20.7239 16.8487C20.5934 16.8754 20.4583 16.8885 20.4238 16.8792C20.3855 16.869 20.2302 16.8808 20.0746 16.909C19.9201 16.9334 19.7714 16.9511 19.7446 16.9439C19.7177 16.9367 19.6443 16.9499 19.5852 16.9711C19.5212 16.9951 19.469 17.0057 19.4624 16.9999C19.4399 16.9609 19.1317 17.1292 19.1163 17.1867C19.0978 17.2557 18.877 17.3281 18.7734 17.3004C18.7274 17.288 18.6132 17.3767 18.5978 17.4342C18.5947 17.4457 18.6261 17.4665 18.6683 17.4778C18.7795 17.5076 18.7293 17.6339 18.5777 17.7084C18.504 17.738 18.4113 17.8077 18.3729 17.8591C18.3237 17.9199 18.2674 17.9459 18.2175 17.9326C18.1677 17.9192 18.1444 17.9294 18.1487 17.9593C18.1579 17.9865 18.1277 18.0071 18.0786 18.0063C18.0294 18.0055 17.9857 18.0308 17.9785 18.0576C17.9703 18.0883 17.9342 18.1156 17.9004 18.1189C17.798 18.1326 17.8074 18.205 17.9115 18.2C17.9607 18.2008 18.0916 18.203 18.2003 18.2116C18.3986 18.2236 18.5355 18.1575 18.7509 17.9521C18.8008 17.9038 18.9055 17.8661 19.0009 17.8629C19.1339 17.8574 19.1674 17.8705 19.2106 17.9396C19.2397 17.9844 19.257 18.0425 19.2488 18.0732C19.2272 18.1538 19.4283 18.3392 19.5856 18.3813C19.6623 18.4019 19.7338 18.4416 19.743 18.4688C19.7512 18.4997 19.7911 18.4734 19.8462 18.406C19.9781 18.2357 20.1887 18.2017 20.2509 18.3376C20.2854 18.4085 20.5728 18.502 20.5872 18.4483C20.5923 18.4291 20.5467 18.3387 20.4884 18.2491C20.3766 18.0835 20.3793 17.9814 20.5022 17.891C20.5324 17.8704 20.5872 17.8193 20.6225 17.7794C20.6884 17.7025 21.0794 17.5935 21.1878 17.6184C21.2223 17.6277 21.3295 17.6112 21.4206 17.578C21.6115 17.5099 21.6596 17.5146 21.638 17.5952C21.6298 17.6258 21.6495 17.6599 21.6802 17.6681C21.7147 17.6774 21.748 17.6452 21.7644 17.5838C21.7819 17.5186 21.8162 17.4826 21.873 17.4854C21.9674 17.4861 22.0002 17.425 21.9196 17.4034C21.8928 17.3962 21.8233 17.3488 21.774 17.3027L21.6781 17.2153L21.8392 17.2585C21.9582 17.2904 22.017 17.2856 22.0582 17.2391C22.1258 17.1709 22.3013 17.1603 22.3995 17.2236C22.4519 17.2582 22.4559 17.3045 22.42 17.4388C22.3871 17.5615 22.3594 17.6034 22.3172 17.5921C22.2597 17.5767 22.1247 17.6968 22.15 17.7406C22.1584 17.7551 22.196 17.7529 22.2377 17.7353C22.2794 17.7177 22.317 17.7154 22.3293 17.731C22.3451 17.7641 21.8265 19.3929 21.7924 19.4126C21.7827 19.4182 21.2833 19.272 20.6795 19.0856C20.0748 18.903 19.2207 18.6536 18.7758 18.5344C18.3346 18.4162 17.7777 18.2546 17.5478 18.1766L17.1205 18.0374L17.4433 16.833L17.765 15.6324L19.0039 15.9643C19.6829 16.1463 20.6387 16.4147 21.1218 16.5606ZM12.0777 15.239C11.9522 15.7686 11.8282 16.3233 11.8045 16.4732L11.7566 16.744L11.0033 16.5175C10.5893 16.3901 10.1802 16.26 10.095 16.2248L9.93525 16.1614L10.1775 15.2726C10.3129 14.7826 10.4642 14.264 10.5186 14.1224L10.6136 13.86L11.0609 13.9552C11.3056 14.0085 11.6874 14.1025 11.9099 14.1622L12.3116 14.2739L12.0777 15.239ZM10.0985 13.9564C10.0572 14.0645 9.89929 14.5772 9.74416 15.0948C9.48886 15.9555 9.45858 16.0378 9.39721 16.0214C9.25145 15.9823 9.1037 15.8893 9.11604 15.8433C9.13145 15.7857 9.09387 15.5578 9.04395 15.3758C9.02306 15.3003 8.95259 15.1951 8.89485 15.1344C8.83225 15.0765 8.7804 15.0092 8.77787 14.988C8.77533 14.9667 8.74109 14.9411 8.70273 14.9308C8.61067 14.9062 8.55411 14.7183 8.59316 14.5726C8.61269 14.4997 8.60153 14.4186 8.56119 14.3543C8.42586 14.1536 8.14388 13.7944 8.10936 13.7852C8.09018 13.78 8.01429 13.7103 7.94532 13.6302C7.8158 13.4845 7.80041 13.3118 7.91809 13.3022C7.97309 13.2964 9.61572 13.6255 9.97067 13.7124L10.175 13.7631L10.0985 13.9564ZM7.64334 13.3149C7.66079 13.48 7.3692 13.4635 7.2103 13.2894L7.09865 13.169L7.22092 13.173C7.45293 13.1817 7.63396 13.2425 7.64334 13.3149ZM27.114 18.639C27.0873 18.7387 26.8893 18.9406 26.8356 18.9262C26.7781 18.9108 26.7145 19.0253 26.6046 19.3741C26.5081 19.673 26.5027 19.7085 26.5687 19.6769C26.6066 19.6583 26.6345 19.6616 26.6283 19.6846C26.6231 19.7038 26.6497 19.7274 26.6891 19.7338C26.7477 19.7454 26.7461 19.782 26.6565 20.0704C26.6005 20.2487 26.5294 20.4064 26.5003 20.4232C26.4527 20.4475 24.4364 20.0552 24.0231 19.9404C23.8889 19.9044 23.9549 19.7042 24.1307 19.6157C24.2075 19.5746 24.2359 19.5452 24.2004 19.5398C24.0428 19.514 24.0439 19.5102 24.1908 18.9616C24.3522 18.3594 24.3023 18.4077 24.7079 18.4588C24.8877 18.4782 24.8944 18.4841 24.8717 18.5685C24.8532 18.6376 24.8627 18.6483 24.896 18.6161C24.9341 18.5811 24.96 18.5922 25.0384 18.6831C25.128 18.7934 25.1319 18.7944 25.1706 18.7267C25.2034 18.6656 25.2361 18.6662 25.4402 18.7332C25.6174 18.793 25.6732 18.7997 25.6845 18.7575C25.6927 18.7268 25.7372 18.7141 25.7909 18.7285C25.9098 18.7603 26.016 18.7477 26.0283 18.7016C26.0437 18.6441 26.1709 18.5836 26.2438 18.6032C26.2822 18.6134 26.3566 18.5964 26.4091 18.5693C26.4859 18.5282 26.8916 18.5177 27.1088 18.5512C27.1251 18.5515 27.1264 18.593 27.114 18.639ZM22.8961 17.7637C22.9053 17.7908 22.9024 17.8476 22.8949 17.8908C22.8785 17.9522 22.8984 17.9699 22.9887 17.9858C23.0483 17.9936 23.1237 18.0344 23.15 18.0743C23.1763 18.1142 23.2757 18.219 23.3725 18.3025C23.4817 18.4016 23.5391 18.4787 23.5194 18.5063C23.4799 18.5615 23.522 18.6961 23.5614 18.6409C23.6234 18.5629 23.7197 18.5106 23.8113 18.5064C23.9018 18.506 23.9018 18.506 23.7785 18.9663L23.6541 19.4304L23.5045 19.3903C23.4201 19.3677 23.3447 19.3269 23.3384 19.3047C23.333 19.2786 23.3064 19.255 23.2873 19.2499C23.199 19.2262 23.338 19.3827 23.4763 19.465C23.6223 19.5493 23.6251 19.5542 23.5766 19.6892L23.527 19.828L23.2777 19.7612C23.0514 19.7006 23.0304 19.6867 23.0395 19.6069C23.0542 19.4752 22.8241 19.1833 22.6405 19.1012C22.4493 19.0171 22.4505 19.0586 22.647 19.2304C22.7267 19.3011 22.8189 19.4327 22.858 19.5172L22.9266 19.6753L22.7199 19.6488C22.6056 19.6305 22.4337 19.5967 22.334 19.57C22.1154 19.5114 22.103 19.6191 22.4593 18.5347C22.5923 18.1304 22.7122 17.7596 22.7207 17.7126C22.7371 17.6512 22.7566 17.64 22.81 17.6707C22.8491 17.6936 22.888 17.7327 22.8961 17.7637ZM2.88264 12.6396C2.85393 12.6853 2.79221 12.7469 2.74255 12.7788C2.69288 12.8107 2.61986 12.9145 2.57779 13.0101C2.53572 13.1057 2.47756 13.1847 2.44379 13.188C2.41002 13.1913 2.37673 13.2235 2.36851 13.2541C2.35001 13.3232 2.24569 13.2829 1.99521 13.113C1.87712 13.032 1.87431 13.0272 1.92447 12.7939L1.97566 12.5569L2.25705 12.55C2.51824 12.5419 2.81778 12.5441 2.89655 12.5569C2.91676 12.5582 2.90648 12.5966 2.88264 12.6396ZM28.4328 19.8393C28.4481 19.905 28.4234 19.9971 28.3413 20.1806C28.2803 20.3164 28.2069 20.4982 28.1815 20.5777C28.1417 20.7109 28.125 20.727 28.0143 20.7261C27.8997 20.7242 26.802 20.5246 26.7946 20.5062C26.7918 20.5014 26.8726 20.2763 26.9697 20.0063C27.0939 19.6655 27.1767 19.4945 27.2364 19.4406C27.4123 19.2904 27.5349 19.2163 27.5226 19.2624C27.5 19.3467 27.7222 19.4227 27.9373 19.4023C28.055 19.3927 28.1517 19.3693 28.1558 19.3539C28.1682 19.3079 28.4048 19.729 28.4328 19.8393ZM1.8555 12.7138C1.83906 12.7752 1.80035 12.8429 1.77295 12.8684C1.73479 12.9034 1.73048 12.8735 1.76337 12.7508C1.78701 12.6625 1.82572 12.5948 1.8449 12.5999C1.86791 12.6061 1.87092 12.6562 1.8555 12.7138ZM1.64842 12.8269C1.63102 12.8304 1.59678 12.8048 1.56842 12.7725C1.52986 12.717 1.53781 12.7027 1.61385 12.649C1.70242 12.5947 1.70242 12.5947 1.69282 12.7072C1.68788 12.7717 1.66863 12.8282 1.64842 12.8269ZM2.07669 13.4226C2.21601 13.5011 2.23389 13.5264 2.20079 13.6039C2.11919 13.8164 2.06512 14.1102 2.08313 14.2425C2.10216 14.3709 2.08907 14.4044 1.9994 14.5243C1.90767 14.6518 1.89636 14.694 1.88223 14.9616C1.8718 15.1232 1.86905 15.2869 1.87234 15.3207C1.88021 15.368 1.81904 15.3969 1.64608 15.4286L1.41119 15.4767L1.41182 15.3823C1.41512 15.1858 1.56562 14.2559 1.67239 13.7501C1.78299 13.2453 1.7871 13.2299 1.85278 13.2763C1.886 13.3057 1.98799 13.3701 2.07669 13.4226ZM27.9325 21.0619C27.8575 21.1117 27.8524 21.1309 27.8749 21.3384C27.8862 21.4647 27.8912 21.5689 27.8825 21.5706C27.8728 21.5763 27.6077 21.4764 27.2929 21.3469C26.9772 21.2212 26.6862 21.1103 26.6527 21.0972C26.599 21.0828 26.5929 21.0442 26.6248 20.9253C26.6494 20.8332 26.6881 20.7655 26.7209 20.766C26.7846 20.7584 27.526 20.8913 27.8042 20.9576C28.0047 21.0073 28.0075 21.0121 27.9325 21.0619ZM26.3604 20.838L26.3223 20.9799L26.129 20.9035C26.0219 20.8583 25.6685 20.7348 25.3497 20.6206C25.0298 20.5102 24.7427 20.4004 24.7151 20.3807C24.6703 20.3482 25.6854 20.5338 26.215 20.6593L26.3974 20.6999L26.3604 20.838ZM11.6701 17.021C11.6841 17.0453 11.6655 17.2376 11.6235 17.4402L11.5528 17.8118L11.2812 17.7513C11.1218 17.7169 11.006 17.6735 10.9968 17.6464C10.9915 17.6203 10.9391 17.5857 10.8854 17.5713C10.8317 17.5569 10.6924 17.4785 10.582 17.3995C10.4363 17.2988 10.3627 17.2668 10.3237 17.2892C10.2605 17.3257 10.1146 17.1798 10.1352 17.103C10.1547 17.0302 10.0496 16.8088 10.0002 16.8243C9.93341 16.8434 9.79855 16.6716 9.82116 16.5872C9.83555 16.5335 9.87624 16.5198 9.99056 16.5381C10.2865 16.5844 11.6459 16.9734 11.6701 17.021ZM23.4412 20.1791C23.4467 20.2505 22.8781 22.0962 22.8403 22.1148C22.8295 22.1243 22.7761 22.0935 22.7257 22.0513C22.6146 21.9598 22.5439 21.5791 22.6098 21.4405C22.6647 21.3278 22.6084 21.1236 22.5482 21.2102C22.4852 21.292 22.4261 21.2515 22.4549 21.1441C22.4744 21.0712 22.4614 21.0431 22.4133 21.0384C22.3576 21.0317 22.3512 21.0094 22.3805 20.9309C22.4066 20.864 22.397 20.8079 22.3536 20.7552C22.313 20.7073 22.3051 20.66 22.3317 20.6219C22.3584 20.5838 22.352 20.5615 22.3098 20.5502C22.2715 20.5399 22.2147 20.4754 22.1765 20.4035L22.1111 20.2791L21.9647 20.3344L21.8222 20.3908L21.9292 20.0988C21.9898 19.9341 22.048 19.7935 22.0647 19.7774C22.0803 19.7651 22.3951 19.8331 22.7633 19.9317C23.3387 20.0859 23.4325 20.1193 23.4412 20.1791ZM15.7631 18.1629L16.3783 18.3524L16.0916 19.4226L15.8048 20.4928L14.9533 20.2646C14.1784 20.057 14.1104 20.0347 14.1977 20.0005C14.3208 19.9554 14.5308 19.7855 14.5121 19.7476C14.5037 19.7331 14.3834 19.783 14.2483 19.8578C14.0012 19.9972 13.9974 19.9962 13.6795 19.9398C13.5038 19.905 13.2783 19.8569 13.1824 19.8312L13.0059 19.784L12.9927 19.4803C12.9868 19.3184 12.9627 19.1475 12.9412 19.1047C12.9208 19.0581 12.8188 18.9938 12.703 18.9504C12.457 18.8558 12.2253 18.6621 12.1066 18.4453C12.0571 18.3539 11.9723 18.2407 11.9153 18.1926C11.8118 18.1032 11.81 18.0945 11.8744 17.7623C11.9084 17.574 11.9488 17.3464 11.9571 17.2541L11.9821 17.084L13.5611 17.5277C14.4326 17.7735 15.421 18.0589 15.7631 18.1629ZM21.6419 19.882C21.6121 19.9933 21.5773 20.062 21.5584 20.0405C21.5423 20.0239 21.5438 19.9873 21.5636 19.9597C21.5833 19.9321 21.5688 19.8789 21.5338 19.8407C21.495 19.8015 21.4717 19.7501 21.4789 19.7232C21.4851 19.7002 21.4358 19.6541 21.3726 19.629C21.298 19.6008 21.3346 19.6023 21.4737 19.6355L21.6944 19.6864L21.6419 19.882ZM25.249 20.7663C25.7862 20.9555 26.2314 21.12 26.237 21.1297C26.2763 21.1978 25.1647 23.4283 25.0757 23.4538C25.0534 23.4602 24.6885 23.3336 24.2646 23.1666L23.4932 22.8695L23.3829 22.6672C23.3222 22.5564 23.2517 22.4512 23.2269 22.4363C23.1888 22.4097 23.2279 22.2639 23.4199 21.6699C23.5529 21.2657 23.7037 20.7798 23.753 20.5957L23.8434 20.2581L24.0598 20.3408C24.1756 20.3841 24.7128 20.5733 25.249 20.7663ZM19.0296 19.1368C19.0016 19.1951 18.9498 19.2963 18.9208 19.3585C18.876 19.4492 18.8516 19.4633 18.7944 19.4315C18.6914 19.371 18.5539 19.4698 18.4667 19.6726C18.4284 19.7692 18.3641 19.8712 18.3252 19.8937C18.2891 19.921 18.2091 20.0352 18.1494 20.1508C18.0797 20.2883 18.0079 20.3719 17.9547 20.3864C17.7825 20.4307 17.4974 20.5434 17.4912 20.5665C17.4833 20.5808 17.4254 20.6434 17.3599 20.7039C17.2943 20.7645 17.2354 20.8309 17.2313 20.8462C17.2272 20.8616 17.041 20.8199 16.8157 20.7555C16.416 20.636 16.4055 20.6291 16.432 20.5457C16.4443 20.4997 16.5766 20.0213 16.7244 19.4853L16.9931 18.513L17.3731 18.5984C17.5774 18.6491 18.0485 18.7629 18.4139 18.8568L19.0834 19.0279L19.0296 19.1368ZM20.3783 19.4735C20.3754 19.5303 20.3965 19.5894 20.4241 19.6092C20.4479 19.6279 20.4555 19.6916 20.4401 19.7491C20.4247 19.8066 20.4066 19.9046 20.4066 19.9662C20.406 20.0606 20.3834 20.0834 20.213 20.1364C20.1055 20.1693 19.9438 20.2205 19.8537 20.2498C19.7675 20.2801 19.6766 20.2969 19.6498 20.2897C19.6268 20.2835 19.5541 20.3093 19.486 20.3486C19.2769 20.4693 19.201 20.3997 19.2013 20.0914C19.2007 19.9556 19.3414 19.3232 19.4099 19.1442C19.4179 19.1299 19.6358 19.1759 19.9004 19.2468C20.3761 19.3743 20.3799 19.3753 20.3783 19.4735ZM27.3032 21.5387C28.0055 21.8174 27.9741 21.7966 28.0733 22.0863C28.1622 22.3527 28.2007 22.6385 28.1518 22.6829C28.1362 22.6952 28.1251 22.7827 28.1217 22.8722C28.1122 23.4905 28.0991 23.5856 28.0082 23.664C27.9221 23.7396 27.9013 23.8327 27.8825 24.1484C27.8776 24.2128 27.8691 24.2599 27.8614 24.2578C27.8537 24.2558 27.5356 24.2157 27.1512 24.1621L26.4524 24.0694L25.9101 23.8378C25.6156 23.7095 25.3671 23.5936 25.3587 23.579C25.3503 23.5644 25.4749 23.3141 25.632 23.0191C25.8669 22.5723 26.1382 22.02 26.4521 21.3395C26.508 21.2229 26.5129 21.2201 26.664 21.2852C26.7491 21.3204 27.0391 21.4351 27.3032 21.5387ZM1.94655 15.7188C1.95107 15.794 1.97351 16.0631 1.9952 16.3197C2.01792 16.5725 2.03633 16.7953 2.03222 16.8107C2.02194 16.849 1.42385 16.4421 1.38557 16.3702C1.34167 16.2885 1.36254 15.735 1.40761 15.6895C1.44577 15.6545 1.86053 15.5642 1.91423 15.5786C1.92574 15.5817 1.94101 15.6474 1.94655 15.7188ZM31.5896 24.1221C31.5637 24.1727 31.5207 24.2105 31.5015 24.2054C31.4593 24.1941 31.5023 23.9877 31.5548 23.9606C31.618 23.9241 31.6422 24.0334 31.5896 24.1221ZM2.14758 17.4542C2.18469 17.6532 2.20749 17.8443 2.19824 17.8788C2.19001 17.9095 2.21494 18.0313 2.24959 18.1475C2.28807 18.2647 2.31327 18.3701 2.31121 18.3778C2.30813 18.3893 2.16305 18.4244 1.9929 18.4611C1.81891 18.4967 1.638 18.5428 1.59423 18.568C1.51463 18.6043 1.50621 18.5897 1.47246 18.3627C1.44302 18.1657 1.33355 16.6564 1.34691 16.6065C1.34897 16.5988 1.51383 16.7047 1.71576 16.841L2.08535 17.088L2.14758 17.4542ZM15.6447 21.1365C15.5832 21.4119 15.5205 21.6459 15.5049 21.6581C15.4716 21.6903 12.4997 20.8447 12.2271 20.7264C12.0876 20.6644 12.0638 20.6457 12.1275 20.6381C12.2751 20.6242 12.7237 20.3003 12.8472 20.1155L12.9676 19.9423L13.2824 20.0102C13.4522 20.0515 14.0767 20.2065 14.6723 20.362L15.7522 20.6432L15.6447 21.1365ZM16.9353 21.0301C16.9251 21.0684 16.8175 21.1629 16.6939 21.2408C16.5712 21.3149 16.4668 21.3979 16.4616 21.417C16.4555 21.4401 16.4227 21.4395 16.3903 21.4226C16.333 21.3908 16.3192 21.4118 16.2721 21.6335C16.224 21.859 16.215 21.8772 16.1421 21.8577C16.0654 21.8371 16.0667 21.8169 16.2003 21.3182L16.3391 20.8004L16.6459 20.8826C16.9145 20.9546 16.9508 20.9725 16.9353 21.0301ZM24.362 23.3859C24.6788 23.5078 24.9514 23.6261 24.9626 23.6455C24.9777 23.666 24.9605 23.7149 24.9272 23.747C24.8742 23.8068 24.7982 23.7988 24.1924 23.6817C23.8208 23.6109 23.4798 23.5483 23.4318 23.5437C23.3509 23.5385 23.3502 23.5259 23.4159 23.3421C23.517 23.0567 23.5278 23.0473 23.6635 23.1083C23.7295 23.1383 24.0453 23.2641 24.362 23.3859ZM25.6448 23.9229C25.6504 23.9326 25.5532 23.9271 25.4274 23.9057C25.1823 23.8689 25.1614 23.855 25.2137 23.7827C25.2403 23.7446 25.2884 23.7493 25.4385 23.8183C25.5456 23.8634 25.6353 23.9121 25.6448 23.9229ZM27.7619 24.5066C27.7159 24.6628 27.6706 24.663 27.3861 24.5128L27.1197 24.3715L27.4197 24.4026C27.5832 24.4217 27.7312 24.4367 27.7515 24.438C27.7668 24.4421 27.7711 24.4721 27.7619 24.5066ZM27.1374 24.5818C27.3112 24.6695 27.4485 24.7556 27.4413 24.7825C27.4351 24.8055 27.3987 24.8492 27.3606 24.8842C27.3224 24.9192 27.2507 25.0028 27.2043 25.0684C27.1541 25.1331 27.026 25.3043 26.9148 25.4431C26.5615 25.887 26.4092 26.1792 26.4451 26.3368C26.4657 26.4287 26.3154 27.1737 26.2771 27.1634C26.2617 27.1593 26.0718 27.0549 25.8553 26.927C25.4383 26.6879 24.3332 26.1327 24.0041 25.9952C23.8932 25.949 23.8132 25.8947 23.8193 25.8717C23.8265 25.8448 23.9293 25.6915 24.0494 25.5346C24.1706 25.3738 24.4461 24.9748 24.6616 24.6461L25.0512 24.0516L25.6123 24.1362C26.2637 24.2367 26.6912 24.3595 27.1374 24.5818ZM24.7624 24.04C24.7469 24.0975 24.063 25.1312 23.8214 25.4652C23.6261 25.7336 23.5723 25.7808 23.5043 25.7585C23.4621 25.7472 23.132 25.6135 22.7761 25.4688L22.1285 25.2008L22.1986 24.9852C22.2412 24.8568 22.3127 24.728 22.3783 24.6674C22.4352 24.6087 22.4913 24.5374 22.5005 24.5029C22.5098 24.4683 22.5951 24.3802 22.6926 24.3077C22.7863 24.2341 22.8852 24.1414 22.908 24.1022C22.9346 24.0642 23.0148 23.9952 23.0888 23.9492C23.1735 23.8938 23.1971 23.8673 23.1508 23.8713C23.0707 23.8786 23.0408 23.8213 23.0921 23.7528C23.1167 23.7224 23.1929 23.714 23.2745 23.7318C23.3522 23.7485 23.6739 23.8059 23.988 23.8613C24.7228 23.9883 24.7737 23.9978 24.7624 24.04ZM1.37643 18.2301C1.39313 18.3826 1.40881 18.5389 1.4149 18.5775C1.41894 18.6238 1.40791 18.6497 1.38489 18.6435C1.35037 18.6342 1.29507 18.0274 1.31871 17.9392C1.3331 17.8855 1.35193 17.9686 1.37643 18.2301ZM15.4143 21.8888C15.4391 21.9036 15.409 22.0929 15.3224 22.4315L15.1913 22.9514L14.79 22.8685C14.5683 22.8214 13.9111 22.6659 13.3278 22.526C12.7455 22.3823 12.0642 22.2245 11.8184 22.1751C11.5727 22.1256 11.3607 22.073 11.3484 22.0573C11.34 22.0427 11.3502 21.8358 11.3715 21.6031L11.4114 21.178L11.544 21.0819C11.619 21.0321 11.7002 20.9593 11.724 20.9164L11.7714 20.8469L13.5719 21.354C14.5651 21.6366 15.3934 21.8749 15.4143 21.8888ZM16.0371 22.3722C15.9986 22.7155 16.0134 22.9825 16.0785 23.1233C16.1147 23.2029 16.106 23.2047 15.9219 23.1553L15.7224 23.1019L15.8663 22.5649C15.9454 22.2695 16.0255 22.032 16.0409 22.0361C16.0601 22.0412 16.0565 22.1924 16.0371 22.3722ZM2.75618 19.126C3.03034 19.6065 3.06376 19.6812 3.08976 19.9678C3.10516 20.1405 3.13097 20.3817 3.14335 20.5043C3.15958 20.6278 3.16354 20.7358 3.15381 20.7414C3.10518 20.7695 2.32989 20.3027 1.96749 20.0288L1.72495 19.8446L1.62581 19.3247C1.54344 18.8956 1.5364 18.7992 1.59195 18.7606C1.66799 18.707 2.32634 18.5669 2.40305 18.5874C2.4299 18.5946 2.59051 18.8391 2.75618 19.126ZM1.53759 19.3011C1.61125 19.7319 1.60762 19.7762 1.51057 19.6474C1.46153 19.5849 1.36657 18.988 1.39124 18.896C1.42207 18.7809 1.46618 18.9078 1.53759 19.3011ZM29.8639 26.7883C29.8382 26.8842 29.7941 26.9259 29.636 26.9945C29.4865 27.0613 29.4527 27.0646 29.4912 27.0132C29.7822 26.602 29.8224 26.5593 29.8582 26.61C29.8789 26.6402 29.8824 26.7193 29.8639 26.7883ZM1.35449 19.2479C1.38591 19.4989 1.38283 19.5104 1.32228 19.4448C1.21934 19.3227 1.18374 19.1487 1.24629 19.038C1.31575 18.9169 1.31192 18.9158 1.35449 19.2479ZM19.898 24.0275C19.9103 24.0431 19.769 24.3095 19.7447 24.3236C19.734 24.333 19.5777 24.287 19.3977 24.2224C19.1267 24.1292 19.0732 24.0984 19.0876 24.0447C19.1082 23.968 19.2543 23.929 19.4369 23.9533C19.5119 23.9652 19.5958 23.9589 19.6249 23.942C19.6687 23.9167 19.87 23.9789 19.898 24.0275ZM20.3839 24.3468C20.4461 24.3758 20.5419 24.4632 20.5965 24.5354L20.6964 24.669L20.4023 24.5697C20.2356 24.5168 20.0922 24.4537 20.0771 24.4332C20.0631 24.4089 20.0757 24.3465 20.1054 24.2969C20.1452 24.2253 20.1733 24.2123 20.218 24.2448C20.2485 24.2694 20.3267 24.3151 20.3839 24.3468ZM18.5123 23.8906C18.5071 23.9097 18.4828 23.9238 18.4598 23.9176C18.4406 23.9125 18.4381 23.8912 18.4547 23.8751C18.4724 23.8552 18.4957 23.845 18.5072 23.8481C18.5149 23.8501 18.5184 23.8675 18.5123 23.8906ZM14.8986 24.0282L14.652 24.9488L13.5764 24.6359C12.4088 24.2984 12.4012 24.2964 12.3754 24.0551L12.3627 23.9489L12.27 24.0187C12.2145 24.0572 12.171 24.0661 12.1618 24.039C12.1363 23.9499 12.0685 23.9729 12.0658 24.0749L12.0631 24.177L11.6604 24.0691C11.4379 24.0095 11.2597 23.9535 11.2617 23.9458C11.2628 23.942 11.2689 23.7504 11.2745 23.5299C11.2839 22.9733 11.3143 22.3689 11.3348 22.2921C11.3492 22.2384 11.429 22.2475 11.9464 22.3573C12.7123 22.5215 13.9856 22.8174 14.6359 22.9834L15.1443 23.1114L14.8986 24.0282ZM16.1508 23.5744C16.1614 23.6882 16.162 23.8857 16.1511 24.0184C16.1364 24.2571 16.1393 24.2619 16.2712 24.322C16.3486 24.3551 16.4445 24.4424 16.4876 24.5115C16.5869 24.6779 16.6636 24.6985 16.8021 24.5958L16.9105 24.5138L16.9689 24.6487C17.0245 24.7787 17.0388 24.7867 17.169 24.7763C17.2481 24.7728 17.3675 24.772 17.4368 24.7741C17.5821 24.7842 17.7416 24.6954 17.8093 24.5655C17.8759 24.4395 18.0608 24.3328 18.1226 24.3782C18.1607 24.4048 18.1704 24.3992 18.1664 24.3529C18.1591 24.2728 18.2879 24.1141 18.3229 24.1523C18.339 24.1689 18.343 24.2152 18.3317 24.2574C18.3194 24.3034 18.3391 24.3375 18.3823 24.345C18.4206 24.3552 18.4314 24.3458 18.4076 24.3271C18.3828 24.3122 18.3763 24.2447 18.3927 24.1833C18.4174 24.0912 18.4379 24.0762 18.5146 24.0967C18.5798 24.1142 18.6127 24.16 18.6295 24.2509C18.6528 24.4092 18.6825 24.4213 18.7607 24.2983C18.8229 24.204 18.8268 24.2051 19.1469 24.2991C19.3213 24.354 19.5139 24.4179 19.5683 24.4449C19.6629 24.4908 19.6665 24.5082 19.6147 24.6094C19.469 24.9075 18.8938 25.9497 18.8646 25.9666C18.85 25.975 18.3096 25.859 17.6649 25.7027L16.4955 25.4181L16.5977 25.2975C16.7235 25.1503 16.7143 25.1232 16.5426 25.1347C16.4462 25.1418 16.3771 25.1233 16.2971 25.0689C16.1647 24.98 16.1025 25.0127 16.0873 25.1771C16.0818 25.2743 16.0633 25.2817 15.9306 25.2708C15.7027 25.2468 15.1946 25.1024 15.178 25.0569C15.1716 25.0346 15.2865 24.6214 15.4285 24.1373L15.6928 23.2584L15.9153 23.318L16.1339 23.3766L16.1508 23.5744ZM11.054 22.4965C11.0481 22.6717 11.038 23.0472 11.0351 23.3342L11.0301 23.8591L10.6782 23.7607C10.2074 23.6304 10.1446 23.5889 10.1885 23.4404C10.2098 23.3762 10.2718 23.2982 10.3301 23.2645C10.3836 23.2336 10.4384 23.1825 10.4456 23.1557C10.4539 23.125 10.4979 23.0834 10.5504 23.0563C10.6174 23.0208 10.6423 22.9741 10.6671 22.8203C10.6939 22.659 10.7146 22.6275 10.797 22.5962C10.8746 22.5676 10.8963 22.5323 10.8977 22.4505C10.9017 22.3282 10.9835 22.161 11.0372 22.1754C11.0564 22.1805 11.0626 22.3261 11.054 22.4965ZM20.5901 24.805C20.7547 24.8655 20.9156 24.9251 20.9452 24.9371C20.9759 24.9454 21.0467 24.9726 21.1032 24.9918C21.1685 25.0093 21.2479 25.0964 21.3181 25.2179C21.3799 25.3249 21.4573 25.4197 21.488 25.4279C21.5685 25.4495 21.5421 25.5328 21.3133 26.0183C21.2095 26.2372 21.1235 26.4197 21.1225 26.4236C21.1122 26.4619 19.2134 26.0765 19.1853 26.0278C19.174 26.0084 19.7409 24.9516 19.947 24.6121C19.9677 24.5807 20.0207 24.5825 20.1316 24.6287C20.2206 24.6649 20.4254 24.7444 20.5901 24.805ZM1.76094 20.3394C1.81517 20.5513 1.92343 20.9297 2.00397 21.1815C2.1362 21.624 2.13873 21.6452 2.06159 21.7643C2.01905 21.831 1.97575 21.8852 1.96808 21.8832C1.92589 21.8719 1.48157 19.9398 1.50418 19.8554C1.50829 19.84 1.54459 19.858 1.58829 19.8944C1.62815 19.9297 1.70773 20.1237 1.76094 20.3394ZM22.5878 25.5581C23.2853 25.8396 23.4371 25.9173 23.4196 25.9825C23.4065 26.016 23.2667 26.2005 23.1035 26.3952L22.8076 26.7476L22.3618 26.6775C22.1178 26.6368 21.8202 26.5817 21.7012 26.5499L21.4854 26.4961L21.7001 26.048C21.8149 25.8033 21.9388 25.5405 21.9757 25.464C22.0358 25.3321 22.0445 25.3303 22.1544 25.3804C22.2214 25.4065 22.4136 25.4868 22.5878 25.5581ZM1.94172 20.1864C2.05466 20.2865 2.72844 20.7179 3.03674 20.8868C3.11982 20.9296 3.15941 20.9813 3.15372 21.0333C3.15111 21.0737 3.1546 21.1527 3.16528 21.2049C3.1874 21.3219 3.21171 21.3078 2.87422 21.3859C2.7253 21.42 2.51802 21.4878 2.41513 21.5343L2.23059 21.6246L2.18162 21.5005C2.03706 21.1041 1.75411 20.058 1.79631 20.0693C1.80781 20.0724 1.87247 20.1226 1.94172 20.1864ZM24.2803 26.2994C24.8202 26.5551 25.8103 27.0794 25.8394 27.1242C25.8703 27.1777 24.9493 27.0707 23.2475 26.8244C23.1534 26.8074 23.0815 26.784 23.0867 26.7649C23.0908 26.7495 23.2286 26.5727 23.3967 26.3751C23.6669 26.057 23.7051 26.022 23.7766 26.0617C23.8244 26.0827 24.0499 26.1925 24.2803 26.2994ZM28.5427 28.0212C28.2422 28.3601 27.8573 28.7379 27.8228 28.7287C27.7461 28.7081 27.7989 28.6031 27.9574 28.4564C28.0542 28.3714 28.1846 28.2377 28.2532 28.1657C28.4054 27.9968 28.6993 27.759 28.7162 27.7881C28.7246 27.8027 28.6467 27.9093 28.5427 28.0212ZM26.0251 27.5974C25.8858 27.7492 25.4095 28.1766 24.9836 28.523C24.7063 28.7447 24.1746 29.149 24.1592 29.1448C24.1554 29.1438 24.0324 29.0656 23.8895 28.9698C23.5105 28.712 23.0182 28.4321 22.4928 28.168C22.2397 28.0385 22.0278 27.9242 22.027 27.9116C22.0245 27.8904 22.3885 27.4987 22.7785 27.1016C22.859 27.0163 22.9503 26.9668 23.0033 26.9686C23.0514 26.9733 23.4915 27.0337 23.9826 27.1036C24.4736 27.1735 25.1619 27.2592 25.5149 27.2922C25.9832 27.3395 26.1561 27.3694 26.1545 27.406C26.156 27.4311 26.0958 27.5177 26.0251 27.5974ZM3.22832 21.7522C3.23893 21.866 3.26062 22.1226 3.26882 22.3221C3.28086 22.5227 3.30619 22.7351 3.32735 22.7942C3.34748 22.8571 3.35864 22.9382 3.355 22.9825C3.35521 23.0277 3.39848 23.2038 3.45916 23.3763C3.53257 23.5933 3.54831 23.6879 3.5079 23.6853C3.47516 23.6848 3.33022 23.5966 3.17789 23.49L2.90364 23.3014L2.68196 22.7939C2.55951 22.5144 2.41973 22.1769 2.37001 22.0402L2.28462 21.7912L2.43409 21.7244C2.64089 21.6277 3.13347 21.4924 3.17539 21.5201C3.19251 21.5329 3.21771 21.6383 3.22832 21.7522ZM22.2999 27.3228C22.1155 27.5201 21.9283 27.7125 21.8766 27.7521L21.7877 27.8228L21.3766 27.6387C21.0468 27.4886 20.9724 27.444 21.0039 27.4031C21.0237 27.3755 21.1142 27.2066 21.2077 27.0261C21.3013 26.8456 21.3818 26.6986 21.3867 26.6958C21.4284 26.6782 22.6209 26.9073 22.6224 26.9324C22.626 26.9498 22.4795 27.1284 22.2999 27.3228ZM20.9958 26.6815C20.9779 26.7178 20.8953 26.8725 20.8176 27.0243C20.6902 27.2698 20.6608 27.303 20.5879 27.2834C20.5457 27.2721 20.1982 27.142 19.8183 26.995C19.4383 26.848 19.0612 26.7058 18.9778 26.6794C18.8351 26.6288 18.8285 26.6229 18.868 26.506C18.9692 26.2207 18.9963 26.2115 19.3986 26.2905C19.5983 26.3276 19.9804 26.4053 20.2502 26.4571C21.0461 26.6169 21.0384 26.6148 20.9958 26.6815ZM11.0147 24.0852C11.0379 24.1366 11.0485 24.4807 11.0242 24.4947C11.0145 24.5004 10.6388 24.4449 10.1853 24.3727C9.73289 24.2967 9.2467 24.224 9.09963 24.2052C8.7055 24.1571 8.7055 24.1571 8.70647 23.9847C8.71281 23.6082 8.70767 23.6274 8.86501 23.6079C8.94508 23.6005 9.0216 23.5758 9.03544 23.5548C9.07284 23.5073 10.9831 24.0192 11.0147 24.0852ZM12.2209 24.4783C12.2387 24.5036 12.2525 24.5443 12.2463 24.5673C12.2391 24.5942 12.2843 24.6556 12.3462 24.701C12.4546 24.7876 12.4507 24.7865 12.1203 24.7309C11.5824 24.6361 11.3014 24.5649 11.2733 24.5163C11.2593 24.492 11.255 24.4004 11.2662 24.3129L11.2804 24.1523L11.7317 24.2938C11.978 24.3721 12.1981 24.4557 12.2209 24.4783ZM18.739 26.159C18.7454 26.1813 18.7005 26.272 18.6421 26.3674L18.539 26.5371L18.3841 26.4709C18.2061 26.3986 16.9222 25.9888 15.8086 25.6493C15.0668 25.4258 15.0563 25.4189 15.0894 25.3415C15.1215 25.2678 15.1455 25.2702 15.6012 25.3799C15.8669 25.447 16.1076 25.5156 16.1341 25.5392C16.1646 25.5638 16.2085 25.5838 16.2298 25.5812C16.2548 25.5797 16.8144 25.7009 17.4726 25.8526C18.1358 26.0015 18.6866 26.1244 18.7019 26.1285C18.7183 26.1288 18.7354 26.1416 18.739 26.159ZM14.5852 25.1981C14.5625 25.2825 14.5462 25.2822 14.2408 25.2251C14.0603 25.1931 13.6928 25.107 13.4243 25.0351C12.9294 24.9025 12.8464 24.8597 12.6423 24.6241C12.6121 24.5831 12.9029 24.6487 13.6048 24.8368L14.6098 25.1061L14.5852 25.1981ZM8.32665 23.9446L8.30856 24.1042L8.14026 24.0879C8.05279 24.0768 7.96354 24.057 7.9436 24.0393C7.88025 23.9689 7.96712 23.8442 8.13529 23.7536C8.33264 23.6461 8.35538 23.6686 8.32665 23.9446ZM14.4754 25.6538C14.4509 25.7912 14.3432 26.2392 14.236 26.6545L14.0423 27.4084L13.3484 27.2512C12.9684 27.1659 12.382 27.0375 12.0383 26.9701C11.6984 26.9037 11.4097 26.8304 11.3957 26.8061C11.377 26.7682 11.2705 25.1404 11.2714 24.8611C11.269 24.7166 11.2749 24.7099 11.3759 24.7164C11.4365 24.7203 11.6987 24.77 11.9636 24.8246L12.4416 24.928L12.5452 25.1243C12.646 25.3158 12.7994 25.4185 12.8816 25.3419C12.8993 25.322 12.9494 25.3189 12.9878 25.3292C13.0952 25.358 13.1367 25.2951 13.0954 25.1731L13.0597 25.0607L13.7034 25.2209C14.0611 25.3126 14.3903 25.3885 14.4335 25.3959C14.5123 25.4088 14.5138 25.4339 14.4754 25.6538ZM16.6526 26.044C17.4491 26.278 18.4376 26.6086 18.4611 26.6437C18.4713 26.667 17.7774 27.7226 17.5091 28.0947C17.3928 28.2527 17.2749 28.3856 17.2412 28.3889C17.2112 28.3932 16.8921 28.2953 16.5339 28.1747C16.1756 28.054 15.5576 27.8596 15.1666 27.7384L14.4527 27.5183L14.7285 26.5809C14.8826 26.0672 15.0182 25.6225 15.0369 25.5987C15.0539 25.5663 15.1556 25.5853 15.4315 25.6757C15.6366 25.7389 16.1838 25.906 16.6526 26.044ZM25.4005 28.425C25.2831 28.5867 24.5667 29.3733 24.527 29.3832C24.4912 29.3941 24.3358 29.299 24.2801 29.2307C24.2735 29.2248 24.3682 29.1474 24.4939 29.0619C24.6158 28.9753 24.8792 28.7745 25.0736 28.6169C25.2669 28.4632 25.4328 28.335 25.4443 28.338C25.452 28.3401 25.4292 28.3792 25.4005 28.425ZM25.416 29.1034C25.2655 29.4043 25.2153 29.4689 25.085 29.5409C24.9148 29.6392 24.7518 29.649 24.678 29.5716C24.643 29.5335 24.7209 29.4269 25.0989 28.9979L25.5682 28.474L25.5803 28.6129C25.5871 28.7258 25.5548 28.8158 25.416 29.1034ZM11.0733 25.1862C11.1151 25.9046 11.1283 26.0397 11.171 26.417C11.192 26.5994 11.2067 26.7596 11.2016 26.7788C11.181 26.8555 10.357 26.647 9.5488 26.3647C9.10645 26.205 8.73876 26.0736 8.73212 26.0677C8.72472 26.0493 8.68944 24.5393 8.69753 24.4017L8.70254 24.2756L9.26854 24.3573C10.1238 24.4796 10.8481 24.5997 10.9506 24.6313C11.033 24.6615 11.0475 24.7148 11.0733 25.1862ZM19.7289 27.0985C20.1615 27.2637 20.5289 27.4115 20.5478 27.433C20.5877 27.4684 20.3628 27.8933 19.923 28.6141C19.7259 28.9354 19.666 29.0057 19.5918 29.0064C19.5465 29.0066 19.1634 28.9327 18.7419 28.8485C18.0287 28.7026 17.4727 28.5372 17.4902 28.472C17.4943 28.4567 17.6304 28.2711 17.791 28.0552C17.9555 27.8402 18.222 27.4594 18.386 27.2156C18.551 26.9679 18.6981 26.7565 18.7099 26.7432C18.7255 26.731 18.7851 26.7387 18.8416 26.758C18.8971 26.7811 19.3001 26.9343 19.7289 27.0985ZM21.3217 27.7514C21.5234 27.8425 21.6906 27.9243 21.6973 27.9302C21.7152 27.9555 20.6043 28.9405 20.4161 29.0751C20.3002 29.1551 19.9659 29.0984 20.031 29.0089C20.1335 28.8719 20.5751 28.1598 20.7309 27.885C20.8301 27.7142 20.9201 27.578 20.9316 27.5811C20.9431 27.5842 21.1162 27.6593 21.3217 27.7514ZM8.33098 24.6036C8.33049 24.8049 8.34388 25.1538 8.35742 25.3794C8.36994 25.6089 8.37253 25.7987 8.3628 25.8043C8.32286 25.8306 7.9276 24.59 7.92727 24.4378C7.92242 24.2104 7.93626 24.1895 8.06031 24.2021C8.33526 24.2347 8.32684 24.2201 8.33098 24.6036ZM23.2567 28.7386C23.4799 28.8724 23.7478 29.0387 23.8438 29.1097L24.0276 29.237L23.7957 29.3969C23.6408 29.4993 23.5243 29.5503 23.4358 29.543C22.9903 29.5182 20.8401 29.2422 20.6214 29.1836C20.5754 29.1712 20.6725 29.0698 20.9723 28.8254C21.1999 28.6356 21.499 28.3786 21.637 28.247L21.8896 28.0105L22.3709 28.2546C22.6307 28.3899 23.0325 28.6086 23.2567 28.7386ZM7.91585 25.0021C7.97166 25.1774 8.0637 25.4323 8.11725 25.57C8.168 25.7028 8.20826 25.8287 8.20313 25.8479C8.19593 25.8747 7.46056 25.6119 7.16425 25.475C6.99602 25.397 7.03528 25.2965 7.30072 25.1497C7.46122 25.0571 7.52781 24.9927 7.54939 24.9121C7.5792 24.8009 7.71648 24.6568 7.77785 24.6732C7.79703 24.6784 7.86004 24.8268 7.91585 25.0021ZM25.9162 29.8911C25.7506 30.0029 25.5296 30.137 25.4226 30.1987L25.2301 30.3034L25.1311 30.1206C25.0808 30.0167 25.0362 29.9225 25.0403 29.9072C25.0496 29.8726 25.6767 29.757 25.7495 29.7765C25.7764 29.7837 25.8498 29.7705 25.911 29.7417C26.0216 29.6973 26.1173 29.6777 26.1835 29.6914C26.1999 29.6916 26.0808 29.7831 25.9162 29.8911ZM3.35001 23.7376C3.55576 23.8749 3.58309 23.9111 3.61794 24.0725C3.65786 24.2764 3.64909 24.3399 3.57278 24.4099C3.52975 24.4477 3.49756 24.4144 3.3786 24.2139C3.1856 23.8909 3.00343 23.4967 3.06425 23.5459C3.09185 23.5656 3.22042 23.6535 3.35001 23.7376ZM24.3632 29.5037C24.393 29.5611 24.3899 29.5726 24.3193 29.5906C24.272 29.5985 24.1651 29.5986 24.0766 29.5914C23.9881 29.5841 23.8783 29.5794 23.8369 29.5806C23.7714 29.5795 23.7901 29.5557 23.9286 29.4531C24.0779 29.3409 24.1127 29.3338 24.2111 29.3808C24.2722 29.4136 24.3397 29.4686 24.3632 29.5037ZM24.8001 29.9291C24.9748 30.1363 25.0981 30.3667 25.054 30.4083C24.9836 30.4717 23.8075 31.0404 23.3691 31.219C23.0277 31.3577 22.8691 31.3974 22.6764 31.3952C22.3316 31.3932 22.3211 31.3863 22.4996 31.2573C23.0239 30.8962 23.5373 30.4993 23.9567 30.1307C24.3966 29.747 24.4463 29.7151 24.5537 29.7439C24.6189 29.7614 24.7255 29.8393 24.8001 29.9291ZM24.1779 29.7501C24.1635 29.8038 23.2361 30.5954 22.8615 30.8733C22.3026 31.2868 22.3238 31.2842 22.1624 31.0889C22.0916 31 21.9657 30.8717 21.8831 30.7961L21.737 30.6665L21.9195 30.5839C22.1416 30.4913 23.0726 30.0089 23.0982 29.9747C23.1089 29.9652 23.2267 29.894 23.3608 29.823C23.562 29.7166 23.649 29.6988 23.8646 29.7073C24.1851 29.7232 24.1851 29.7232 24.1779 29.7501ZM23.3282 29.6992C23.3231 29.7184 23.0205 29.8963 22.6598 30.0916C21.8541 30.5211 21.6598 30.6171 21.6429 30.5879C21.6092 30.5295 20.8974 30.0715 20.4899 29.8431C20.2465 29.708 20.0395 29.5909 20.0349 29.5773C20.0293 29.5676 20.1046 29.5014 20.206 29.4299L20.3893 29.2982L20.835 29.3683C21.3875 29.4546 23.2236 29.6753 23.2528 29.6584C23.2907 29.6398 23.3375 29.6647 23.3282 29.6992ZM3.74905 24.8107C3.76946 24.8572 3.74392 24.8298 3.69234 24.7461C3.62954 24.643 3.61043 24.5762 3.6427 24.5478C3.67599 24.5156 3.69209 24.5323 3.69941 24.6123C3.70701 24.676 3.72865 24.7641 3.74905 24.8107ZM7.96844 25.9412C8.29496 26.0575 8.37647 26.1369 8.43399 26.3825C8.45946 26.4716 8.48453 26.4701 7.94073 26.4436C7.71742 26.4331 7.29637 26.4395 7.00319 26.4596L6.47288 26.4902L6.36459 26.3419C6.2696 26.2055 6.26809 26.1804 6.32222 26.0551C6.37634 25.9299 6.37484 25.9048 6.29183 25.8003C6.20779 25.6997 6.20526 25.6785 6.2652 25.6082C6.33 25.5351 6.35124 25.5326 6.53508 25.5983C6.70742 25.6609 6.74886 25.6597 6.83846 25.6015C6.93779 25.5376 6.94162 25.5386 7.29753 25.6833C7.49363 25.7647 7.79611 25.8786 7.96844 25.9412ZM13.975 27.6288L13.9493 27.7247L13.3864 27.5698C13.0729 27.4816 12.54 27.3224 12.1941 27.2174C11.6248 27.0402 11.5914 27.0271 11.8297 27.0581C11.9719 27.0797 12.4701 27.1844 12.9383 27.2935C13.4028 27.4015 13.8337 27.4964 13.895 27.5128C13.9853 27.5288 13.9966 27.5482 13.975 27.6288ZM15.9827 28.1298C16.3517 28.241 16.7099 28.3616 16.7748 28.3955C16.8981 28.4573 15.591 28.1646 14.7855 27.9487C14.4096 27.848 14.3733 27.8301 14.3897 27.7687C14.4 27.7303 14.4238 27.6874 14.4433 27.6762C14.4666 27.666 14.6671 27.7156 14.898 27.7898C15.125 27.8629 15.6147 28.0147 15.9827 28.1298ZM20.1038 29.3203C20.0743 29.3535 19.9934 29.41 19.9263 29.4455C19.763 29.5333 19.7161 29.4631 19.8352 29.31C19.9079 29.2226 19.9448 29.2078 20.0407 29.2335C20.1404 29.2603 20.1488 29.2748 20.1038 29.3203ZM9.42563 26.4715C9.69797 26.5444 9.55878 26.5729 9.16848 26.5259C8.82524 26.4874 8.79942 26.4763 8.77086 26.3988C8.70888 26.2465 8.74471 26.2356 9.01088 26.3316C9.1487 26.3849 9.33357 26.4468 9.42563 26.4715ZM19.5245 29.2268C19.4996 29.2736 19.473 29.3116 19.4681 29.3145C19.4466 29.3334 18.9307 29.08 18.9369 29.057C18.942 29.0378 19.0545 29.0474 19.1908 29.0757C19.3233 29.103 19.4635 29.1323 19.5028 29.1388C19.5624 29.1465 19.565 29.1677 19.5245 29.2268ZM10.9332 26.9823C11.1439 27.0552 11.2748 27.1191 11.2676 27.1459C11.2615 27.1689 11.3339 27.5584 11.4254 28.0146C11.518 28.4669 11.5869 28.8389 11.583 28.8379C11.5782 28.8407 11.2234 28.7991 10.7976 28.7467C10.3707 28.6981 9.96021 28.6498 9.88424 28.6417C9.75355 28.6232 9.73184 28.5968 9.29126 27.8168C8.81033 26.9726 8.6933 26.6576 8.8468 26.637C8.95784 26.6216 10.1702 26.7614 10.3937 26.8172C10.5021 26.8421 10.7445 26.9194 10.9332 26.9823ZM18.7398 29.1481C19.0716 29.2904 19.3498 29.4184 19.3544 29.432C19.3723 29.4573 19.0504 29.922 18.9031 30.0881C18.751 30.257 17.9303 30.7113 17.7587 30.7229C17.5832 30.7334 17.3595 30.6324 17.4059 30.5667C17.4522 30.501 17.3321 30.4277 17.2057 30.4391C17.1507 30.4449 17.0441 30.4286 16.9712 30.4091C16.5401 30.2689 16.5725 30.2858 16.6767 30.2192L16.7712 30.1582L16.6251 30.1971C16.5061 30.2269 16.4782 30.2236 16.4637 30.1704C16.4471 30.1248 16.3955 30.1027 16.2599 30.087C16.1599 30.0766 16.0783 30.0589 16.0804 30.0512C16.0824 30.0435 16.2915 29.8159 16.5396 29.5494C16.7927 29.28 17.0617 28.9821 17.1337 28.8822L17.2725 28.7015L17.4914 28.7437C18.006 28.8487 18.1689 28.9005 18.7398 29.1481ZM12.8421 27.576L13.8946 27.8827L13.8218 28.262C13.7788 28.4684 13.7091 28.7745 13.6628 28.9471L13.5796 29.2578L13.1121 29.1613C12.8559 29.105 12.4393 29.018 12.1868 28.9627L11.727 28.8683L11.5893 28.1242C11.5105 27.7126 11.4544 27.3234 11.4555 27.2579L11.4643 27.1329L11.627 27.2011C11.7159 27.2373 12.2632 27.4044 12.8421 27.576ZM17.0689 28.6634C17.0669 28.671 16.9398 28.8384 16.7864 29.0276C16.44 29.461 16.033 29.8905 15.944 29.916C15.8442 29.9509 15.5959 29.8186 15.6413 29.7568C15.6877 29.6911 15.6598 29.6877 15.5431 29.7551C15.4312 29.8197 15.3036 29.7896 14.4403 29.5131L13.921 29.3493L14.1249 28.6803C14.2351 28.3152 14.3326 28.0124 14.3375 28.0096C14.3434 28.003 14.897 28.1308 15.5658 28.2894C16.2345 28.448 16.8495 28.5923 16.9301 28.6138C17.0078 28.6306 17.072 28.6519 17.0689 28.6634ZM19.6882 29.6283C19.6831 29.6475 19.647 29.6748 19.6091 29.6935C19.5333 29.7307 19.5298 29.7133 19.589 29.6305C19.6295 29.5715 19.7036 29.5708 19.6882 29.6283ZM8.49587 26.8267C8.50648 26.9405 8.57686 27.3376 8.65238 27.7155L8.79199 28.4066L8.6524 28.3445C8.57876 28.3125 8.30136 28.197 8.04107 28.0944C7.58468 27.9105 7.55605 27.8946 7.36805 27.6756C7.1223 27.396 6.5852 26.6847 6.58958 26.653C6.59781 26.6223 7.5735 26.5713 7.98558 26.5831C8.46801 26.5931 8.47185 26.5941 8.49587 26.8267ZM20.2113 29.8548C20.8118 30.1761 21.4787 30.6179 21.4622 30.6792C21.453 30.7138 20.6614 31.0443 20.3049 31.1626C20.0667 31.2385 20.0291 31.2408 19.3641 31.1449C18.5406 31.027 18.5329 31.0249 18.5524 30.952C18.5606 30.9213 18.7161 30.7246 18.896 30.5137C19.0748 30.3068 19.2272 30.1215 19.2313 30.1061C19.2406 30.0716 19.8521 29.6764 19.8867 29.6856C19.902 29.6897 20.05 29.7664 20.2113 29.8548ZM6.25664 26.3459C6.36389 26.498 6.36129 26.5384 6.25717 26.5434C6.2147 26.5485 6.06195 26.5815 5.91481 26.6243C5.69705 26.6852 5.64205 26.691 5.59479 26.6372C5.51814 26.555 5.47923 26.5775 5.53156 26.6737C5.55402 26.7127 5.56012 26.7513 5.5445 26.7635C5.52991 26.772 5.44436 26.6463 5.35759 26.4791C5.26979 26.3158 5.20754 26.1799 5.21726 26.1743C5.22699 26.1687 5.29165 26.2189 5.36857 26.2847C5.58014 26.4771 5.717 26.4727 5.64715 26.273C5.57805 26.086 5.61593 26.0673 5.89978 26.1434C6.12993 26.2051 6.18055 26.231 6.25664 26.3459ZM6.71682 26.9913C6.85449 27.168 7.05448 27.4189 7.16407 27.547C7.26982 27.674 7.35461 27.7871 7.35255 27.7948C7.34536 27.8217 6.11436 27.2451 5.75647 27.0465L5.58853 26.9521L5.76334 26.8674C5.90514 26.7985 6.4008 26.6518 6.45553 26.6623C6.4632 26.6644 6.58402 26.8119 6.71682 26.9913ZM9.42404 28.2265C9.56293 28.4446 9.66094 28.6312 9.64532 28.6435C9.62689 28.6509 9.49723 28.6285 9.35147 28.5894L9.0868 28.5185L8.978 27.9426C8.91392 27.6294 8.86948 27.3502 8.87462 27.3311C8.88079 27.3081 8.95127 27.4133 9.03167 27.5582C9.10824 27.702 9.28617 28.0046 9.42404 28.2265ZM21.8205 30.9685C21.9237 31.0742 22.0418 31.2169 22.0793 31.2763L22.1428 31.392L21.8666 31.3796C21.4555 31.364 20.4859 31.2851 20.39 31.2594C20.3286 31.243 20.387 31.2093 20.6002 31.1348C20.7639 31.0759 21.0431 30.9698 21.2197 30.8938C21.4002 30.8188 21.565 30.7561 21.588 30.7623C21.6082 30.7636 21.7145 30.8578 21.8205 30.9685ZM22.5346 31.5257C22.4289 31.5673 22.377 31.5616 22.3903 31.5117C22.4016 31.4695 22.4789 31.4573 22.5643 31.4761C22.6065 31.4874 22.5996 31.4979 22.5346 31.5257ZM18.4113 30.6963C18.2993 30.8225 18.2223 30.88 18.2151 30.8452C18.206 30.8181 18.1669 30.7953 18.1282 30.8014C18.0906 30.8036 18.061 30.7916 18.0671 30.7685C18.0795 30.7225 18.521 30.4708 18.567 30.4832C18.5824 30.4873 18.5114 30.5834 18.4113 30.6963ZM6.17716 27.3483C6.39779 27.4609 6.7915 27.6486 7.05151 27.7676C7.51324 27.9776 7.53803 27.9925 7.84946 28.3185C8.02549 28.5055 8.18158 28.6747 8.19665 28.6952C8.20788 28.7147 8.15822 28.7466 8.07992 28.7626C8.00163 28.7786 7.84243 28.8511 7.72468 28.9223C7.56418 29.015 7.49253 29.0369 7.44396 29.0033C7.39821 28.9746 7.38725 28.9388 7.41185 28.9084C7.43952 28.8665 7.42726 28.8508 7.35616 28.84C7.23801 28.8207 7.19711 28.7892 6.80588 28.4541C6.21712 27.951 5.87349 27.5917 5.71652 27.303C5.57256 27.0424 5.56694 27.0327 5.67099 27.0893C5.73208 27.1222 5.96038 27.2368 6.17716 27.3483ZM22.2122 31.5627C22.2382 31.619 22.1896 31.647 21.9242 31.7322C21.7489 31.788 21.5941 31.8287 21.5788 31.8246C21.5634 31.8205 21.6794 31.7406 21.8399 31.6479C22.0004 31.5552 22.1394 31.4815 22.1548 31.4856C22.1701 31.4897 22.1936 31.5248 22.2122 31.5627ZM5.52686 27.1823C5.49281 27.2019 5.43432 27.1287 5.44665 27.0827C5.45282 27.0597 5.47584 27.0658 5.50214 27.1058C5.52946 27.1419 5.53658 27.1767 5.52686 27.1823ZM21.5536 31.7192C21.1548 31.9494 21.1131 31.967 20.3583 32.1143C19.9292 32.1966 19.5359 32.268 19.4907 32.2682C19.4203 32.2699 19.3909 32.2415 19.3611 32.1225C19.3374 32.0422 19.2522 31.9001 19.1689 31.812C19.0894 31.7249 19.0243 31.6458 19.0274 31.6343C19.0343 31.6238 19.2754 31.5527 19.5637 31.4738C20.0835 31.3294 20.1037 31.3307 20.6249 31.3799C20.9183 31.4051 21.3252 31.436 21.5245 31.4442C21.7266 31.4572 21.9046 31.4679 21.9286 31.4702C21.9489 31.4715 21.7783 31.5862 21.5536 31.7192ZM13.5163 29.5245C13.498 29.6388 13.4773 29.6703 13.4087 29.6807C13.3576 29.6875 13.2608 29.7109 13.1853 29.7318C13.0692 29.7665 12.9664 29.7513 12.4802 29.6169L11.9097 29.4599L11.844 29.245C11.8093 29.1288 11.7928 29.0216 11.8074 29.0132C11.8463 28.9907 12.553 29.1307 13.0882 29.2659L13.538 29.3823L13.5163 29.5245ZM14.5122 29.705C14.4656 29.7254 14.4117 29.7274 14.3956 29.7108C14.3795 29.6941 14.3429 29.6925 14.3109 29.7045C14.2546 29.7305 14.0528 29.7011 13.9178 29.6526C13.8756 29.6413 13.858 29.5996 13.8703 29.5536C13.8899 29.4807 13.9177 29.4841 14.2476 29.5724C14.5611 29.6606 14.5908 29.6726 14.5122 29.705ZM11.6958 29.123C11.7241 29.2169 11.7541 29.3195 11.7651 29.3554C11.7796 29.4086 11.698 29.3908 11.2083 29.2391C10.2952 28.9492 9.87101 28.7985 9.91272 28.7809C9.95163 28.7585 10.7893 28.839 11.3082 28.9123C11.463 28.9332 11.5975 28.9528 11.6139 28.9531C11.6292 28.9572 11.6665 29.0329 11.6958 29.123ZM8.37998 28.3332C8.61828 28.4259 8.80746 28.5177 8.82993 28.5566C8.8815 28.6403 8.88636 28.6375 8.56784 28.6755L8.30433 28.7076L8.02789 28.4198C7.69475 28.0674 7.67687 28.042 7.84229 28.1151C7.91106 28.15 8.15703 28.2447 8.37998 28.3332ZM19.81 31.3219C19.808 31.3296 19.6588 31.38 19.4835 31.4358C19.0991 31.5507 18.8221 31.5259 18.8218 31.3737C18.8214 31.2831 18.8043 31.2703 18.6605 31.2852C18.5978 31.289 18.527 31.2618 18.4452 31.1987L18.3274 31.1014L18.5274 31.1221C19.1438 31.1845 19.8182 31.2912 19.81 31.3219ZM5.9645 27.8504C5.99053 27.9068 6.15347 28.1272 6.3223 28.341C6.4901 28.5586 6.63338 28.745 6.64283 28.7558C6.67756 28.8103 6.44399 28.6079 6.34283 28.4945C6.28331 28.4251 6.22071 28.3672 6.20537 28.3631C6.1018 28.3354 5.81716 27.848 5.84389 27.7482C5.85519 27.706 5.91882 27.7601 5.9645 27.8504ZM10.2088 29.333C10.3965 29.5683 10.6619 29.882 10.7991 30.0298C10.9401 30.1786 11.0477 30.3143 11.0377 30.3363C11.0138 30.3792 10.8507 30.3437 10.8323 30.2895C10.8221 30.2662 10.7559 30.2525 10.6702 30.2501C10.5873 30.2526 10.5162 30.2418 10.5078 30.2272C10.4994 30.2126 10.3413 30.1579 10.1572 30.1086C9.62685 29.9706 9.51699 29.8589 9.32325 29.2931C9.23786 29.0441 9.17417 28.8215 9.18034 28.7985C9.19884 28.7294 9.44619 28.7422 9.66633 28.8259C9.85298 28.8965 9.90511 28.9474 10.2088 29.333ZM11.0034 29.2828C11.5974 29.4749 11.8395 29.5685 11.8494 29.6082C11.8831 29.7282 12.0986 30.2588 12.1751 30.4026L12.2573 30.5562L12.1218 30.5404C11.3562 30.4669 11.3054 30.4573 11.2197 30.3933C11.003 30.2201 10.0576 29.0993 10.0146 28.9685C10.0092 28.9424 10.0381 28.942 10.0887 28.9679C10.1317 28.9917 10.5464 29.1316 11.0034 29.2828ZM6.63204 28.3664C6.89396 28.6011 7.19012 28.8613 7.2967 28.9392C7.448 29.0496 7.4904 29.1062 7.48621 29.1832C7.47559 29.2996 7.4362 29.2931 7.1614 29.1373C6.93057 29.0014 6.65263 28.6885 6.1669 28.0157C6.05684 27.8587 6.1491 27.9287 6.63204 28.3664ZM12.5374 29.772C12.5629 29.7994 12.5693 29.8216 12.5539 29.8175C12.4849 29.799 12.713 30.0986 12.8037 30.1435C12.9451 30.2142 13.087 30.4825 13.052 30.6129C13.0233 30.7203 13.0184 30.7231 12.875 30.66C12.7909 30.621 12.6458 30.5945 12.5428 30.5957C12.3944 30.597 12.3484 30.5847 12.3088 30.533C12.2166 30.4014 11.9476 29.6715 11.9661 29.6025C11.9764 29.5641 12.4873 29.7133 12.5374 29.772ZM9.04256 29.1439L9.16391 29.4889L8.81562 29.1776C8.62295 29.0068 8.46659 28.8539 8.46967 28.8424C8.47789 28.8117 8.7734 28.7675 8.85778 28.7901C8.8895 28.7945 8.97346 28.9568 9.04256 29.1439ZM13.2942 30.0159C13.2891 30.0351 13.2571 30.0471 13.2226 30.0378C13.1919 30.0296 13.1817 30.0063 13.1983 29.9902C13.216 29.9703 13.247 29.9621 13.27 29.9683C13.2892 29.9734 13.3004 29.9929 13.2942 30.0159ZM8.80966 29.2459C9.1163 29.5131 9.25911 29.6706 9.30348 29.7811C9.37567 29.9567 9.37587 30.002 9.30737 29.9507C9.26929 29.9241 9.25751 29.9374 9.25538 30.0067C9.25578 30.0973 9.25195 30.0962 8.98296 29.9954C8.83364 29.9389 8.61199 29.8302 8.49672 29.7541C8.24315 29.5957 8.25466 29.5988 8.27479 29.6617C8.28294 29.6927 8.26554 29.6963 8.22259 29.6724C8.18348 29.6496 8.04211 29.5788 7.90635 29.5178C7.7573 29.445 7.65251 29.3758 7.65025 29.3382C7.63759 29.232 7.69129 29.2464 7.89602 29.3876C8.0026 29.4655 8.09794 29.5239 8.1115 29.5193C8.12123 29.5137 8.03383 29.4409 7.91958 29.361C7.80534 29.2811 7.71616 29.1996 7.72233 29.1766C7.74391 29.096 7.91441 28.9814 8.11299 28.9154C8.22533 28.8797 8.33178 28.8507 8.35096 28.8558C8.3663 28.8599 8.57432 29.0349 8.80966 29.2459ZM19.0728 31.9713C19.1198 32.0414 19.1634 32.1394 19.1761 32.184C19.1932 32.2584 19.1855 32.2564 19.0987 32.1509C19.0458 32.0874 18.985 32.0382 18.9578 32.0473C18.9356 32.0537 18.8 32.0379 18.6588 32.0125C18.3486 31.9581 18.339 31.9021 18.6284 31.7576C18.8199 31.6568 18.8237 31.6579 18.906 31.7498C18.9543 31.7997 19.0307 31.8983 19.0728 31.9713ZM7.3579 29.3092C7.45325 29.3676 7.58221 29.5461 7.56783 29.5998C7.55858 29.6343 7.21234 29.3154 7.15516 29.2219C7.12605 29.1771 7.14139 29.1813 7.3579 29.3092ZM9.67213 29.9704C9.72116 30.0328 9.71911 30.0405 9.66822 30.031C9.63369 30.0217 9.59102 29.9815 9.57239 29.9436C9.53055 29.8543 9.59192 29.8708 9.67213 29.9704ZM19.5568 32.5737C19.5547 32.5814 19.4636 32.6146 19.3544 32.6387C19.1376 32.6958 19.1027 32.6576 19.2938 32.5732C19.4006 32.5278 19.5691 32.5277 19.5568 32.5737ZM18.4146 32.8474C18.282 32.8817 18.2426 32.8753 18.255 32.8293C18.2632 32.7986 18.3558 32.7905 18.4855 32.8129C18.5095 32.8152 18.4765 32.8311 18.4146 32.8474Z" fill="#0B212B"/>
</svg>
