<svg width="12" height="12" viewBox="0 0 12 12" fill="none" xmlns="http://www.w3.org/2000/svg">
<path fill-rule="evenodd" clip-rule="evenodd" d="M9.33333 12C8.59695 12 8 11.403 8 10.6667V8C8 7.26362 8.59695 6.66667 9.33333 6.66667H10.6667V6C10.6667 3.42267 8.57733 1.33333 6 1.33333C3.42267 1.33333 1.33333 3.42267 1.33333 6V6.66667H2.66667C3.40305 6.66667 4 7.26362 4 8V10.6667C4 11.403 3.40305 12 2.66667 12H0V6C0 2.68629 2.68629 0 6 0C9.31371 0 12 2.68629 12 6V12H9.33333ZM10.6667 8H9.33333V10.6667H10.6667V8ZM2.66667 8H1.33333V10.6667H2.66667V8Z" fill="#0B212B"/>
</svg>
