<svg width="196" height="64" viewBox="0 0 196 64" fill="none" xmlns="http://www.w3.org/2000/svg">
<path d="M195.429 63.417V63.2948C195.256 63.2948 195.076 63.2854 194.885 63.2672C194.696 63.2495 194.564 63.2267 194.492 63.1988C194.418 63.1727 194.374 63.1451 194.356 63.1179C194.328 63.0631 194.316 62.9451 194.316 62.763V59.1474C194.316 58.7471 194.174 58.4013 193.895 58.1102C193.559 57.7641 193.106 57.5913 192.537 57.5913C192.454 57.5913 192.274 57.6074 191.993 57.6388C191.712 57.6706 191.446 57.8946 191.192 58.3099C191.01 58.609 190.892 58.9524 190.837 59.3408V57.6047L188.381 57.8229V57.945C188.978 57.945 189.322 57.9768 189.412 58.041L189.495 58.1778C189.529 58.2238 189.55 58.2869 189.555 58.3693C189.559 58.4513 189.562 58.5331 189.562 58.6157V62.7607C189.562 62.9805 189.535 63.1125 189.479 63.1581C189.325 63.2129 189.153 63.2495 188.958 63.267C188.763 63.2852 188.566 63.2946 188.366 63.2946V63.4168H191.842V63.2946C191.709 63.2946 191.552 63.2852 191.374 63.267C191.198 63.2492 191.076 63.2264 191.008 63.1986C190.94 63.1714 190.898 63.1445 190.88 63.1166C190.852 63.0623 190.837 62.9433 190.837 62.7607V60.0799C190.92 59.4328 191.06 58.9133 191.26 58.5208C191.523 58.0015 191.861 57.7409 192.278 57.7409C192.594 57.7409 192.813 57.9278 192.93 58.302C193.002 58.5302 193.039 58.8621 193.039 59.3V62.7605C193.039 62.9803 193.011 63.1123 192.958 63.1579C192.813 63.2126 192.646 63.2492 192.454 63.2668C192.265 63.285 192.096 63.2944 191.953 63.2944V63.4166H195.429V63.417ZM194.272 45.7803C195.043 44.525 195.429 42.2058 195.429 38.8244C195.381 37.8093 195.357 36.7481 195.357 35.6359V32.3026H194.488V35.7637C194.488 39.8026 194.275 42.5424 193.849 43.9846C193.233 46.099 191.956 47.1566 190.016 47.1566C188.359 47.1566 187.293 46.2427 186.819 44.4106C186.63 43.6408 186.536 41.9532 186.536 39.3517V19.6951H194.85V17.5932H186.536V2.30436H185.307C185.307 5.943 184.5 9.21879 182.891 12.1298C180.889 15.7685 177.91 18.0724 173.956 19.0428V19.6953H179.74V40.2734C179.74 42.8822 180.414 44.887 181.765 46.2879C183.113 47.6893 185.234 48.3893 188.127 48.3893C191.163 48.3893 193.211 47.5197 194.272 45.7805V45.7803ZM174.908 57.6049C174.447 57.6049 174.053 57.771 173.732 58.1023C173.411 58.4327 173.251 58.8347 173.251 59.3065C173.251 59.8325 173.442 60.255 173.824 60.5722C174.142 60.8353 174.588 61.0259 175.167 61.1438C175.744 61.2624 176.146 61.3979 176.372 61.5525C176.664 61.752 176.81 62.0561 176.81 62.4637C176.81 62.7816 176.699 63.0269 176.483 63.1986C176.301 63.3442 176.068 63.4168 175.786 63.4168C175.414 63.4168 175.134 63.3917 174.947 63.3421C174.761 63.2925 174.563 63.1673 174.355 62.9679C174.199 62.8228 174.054 62.6005 173.918 62.3004C173.819 62.0833 173.69 61.6934 173.535 61.1302H173.442V63.5402C173.458 63.5213 173.649 63.299 174.011 62.8726C174.311 63.1811 174.586 63.3758 174.84 63.4578C175.011 63.5126 175.298 63.5402 175.696 63.5402C176.176 63.5402 176.574 63.4264 176.89 63.1988C177.289 62.9186 177.488 62.4827 177.488 61.893C177.488 61.2578 177.304 60.7954 176.933 60.5045C176.672 60.2962 176.216 60.114 175.566 59.9601C174.917 59.8055 174.484 59.6652 174.267 59.5378C173.962 59.3567 173.808 59.102 173.808 58.7757C173.808 58.3765 173.947 58.091 174.228 57.918C174.438 57.7907 174.704 57.7275 175.029 57.7275C175.455 57.7275 175.845 57.9138 176.198 58.2855C176.525 58.631 176.751 59.0752 176.877 59.6196L176.986 59.6462V57.6047C176.967 57.6229 176.782 57.7639 176.429 58.027C176.374 58.018 176.176 57.9356 175.832 57.7817C175.57 57.6641 175.261 57.6047 174.908 57.6047V57.6049ZM154.797 47.7366H173.449V47.0847C172.437 47.0847 171.424 47.0372 170.414 46.9396C169.401 46.8425 168.701 46.7214 168.315 46.5763C167.93 46.4318 167.689 46.2856 167.594 46.1404C167.448 45.8501 167.376 45.2212 167.376 44.2525V25.0035C167.376 22.8253 166.7 20.9853 165.352 19.4843C163.664 17.6443 161.133 16.7236 157.76 16.7236C157.567 16.7236 157.242 16.7487 156.784 16.7962C156.325 16.8447 155.904 16.8692 155.518 16.8692C153.591 17.0628 151.928 18.2702 150.53 20.4921C149.42 22.2793 148.722 24.1396 148.434 26.0708V0.42041L134.551 1.65163V2.30415C137.54 2.30415 139.467 2.42629 140.334 2.6691C140.625 2.76614 140.937 3.05748 141.275 3.54185C141.468 3.78508 141.576 4.12493 141.6 4.56225C141.624 4.99915 141.637 5.53204 141.637 6.16365V44.2452C141.637 45.4101 141.492 46.1143 141.204 46.3571C140.382 46.6488 139.407 46.8425 138.275 46.9396C137.141 47.0372 135.877 47.0847 134.479 47.0847V47.7366H153.784V47.0847C153.06 47.0847 152.229 47.0372 151.289 46.9396C150.35 46.8425 149.698 46.7214 149.338 46.5748C148.976 46.4303 148.746 46.2845 148.65 46.1383C148.505 45.847 148.434 45.2171 148.434 44.2452V29.6818C148.867 26.478 149.687 23.7591 150.892 21.5257C152.338 18.8558 154.072 17.5207 156.097 17.5207C157.977 17.5207 159.254 18.3229 159.93 19.9233C160.364 20.9437 160.58 22.4966 160.58 24.585V44.2454C160.58 45.4103 160.435 46.1145 160.146 46.3573C159.375 46.6491 158.484 46.8427 157.472 46.9398C156.459 47.0374 155.566 47.0849 154.797 47.0849V47.7368V47.7366ZM139.704 54.6374H134.477V54.7602C135.183 54.7602 135.681 54.815 135.971 54.9235C136.061 54.9601 136.114 54.9972 136.132 55.0331C136.169 55.1057 136.188 55.2695 136.188 55.5238V60.9355C136.188 61.7717 136.569 62.4259 137.329 62.8991C138.016 63.3266 138.872 63.5402 139.895 63.5402C140.44 63.5402 140.959 63.3664 141.457 63.0213C142.172 62.5216 142.53 61.7811 142.53 60.7994V56.7098C142.53 56.0646 142.611 55.606 142.774 55.3328C143 54.9507 143.455 54.7602 144.132 54.7602V54.6374H140.48V54.7602C141.14 54.7602 141.615 54.9398 141.906 55.2979C142.196 55.6566 142.339 56.3032 142.339 57.2375V60.7899C142.339 61.661 142.027 62.3328 141.402 62.8046C140.959 63.1403 140.502 63.3082 140.031 63.3082C139.181 63.3082 138.591 63.0723 138.266 62.6005C137.994 62.21 137.858 61.5613 137.858 60.654V55.5227C137.858 55.2774 137.88 55.1141 137.926 55.0321C137.945 54.9961 138.012 54.9553 138.13 54.9099C138.248 54.8646 138.435 54.828 138.694 54.8014C138.951 54.7738 139.289 54.7602 139.704 54.7602V54.6374H139.704ZM105.271 40.4185C105.271 38.7759 105.96 37.592 107.341 36.8681C108.391 36.3363 109.749 36.07 111.415 36.07C113.392 36.8437 115.488 37.2299 117.706 37.2299C120.838 37.2299 123.659 36.3854 126.165 34.6937C128.96 32.81 130.358 30.3954 130.358 27.4478C130.358 25.4674 129.816 23.7288 128.732 22.2307C127.648 20.7337 126.165 19.5259 124.285 18.6071C124.285 18.127 124.26 17.3801 124.214 16.3685C124.214 15.1632 124.368 14.2129 124.682 13.5143C124.997 12.8154 125.634 12.3942 126.599 12.2497C126.453 12.495 126.334 12.7407 126.237 12.9856C126.139 13.2299 126.093 13.4993 126.093 13.7925C126.093 15.3604 126.911 16.1439 128.552 16.1439C130.141 16.1439 130.937 15.2868 130.937 13.5716C130.937 12.7882 130.672 12.1518 130.141 11.6618C129.61 11.1726 128.985 10.9268 128.261 10.9268C126.623 10.9268 125.406 11.2776 124.611 11.9776C123.815 12.678 123.418 14.1635 123.418 16.4335V18.1728C122.549 17.7865 121.61 17.4728 120.598 17.2306C119.585 16.9894 118.621 16.8688 117.706 16.8688C114.621 16.8688 111.801 17.859 109.246 19.8394C106.45 22.0128 105.052 24.6461 105.052 27.7372C105.052 29.5741 105.488 31.119 106.355 32.3754C107.222 33.6317 108.425 34.646 109.969 35.4184C107.751 35.4184 106.04 36.0698 104.835 37.3747C103.63 38.6791 103.029 40.3457 103.029 42.3746C103.029 44.3075 103.727 45.8775 105.125 47.0843C106.137 47.9539 107.703 48.775 109.825 49.548C107.462 50.2239 105.728 50.8758 104.618 51.5043C103.029 52.4214 102.233 53.5566 102.233 54.9106C102.233 56.9859 103.679 58.8343 106.571 60.4532C109.463 62.0707 113.342 62.8809 118.21 62.8809C122.308 62.8809 125.623 61.9137 128.152 59.982C130.683 58.0492 131.949 55.2958 131.949 51.722C131.949 48.3398 130.554 45.925 127.766 44.4757C125.554 43.3164 122.31 42.7364 118.032 42.7364H113.849C110.484 42.7364 108.227 42.5193 107.073 42.085C105.871 41.6987 105.27 41.1424 105.27 40.4183L105.271 40.4185ZM118.612 49.2585C122.549 49.2585 125.25 49.6703 126.715 50.4971C128.179 51.3217 128.912 52.9007 128.912 55.2328C128.912 57.1756 128.016 58.8278 126.22 60.1889C124.424 61.5481 121.899 62.2288 118.643 62.2288C113.951 62.2288 110.717 61.4552 108.946 59.9103C107.796 58.8955 107.222 57.374 107.222 55.3452C107.222 53.2186 107.92 51.7222 109.319 50.8522C111 49.7895 114.098 49.2585 118.612 49.2585H118.612ZM111.56 27.0855C111.56 24.1172 112.049 21.7802 113.025 20.0762C114 18.374 115.562 17.5207 117.706 17.5207C120.04 17.5207 121.684 18.4221 122.638 20.2223C123.446 21.7313 123.852 24.0195 123.852 27.0857C123.852 30.3479 123.375 32.746 122.423 34.279C121.469 35.8116 119.898 36.5783 117.706 36.5783C115.275 36.5783 113.644 35.8492 112.811 34.3881C111.977 32.9281 111.56 30.4943 111.56 27.086L111.56 27.0855ZM79.8204 47.7366H100.933V47.0847C97.7507 47.0847 95.6545 46.9151 94.642 46.5748C94.304 46.4303 94.0873 46.2845 93.9915 46.1383C93.8468 45.847 93.7748 45.2171 93.7748 44.2452V16.7962L79.8204 17.9561V18.6076C82.9051 18.6076 84.8822 18.7303 85.7494 18.9723C86.0379 19.0694 86.3521 19.3624 86.6901 19.8492C86.8813 20.0935 86.9786 20.6776 86.9786 21.6014V44.2374C86.9786 45.4051 86.8333 46.1124 86.5448 46.355C85.7256 46.6467 84.7479 46.841 83.6162 46.9391C82.4824 47.0362 81.2183 47.0847 79.8206 47.0847V47.7366H79.8204ZM96.134 7.21542C96.134 7.18677 96.1414 7.15811 96.1449 7.12925C96.1449 6.97365 96.1449 6.81763 96.1449 6.66203C96.1376 6.58318 96.1303 6.50392 96.1246 6.42507C96.0606 5.5471 95.8159 4.7214 95.3971 3.94884C95.0351 3.27812 94.5629 2.69294 93.9825 2.19769C93.1076 1.4519 92.1065 0.981535 90.9727 0.79519C90.7598 0.759218 90.541 0.746671 90.3243 0.723665C90.2894 0.719483 90.2546 0.715303 90.2195 0.71112C90.0633 0.71112 89.909 0.71112 89.7529 0.71112C89.6113 0.723041 89.4696 0.733076 89.3285 0.74918C88.294 0.859816 87.3441 1.20804 86.4895 1.80347C85.3285 2.61305 84.5291 3.69724 84.0972 5.0485C83.9373 5.54689 83.8494 6.05949 83.8254 6.58151C83.8239 6.6087 83.8181 6.63568 83.8145 6.66182C83.8145 6.81742 83.8145 6.97344 83.8145 7.12904C83.8239 7.22044 83.8312 7.31225 83.8385 7.40365C83.9099 8.2697 84.1525 9.08536 84.5713 9.84538C85.2239 11.026 86.1588 11.9077 87.3769 12.4856C88.1066 12.8307 88.8742 13.0185 89.6796 13.0576C89.703 13.0586 89.7291 13.0643 89.7531 13.0674C89.9092 13.0674 90.0635 13.0674 90.2197 13.0674C90.3535 13.0559 90.4894 13.045 90.6253 13.0304C91.3347 12.9574 92.0092 12.7648 92.6504 12.4536C93.2988 12.1409 93.8758 11.7266 94.3775 11.2113C95.1785 10.3887 95.7148 9.4183 95.9796 8.29814C96.0645 7.94156 96.1155 7.581 96.1343 7.215L96.134 7.21542ZM91.7023 1.46131C91.6913 1.47637 91.6819 1.49373 91.6689 1.50565C91.6324 1.54162 91.5882 1.55166 91.555 1.50711C91.5113 1.4519 91.4946 1.47469 91.4727 1.52384C91.4414 1.59223 91.3863 1.63343 91.3166 1.66271C91.2905 1.67317 91.2671 1.69597 91.2483 1.71897C91.2207 1.75494 91.1915 1.79363 91.1748 1.83588C91.1232 1.96115 91.0301 2.01282 90.8992 2.02327C90.8571 2.02683 90.8092 2.05715 90.78 2.08957C90.6514 2.23409 90.5301 2.38446 90.4072 2.53274C90.352 2.59904 90.3462 2.60008 90.275 2.54947C90.1391 2.45389 90.0817 2.31042 90.0395 2.15859C90.0047 2.02808 89.9915 1.90071 90.0614 1.77397C90.0928 1.715 90.1113 1.64974 90.1353 1.58658C90.15 1.54538 90.1427 1.51359 90.089 1.51464C90.0337 1.5161 89.9769 1.51924 89.9218 1.52238C89.9406 1.56985 89.9552 1.62005 89.9771 1.6648C90.0084 1.72169 90.0067 1.75829 89.9479 1.79887C89.8614 1.85889 89.7844 1.92978 89.7074 1.99985C89.6667 2.03582 89.6464 2.0421 89.6042 1.99671C89.5583 1.9461 89.4976 1.89277 89.4335 1.87813C89.3652 1.86139 89.2865 1.88795 89.2111 1.89841C89.1892 1.90113 89.1669 1.9141 89.145 1.91766C89.0882 1.9256 89.0331 1.92916 88.9923 1.87269C88.9633 1.83149 88.9247 1.8455 88.8913 1.86809C88.8143 1.92351 88.7372 1.98145 88.6602 2.03938C88.6452 2.04837 88.6304 2.05757 88.618 2.06656C88.4932 2.14645 88.4431 2.27696 88.4821 2.42043C88.5055 2.50074 88.5644 2.53274 88.6414 2.49865C88.77 2.44323 88.8934 2.38279 88.9539 2.24183C88.9596 2.22823 89.0034 2.21631 89.0184 2.22405C89.1139 2.27821 89.1857 2.23911 89.2554 2.1749C89.2955 2.13935 89.3397 2.10756 89.3877 2.0835C89.4372 2.05841 89.4794 2.07827 89.5164 2.11948C89.5564 2.16632 89.6024 2.21024 89.6502 2.2504C89.7147 2.30519 89.7272 2.34807 89.6871 2.42587C89.6631 2.47188 89.6335 2.51517 89.6101 2.5616C89.6007 2.57834 89.6042 2.60134 89.6024 2.62121C89.6212 2.62162 89.6414 2.62539 89.6575 2.62162C89.7345 2.60657 89.7387 2.60656 89.722 2.68269C89.7032 2.76823 89.6871 2.85691 89.6502 2.93534C89.5898 3.06898 89.4721 3.09617 89.3491 3.01732C89.2111 2.92864 89.1857 2.93534 89.0861 3.07107C89.0679 3.09763 89.0331 3.12273 89.0017 3.12796C88.9095 3.14364 88.8164 3.1587 88.7226 3.15661C88.5665 3.15285 88.4268 3.20576 88.2873 3.2616C88.2264 3.28712 88.166 3.32016 88.1034 3.34149C88.07 3.35299 88.0278 3.36073 88.0003 3.34818C87.945 3.32371 87.9139 3.3509 87.8773 3.37893C87.7247 3.49688 87.5575 3.58765 87.3757 3.64893C87.3372 3.66252 87.3185 3.68218 87.3132 3.72359C87.2913 3.88337 87.2652 4.04316 87.2377 4.20274C87.2341 4.22511 87.2137 4.25857 87.1976 4.26234C87.1736 4.26757 87.1314 4.25607 87.122 4.23787C87.0836 4.16948 87.0429 4.09858 87.0247 4.02287C86.9767 3.80955 86.8575 3.70079 86.6373 3.70393C86.3247 3.70811 86.0857 3.8564 85.9133 4.10632C85.8435 4.20922 85.832 4.34014 85.8596 4.46542C85.8801 4.56204 85.9592 4.60993 86.0652 4.59906C86.1043 4.5955 86.1446 4.58819 86.183 4.58024C86.2456 4.56623 86.2878 4.59174 86.3189 4.64444C86.3487 4.69673 86.3297 4.74525 86.2934 4.78269C86.2513 4.82347 86.2034 4.85776 86.1575 4.89436C86.084 4.95397 86.084 5.01483 86.1648 5.06356C86.2105 5.09117 86.2199 5.12212 86.2164 5.17169C86.207 5.27145 86.2055 5.37205 86.2055 5.47285C86.207 5.56676 86.2515 5.63787 86.3285 5.68785C86.378 5.71964 86.4274 5.7531 86.4811 5.77715C86.6299 5.8445 86.7421 5.80957 86.8358 5.67593C86.9348 5.53183 87.0068 5.53079 87.1515 5.63096C87.2525 5.70207 87.3702 5.75624 87.488 5.79702C87.6406 5.84931 87.7765 5.91769 87.8792 6.04548C87.9053 6.0756 87.9454 6.09651 87.9838 6.11178C88.2099 6.20255 88.4082 6.33096 88.5556 6.52839C88.5832 6.56394 88.6145 6.59887 88.627 6.64007C88.6915 6.85256 88.8514 7.01109 88.9489 7.20538C88.9598 7.22671 88.9911 7.24554 89.0166 7.25118C89.2333 7.29866 89.4374 7.37709 89.6103 7.5216C89.766 7.65106 89.7884 7.72886 89.7333 7.92294C89.6946 8.0524 89.6228 8.15886 89.5145 8.23812C89.465 8.27472 89.4337 8.3201 89.4155 8.37741C89.3842 8.46504 89.3473 8.55016 89.318 8.638C89.2592 8.82267 89.1379 8.97137 89.0128 9.11045C88.9487 9.18449 88.8345 9.23154 88.7337 9.25496C88.594 9.28822 88.4932 9.3541 88.4176 9.47582C88.3514 9.58436 88.2688 9.6835 88.2047 9.79371C88.1147 9.94555 87.999 10.0635 87.85 10.1585C87.7193 10.2415 87.6022 10.3448 87.4859 10.4471C87.4402 10.4879 87.4074 10.5479 87.374 10.602C87.3464 10.6449 87.3354 10.6966 87.3099 10.7388C87.2381 10.8511 87.2364 10.9674 87.2656 11.0944C87.299 11.228 87.3187 11.3652 87.3448 11.502C87.3556 11.5568 87.3391 11.5739 87.2859 11.5526C87.227 11.5285 87.1702 11.4993 87.1203 11.4622C86.9406 11.3296 86.8064 11.1531 86.7053 10.9559C86.6704 10.8861 86.6725 10.7972 86.6594 10.7162C86.6391 10.5972 86.6262 10.4782 86.5838 10.3613C86.5525 10.2745 86.5598 10.1718 86.5642 10.0763C86.5677 9.98863 86.5861 9.90143 86.6005 9.81421C86.6151 9.72407 86.6172 9.63937 86.5911 9.54442C86.5677 9.44884 86.5911 9.3382 86.6043 9.23531C86.6262 9.06193 86.6573 8.89085 86.6813 8.71915C86.6851 8.70032 86.6778 8.67376 86.6667 8.66226C86.5475 8.55163 86.5343 8.41317 86.5713 8.26719C86.5838 8.21177 86.5692 8.18584 86.5249 8.15488C86.3047 8.00033 86.1504 7.78533 86.0072 7.56238C85.987 7.53059 85.9773 7.48835 85.9723 7.44903C85.9573 7.35408 85.9483 7.25913 85.9375 7.1646C85.9151 6.97992 85.9316 6.80446 86.0531 6.65053C86.1245 6.55872 86.189 6.45896 86.2569 6.36296C86.3325 6.25546 86.3694 6.13437 86.3673 6.0024C86.3659 5.93401 86.3398 5.87607 86.2809 5.83592C86.2642 5.824 86.2496 5.80768 86.2314 5.7989C86.0972 5.73051 86.031 5.61883 86.0185 5.47264C86.0076 5.36933 85.9575 5.29153 85.8715 5.23715C85.8126 5.19804 85.807 5.1468 85.8178 5.08427C85.8402 4.95857 85.8381 4.95962 85.7262 4.90378C85.607 4.8448 85.4945 4.77536 85.4137 4.66577C85.3642 4.6001 85.3381 4.52649 85.3475 4.44283C85.3548 4.36315 85.3621 4.28325 85.3751 4.20482C85.397 4.08478 85.3621 3.98251 85.2922 3.88693C85.2099 3.77379 85.2099 3.77274 85.287 3.65939C85.9995 2.6348 86.9406 1.9118 88.1162 1.49373C88.6932 1.28856 89.303 1.18691 89.9723 1.17897C90.5472 1.18106 91.1078 1.26304 91.657 1.4337C91.6731 1.4383 91.6863 1.45148 91.703 1.46089L91.7023 1.46131ZM95.6783 6.83436C95.6652 8.12414 95.309 9.24116 94.5888 10.2392C94.1608 10.8327 93.6351 11.3232 93.018 11.7168C93.0144 11.7189 93.0103 11.722 93.0065 11.7237C92.9919 11.7289 92.9773 11.7341 92.9627 11.7398C92.9716 11.7262 92.9808 11.7126 92.9881 11.6986C93.0213 11.6392 93.0652 11.5823 93.0856 11.5181C93.0986 11.4769 93.0892 11.4144 93.0637 11.3778C93.023 11.315 93.0178 11.2571 93.0456 11.1939C93.1117 11.0379 93.1815 10.8823 93.2491 10.7273C93.2767 10.6673 93.3023 10.6077 93.332 10.5504C93.3742 10.4674 93.3779 10.3818 93.3575 10.2936C93.3408 10.2237 93.3261 10.1536 93.3138 10.0832C93.2748 9.8619 93.3815 9.68894 93.5044 9.5235C93.5435 9.47394 93.5909 9.43169 93.6332 9.38464C93.7675 9.23385 93.8207 9.06402 93.7472 8.8668C93.727 8.81452 93.7123 8.75867 93.6904 8.7066C93.6316 8.55999 93.641 8.41589 93.6992 8.27138C93.7215 8.21449 93.7378 8.15593 93.7618 8.10009C93.8169 7.9723 93.8134 7.84326 93.7806 7.71171C93.7675 7.65734 93.7401 7.64855 93.6921 7.66675C93.6702 7.6772 93.6462 7.69393 93.6222 7.69289C93.5909 7.69247 93.5472 7.68871 93.527 7.66779C93.4733 7.60735 93.4057 7.58476 93.3322 7.58372C93.1963 7.58058 93.0583 7.57535 92.9243 7.58957C92.7149 7.61049 92.5291 7.55506 92.3691 7.43041C92.1729 7.27753 91.989 7.10896 91.8051 6.93977C91.7702 6.9084 91.7577 6.84273 91.7535 6.79003C91.7316 6.55871 91.7867 6.3364 91.8399 6.11345C91.8712 5.97667 91.8936 5.83843 91.9193 5.70061C91.9228 5.68011 91.9228 5.65522 91.9134 5.63849C91.8712 5.5655 91.9009 5.50172 91.9337 5.43751C92.0107 5.28609 92.1284 5.17963 92.2904 5.12965C92.3581 5.10873 92.4134 5.07486 92.4504 5.01692C92.5493 4.86132 92.689 4.78059 92.8671 4.73249C93.119 4.66264 93.365 4.65051 93.6134 4.73521C93.6497 4.7488 93.6921 4.74881 93.7305 4.75152C93.8153 4.7578 93.8998 4.75361 93.9804 4.77181C94.0501 4.7875 94.1201 4.81866 94.1787 4.85944C94.3021 4.94561 94.4178 5.04474 94.5391 5.133C94.5718 5.15705 94.6178 5.17064 94.6583 5.1742C94.7796 5.1857 94.9011 5.18738 95.0217 5.19658C95.0624 5.1993 95.0681 5.18465 95.0645 5.15056C95.0422 4.94916 94.8917 4.79502 94.6896 4.77223C94.5739 4.75926 94.5276 4.71681 94.4948 4.59948C94.489 4.57815 94.4781 4.55765 94.4708 4.53674C94.4541 4.55179 94.438 4.56706 94.4213 4.58065C94.39 4.60679 94.3589 4.63169 94.3276 4.65678C94.3036 4.62227 94.2744 4.59007 94.2541 4.55305C94.2338 4.51708 94.2245 4.47525 94.2084 4.43614C94.1917 4.39745 94.1677 4.39012 94.1384 4.42463C94.1255 4.44095 94.1126 4.46375 94.0959 4.47002C94.0572 4.48508 94.0136 4.50599 93.9766 4.49867C93.9286 4.48884 93.8959 4.44911 93.8923 4.39222C93.8902 4.34474 93.8867 4.29664 93.8794 4.24917C93.8742 4.2111 93.8554 4.20106 93.819 4.22302C93.7988 4.23453 93.7654 4.23766 93.7455 4.22993C93.6462 4.1881 93.5487 4.14438 93.4549 4.09482C93.4186 4.07495 93.4113 4.08436 93.4069 4.11573C93.3923 4.21486 93.3762 4.314 93.3648 4.41439C93.3612 4.46604 93.3449 4.49637 93.2913 4.50474C93.2453 4.51101 93.1996 4.52147 93.1575 4.53653C92.9518 4.60554 92.8138 4.5313 92.6961 4.3575C92.6299 4.26025 92.5804 4.15296 92.5201 4.05111C92.4998 4.01409 92.5107 3.99485 92.5435 3.97603C92.6668 3.90554 92.7954 3.86016 92.9424 3.85911C93.0581 3.85849 93.1445 3.77609 93.2236 3.69787C93.2637 3.65708 93.2971 3.60647 93.3284 3.55691C93.3393 3.53976 93.3451 3.50629 93.3357 3.48956C93.2863 3.39566 93.2748 3.29903 93.3009 3.19718C93.3138 3.14657 93.3009 3.11373 93.2399 3.11792C93.2326 3.11792 93.2238 3.11332 93.2165 3.11374C93.0967 3.1175 93.0124 3.0719 92.9681 2.95458C92.9499 2.90229 92.8946 2.89874 92.851 2.9002C92.7311 2.90397 92.6687 2.83182 92.6527 2.72954C92.6322 2.60218 92.6303 2.47125 92.6266 2.3418C92.6251 2.32611 92.6562 2.29892 92.676 2.29537C92.7385 2.28282 92.8011 2.27822 92.8635 2.27341C92.952 2.26713 93.0032 2.22279 93.0182 2.13621C93.0272 2.08455 93.0437 2.08079 93.0879 2.11007C93.9493 2.67998 94.6144 3.42431 95.0796 4.34976C95.3973 4.98346 95.5848 5.65418 95.651 6.35982C95.6677 6.53717 95.6729 6.71578 95.6785 6.83478L95.6783 6.83436ZM79.0981 22.4485C79.0981 21.7234 78.9162 20.9029 78.5559 19.9848C78.1939 19.0673 77.4831 18.3066 76.4231 17.7018C75.3612 17.0984 74.3727 16.7962 73.4576 16.7962C71.0468 16.7962 69.0478 18.005 67.4566 20.4198C66.3009 22.159 65.6249 24.0187 65.4322 25.999V16.7964L51.4793 17.8837V18.5362C54.5622 18.5362 56.5392 18.6584 57.4064 18.8999C57.697 18.9976 58.0089 19.2898 58.3471 19.7769C58.5404 20.0212 58.6356 20.6293 58.6356 21.6033V44.2379C58.6356 45.4055 58.4924 46.1128 58.2022 46.3554C57.3824 46.6472 56.407 46.8415 55.2753 46.9396C54.1415 47.0366 52.876 47.0851 51.4795 47.0851V47.737H72.5904V47.0851C69.4099 47.0851 67.3134 46.9155 66.3009 46.5752C65.9629 46.4307 65.7462 46.2849 65.6489 46.1387C65.5057 45.8474 65.4322 45.2175 65.4322 44.2456V30.7012C65.4322 26.5756 66.3452 23.2012 68.1696 20.5798C69.5602 18.5419 70.9535 17.5211 72.3441 17.5211C73.7845 17.5211 74.6482 18.0289 74.9367 19.0432C74.0601 18.8506 73.2939 19.1877 72.6363 20.0573C71.9785 20.9269 71.6514 21.7966 71.6514 22.6662C71.6514 24.0191 71.9915 25.0339 72.6733 25.7098C73.3545 26.3864 74.1816 26.7239 75.1555 26.7239C75.7872 26.7239 76.2983 26.6275 76.6879 26.4339C78.2956 25.7098 79.0983 24.3815 79.0983 22.4491L79.0981 22.4485ZM44.9821 27.8065C42.2905 25.1982 38.0608 23.5306 32.2939 22.8061C37.7688 21.9854 41.4915 20.5846 43.4608 18.6046C44.9508 17.1551 45.695 14.9823 45.695 12.0842C45.695 9.71759 44.466 7.42414 42.0076 5.20118C38.9228 2.40077 34.7776 0.999941 29.5724 0.999941H0.00020897V1.65184C4.72418 1.65184 7.78323 1.91912 9.18322 2.4516C9.71244 2.64672 10.025 2.83997 10.1223 3.03363C10.3149 3.42201 10.4124 4.29413 10.4124 5.64979V42.942C10.4124 44.3472 10.3149 45.2313 10.1223 45.5946C9.92914 45.9593 9.59115 46.2377 9.10974 46.4303C8.09722 46.8187 5.06196 47.0123 0 47.0123V47.7368H33.6935C38.0314 47.7368 41.6454 46.3598 44.5374 43.6058C47.0436 41.2392 48.2983 38.7015 48.2983 35.9966C48.2983 32.6633 47.1921 29.933 44.9817 27.8065H44.9821ZM26.0025 22.5206H19.3057V5.66526C19.3057 4.25481 19.3646 3.3074 19.4854 2.82052C19.6053 2.33343 19.9046 2.01763 20.3858 1.87165C20.8635 1.72608 21.6077 1.65184 22.6182 1.65184H26.0722C29.9622 1.65184 32.7221 2.47962 34.3534 4.13288C35.9851 5.78698 36.8028 8.65724 36.8028 12.7432C36.8028 16.3923 35.7941 18.9953 33.7784 20.5507C32.0972 21.8639 29.5046 22.5206 26.0027 22.5206H26.0025ZM39.1157 36.037C39.1157 39.4287 38.3402 42.0703 36.7934 43.9603C35.0993 46.0434 32.5363 47.0847 29.1025 47.0847C25.8119 47.0847 23.7188 47.0613 22.824 47.0121C21.9293 46.9647 21.2038 46.831 20.647 46.6122C20.0923 46.3952 19.7282 46.0913 19.5595 45.7046C19.3902 45.3179 19.3059 44.3956 19.3059 42.9418V23.1729H27.8676C31.6415 23.1729 34.4951 24.3604 36.43 26.7348C38.2195 28.9155 39.1157 32.015 39.1157 36.0368V36.037ZM147.502 58.5461L144.16 63.4172H149.307V60.5323H149.198C149.072 61.5621 148.807 62.31 148.404 62.7751C148.113 63.1217 147.758 63.2948 147.337 63.2948H145.968C145.777 63.2948 145.682 63.2766 145.682 63.24C145.682 63.2128 145.83 62.9811 146.132 62.5449L149.538 57.6049H144.881V60.0822H144.974C145.138 59.0601 145.402 58.3894 145.774 58.0701C146.025 57.8503 146.472 57.7413 147.111 57.7413H147.651C147.868 57.7413 147.976 57.7643 147.976 57.8097L147.503 58.5461H147.502ZM149.402 54.883C149.946 54.883 150.294 54.906 150.448 54.9507C150.503 54.9689 150.556 55.0149 150.611 55.0875C150.666 55.1605 150.692 55.2874 150.692 55.469V63.5402H150.801L151.385 62.4867C151.684 62.91 151.967 63.1909 152.233 63.3308C152.502 63.4697 152.911 63.5402 153.463 63.5402C154.069 63.5402 154.606 63.2474 155.072 62.6618C155.539 62.0766 155.772 61.3709 155.772 60.5446C155.772 59.9011 155.591 59.2883 155.229 58.7079C154.767 57.973 154.13 57.6049 153.314 57.6049C152.952 57.6049 152.638 57.7881 152.369 58.1546C152.103 58.521 151.969 58.9114 151.969 59.3278V54.5289L149.402 54.7602V54.883H149.402ZM151.969 60.4633C151.969 59.578 152.114 58.8855 152.404 58.3842C152.649 57.9557 152.952 57.7411 153.314 57.7411C153.649 57.7411 153.907 57.9557 154.088 58.3842C154.269 58.8127 154.359 59.5372 154.359 60.5586C154.359 61.4157 154.279 62.1063 154.115 62.6308C153.952 63.1549 153.685 63.417 153.314 63.417C152.933 63.417 152.643 63.3172 152.445 63.1162C152.127 62.7969 151.969 62.2086 151.969 61.3521V60.4633ZM157.17 58.3811C156.592 58.9798 156.302 59.756 156.302 60.708C156.302 61.5887 156.595 62.3006 157.185 62.845C157.683 63.3084 158.234 63.5402 158.84 63.5402C159.566 63.5402 160.145 63.322 160.58 62.8862C161.014 62.451 161.231 61.8927 161.231 61.2122H161.123C161.123 61.9153 160.893 62.4717 160.43 62.883C160.05 63.2212 159.61 63.3898 159.112 63.3898C158.642 63.3898 158.291 63.171 158.06 62.7331C157.83 62.2958 157.714 61.5885 157.714 60.613H161.205C161.205 59.4611 160.918 58.6312 160.349 58.1221C159.96 57.7777 159.47 57.6049 158.883 57.6049C158.249 57.6049 157.677 57.8632 157.17 58.3811H157.17ZM157.715 60.4501C157.715 59.524 157.816 58.841 158.016 58.4013C158.218 57.9613 158.565 57.7411 159.058 57.7411C159.407 57.7411 159.658 57.9728 159.814 58.4352C159.972 58.8983 160.05 59.57 160.05 60.4501H157.715ZM162.752 63.1988C162.563 63.2631 162.196 63.2948 161.652 63.2948V63.417H165.158V63.2948C165.047 63.2948 164.908 63.2854 164.735 63.2672C164.564 63.249 164.445 63.2267 164.376 63.1984C164.309 63.1717 164.264 63.1436 164.246 63.1164C164.221 63.0616 164.205 62.9433 164.205 62.7609V60.9669L164.926 60.232L166.203 62.7749C166.275 62.9205 166.311 63.0206 166.311 63.075C166.311 63.194 166.23 63.2607 166.067 63.2739C165.903 63.2886 165.674 63.2948 165.374 63.2948V63.417H168.687V63.2948C168.343 63.2948 168.097 63.2651 167.948 63.2055C167.798 63.1466 167.675 63.016 167.574 62.8157L165.835 59.3414L166.677 58.5074C167.013 58.1974 167.278 57.9923 167.472 57.8915C167.667 57.7913 167.936 57.7411 168.281 57.7411V57.6049H165.17V57.7411C165.56 57.7411 165.85 57.7892 166.039 57.8856C166.23 57.9812 166.324 58.1163 166.324 58.2907C166.324 58.5017 166.188 58.7395 165.918 59.0049L164.205 60.7222V54.5291L161.666 54.7604V54.8832C162.21 54.8832 162.554 54.9062 162.699 54.9509C162.743 54.9603 162.792 55.0036 162.847 55.0814C162.903 55.1582 162.929 55.2876 162.929 55.4709V62.7621C162.929 62.9809 162.903 63.1129 162.847 63.1583L162.752 63.1988H162.752ZM171.243 55.836C171.386 55.6904 171.457 55.5093 171.457 55.291C171.457 55.0733 171.386 54.8922 171.243 54.7466C171.1 54.6015 170.919 54.5289 170.704 54.5289C170.489 54.5289 170.309 54.6015 170.166 54.7466C170.022 54.8922 169.951 55.0735 169.951 55.291C169.951 55.5091 170.022 55.6902 170.166 55.836C170.309 55.9812 170.489 56.0537 170.704 56.0537C170.919 56.0537 171.1 55.9812 171.243 55.836ZM171.417 57.6049L168.797 57.8231V57.9452C169.376 57.9452 169.747 57.9682 169.911 58.0136C169.964 58.0324 170.023 58.0872 170.087 58.1786C170.122 58.2244 170.14 58.3336 170.14 58.508V62.7598C170.14 62.979 170.115 63.1123 170.06 63.1576C169.905 63.2118 169.722 63.249 169.51 63.2672C169.297 63.2854 169.058 63.2948 168.797 63.2948V63.417H172.762V63.2948C172.165 63.2948 171.77 63.2624 171.581 63.1988C171.516 63.1717 171.476 63.1447 171.458 63.1169C171.432 63.0625 171.418 62.9435 171.418 62.7609V57.6049H171.417ZM177.747 58.0272V58.15H178.833V62.0151C178.833 62.5051 178.959 62.882 179.213 63.1451C179.467 63.4086 179.865 63.5402 180.409 63.5402C180.979 63.5402 181.363 63.3758 181.563 63.0495C181.708 62.8136 181.78 62.3784 181.78 61.7426C181.771 61.5525 181.767 61.3525 181.767 61.1438V60.5185H181.604V61.1679C181.604 61.9268 181.563 62.4409 181.484 62.7124C181.368 63.1102 181.127 63.3084 180.764 63.3084C180.451 63.3084 180.251 63.1361 180.163 62.7916C180.128 62.6475 180.11 62.3307 180.11 61.8417V58.15H181.671V57.7549H180.11V54.8832H179.878C179.878 55.5664 179.728 56.1817 179.425 56.7288C179.05 57.4121 178.489 57.8448 177.747 58.0274L177.747 58.0272ZM182.864 60.9094C182.485 61.2455 182.296 61.6589 182.296 62.1496C182.296 62.6486 182.491 63.0217 182.881 63.2666C183.161 63.4488 183.49 63.5402 183.871 63.5402C184.251 63.5402 184.554 63.4948 184.782 63.4044C185.162 63.252 185.447 62.955 185.636 62.5139C185.71 62.9012 185.861 63.1752 186.089 63.3371C186.28 63.4722 186.57 63.5402 186.961 63.5402C187.463 63.5402 187.795 63.4264 187.959 63.1988C188.086 63.0177 188.15 62.6639 188.15 62.1377C188.141 61.9653 188.137 61.7844 188.137 61.5933V60.9945H187.974V61.116C187.974 61.2511 187.975 61.3822 187.981 61.5086C187.985 61.6343 187.986 61.7612 187.986 61.8869C187.986 62.3472 187.946 62.699 187.866 62.9428C187.783 63.1861 187.624 63.3082 187.39 63.3082C187.127 63.3082 186.963 63.1543 186.9 62.8462C186.873 62.7199 186.86 62.3842 186.86 61.8415V58.8407C186.86 58.4967 186.706 58.2112 186.397 57.9858C186.054 57.7317 185.546 57.6047 184.876 57.6047C184.505 57.6047 184.139 57.6641 183.777 57.7817C183.27 57.945 182.952 58.2039 182.826 58.5574C182.773 58.7211 182.745 58.8669 182.745 58.9932C182.745 59.2563 182.877 59.4744 183.142 59.6462C183.233 59.7104 183.338 59.7421 183.457 59.7421C183.641 59.7421 183.801 59.6784 183.937 59.5516C184.075 59.4238 184.143 59.2609 184.143 59.0614C184.143 58.8886 184.089 58.7341 183.981 58.5986C183.871 58.4622 183.731 58.394 183.558 58.394C183.505 58.394 183.459 58.3993 183.424 58.408C183.496 58.2039 183.65 58.042 183.884 57.9216C184.118 57.8015 184.392 57.7409 184.703 57.7409C185.085 57.7409 185.335 57.8051 185.451 57.9331C185.565 58.0604 185.624 58.3064 185.624 58.6711V59.4644C185.624 59.8095 185.528 60.0318 185.339 60.132C185.149 60.2318 184.786 60.3054 184.244 60.3501C183.703 60.3955 183.242 60.5819 182.864 60.9092L182.864 60.9094ZM183.586 62.0494C183.586 61.5567 183.676 61.1741 183.858 60.901C184.012 60.6724 184.22 60.5269 184.483 60.4631C184.681 60.4355 184.889 60.4062 185.1 60.3733C185.313 60.342 185.475 60.2529 185.583 60.1077V61.9268C185.583 62.3365 185.445 62.6858 185.168 62.9734C184.893 63.2605 184.582 63.4036 184.238 63.4036C184.012 63.4036 183.847 63.3101 183.742 63.1238C183.64 62.9364 183.586 62.5783 183.586 62.0496V62.0494Z" fill="#0B212B"/>
</svg>
