<svg width="196" height="64" fill="none" xmlns="http://www.w3.org/2000/svg"><path d="M195.429 63.417v-.122c-.173 0-.353-.01-.544-.028a1.688 1.688 0 0 1-.393-.068c-.074-.026-.118-.054-.136-.081-.028-.055-.04-.173-.04-.355v-3.616c0-.4-.142-.746-.421-1.037-.336-.346-.789-.519-1.358-.519a6.54 6.54 0 0 0-.544.048c-.281.032-.547.256-.801.67-.182.3-.3.643-.355 1.032v-1.736l-2.456.218v.122c.597 0 .941.032 1.031.096l.083.137c.034.046.055.109.06.191.004.082.007.164.007.247v4.145c0 .22-.027.351-.083.397a2.107 2.107 0 0 1-.521.109 6.362 6.362 0 0 1-.592.028v.122h3.476v-.122c-.133 0-.29-.01-.468-.028a1.495 1.495 0 0 1-.366-.068c-.068-.028-.11-.054-.128-.082-.028-.055-.043-.174-.043-.356V60.08c.083-.647.223-1.167.423-1.56.263-.519.601-.78 1.018-.78.316 0 .535.188.652.562.072.228.109.56.109.998v3.46c0 .22-.028.352-.081.398a1.922 1.922 0 0 1-.504.109 5.342 5.342 0 0 1-.501.027v.123h3.476zm-1.157-17.637c.771-1.255 1.157-3.574 1.157-6.956a67.543 67.543 0 0 1-.072-3.188v-3.333h-.869v3.46c0 4.04-.213 6.78-.639 8.222-.616 2.114-1.893 3.172-3.833 3.172-1.657 0-2.723-.914-3.197-2.746-.189-.77-.283-2.458-.283-5.06V19.696h8.314v-2.102h-8.314V2.304h-1.229c0 3.639-.807 6.915-2.416 9.826-2.002 3.638-4.981 5.942-8.935 6.913v.652h5.784v20.578c0 2.61.674 4.614 2.025 6.015 1.348 1.401 3.469 2.101 6.362 2.101 3.036 0 5.084-.87 6.145-2.608zm-19.364 11.825c-.461 0-.855.166-1.176.497-.321.33-.481.733-.481 1.205 0 .526.191.948.573 1.265.318.263.764.454 1.343.572.577.118.979.254 1.205.409.292.199.438.503.438.91 0 .319-.111.564-.327.736-.182.145-.415.218-.697.218-.372 0-.652-.025-.839-.075-.186-.05-.384-.175-.592-.374-.156-.145-.301-.368-.437-.668-.099-.217-.228-.607-.383-1.17h-.093v2.41c.016-.019.207-.241.569-.667.3.308.575.503.829.585.171.055.458.082.856.082.48 0 .878-.114 1.194-.341.399-.28.598-.716.598-1.306 0-.635-.184-1.098-.555-1.389-.261-.208-.717-.39-1.367-.544-.649-.154-1.082-.295-1.299-.422-.305-.181-.459-.436-.459-.762 0-.4.139-.685.42-.858.21-.127.476-.19.801-.19.426 0 .816.186 1.169.557.327.346.553.79.679 1.335l.109.026v-2.041c-.019.018-.204.159-.557.422-.055-.009-.253-.091-.597-.245a2.243 2.243 0 0 0-.924-.177zm-20.111-9.868h18.652v-.652c-1.012 0-2.025-.048-3.035-.145-1.013-.097-1.713-.219-2.099-.364-.385-.144-.626-.29-.721-.436-.146-.29-.218-.919-.218-1.888V25.003c0-2.178-.676-4.018-2.024-5.519-1.688-1.84-4.219-2.76-7.592-2.76-.193 0-.518.025-.976.072-.459.049-.88.073-1.266.073-1.927.194-3.59 1.401-4.988 3.623-1.11 1.787-1.808 3.648-2.096 5.579V.42l-13.883 1.23v.653c2.989 0 4.916.122 5.783.365.291.097.603.388.941.873.193.243.301.583.325 1.02.024.437.037.97.037 1.602v38.081c0 1.165-.145 1.87-.433 2.112-.822.292-1.797.486-2.929.583a44.602 44.602 0 0 1-3.796.145v.652h19.305v-.652c-.724 0-1.555-.048-2.495-.145-.939-.097-1.591-.219-1.951-.365-.362-.145-.592-.29-.688-.437-.145-.291-.216-.92-.216-1.893V29.682c.433-3.204 1.253-5.923 2.458-8.156 1.446-2.67 3.18-4.005 5.205-4.005 1.88 0 3.157.802 3.833 2.402.434 1.02.65 2.574.65 4.662v19.66c0 1.165-.145 1.87-.434 2.112-.771.292-1.662.486-2.674.583a28.275 28.275 0 0 1-2.675.145v.652zm-15.093 6.9h-5.227v.123c.706 0 1.204.055 1.494.163.09.037.143.074.161.11.037.073.056.236.056.49v5.412c0 .837.381 1.49 1.141 1.964.687.428 1.543.641 2.566.641.545 0 1.064-.174 1.562-.519.715-.5 1.073-1.24 1.073-2.222v-4.09c0-.644.081-1.103.244-1.376.226-.382.681-.573 1.358-.573v-.123h-3.652v.123c.66 0 1.135.18 1.426.538.29.359.433 1.005.433 1.94v3.552c0 .871-.312 1.543-.937 2.015-.443.335-.9.503-1.371.503-.85 0-1.44-.236-1.765-.708-.272-.39-.408-1.039-.408-1.946v-5.131c0-.246.022-.409.068-.49.019-.037.086-.078.204-.123s.305-.082.564-.109a9.884 9.884 0 0 1 1.01-.04v-.124zM105.271 40.42c0-1.643.689-2.827 2.07-3.55 1.05-.533 2.408-.799 4.074-.799 1.977.774 4.073 1.16 6.291 1.16 3.132 0 5.953-.845 8.459-2.536 2.795-1.884 4.193-4.299 4.193-7.246 0-1.98-.542-3.72-1.626-5.217-1.084-1.497-2.567-2.705-4.447-3.624 0-.48-.025-1.227-.071-2.238 0-1.206.154-2.156.468-2.855.315-.699.952-1.12 1.917-1.264a5.126 5.126 0 0 0-.362.736 2.15 2.15 0 0 0-.144.806c0 1.568.818 2.352 2.459 2.352 1.589 0 2.385-.857 2.385-2.572 0-.784-.265-1.42-.796-1.91a2.681 2.681 0 0 0-1.88-.735c-1.638 0-2.855.35-3.65 1.05-.796.701-1.193 2.187-1.193 4.456v1.74c-.869-.386-1.808-.7-2.82-.942a12.494 12.494 0 0 0-2.892-.362c-3.085 0-5.905.99-8.46 2.97-2.796 2.174-4.194 4.807-4.194 7.898 0 1.837.436 3.382 1.303 4.638.867 1.257 2.07 2.271 3.614 3.043-2.218 0-3.929.652-5.134 1.957-1.205 1.304-1.806 2.97-1.806 5 0 1.932.698 3.502 2.096 4.71 1.012.869 2.578 1.69 4.7 2.463-2.363.676-4.097 1.328-5.207 1.956-1.589.917-2.385 2.053-2.385 3.407 0 2.075 1.446 3.923 4.338 5.542 2.892 1.618 6.771 2.428 11.639 2.428 4.098 0 7.413-.967 9.942-2.899 2.531-1.933 3.797-4.686 3.797-8.26 0-3.382-1.395-5.797-4.183-7.246-2.212-1.16-5.456-1.74-9.734-1.74h-4.183c-3.365 0-5.622-.217-6.776-.651-1.202-.386-1.803-.943-1.803-1.667h.001zm13.341 8.84c3.937 0 6.638.411 8.103 1.238 1.464.825 2.197 2.404 2.197 4.736 0 1.943-.896 3.595-2.692 4.956-1.796 1.36-4.321 2.04-7.577 2.04-4.692 0-7.926-.774-9.697-2.319-1.15-1.014-1.724-2.536-1.724-4.565 0-2.126.698-3.623 2.097-4.493 1.681-1.063 4.779-1.593 9.293-1.593zm-7.052-22.174c0-2.968.489-5.305 1.465-7.009.975-1.702 2.537-2.555 4.681-2.555 2.334 0 3.978.901 4.932 2.701.808 1.51 1.214 3.797 1.214 6.864 0 3.262-.477 5.66-1.429 7.193-.954 1.533-2.525 2.3-4.717 2.3-2.431 0-4.062-.73-4.895-2.19-.834-1.46-1.251-3.895-1.251-7.303zM79.82 47.737h21.113v-.652c-3.182 0-5.279-.17-6.291-.51-.338-.145-.555-.29-.65-.437-.145-.291-.217-.92-.217-1.893V16.796l-13.955 1.16v.652c3.085 0 5.062.122 5.93.364.288.097.602.39.94.877.191.244.289.829.289 1.752v22.636c0 1.168-.146 1.875-.434 2.118-.82.292-1.797.486-2.929.584a44.788 44.788 0 0 1-3.795.146v.652zM96.134 7.215c0-.028.007-.057.01-.086v-.467a11.827 11.827 0 0 1-.02-.237 6.068 6.068 0 0 0-.727-2.476 6.082 6.082 0 0 0-1.415-1.751 6.078 6.078 0 0 0-3.01-1.403c-.212-.036-.431-.048-.648-.071L90.22.71h-.466c-.142.012-.283.022-.424.038a6.01 6.01 0 0 0-2.84 1.054 6.135 6.135 0 0 0-2.392 3.245 5.884 5.884 0 0 0-.272 1.534c-.001.027-.007.054-.01.08v.467c.009.091.016.183.023.275.072.866.315 1.681.733 2.441a6.141 6.141 0 0 0 2.806 2.64c.73.346 1.497.534 2.303.573.023 0 .05.006.073.01h.467c.133-.012.27-.023.405-.038a6.011 6.011 0 0 0 2.025-.576 6.079 6.079 0 0 0 1.727-1.243 6.123 6.123 0 0 0 1.603-2.913 5.99 5.99 0 0 0 .154-1.083zm-4.432-5.754c-.01.015-.02.033-.033.045-.037.036-.08.046-.114.001-.044-.055-.06-.032-.082.017a.276.276 0 0 1-.156.139.185.185 0 0 0-.069.056.508.508 0 0 0-.073.117c-.052.125-.145.177-.276.187a.203.203 0 0 0-.119.067c-.129.144-.25.294-.373.443-.055.066-.06.067-.132.016-.136-.095-.193-.239-.236-.39-.034-.13-.047-.258.022-.385.032-.059.05-.124.074-.187.015-.042.008-.073-.046-.072a5.534 5.534 0 0 0-.167.007c.019.048.033.098.055.143.031.057.03.093-.03.134-.086.06-.163.13-.24.2-.04.037-.06.043-.103-.002a.368.368 0 0 0-.17-.119c-.069-.017-.147.01-.223.02-.022.003-.044.016-.066.02-.057.008-.112.011-.153-.045-.029-.042-.067-.028-.1-.005-.078.056-.155.113-.232.171a.596.596 0 0 0-.042.028.306.306 0 0 0-.136.353c.023.08.082.113.16.079.128-.056.251-.116.312-.257.006-.014.05-.026.064-.018.096.054.168.015.237-.05a.62.62 0 0 1 .133-.09c.05-.026.091-.006.128.035.04.047.086.091.134.131.065.055.077.098.037.176-.024.046-.053.09-.077.136-.01.016-.006.04-.008.06.02 0 .04.003.055 0 .078-.015.082-.015.065.06-.019.086-.035.175-.072.253-.06.134-.178.161-.3.082-.139-.088-.164-.082-.264.054a.142.142 0 0 1-.084.057c-.093.016-.186.03-.28.029-.155-.004-.295.049-.435.105-.06.025-.121.058-.184.08-.033.011-.075.019-.103.006-.055-.024-.086.003-.123.03-.152.119-.32.21-.501.27-.039.015-.058.034-.063.076a14.1 14.1 0 0 1-.075.479c-.004.022-.024.056-.04.06-.024.005-.067-.007-.076-.025-.038-.069-.08-.14-.097-.215-.048-.213-.168-.322-.388-.32-.312.005-.551.153-.724.403a.46.46 0 0 0-.053.36c.02.096.1.144.205.133.04-.003.08-.01.118-.019.063-.014.105.012.136.064.03.053.01.101-.026.139-.042.04-.09.075-.136.111-.073.06-.073.12.008.17.045.027.055.058.051.108-.009.1-.01.2-.01.3a.25.25 0 0 0 .123.216c.049.032.098.065.152.09.149.067.261.032.355-.102.099-.144.17-.145.316-.045.1.071.218.125.336.166.153.052.288.12.391.248a.27.27 0 0 0 .105.067c.226.09.424.219.572.416.027.036.059.07.071.112.065.213.224.371.322.565.01.022.042.04.068.046.216.048.42.126.593.27.156.13.178.208.123.402a.588.588 0 0 1-.219.315.267.267 0 0 0-.099.14c-.03.087-.068.172-.097.26-.059.185-.18.333-.305.472a.544.544 0 0 1-.28.145c-.139.033-.24.1-.315.22-.067.11-.15.209-.213.319-.09.152-.206.27-.355.364-.13.084-.248.187-.364.29-.046.04-.079.1-.112.154-.028.043-.039.095-.064.137-.072.112-.074.228-.044.355.033.134.053.271.079.408.01.055-.006.072-.06.05a.758.758 0 0 1-.165-.09 1.423 1.423 0 0 1-.415-.506c-.035-.07-.032-.159-.046-.24-.02-.119-.033-.238-.075-.355-.032-.087-.024-.19-.02-.285.004-.087.022-.175.037-.262a.607.607 0 0 0-.01-.27c-.023-.095 0-.206.013-.309.022-.173.053-.344.077-.516a.074.074 0 0 0-.014-.057c-.12-.11-.133-.249-.096-.395.013-.055-.002-.081-.046-.112-.22-.155-.375-.37-.518-.593a.283.283 0 0 1-.035-.113c-.015-.095-.024-.19-.034-.284-.023-.185-.006-.36.115-.514.072-.092.136-.192.204-.288a.597.597 0 0 0 .11-.36.195.195 0 0 0-.086-.167c-.017-.012-.031-.028-.05-.037a.377.377 0 0 1-.212-.326.303.303 0 0 0-.148-.236c-.058-.039-.064-.09-.053-.153.022-.125.02-.124-.092-.18a.822.822 0 0 1-.312-.238.304.304 0 0 1-.067-.223c.008-.08.015-.16.028-.238a.396.396 0 0 0-.083-.318c-.082-.113-.082-.114-.005-.228a5.688 5.688 0 0 1 4.685-2.48 5.707 5.707 0 0 1 1.685.255c.016.004.03.017.046.027zm3.976 5.373c-.013 1.29-.369 2.407-1.09 3.405a5.685 5.685 0 0 1-1.57 1.478l-.011.007-.044.016c.009-.014.018-.027.025-.041.033-.06.077-.117.098-.18a.18.18 0 0 0-.022-.141.18.18 0 0 1-.018-.184c.066-.156.135-.312.203-.467.028-.06.053-.12.083-.177a.365.365 0 0 0 .026-.256 3.491 3.491 0 0 1-.044-.21c-.04-.222.068-.395.19-.56.04-.05.087-.092.13-.14.133-.15.187-.32.113-.517-.02-.052-.035-.108-.057-.16a.562.562 0 0 1 .01-.436c.022-.057.038-.115.062-.17a.59.59 0 0 0 .019-.39c-.014-.054-.04-.062-.089-.044-.022.01-.046.027-.07.026-.031 0-.075-.004-.095-.025a.252.252 0 0 0-.195-.084c-.136-.003-.274-.009-.408.006a.753.753 0 0 1-.555-.16 9.145 9.145 0 0 1-.564-.49c-.035-.032-.047-.097-.052-.15-.021-.231.034-.454.087-.677.031-.136.054-.275.08-.412.003-.02.003-.046-.007-.063-.042-.072-.012-.136.02-.2a.584.584 0 0 1 .357-.308.275.275 0 0 0 .16-.113.66.66 0 0 1 .417-.285 1.23 1.23 0 0 1 .746.003c.037.014.08.014.118.017.084.006.169.002.25.02.07.015.14.047.198.087.123.087.239.186.36.274a.246.246 0 0 0 .12.041c.12.012.242.013.363.023.04.002.046-.012.042-.046a.42.42 0 0 0-.374-.379c-.116-.013-.162-.055-.195-.173-.006-.02-.017-.041-.024-.062l-.05.044-.093.076c-.024-.035-.054-.067-.074-.104-.02-.036-.03-.078-.046-.117-.016-.039-.04-.046-.07-.011-.013.016-.025.039-.042.045-.039.015-.082.036-.12.029-.047-.01-.08-.05-.084-.107a1.329 1.329 0 0 0-.013-.143c-.005-.038-.024-.048-.06-.026a.099.099 0 0 1-.073.007 3.672 3.672 0 0 1-.291-.135c-.036-.02-.044-.01-.048.02-.015.1-.03.199-.042.3-.004.051-.02.081-.074.09a.669.669 0 0 0-.133.032c-.206.069-.344-.006-.462-.18-.066-.097-.116-.204-.176-.306-.02-.037-.01-.056.023-.075a.8.8 0 0 1 .4-.117c.115 0 .201-.083.28-.161a.839.839 0 0 0 .105-.141c.011-.017.017-.05.008-.067a.395.395 0 0 1-.035-.293c.013-.05 0-.083-.061-.08-.007 0-.016-.004-.023-.003-.12.004-.205-.042-.249-.16-.018-.052-.073-.055-.117-.054-.12.004-.182-.068-.198-.17-.02-.128-.023-.259-.026-.388-.002-.016.03-.043.049-.047.063-.012.125-.017.188-.022.088-.006.14-.05.154-.137.01-.051.026-.055.07-.026a5.725 5.725 0 0 1 1.992 2.24c.317.633.505 1.304.571 2.01.017.177.022.356.028.475zm-16.58 15.614c0-.725-.182-1.545-.542-2.463-.362-.918-1.073-1.678-2.133-2.283-1.062-.604-2.05-.906-2.965-.906-2.411 0-4.41 1.209-6.001 3.624-1.156 1.739-1.832 3.599-2.025 5.579v-9.203L51.48 17.884v.652c3.083 0 5.06.122 5.927.364.291.098.603.39.941.877.193.244.289.852.289 1.826v22.635c0 1.168-.144 1.875-.434 2.117-.82.292-1.795.487-2.927.585-1.133.097-2.399.145-3.795.145v.652h21.11v-.652c-3.18 0-5.277-.17-6.29-.51-.337-.144-.554-.29-.651-.436-.143-.292-.217-.922-.217-1.893V30.7c0-4.125.913-7.5 2.738-10.121 1.39-2.038 2.784-3.059 4.174-3.059 1.44 0 2.304.508 2.593 1.522-.877-.192-1.643.145-2.3 1.014-.659.87-.986 1.74-.986 2.61 0 1.352.34 2.367 1.022 3.043.681.676 1.509 1.014 2.483 1.014.631 0 1.142-.096 1.532-.29 1.608-.724 2.41-2.053 2.41-3.985zm-34.116 5.358c-2.691-2.608-6.921-4.275-12.688-5 5.475-.82 9.198-2.221 11.167-4.201 1.49-1.45 2.234-3.623 2.234-6.52 0-2.367-1.229-4.66-3.687-6.884C38.923 2.401 34.778 1 29.572 1H0v.652c4.724 0 7.783.267 9.183.8.53.195.842.388.94.582.192.388.29 1.26.29 2.616v37.292c0 1.405-.098 2.29-.29 2.653-.194.364-.532.643-1.013.835-1.013.389-4.048.582-9.11.582v.725h33.694c4.337 0 7.951-1.377 10.843-4.131 2.507-2.367 3.761-4.904 3.761-7.61 0-3.333-1.106-6.063-3.316-8.19zm-18.98-5.285h-6.696V5.665c0-1.41.059-2.358.18-2.844.12-.488.419-.803.9-.95.477-.145 1.222-.22 2.232-.22h3.454c3.89 0 6.65.829 8.281 2.482 1.632 1.654 2.45 4.524 2.45 8.61 0 3.65-1.009 6.252-3.025 7.808-1.68 1.313-4.273 1.97-7.775 1.97zm13.114 13.516c0 3.392-.776 6.033-2.323 7.923-1.694 2.083-4.257 3.125-7.69 3.125-3.291 0-5.384-.024-6.279-.073-.895-.047-1.62-.181-2.177-.4-.555-.217-.919-.52-1.087-.907-.17-.387-.254-1.31-.254-2.763v-19.77h8.562c3.774 0 6.627 1.188 8.562 3.563 1.79 2.18 2.686 5.28 2.686 9.302zm108.386 22.51-3.342 4.87h5.147v-2.885h-.109c-.126 1.03-.391 1.778-.794 2.243-.291.347-.646.52-1.067.52h-1.369c-.191 0-.286-.018-.286-.055 0-.027.148-.259.45-.695l3.406-4.94h-4.657v2.477h.093c.164-1.022.428-1.693.8-2.012.251-.22.698-.329 1.337-.329h.54c.217 0 .325.023.325.069l-.473.736h-.001zm1.9-3.664c.544 0 .892.023 1.046.068a.365.365 0 0 1 .163.136c.055.073.081.2.081.382v8.071h.109l.584-1.053c.299.423.582.704.848.844.269.139.678.21 1.23.21.606 0 1.143-.294 1.609-.88.467-.584.7-1.29.7-2.116 0-.644-.181-1.257-.543-1.837-.462-.735-1.099-1.103-1.915-1.103-.362 0-.676.183-.945.55a1.96 1.96 0 0 0-.4 1.173v-4.8l-2.567.232v.123zm2.567 5.58c0-.885.145-1.578.435-2.079.245-.428.548-.643.91-.643.335 0 .593.215.774.643.181.429.271 1.153.271 2.175 0 .857-.08 1.547-.244 2.072-.163.524-.43.786-.801.786-.381 0-.671-.1-.869-.3-.318-.32-.476-.908-.476-1.765v-.889zm5.201-2.082c-.578.599-.868 1.375-.868 2.327 0 .88.293 1.593.883 2.137.498.463 1.049.695 1.655.695.726 0 1.305-.218 1.74-.654.434-.435.651-.993.651-1.674h-.108c0 .703-.23 1.26-.693 1.671-.38.338-.82.507-1.318.507-.47 0-.821-.219-1.052-.657-.23-.437-.346-1.144-.346-2.12h3.491c0-1.152-.287-1.982-.856-2.49-.389-.345-.879-.518-1.466-.518-.634 0-1.206.258-1.713.776zm.545 2.07c0-.927.101-1.61.301-2.05.202-.44.549-.66 1.042-.66.349 0 .6.232.756.694.158.463.236 1.135.236 2.015h-2.335zm5.037 2.748c-.189.064-.556.096-1.1.096v.122h3.506v-.122c-.111 0-.25-.01-.423-.028a1.473 1.473 0 0 1-.359-.069c-.067-.026-.112-.054-.13-.082-.025-.054-.041-.173-.041-.355v-1.794l.721-.735 1.277 2.543c.072.145.108.246.108.3 0 .119-.081.186-.244.199-.164.015-.393.02-.693.02v.123h3.313v-.122c-.344 0-.59-.03-.739-.09-.15-.058-.273-.189-.374-.39l-1.739-3.474.842-.834c.336-.31.601-.515.795-.615.195-.1.464-.15.809-.15v-.137h-3.111v.136c.39 0 .68.048.869.145.191.095.285.23.285.405 0 .21-.136.449-.406.714l-1.713 1.717V54.53l-2.539.231v.123c.544 0 .888.023 1.033.068.044.01.093.053.148.13.056.077.082.207.082.39v7.291c0 .219-.026.35-.082.396l-.095.04zm8.491-7.363a.745.745 0 0 0 .214-.545.745.745 0 0 0-.214-.544.728.728 0 0 0-.539-.218.742.742 0 0 0-.753.762.743.743 0 0 0 .753.763.727.727 0 0 0 .539-.218zm.174 1.769-2.62.218v.122c.579 0 .95.023 1.114.069.053.018.112.073.176.165.035.045.053.155.053.329v4.252c0 .219-.025.352-.08.398a2.256 2.256 0 0 1-.55.11 8.45 8.45 0 0 1-.713.027v.122h3.965v-.122c-.597 0-.992-.033-1.181-.096-.065-.027-.105-.054-.123-.082-.026-.054-.04-.173-.04-.356v-5.156h-.001zm6.33.422v.123h1.086v3.865c0 .49.126.867.38 1.13.254.264.652.395 1.196.395.57 0 .954-.164 1.154-.49.145-.236.217-.672.217-1.307-.009-.19-.013-.39-.013-.6v-.624h-.163v.649c0 .759-.041 1.273-.12 1.544-.116.398-.357.596-.72.596-.313 0-.513-.172-.601-.516-.035-.145-.053-.461-.053-.95V58.15h1.561v-.395h-1.561v-2.872h-.232c0 .683-.15 1.299-.453 1.846-.375.683-.936 1.116-1.678 1.298zm5.117 2.882c-.379.337-.568.75-.568 1.24 0 .5.195.873.585 1.118.28.182.609.273.99.273.38 0 .683-.045.911-.136.38-.152.665-.449.854-.89.074.387.225.661.453.823.191.135.481.203.872.203.502 0 .834-.114.998-.341.127-.181.191-.535.191-1.061a10.462 10.462 0 0 1-.013-.545v-.599h-.163v.122c0 .135.001.266.007.393.004.125.005.252.005.378 0 .46-.04.812-.12 1.056-.083.243-.242.365-.476.365-.263 0-.427-.154-.49-.462-.027-.126-.04-.462-.04-1.004V58.84c0-.344-.154-.63-.463-.855-.343-.254-.851-.381-1.521-.381-.371 0-.737.06-1.099.177-.507.163-.825.422-.951.775-.053.164-.081.31-.081.436 0 .263.132.481.397.653a.532.532 0 0 0 .315.096.681.681 0 0 0 .48-.19.637.637 0 0 0 .206-.49.723.723 0 0 0-.162-.463.518.518 0 0 0-.423-.205.572.572 0 0 0-.134.014c.072-.204.226-.366.46-.486s.508-.181.819-.181c.382 0 .632.064.748.192.114.127.173.373.173.738v.793c0 .346-.096.568-.285.668-.19.1-.553.173-1.095.218-.541.045-1.002.232-1.38.56zm.722 1.14c0-.492.09-.875.272-1.148a1.02 1.02 0 0 1 .625-.438c.198-.028.406-.057.617-.09a.7.7 0 0 0 .483-.265v1.819c0 .41-.138.759-.415 1.046-.275.288-.586.43-.93.43a.529.529 0 0 1-.496-.28c-.102-.187-.156-.545-.156-1.073z" fill="#0B212B"/></svg>