<svg width="134" height="54" viewBox="0 0 134 54" fill="none" xmlns="http://www.w3.org/2000/svg">
<mask id="mask0_1955_17635" style="mask-type:alpha" maskUnits="userSpaceOnUse" x="0" y="0" width="134" height="54">
<rect width="133.579" height="54" fill="white"/>
</mask>
<g mask="url(#mask0_1955_17635)">
<path d="M131.914 48.2063V48.1238C131.798 48.1238 131.676 48.1175 131.547 48.1052C131.42 48.0932 131.33 48.0778 131.282 48.059C131.232 48.0414 131.203 48.0228 131.19 48.0044C131.172 47.9674 131.163 47.8878 131.163 47.7648V45.3243C131.163 45.0541 131.068 44.8207 130.879 44.6242C130.652 44.3906 130.347 44.274 129.963 44.274C129.907 44.274 129.785 44.2848 129.595 44.306C129.406 44.3275 129.226 44.4787 129.055 44.759C128.932 44.9609 128.852 45.1927 128.815 45.4549V44.283L127.157 44.4302V44.5127C127.56 44.5127 127.792 44.5341 127.853 44.5775L127.909 44.6698C127.932 44.7009 127.946 44.7435 127.95 44.7991C127.952 44.8545 127.954 44.9097 127.954 44.9654V47.7633C127.954 47.9117 127.936 48.0007 127.899 48.0315C127.794 48.0685 127.678 48.0932 127.547 48.1051C127.415 48.1173 127.282 48.1237 127.147 48.1237V48.2061H129.494V48.1237C129.403 48.1237 129.298 48.1173 129.178 48.1051C129.058 48.0931 128.976 48.0777 128.931 48.0589C128.885 48.0405 128.856 48.0223 128.844 48.0036C128.825 47.9669 128.815 47.8865 128.815 47.7633V45.9538C128.871 45.517 128.965 45.1663 129.101 44.9013C129.278 44.5508 129.506 44.3749 129.788 44.3749C130.001 44.3749 130.149 44.5011 130.228 44.7537C130.276 44.9077 130.301 45.1317 130.301 45.4273V47.7631C130.301 47.9115 130.283 48.0006 130.247 48.0314C130.149 48.0684 130.036 48.0931 129.907 48.1049C129.779 48.1172 129.665 48.1236 129.568 48.1236V48.206H131.914V48.2063ZM131.133 36.3015C131.654 35.4542 131.914 33.8888 131.914 31.6063C131.882 30.9211 131.866 30.2048 131.866 29.454V27.2041H131.279V29.5403C131.279 32.2666 131.136 34.1159 130.848 35.0894C130.433 36.5166 129.571 37.2305 128.261 37.2305C127.142 37.2305 126.423 36.6136 126.103 35.377C125.975 34.8573 125.912 33.7182 125.912 31.9622V18.694H131.524V17.2752H125.912V6.95526H125.082C125.082 9.41134 124.538 11.6225 123.451 13.5875C122.1 16.0435 120.089 17.5987 117.42 18.2537V18.6942H121.325V32.5843C121.325 34.3453 121.78 35.6986 122.691 36.6441C123.602 37.5901 125.033 38.0626 126.986 38.0626C129.035 38.0626 130.417 37.4756 131.133 36.3016V36.3015ZM118.063 44.2831C117.751 44.2831 117.486 44.3952 117.269 44.6189C117.052 44.8419 116.944 45.1132 116.944 45.4317C116.944 45.7868 117.073 46.0719 117.331 46.2861C117.546 46.4637 117.847 46.5923 118.238 46.6719C118.627 46.7519 118.899 46.8434 119.051 46.9477C119.248 47.0824 119.347 47.2877 119.347 47.5628C119.347 47.7774 119.272 47.943 119.126 48.0589C119.003 48.1571 118.846 48.2061 118.656 48.2061C118.404 48.2061 118.216 48.1892 118.089 48.1557C117.964 48.1223 117.83 48.0377 117.69 47.9032C117.584 47.8052 117.486 47.6551 117.394 47.4526C117.328 47.306 117.241 47.0429 117.136 46.6627H117.073V48.2894C117.084 48.2767 117.213 48.1267 117.458 47.8388C117.66 48.047 117.846 48.1785 118.017 48.2338C118.132 48.2708 118.326 48.2894 118.595 48.2894C118.919 48.2894 119.188 48.2126 119.401 48.059C119.67 47.8699 119.804 47.5757 119.804 47.1776C119.804 46.7488 119.68 46.4367 119.429 46.2403C119.253 46.0997 118.946 45.9768 118.507 45.8729C118.069 45.7685 117.776 45.6738 117.63 45.5878C117.424 45.4656 117.32 45.2936 117.32 45.0734C117.32 44.8039 117.414 44.6112 117.604 44.4945C117.746 44.4085 117.925 44.3659 118.145 44.3659C118.432 44.3659 118.695 44.4917 118.933 44.7425C119.154 44.9757 119.307 45.2756 119.392 45.643L119.466 45.661V44.283C119.453 44.2953 119.328 44.3904 119.09 44.568C119.052 44.562 118.919 44.5063 118.687 44.4024C118.51 44.3231 118.301 44.283 118.063 44.283V44.2831ZM104.488 37.622H117.078V37.182C116.395 37.182 115.711 37.1499 115.029 37.084C114.346 37.0185 113.873 36.9368 113.613 36.8388C113.353 36.7412 113.19 36.6426 113.126 36.5446C113.028 36.3487 112.979 35.9242 112.979 35.2703V22.2772C112.979 20.8069 112.523 19.5649 111.613 18.5517C110.473 17.3097 108.765 16.6883 106.488 16.6883C106.358 16.6883 106.138 16.7052 105.83 16.7372C105.519 16.77 105.235 16.7865 104.975 16.7865C103.674 16.9172 102.552 17.7322 101.608 19.232C100.858 20.4383 100.387 21.694 100.193 22.9976V5.68359L90.8217 6.51467V6.95512C92.8396 6.95512 94.1403 7.03756 94.7256 7.20146C94.9218 7.26696 95.1328 7.46361 95.3609 7.79056C95.491 7.95475 95.5641 8.18415 95.5803 8.47934C95.5965 8.77424 95.6052 9.13394 95.6052 9.56028V35.2653C95.6052 36.0516 95.5072 36.527 95.3124 36.6909C94.758 36.8878 94.0995 37.0185 93.3356 37.084C92.5703 37.1499 91.7171 37.182 90.7732 37.182V37.622H103.804V37.182C103.316 37.182 102.755 37.1499 102.12 37.084C101.486 37.0185 101.046 36.9368 100.803 36.8378C100.559 36.7403 100.404 36.6419 100.339 36.5432C100.241 36.3465 100.193 35.9213 100.193 35.2653V25.435C100.485 23.2725 101.038 21.4372 101.852 19.9297C102.828 18.1275 103.999 17.2263 105.365 17.2263C106.634 17.2263 107.496 17.7678 107.953 18.848C108.245 19.5368 108.392 20.585 108.392 21.9947V35.2655C108.392 36.0518 108.294 36.5271 108.099 36.691C107.578 36.8879 106.977 37.0186 106.293 37.0842C105.61 37.1501 105.007 37.1821 104.488 37.1821V37.6222V37.622ZM94.3003 42.2801H90.7722V42.3629C91.2485 42.3629 91.5846 42.3999 91.7805 42.4732C91.8412 42.4979 91.8771 42.5229 91.8894 42.5472C91.9143 42.5962 91.9267 42.7067 91.9267 42.8784V46.5313C91.9267 47.0957 92.1838 47.5373 92.697 47.8567C93.1608 48.1453 93.7387 48.2894 94.4294 48.2894C94.7968 48.2894 95.1475 48.1721 95.4836 47.9392C95.966 47.6019 96.2078 47.102 96.2078 46.4394V43.6789C96.2078 43.2434 96.2623 42.9338 96.3727 42.7495C96.5253 42.4915 96.8318 42.3629 97.2892 42.3629V42.2801H94.8237V42.3629C95.2692 42.3629 95.5902 42.4842 95.7863 42.7259C95.9822 42.968 96.0789 43.4045 96.0789 44.0351V46.433C96.0789 47.021 95.8683 47.4744 95.4464 47.7929C95.1475 48.0195 94.8387 48.1329 94.5212 48.1329C93.9471 48.1329 93.5491 47.9736 93.3294 47.6551C93.146 47.3916 93.0542 46.9537 93.0542 46.3413V42.8777C93.0542 42.7121 93.069 42.6018 93.1003 42.5465C93.1125 42.5222 93.1582 42.4947 93.2377 42.464C93.3172 42.4334 93.4437 42.4087 93.6184 42.3908C93.7921 42.3721 94.0203 42.3629 94.3005 42.3629V42.2801H94.3003ZM71.0577 32.6823C71.0577 31.5736 71.5229 30.7744 72.4555 30.2858C73.1639 29.9268 74.0804 29.7471 75.2049 29.7471C76.5394 30.2693 77.9544 30.53 79.4513 30.53C81.5659 30.53 83.4696 29.96 85.1613 28.8181C87.0478 27.5465 87.9916 25.9167 87.9916 23.9271C87.9916 22.5903 87.6257 21.4168 86.894 20.4056C86.1621 19.3951 85.1613 18.5798 83.8925 17.9596C83.8925 17.6355 83.8753 17.1314 83.8443 16.4486C83.8443 15.635 83.9483 14.9935 84.1604 14.522C84.3727 14.0502 84.8031 13.7659 85.4541 13.6683C85.356 13.8339 85.2756 13.9998 85.2098 14.1651C85.1441 14.33 85.1131 14.5118 85.1131 14.7098C85.1131 15.7681 85.6651 16.2969 86.7724 16.2969C87.8449 16.2969 88.3822 15.7184 88.3822 14.5607C88.3822 14.0319 88.2037 13.6023 87.8451 13.2715C87.4869 12.9413 87.0649 12.7754 86.5762 12.7754C85.4703 12.7754 84.6491 13.0122 84.1122 13.4847C83.575 13.9575 83.3071 14.9602 83.3071 16.4925V17.6664C82.7207 17.4057 82.0869 17.1939 81.4035 17.0305C80.72 16.8677 80.069 16.7862 79.4513 16.7862C77.3691 16.7862 75.4655 17.4547 73.7413 18.7914C71.8539 20.2585 70.9102 22.0359 70.9102 24.1224C70.9102 25.3623 71.2041 26.4052 71.7894 27.2532C72.3747 28.1012 73.1871 28.7859 74.2288 29.3072C72.7318 29.3072 71.577 29.747 70.7635 30.6277C69.95 31.5082 69.5443 32.6332 69.5443 34.0027C69.5443 35.3074 70.0158 36.3671 70.9596 37.1817C71.6427 37.7687 72.6994 38.3229 74.1321 38.8447C72.5371 39.301 71.3665 39.741 70.6172 40.1652C69.5443 40.7842 69.0074 41.5505 69.0074 42.4644C69.0074 43.8653 69.9834 45.1129 71.9355 46.2057C73.8878 47.2976 76.5057 47.8445 79.7921 47.8445C82.5577 47.8445 84.7955 47.1915 86.5028 45.8877C88.2107 44.583 89.0653 42.7245 89.0653 40.3122C89.0653 38.0291 88.1238 36.3992 86.2423 35.4209C84.7493 34.6384 82.559 34.2469 79.6717 34.2469H76.848C74.577 34.2469 73.053 34.1004 72.274 33.8072C71.4629 33.5464 71.0572 33.1709 71.0572 32.6822L71.0577 32.6823ZM80.0632 38.6493C82.7209 38.6493 84.5437 38.9273 85.5323 39.4853C86.5209 40.042 87.0156 41.1078 87.0156 42.682C87.0156 43.9933 86.4105 45.1086 85.1988 46.0273C83.9859 46.9448 82.2819 47.4043 80.0843 47.4043C76.9168 47.4043 74.734 46.8821 73.5384 45.8393C72.7623 45.1543 72.3752 44.1273 72.3752 42.7578C72.3752 41.3224 72.8462 40.3123 73.7901 39.725C74.9249 39.0077 77.016 38.6493 80.0633 38.6493H80.0632ZM75.3031 23.6826C75.3031 21.6789 75.6329 20.1015 76.2917 18.9512C76.95 17.8022 78.0041 17.2263 79.4515 17.2263C81.0268 17.2263 82.1366 17.8347 82.7803 19.0499C83.326 20.0684 83.6002 21.613 83.6002 23.6827C83.6002 25.8847 83.2778 27.5033 82.6352 28.5381C81.9915 29.5726 80.9312 30.0901 79.4515 30.0901C77.8108 30.0901 76.7094 29.598 76.1475 28.6118C75.5847 27.6263 75.303 25.9835 75.303 23.6828L75.3031 23.6826ZM53.8788 37.622H68.1297V37.182C65.9817 37.182 64.5668 37.0675 63.8833 36.8378C63.6552 36.7403 63.5089 36.6419 63.4442 36.5432C63.3466 36.3465 63.298 35.9213 63.298 35.2653V16.7372L53.8788 17.5202V17.9599C55.961 17.9599 57.2954 18.0428 57.8808 18.2061C58.0756 18.2716 58.2877 18.4694 58.5158 18.7981C58.6449 18.9629 58.7105 19.3572 58.7105 19.9808V35.2601C58.7105 36.0482 58.6125 36.5257 58.4177 36.6894C57.8648 36.8864 57.2048 37.0175 56.4409 37.0837C55.6756 37.1492 54.8223 37.182 53.8789 37.182V37.622H53.8788ZM64.8905 10.2702C64.8905 10.2509 64.8954 10.2315 64.8978 10.2121C64.8978 10.107 64.8978 10.0017 64.8978 9.89669C64.8929 9.84346 64.8879 9.78996 64.8841 9.73674C64.8409 9.14411 64.6757 8.58677 64.393 8.06528C64.1487 7.61255 63.8299 7.21755 63.4382 6.88326C62.8476 6.37985 62.1719 6.06235 61.4066 5.93657C61.2628 5.91229 61.1152 5.90382 60.9689 5.88829C60.9454 5.88547 60.9218 5.88265 60.8981 5.87982C60.7927 5.87982 60.6886 5.87982 60.5832 5.87982C60.4877 5.88787 60.392 5.89464 60.2967 5.90551C59.5985 5.98019 58.9573 6.21524 58.3804 6.61716C57.5967 7.16363 57.0572 7.89545 56.7656 8.80756C56.6577 9.14397 56.5983 9.48998 56.5821 9.84234C56.5811 9.86069 56.5772 9.8789 56.5748 9.89654C56.5748 10.0016 56.5748 10.1069 56.5748 10.2119C56.5811 10.2736 56.5861 10.3356 56.591 10.3973C56.6392 10.9819 56.8029 11.5324 57.0856 12.0454C57.5261 12.8424 58.1572 13.4375 58.9794 13.8276C59.4719 14.0605 59.9901 14.1873 60.5337 14.2137C60.5495 14.2144 60.5671 14.2182 60.5833 14.2203C60.6887 14.2203 60.7929 14.2203 60.8983 14.2203C60.9886 14.2126 61.0803 14.2052 61.1721 14.1953C61.6509 14.1461 62.1062 14.016 62.539 13.806C62.9767 13.5949 63.3662 13.3153 63.7048 12.9674C64.2455 12.4122 64.6075 11.7572 64.7862 11.0011C64.8435 10.7604 64.8779 10.517 64.8906 10.2699L64.8905 10.2702ZM61.8991 6.3862C61.8916 6.39636 61.8853 6.40808 61.8765 6.41613C61.8519 6.44041 61.822 6.44718 61.7996 6.41712C61.7701 6.37985 61.7589 6.39523 61.7441 6.42841C61.7229 6.47457 61.6857 6.50238 61.6387 6.52215C61.621 6.52921 61.6053 6.54459 61.5926 6.56012C61.574 6.5844 61.5543 6.61052 61.543 6.63903C61.5082 6.7236 61.4453 6.75847 61.357 6.76553C61.3285 6.76793 61.2962 6.7884 61.2765 6.81028C61.1897 6.90783 61.1078 7.00933 61.0248 7.10942C60.9876 7.15417 60.9837 7.15487 60.9356 7.12071C60.8439 7.0562 60.8051 6.95935 60.7767 6.85686C60.7531 6.76877 60.7443 6.6828 60.7915 6.59725C60.8126 6.55744 60.8251 6.51339 60.8414 6.47076C60.8512 6.44295 60.8463 6.42149 60.8101 6.4222C60.7727 6.42319 60.7344 6.4253 60.6972 6.42742C60.7099 6.45947 60.7197 6.49335 60.7345 6.52356C60.7557 6.56196 60.7545 6.58666 60.7148 6.61405C60.6565 6.65457 60.6045 6.70242 60.5525 6.74971C60.525 6.774 60.5113 6.77823 60.4829 6.7476C60.4519 6.71343 60.4109 6.67743 60.3676 6.66755C60.3215 6.65626 60.2684 6.67419 60.2175 6.68124C60.2027 6.68308 60.1876 6.69183 60.1728 6.69423C60.1345 6.6996 60.0973 6.702 60.0698 6.66388C60.0502 6.63607 60.0242 6.64553 60.0016 6.66078C59.9496 6.69819 59.8976 6.73729 59.8456 6.7764C59.8355 6.78247 59.8255 6.78868 59.8172 6.79475C59.7329 6.84867 59.6991 6.93677 59.7254 7.03361C59.7412 7.08782 59.7809 7.10942 59.8329 7.08641C59.9198 7.049 60.003 7.0082 60.0439 6.91305C60.0477 6.90387 60.0773 6.89582 60.0874 6.90105C60.1518 6.93761 60.2003 6.91121 60.2474 6.86788C60.2744 6.84388 60.3043 6.82242 60.3367 6.80618C60.3701 6.78924 60.3986 6.80265 60.4235 6.83046C60.4506 6.86209 60.4816 6.89173 60.5139 6.91884C60.5574 6.95582 60.5659 6.98476 60.5388 7.03728C60.5226 7.06834 60.5026 7.09756 60.4868 7.1289C60.4805 7.14019 60.4829 7.15572 60.4816 7.16913C60.4943 7.16941 60.5079 7.17195 60.5188 7.16941C60.5708 7.15925 60.5736 7.15925 60.5623 7.21063C60.5497 7.26837 60.5388 7.32823 60.5139 7.38117C60.4731 7.47138 60.3937 7.48973 60.3107 7.43651C60.2175 7.37665 60.2003 7.38117 60.1331 7.47279C60.1208 7.49072 60.0973 7.50766 60.0762 7.51119C60.0139 7.52177 59.951 7.53194 59.8878 7.53053C59.7824 7.52799 59.6881 7.5637 59.594 7.6014C59.5528 7.61862 59.5121 7.64092 59.4698 7.65532C59.4473 7.66309 59.4188 7.66831 59.4002 7.65984C59.3628 7.64332 59.3419 7.66167 59.3172 7.68059C59.2142 7.76021 59.1013 7.82148 58.9786 7.86284C58.9526 7.87202 58.94 7.88529 58.9364 7.91324C58.9216 8.02109 58.904 8.12895 58.8854 8.23666C58.883 8.25177 58.8692 8.27435 58.8584 8.2769C58.8422 8.28042 58.8137 8.27266 58.8074 8.26038C58.7814 8.21422 58.7539 8.16636 58.7417 8.11526C58.7093 7.97126 58.6288 7.89785 58.4801 7.89997C58.2692 7.90279 58.1078 8.00288 57.9914 8.17158C57.9444 8.24104 57.9366 8.32941 57.9552 8.41398C57.969 8.4792 58.0224 8.51152 58.094 8.50418C58.1204 8.50178 58.1476 8.49684 58.1735 8.49148C58.2158 8.48202 58.2442 8.49924 58.2652 8.53481C58.2854 8.57011 58.2726 8.60286 58.2481 8.62813C58.2196 8.65566 58.1873 8.67881 58.1563 8.70351C58.1067 8.74375 58.1067 8.78483 58.1612 8.81772C58.1921 8.83636 58.1984 8.85725 58.1961 8.8907C58.1897 8.95804 58.1887 9.02595 58.1887 9.09399C58.1897 9.15738 58.2197 9.20538 58.2717 9.23912C58.3051 9.26057 58.3385 9.28316 58.3747 9.2994C58.4752 9.34485 58.5509 9.32128 58.6142 9.23107C58.681 9.1338 58.7296 9.1331 58.8272 9.20072C58.8954 9.24872 58.9749 9.28528 59.0544 9.31281C59.1574 9.3481 59.2491 9.39426 59.3185 9.48052C59.3361 9.50084 59.3631 9.51496 59.3891 9.52527C59.5417 9.58654 59.6755 9.67321 59.775 9.80648C59.7936 9.83048 59.8148 9.85406 59.8232 9.88187C59.8668 10.0253 59.9747 10.1323 60.0405 10.2634C60.0478 10.2778 60.069 10.2906 60.0862 10.2944C60.2324 10.3264 60.3703 10.3793 60.4869 10.4769C60.5921 10.5643 60.6072 10.6168 60.5699 10.7478C60.5439 10.8352 60.4954 10.907 60.4223 10.9605C60.3889 10.9853 60.3677 11.0159 60.3555 11.0546C60.3343 11.1137 60.3094 11.1712 60.2897 11.2305C60.2499 11.3551 60.168 11.4555 60.0836 11.5494C60.0404 11.5993 59.9633 11.6311 59.8952 11.6469C59.801 11.6694 59.7329 11.7138 59.6819 11.796C59.6372 11.8693 59.5814 11.9362 59.5381 12.0106C59.4774 12.1131 59.3993 12.1927 59.2987 12.2568C59.2105 12.3128 59.1315 12.3826 59.053 12.4516C59.0221 12.4791 59 12.5196 58.9774 12.5562C58.9588 12.5851 58.9514 12.62 58.9342 12.6485C58.8857 12.7243 58.8846 12.8028 58.9043 12.8885C58.9268 12.9787 58.9401 13.0713 58.9577 13.1637C58.965 13.2006 58.9539 13.2122 58.918 13.1978C58.8782 13.1816 58.8399 13.1618 58.8062 13.1368C58.6849 13.0473 58.5943 12.9282 58.5261 12.7951C58.5025 12.7479 58.504 12.6879 58.4951 12.6333C58.4814 12.553 58.4727 12.4726 58.4441 12.3937C58.4229 12.3351 58.4279 12.2658 58.4308 12.2013C58.4332 12.1421 58.4456 12.0833 58.4553 12.0244C58.4652 11.9636 58.4666 11.9064 58.449 11.8423C58.4332 11.7778 58.449 11.7031 58.4579 11.6336C58.4727 11.5166 58.4937 11.4011 58.5099 11.2852C58.5124 11.2725 58.5075 11.2546 58.5 11.2468C58.4195 11.1722 58.4107 11.0787 58.4356 10.9802C58.4441 10.9428 58.4342 10.9253 58.4043 10.9044C58.2557 10.8 58.1515 10.6549 58.0549 10.5044C58.0412 10.483 58.0347 10.4545 58.0313 10.4279C58.0212 10.3638 58.0151 10.2997 58.0078 10.2359C57.9927 10.1113 58.0038 9.99283 58.0859 9.88892C58.134 9.82695 58.1776 9.75961 58.2234 9.69482C58.2744 9.62225 58.2993 9.54052 58.2979 9.45144C58.297 9.40527 58.2793 9.36617 58.2396 9.33906C58.2283 9.33102 58.2185 9.32 58.2062 9.31407C58.1156 9.26791 58.0709 9.19253 58.0625 9.09385C58.0551 9.02411 58.0213 8.9716 57.9633 8.93489C57.9235 8.90849 57.9197 8.87391 57.927 8.8317C57.9421 8.74685 57.9407 8.74756 57.8652 8.70987C57.7847 8.67006 57.7088 8.62319 57.6542 8.54921C57.6208 8.50489 57.6032 8.4552 57.6096 8.39873C57.6145 8.34494 57.6194 8.29101 57.6282 8.23807C57.6429 8.15704 57.6194 8.08801 57.5722 8.0235C57.5167 7.94712 57.5167 7.94642 57.5687 7.8699C58.0496 7.17831 58.6849 6.69028 59.4784 6.40808C59.8679 6.26959 60.2795 6.20098 60.7313 6.19562C61.1194 6.19703 61.4977 6.25237 61.8685 6.36756C61.8793 6.37067 61.8882 6.37956 61.8995 6.38592L61.8991 6.3862ZM64.5828 10.013C64.574 10.8836 64.3336 11.6376 63.8474 12.3113C63.5585 12.7119 63.2037 13.043 62.7871 13.3086C62.7847 13.3101 62.7819 13.3122 62.7794 13.3133C62.7695 13.3168 62.7597 13.3204 62.7498 13.3242C62.7559 13.315 62.7621 13.3058 62.767 13.2964C62.7894 13.2563 62.819 13.2179 62.8328 13.1745C62.8415 13.1467 62.8352 13.1045 62.818 13.0798C62.7905 13.0374 62.787 12.9983 62.8057 12.9557C62.8504 12.8504 62.8975 12.7454 62.9431 12.6408C62.9617 12.6002 62.9791 12.56 62.9991 12.5213C63.0275 12.4653 63.0301 12.4075 63.0163 12.348C63.005 12.3008 62.9951 12.2535 62.9868 12.206C62.9605 12.0566 63.0325 11.9398 63.1155 11.8282C63.1418 11.7947 63.1738 11.7662 63.2024 11.7344C63.293 11.6327 63.329 11.518 63.2794 11.3849C63.2657 11.3496 63.2558 11.3119 63.241 11.2768C63.2013 11.1778 63.2076 11.0805 63.247 10.983C63.262 10.9446 63.273 10.9051 63.2892 10.8674C63.3264 10.7811 63.324 10.694 63.3019 10.6052C63.293 10.5685 63.2746 10.5626 63.2422 10.5749C63.2274 10.5819 63.2112 10.5932 63.195 10.5925C63.1738 10.5922 63.1444 10.5897 63.1307 10.5756C63.0945 10.5348 63.0488 10.5195 62.9992 10.5188C62.9075 10.5167 62.8143 10.5132 62.7239 10.5228C62.5825 10.5369 62.4571 10.4995 62.3492 10.4153C62.2167 10.3122 62.0926 10.1984 61.9684 10.0842C61.9449 10.063 61.9364 10.0187 61.9336 9.98308C61.9188 9.82695 61.956 9.67688 61.9919 9.5264C62.0131 9.43407 62.0282 9.34076 62.0455 9.24773C62.0479 9.23389 62.0479 9.21709 62.0415 9.2058C62.0131 9.15653 62.0331 9.11347 62.0552 9.07014C62.1072 8.96793 62.1867 8.89607 62.296 8.86233C62.3417 8.84821 62.379 8.82534 62.404 8.78624C62.4708 8.68121 62.5651 8.62672 62.6853 8.59425C62.8553 8.5471 63.0213 8.53891 63.189 8.59608C63.2136 8.60526 63.2422 8.60526 63.2681 8.6071C63.3253 8.61133 63.3824 8.60851 63.4368 8.62079C63.4838 8.63138 63.531 8.65241 63.5706 8.67994C63.6539 8.7381 63.732 8.80502 63.8139 8.86459C63.836 8.88083 63.867 8.89 63.8943 8.8924C63.9762 8.90016 64.0582 8.9013 64.1397 8.90751C64.1671 8.90934 64.171 8.89946 64.1686 8.87645C64.1535 8.7405 64.0519 8.63646 63.9155 8.62107C63.8374 8.61232 63.8061 8.58366 63.784 8.50446C63.78 8.49006 63.7727 8.47623 63.7678 8.46211C63.7565 8.47228 63.7457 8.48258 63.7344 8.49176C63.7132 8.5094 63.6922 8.5262 63.6711 8.54314C63.6549 8.51985 63.6352 8.49811 63.6215 8.47312C63.6078 8.44884 63.6015 8.42061 63.5906 8.39421C63.5794 8.36809 63.5632 8.36315 63.5434 8.38644C63.5347 8.39746 63.526 8.41285 63.5147 8.41708C63.4886 8.42724 63.4592 8.44136 63.4342 8.43642C63.4018 8.42978 63.3797 8.40296 63.3773 8.36457C63.3759 8.33252 63.3735 8.30005 63.3686 8.268C63.365 8.24231 63.3524 8.23553 63.3278 8.25036C63.3142 8.25812 63.2916 8.26024 63.2782 8.25502C63.2112 8.22678 63.1454 8.19728 63.0821 8.16382C63.0576 8.15041 63.0526 8.15676 63.0497 8.17793C63.0398 8.24485 63.0289 8.31176 63.0212 8.37953C63.0188 8.4144 63.0078 8.43487 62.9716 8.44051C62.9406 8.44475 62.9097 8.45181 62.8813 8.46197C62.7425 8.50856 62.6493 8.45844 62.5698 8.34113C62.5252 8.27548 62.4918 8.20307 62.451 8.13432C62.4374 8.10933 62.4447 8.09634 62.4668 8.08363C62.5501 8.03606 62.6369 8.00542 62.7361 8.00472C62.8142 8.00429 62.8725 7.94867 62.9259 7.89588C62.953 7.86835 62.9755 7.83419 62.9967 7.80073C63.004 7.78915 63.008 7.76656 63.0016 7.75527C62.9682 7.69189 62.9605 7.62667 62.9781 7.55792C62.9868 7.52375 62.9781 7.50159 62.9369 7.50441C62.932 7.50441 62.9261 7.50131 62.9212 7.50159C62.8403 7.50413 62.7833 7.47335 62.7535 7.39416C62.7412 7.35886 62.7039 7.35647 62.6744 7.35745C62.5935 7.35999 62.5514 7.31129 62.5405 7.24226C62.5267 7.15629 62.5255 7.06791 62.5229 6.98053C62.5219 6.96994 62.5429 6.95159 62.5563 6.94919C62.5985 6.94072 62.6407 6.93761 62.6829 6.93437C62.7426 6.93013 62.7771 6.9002 62.7873 6.84176C62.7933 6.80689 62.8045 6.80435 62.8343 6.82411C63.4158 7.2088 63.8647 7.71123 64.1787 8.33591C64.3932 8.76365 64.5197 9.21639 64.5644 9.6927C64.5757 9.81241 64.5792 9.93297 64.583 10.0133L64.5828 10.013ZM53.3912 20.5525C53.3912 20.0631 53.2685 19.5093 53.0252 18.8895C52.7809 18.2702 52.3011 17.7568 51.5856 17.3485C50.8688 16.9412 50.2015 16.7372 49.5839 16.7372C47.9566 16.7372 46.6073 17.5532 45.5332 19.1832C44.7531 20.3571 44.2968 21.6124 44.1667 22.9492V16.7374L34.7485 17.4713V17.9118C36.8295 17.9118 38.1639 17.9942 38.7493 18.1573C38.9455 18.2232 39.156 18.4204 39.3843 18.7492C39.5148 18.9141 39.579 19.3246 39.579 19.9821V35.2604C39.579 36.0485 39.4824 36.526 39.2865 36.6897C38.7331 36.8867 38.0747 37.0178 37.3108 37.084C36.5455 37.1495 35.6913 37.1823 34.7487 37.1823V37.6223H48.9985V37.1823C46.8516 37.1823 45.4366 37.0678 44.7531 36.8381C44.525 36.7405 44.3787 36.6421 44.313 36.5435C44.2164 36.3468 44.1667 35.9216 44.1667 35.2656V26.1231C44.1667 23.3384 44.783 21.0606 46.0145 19.2912C46.9531 17.9156 47.8936 17.2265 48.8322 17.2265C49.8046 17.2265 50.3875 17.5693 50.5823 18.254C49.9906 18.124 49.4734 18.3515 49.0295 18.9385C48.5855 19.5255 48.3647 20.1125 48.3647 20.6995C48.3647 21.6127 48.5942 22.2977 49.0545 22.7539C49.5143 23.2106 50.0726 23.4385 50.73 23.4385C51.1564 23.4385 51.5014 23.3734 51.7643 23.2427C52.8495 22.7539 53.3913 21.8574 53.3913 20.5529L53.3912 20.5525ZM30.3629 24.1692C28.5461 22.4086 25.6911 21.2829 21.7984 20.7939C25.4939 20.24 28.0068 19.2944 29.336 17.9579C30.3418 16.9795 30.8441 15.5129 30.8441 13.5567C30.8441 11.9592 30.0146 10.4111 28.3551 8.91061C26.2729 7.02034 23.4749 6.07478 19.9614 6.07478H0.000141055V6.51481C3.18882 6.51481 5.25368 6.69522 6.19867 7.05464C6.5559 7.18636 6.76685 7.31679 6.83252 7.44752C6.96259 7.70967 7.02839 8.29835 7.02839 9.21342V34.3857C7.02839 35.3342 6.96259 35.9309 6.83252 36.1761C6.70217 36.4223 6.47403 36.6102 6.14907 36.7403C5.46562 37.0024 3.41682 37.1331 0 37.1331V37.6222H22.7431C25.6712 37.6222 28.1106 36.6927 30.0627 34.8338C31.7545 33.2363 32.6014 31.5233 32.6014 29.6975C32.6014 27.4476 31.8547 25.6046 30.3626 24.1692H30.3629ZM17.5517 20.6012H13.0313V9.22387C13.0313 8.27181 13.0711 7.63231 13.1527 7.30367C13.2336 6.97488 13.4356 6.76172 13.7604 6.66318C14.0829 6.56492 14.5852 6.51481 15.2673 6.51481H17.5987C20.2245 6.51481 22.0874 7.07356 23.1885 8.18951C24.2899 9.30603 24.8419 11.2435 24.8419 14.0015C24.8419 16.4646 24.161 18.2217 22.8004 19.2715C21.6656 20.1579 19.9156 20.6012 17.5518 20.6012H17.5517ZM26.4031 29.7248C26.4031 32.0142 25.8796 33.7973 24.8356 35.073C23.692 36.4791 21.962 37.182 19.6442 37.182C17.423 37.182 16.0102 37.1662 15.4062 37.133C14.8022 37.101 14.3126 37.0107 13.9367 36.8631C13.5623 36.7165 13.3166 36.5114 13.2027 36.2504C13.0884 35.9894 13.0315 35.3668 13.0315 34.3855V21.0415H18.8106C21.358 21.0415 23.2842 21.8431 24.5902 23.4458C25.7982 24.9178 26.4031 27.0099 26.4031 29.7247V29.7248ZM99.564 44.9184L97.3081 48.2064H100.782V46.2591H100.709C100.623 46.9542 100.445 47.4591 100.173 47.773C99.9761 48.0069 99.7367 48.1238 99.4526 48.1238H98.5287C98.3998 48.1238 98.3351 48.1115 98.3351 48.0868C98.3351 48.0685 98.4356 47.9121 98.6392 47.6176L100.938 44.2831H97.7944V45.9553H97.8577C97.968 45.2654 98.1465 44.8127 98.3972 44.5971C98.567 44.4487 98.8683 44.3752 99.3001 44.3752H99.6646C99.8109 44.3752 99.8841 44.3907 99.8841 44.4214L99.5642 44.9184H99.564ZM100.847 42.4458C101.213 42.4458 101.448 42.4613 101.552 42.4915C101.589 42.5038 101.625 42.5349 101.662 42.5839C101.7 42.6331 101.717 42.7188 101.717 42.8414V48.2894H101.79L102.185 47.5783C102.387 47.8641 102.578 48.0537 102.758 48.1481C102.939 48.2419 103.215 48.2894 103.587 48.2894C103.997 48.2894 104.359 48.0918 104.674 47.6965C104.989 47.3015 105.146 46.8252 105.146 46.2674C105.146 45.8331 105.024 45.4194 104.779 45.0277C104.468 44.5316 104.037 44.2831 103.487 44.2831C103.243 44.2831 103.03 44.4068 102.849 44.6541C102.67 44.9015 102.579 45.165 102.579 45.4461V42.2068L100.846 42.3629V42.4458H100.847ZM102.579 46.2125C102.579 45.6149 102.677 45.1475 102.873 44.8092C103.038 44.5199 103.243 44.375 103.487 44.375C103.713 44.375 103.887 44.5199 104.009 44.8092C104.132 45.0984 104.193 45.5874 104.193 46.2769C104.193 46.8554 104.138 47.3216 104.028 47.6756C103.917 48.0294 103.737 48.2063 103.487 48.2063C103.23 48.2063 103.034 48.1389 102.9 48.0033C102.686 47.7877 102.579 47.3906 102.579 46.8125V46.2125ZM106.09 44.807C105.699 45.2112 105.504 45.7351 105.504 46.3777C105.504 46.9722 105.702 47.4527 106.1 47.8202C106.436 48.133 106.808 48.2894 107.217 48.2894C107.707 48.2894 108.098 48.1422 108.392 47.848C108.685 47.5542 108.831 47.1774 108.831 46.7181H108.758C108.758 47.1927 108.603 47.5682 108.29 47.8459C108.034 48.0741 107.737 48.1879 107.401 48.1879C107.083 48.1879 106.846 48.0403 106.69 47.7446C106.535 47.4495 106.457 46.972 106.457 46.3136H108.813C108.813 45.536 108.62 44.9759 108.236 44.6323C107.973 44.3998 107.643 44.2831 107.246 44.2831C106.818 44.2831 106.432 44.4575 106.09 44.807H106.09ZM106.457 46.2036C106.457 45.5785 106.525 45.1175 106.66 44.8207C106.797 44.5237 107.031 44.375 107.364 44.375C107.6 44.375 107.769 44.5315 107.875 44.8436C107.981 45.1561 108.034 45.6096 108.034 46.2036H106.457ZM109.858 48.059C109.73 48.1024 109.482 48.1238 109.115 48.1238V48.2063H111.481V48.1238C111.407 48.1238 111.313 48.1175 111.196 48.1052C111.081 48.0929 111 48.0778 110.954 48.0588C110.908 48.0407 110.878 48.0218 110.866 48.0034C110.849 47.9664 110.839 47.8865 110.839 47.7634V46.5525L111.325 46.0564L112.187 47.7729C112.235 47.8711 112.26 47.9388 112.26 47.9755C112.26 48.0558 112.205 48.1008 112.095 48.1097C111.985 48.1196 111.83 48.1238 111.628 48.1238V48.2063H113.864V48.1238C113.632 48.1238 113.466 48.1038 113.365 48.0636C113.263 48.0237 113.18 47.9356 113.112 47.8004L111.939 45.4553L112.507 44.8923C112.734 44.6831 112.912 44.5446 113.044 44.4766C113.175 44.4089 113.356 44.375 113.59 44.375V44.2831H111.49V44.375C111.753 44.375 111.949 44.4075 112.076 44.4726C112.205 44.5371 112.269 44.6283 112.269 44.746C112.269 44.8885 112.177 45.049 111.994 45.2281L110.839 46.3873V42.207L109.125 42.3631V42.4459C109.492 42.4459 109.724 42.4615 109.822 42.4917C109.851 42.498 109.885 42.5273 109.922 42.5798C109.959 42.6316 109.977 42.719 109.977 42.8426V47.7643C109.977 47.9119 109.959 48.001 109.922 48.0317L109.858 48.059H109.858ZM115.589 43.0891C115.686 42.9909 115.734 42.8686 115.734 42.7212C115.734 42.5743 115.686 42.452 115.589 42.3538C115.492 42.2558 115.371 42.2068 115.225 42.2068C115.08 42.2068 114.959 42.2558 114.862 42.3538C114.765 42.452 114.717 42.5744 114.717 42.7212C114.717 42.8685 114.765 42.9907 114.862 43.0891C114.959 43.1871 115.08 43.2361 115.225 43.2361C115.37 43.2361 115.492 43.1871 115.589 43.0891ZM115.707 44.2831L113.938 44.4304V44.5128C114.329 44.5128 114.579 44.5284 114.69 44.559C114.725 44.5717 114.765 44.6087 114.809 44.6704C114.832 44.7013 114.845 44.775 114.845 44.8927V47.7627C114.845 47.9107 114.827 48.0006 114.79 48.0312C114.686 48.0678 114.562 48.0929 114.419 48.1052C114.276 48.1175 114.114 48.1238 113.938 48.1238V48.2063H116.614V48.1238C116.212 48.1238 115.945 48.102 115.817 48.059C115.774 48.0407 115.746 48.0225 115.734 48.0037C115.717 47.967 115.707 47.8867 115.707 47.7634V44.2831H115.707ZM119.979 44.5682V44.651H120.712V47.26C120.712 47.5908 120.797 47.8452 120.969 48.0228C121.14 48.2006 121.409 48.2894 121.776 48.2894C122.161 48.2894 122.42 48.1785 122.555 47.9582C122.653 47.799 122.702 47.5052 122.702 47.0761C122.695 46.9477 122.693 46.8128 122.693 46.6719V46.2498H122.582V46.6881C122.582 47.2004 122.555 47.5474 122.502 47.7307C122.424 47.9992 122.261 48.133 122.016 48.133C121.805 48.133 121.669 48.0167 121.61 47.7842C121.586 47.6869 121.574 47.473 121.574 47.143V44.651H122.628V44.3844H121.574V42.4459H121.418C121.418 42.9072 121.316 43.3225 121.112 43.6918C120.858 44.153 120.48 44.4451 119.979 44.5683L119.979 44.5682ZM123.433 46.5136C123.178 46.7405 123.05 47.0196 123.05 47.3508C123.05 47.6876 123.181 47.9395 123.444 48.1048C123.634 48.2277 123.856 48.2894 124.113 48.2894C124.369 48.2894 124.574 48.2588 124.728 48.1978C124.985 48.0949 125.177 47.8944 125.305 47.5967C125.354 47.8582 125.456 48.0431 125.61 48.1523C125.739 48.2435 125.935 48.2894 126.199 48.2894C126.537 48.2894 126.762 48.2126 126.872 48.059C126.958 47.9368 127.001 47.6979 127.001 47.3427C126.995 47.2264 126.993 47.1043 126.993 46.9753V46.5711H126.882V46.6531C126.882 46.7443 126.883 46.8328 126.887 46.9181C126.89 47.0029 126.891 47.0886 126.891 47.1735C126.891 47.4842 126.864 47.7216 126.809 47.8862C126.753 48.0504 126.647 48.1329 126.488 48.1329C126.31 48.1329 126.2 48.029 126.158 47.821C126.139 47.7358 126.131 47.5092 126.131 47.1428V45.1173C126.131 44.8851 126.027 44.6924 125.818 44.5402C125.586 44.3687 125.244 44.283 124.791 44.283C124.541 44.283 124.294 44.3231 124.05 44.4024C123.708 44.5127 123.493 44.6875 123.407 44.926C123.371 45.0366 123.353 45.135 123.353 45.2202C123.353 45.3978 123.442 45.5451 123.621 45.661C123.682 45.7043 123.753 45.7258 123.834 45.7258C123.958 45.7258 124.066 45.6827 124.157 45.5972C124.251 45.5109 124.296 45.4009 124.296 45.2663C124.296 45.1497 124.26 45.0453 124.187 44.9538C124.113 44.8618 124.019 44.8158 123.902 44.8158C123.866 44.8158 123.835 44.8193 123.811 44.8252C123.86 44.6875 123.964 44.5782 124.121 44.4969C124.28 44.4158 124.465 44.3749 124.674 44.3749C124.932 44.3749 125.101 44.4182 125.179 44.5046C125.256 44.5906 125.296 44.7566 125.296 45.0028V45.5383C125.296 45.7712 125.231 45.9213 125.104 45.9889C124.976 46.0562 124.73 46.1059 124.364 46.1362C124 46.1668 123.689 46.2926 123.433 46.5135L123.433 46.5136ZM123.92 47.2832C123.92 46.9506 123.981 46.6924 124.104 46.508C124.208 46.3537 124.348 46.2554 124.526 46.2124C124.66 46.1937 124.8 46.174 124.942 46.1518C125.086 46.1306 125.195 46.0705 125.269 45.9725V47.2004C125.269 47.477 125.175 47.7127 124.988 47.9068C124.802 48.1007 124.593 48.1972 124.361 48.1972C124.208 48.1972 124.097 48.1341 124.026 48.0084C123.957 47.8819 123.92 47.6402 123.92 47.2833V47.2832Z" fill="#075639"/>
</g>
</svg>
