<svg width="132" height="44" viewBox="0 0 132 44" fill="none" xmlns="http://www.w3.org/2000/svg">
<path d="M131.914 43.2063V43.1238C131.798 43.1238 131.676 43.1175 131.547 43.1052C131.42 43.0932 131.33 43.0778 131.282 43.059C131.232 43.0414 131.203 43.0228 131.19 43.0044C131.172 42.9674 131.163 42.8878 131.163 42.7648V40.3243C131.163 40.0541 131.068 39.8207 130.879 39.6242C130.652 39.3906 130.347 39.274 129.963 39.274C129.907 39.274 129.785 39.2848 129.595 39.306C129.406 39.3275 129.226 39.4787 129.055 39.759C128.932 39.9609 128.852 40.1927 128.815 40.4549V39.283L127.157 39.4302V39.5127C127.56 39.5127 127.792 39.5341 127.853 39.5775L127.909 39.6698C127.932 39.7009 127.946 39.7435 127.95 39.7991C127.952 39.8545 127.954 39.9097 127.954 39.9654V42.7633C127.954 42.9117 127.936 43.0007 127.899 43.0315C127.794 43.0685 127.678 43.0932 127.547 43.1051C127.415 43.1173 127.282 43.1237 127.147 43.1237V43.2061H129.494V43.1237C129.403 43.1237 129.298 43.1173 129.178 43.1051C129.058 43.0931 128.976 43.0777 128.931 43.0589C128.885 43.0405 128.856 43.0223 128.844 43.0036C128.825 42.9669 128.815 42.8865 128.815 42.7633V40.9538C128.871 40.517 128.965 40.1663 129.101 39.9013C129.278 39.5508 129.506 39.3749 129.788 39.3749C130.001 39.3749 130.149 39.5011 130.228 39.7537C130.276 39.9077 130.301 40.1317 130.301 40.4273V42.7631C130.301 42.9115 130.283 43.0006 130.247 43.0314C130.149 43.0684 130.036 43.0931 129.907 43.1049C129.779 43.1172 129.665 43.1236 129.568 43.1236V43.206H131.914V43.2063ZM131.133 31.3015C131.654 30.4542 131.914 28.8888 131.914 26.6063C131.882 25.9211 131.866 25.2048 131.866 24.454V22.2041H131.279V24.5403C131.279 27.2666 131.136 29.1159 130.848 30.0894C130.433 31.5166 129.571 32.2305 128.261 32.2305C127.142 32.2305 126.423 31.6136 126.103 30.377C125.975 29.8573 125.912 28.7182 125.912 26.9622V13.694H131.524V12.2752H125.912V1.95526H125.082C125.082 4.41134 124.538 6.6225 123.451 8.58745C122.1 11.0435 120.089 12.5987 117.42 13.2537V13.6942H121.325V27.5843C121.325 29.3453 121.78 30.6986 122.691 31.6441C123.602 32.5901 125.033 33.0626 126.986 33.0626C129.035 33.0626 130.417 32.4756 131.133 31.3016V31.3015ZM118.063 39.2831C117.751 39.2831 117.486 39.3952 117.269 39.6189C117.052 39.8419 116.944 40.1132 116.944 40.4317C116.944 40.7868 117.073 41.0719 117.331 41.2861C117.546 41.4637 117.847 41.5923 118.238 41.6719C118.627 41.7519 118.899 41.8434 119.051 41.9477C119.248 42.0824 119.347 42.2877 119.347 42.5628C119.347 42.7774 119.272 42.943 119.126 43.0589C119.003 43.1571 118.846 43.2061 118.656 43.2061C118.404 43.2061 118.216 43.1892 118.089 43.1557C117.964 43.1223 117.83 43.0377 117.69 42.9032C117.584 42.8052 117.486 42.6551 117.394 42.4526C117.328 42.306 117.241 42.0429 117.136 41.6627H117.073V43.2894C117.084 43.2767 117.213 43.1267 117.458 42.8388C117.66 43.047 117.846 43.1785 118.017 43.2338C118.132 43.2708 118.326 43.2894 118.595 43.2894C118.919 43.2894 119.188 43.2126 119.401 43.059C119.67 42.8699 119.804 42.5757 119.804 42.1776C119.804 41.7488 119.68 41.4367 119.429 41.2403C119.253 41.0997 118.946 40.9768 118.507 40.8729C118.069 40.7685 117.776 40.6738 117.63 40.5878C117.424 40.4656 117.32 40.2936 117.32 40.0734C117.32 39.8039 117.414 39.6112 117.604 39.4945C117.746 39.4085 117.925 39.3659 118.145 39.3659C118.432 39.3659 118.695 39.4917 118.933 39.7425C119.154 39.9757 119.307 40.2756 119.392 40.643L119.466 40.661V39.283C119.453 39.2953 119.328 39.3904 119.09 39.568C119.052 39.562 118.919 39.5063 118.687 39.4024C118.51 39.3231 118.301 39.283 118.063 39.283V39.2831ZM104.488 32.622H117.078V32.182C116.395 32.182 115.711 32.1499 115.029 32.084C114.346 32.0185 113.873 31.9368 113.613 31.8388C113.353 31.7412 113.19 31.6426 113.126 31.5446C113.028 31.3487 112.979 30.9242 112.979 30.2703V17.2772C112.979 15.8069 112.523 14.5649 111.613 13.5517C110.473 12.3097 108.765 11.6883 106.488 11.6883C106.358 11.6883 106.138 11.7052 105.83 11.7372C105.519 11.77 105.235 11.7865 104.975 11.7865C103.674 11.9172 102.552 12.7322 101.608 14.232C100.858 15.4383 100.387 16.694 100.193 17.9976V0.683594L90.8217 1.51467V1.95512C92.8396 1.95512 94.1403 2.03756 94.7256 2.20146C94.9218 2.26696 95.1328 2.46361 95.3609 2.79056C95.491 2.95475 95.5641 3.18415 95.5803 3.47934C95.5965 3.77424 95.6052 4.13394 95.6052 4.56028V30.2653C95.6052 31.0516 95.5072 31.527 95.3124 31.6909C94.758 31.8878 94.0995 32.0185 93.3356 32.084C92.5703 32.1499 91.7171 32.182 90.7732 32.182V32.622H103.804V32.182C103.316 32.182 102.755 32.1499 102.12 32.084C101.486 32.0185 101.046 31.9368 100.803 31.8378C100.559 31.7403 100.404 31.6419 100.339 31.5432C100.241 31.3465 100.193 30.9213 100.193 30.2653V20.435C100.485 18.2725 101.038 16.4372 101.852 14.9297C102.828 13.1275 103.999 12.2263 105.365 12.2263C106.634 12.2263 107.496 12.7678 107.953 13.848C108.245 14.5368 108.392 15.585 108.392 16.9947V30.2655C108.392 31.0518 108.294 31.5271 108.099 31.691C107.578 31.8879 106.977 32.0186 106.293 32.0842C105.61 32.1501 105.007 32.1821 104.488 32.1821V32.6222V32.622ZM94.3003 37.2801H90.7722V37.3629C91.2485 37.3629 91.5846 37.3999 91.7805 37.4732C91.8412 37.4979 91.8771 37.5229 91.8894 37.5472C91.9143 37.5962 91.9267 37.7067 91.9267 37.8784V41.5313C91.9267 42.0957 92.1838 42.5373 92.697 42.8567C93.1608 43.1453 93.7387 43.2894 94.4294 43.2894C94.7968 43.2894 95.1475 43.1721 95.4836 42.9392C95.966 42.6019 96.2078 42.102 96.2078 41.4394V38.6789C96.2078 38.2434 96.2623 37.9338 96.3727 37.7495C96.5253 37.4915 96.8318 37.3629 97.2892 37.3629V37.2801H94.8237V37.3629C95.2692 37.3629 95.5902 37.4842 95.7863 37.7259C95.9822 37.968 96.0789 38.4045 96.0789 39.0351V41.433C96.0789 42.021 95.8683 42.4744 95.4464 42.7929C95.1475 43.0195 94.8387 43.1329 94.5212 43.1329C93.9471 43.1329 93.5491 42.9736 93.3294 42.6551C93.146 42.3916 93.0542 41.9537 93.0542 41.3413V37.8777C93.0542 37.7121 93.069 37.6018 93.1003 37.5465C93.1125 37.5222 93.1582 37.4947 93.2377 37.464C93.3172 37.4334 93.4437 37.4087 93.6184 37.3908C93.7921 37.3721 94.0203 37.3629 94.3005 37.3629V37.2801H94.3003ZM71.0577 27.6823C71.0577 26.5736 71.5229 25.7744 72.4555 25.2858C73.1639 24.9268 74.0804 24.7471 75.2049 24.7471C76.5394 25.2693 77.9544 25.53 79.4513 25.53C81.5659 25.53 83.4696 24.96 85.1613 23.8181C87.0478 22.5465 87.9916 20.9167 87.9916 18.9271C87.9916 17.5903 87.6257 16.4168 86.894 15.4056C86.1621 14.3951 85.1613 13.5798 83.8925 12.9596C83.8925 12.6355 83.8753 12.1314 83.8443 11.4486C83.8443 10.635 83.9483 9.99351 84.1604 9.522C84.3727 9.05021 84.8031 8.76589 85.4541 8.66834C85.356 8.83393 85.2756 8.99981 85.2098 9.16512C85.1441 9.33001 85.1131 9.51184 85.1131 9.70976C85.1131 10.7681 85.6651 11.2969 86.7724 11.2969C87.8449 11.2969 88.3822 10.7184 88.3822 9.56068C88.3822 9.03185 88.2037 8.60227 87.8451 8.27151C87.4869 7.94131 87.0649 7.77544 86.5762 7.77544C85.4703 7.77544 84.6491 8.01218 84.1122 8.48468C83.575 8.95746 83.3071 9.96019 83.3071 11.4925V12.6664C82.7207 12.4057 82.0869 12.1939 81.4035 12.0305C80.72 11.8677 80.069 11.7862 79.4513 11.7862C77.3691 11.7862 75.4655 12.4547 73.7413 13.7914C71.8539 15.2585 70.9102 17.0359 70.9102 19.1224C70.9102 20.3623 71.2041 21.4052 71.7894 22.2532C72.3747 23.1012 73.1871 23.7859 74.2288 24.3072C72.7318 24.3072 71.577 24.747 70.7635 25.6277C69.95 26.5082 69.5443 27.6332 69.5443 29.0027C69.5443 30.3074 70.0158 31.3671 70.9596 32.1817C71.6427 32.7687 72.6994 33.3229 74.1321 33.8447C72.5371 34.301 71.3665 34.741 70.6172 35.1652C69.5443 35.7842 69.0074 36.5505 69.0074 37.4644C69.0074 38.8653 69.9834 40.1129 71.9355 41.2057C73.8878 42.2976 76.5057 42.8445 79.7921 42.8445C82.5577 42.8445 84.7955 42.1915 86.5028 40.8877C88.2107 39.583 89.0653 37.7245 89.0653 35.3122C89.0653 33.0291 88.1238 31.3992 86.2423 30.4209C84.7493 29.6384 82.559 29.2469 79.6717 29.2469H76.848C74.577 29.2469 73.053 29.1004 72.274 28.8072C71.4629 28.5464 71.0572 28.1709 71.0572 27.6822L71.0577 27.6823ZM80.0632 33.6493C82.7209 33.6493 84.5437 33.9273 85.5323 34.4853C86.5209 35.042 87.0156 36.1078 87.0156 37.682C87.0156 38.9933 86.4105 40.1086 85.1988 41.0273C83.9859 41.9448 82.2819 42.4043 80.0843 42.4043C76.9168 42.4043 74.734 41.8821 73.5384 40.8393C72.7623 40.1543 72.3752 39.1273 72.3752 37.7578C72.3752 36.3224 72.8462 35.3123 73.7901 34.725C74.9249 34.0077 77.016 33.6493 80.0633 33.6493H80.0632ZM75.3031 18.6826C75.3031 16.6789 75.6329 15.1015 76.2917 13.9512C76.95 12.8022 78.0041 12.2263 79.4515 12.2263C81.0268 12.2263 82.1366 12.8347 82.7803 14.0499C83.326 15.0684 83.6002 16.613 83.6002 18.6827C83.6002 20.8847 83.2778 22.5033 82.6352 23.5381C81.9915 24.5726 80.9312 25.0901 79.4515 25.0901C77.8108 25.0901 76.7094 24.598 76.1475 23.6118C75.5847 22.6263 75.303 20.9835 75.303 18.6828L75.3031 18.6826ZM53.8788 32.622H68.1297V32.182C65.9817 32.182 64.5668 32.0675 63.8833 31.8378C63.6552 31.7403 63.5089 31.6419 63.4442 31.5432C63.3466 31.3465 63.298 30.9213 63.298 30.2653V11.7372L53.8788 12.5202V12.9599C55.961 12.9599 57.2954 13.0428 57.8808 13.2061C58.0756 13.2716 58.2877 13.4694 58.5158 13.7981C58.6449 13.9629 58.7105 14.3572 58.7105 14.9808V30.2601C58.7105 31.0482 58.6125 31.5257 58.4177 31.6894C57.8648 31.8864 57.2048 32.0175 56.4409 32.0837C55.6756 32.1492 54.8223 32.182 53.8789 32.182V32.622H53.8788ZM64.8905 5.27023C64.8905 5.25089 64.8954 5.23154 64.8978 5.21206C64.8978 5.10703 64.8978 5.00172 64.8978 4.89669C64.8929 4.84346 64.8879 4.78996 64.8841 4.73674C64.8409 4.14411 64.6757 3.58677 64.393 3.06528C64.1487 2.61255 63.8299 2.21755 63.4382 1.88326C62.8476 1.37985 62.1719 1.06235 61.4066 0.93657C61.2628 0.912289 61.1152 0.90382 60.9689 0.888291C60.9454 0.885468 60.9218 0.882646 60.8981 0.879823C60.7927 0.879823 60.6886 0.879823 60.5832 0.879823C60.4877 0.88787 60.392 0.894643 60.2967 0.905513C59.5985 0.980193 58.9573 1.21524 58.3804 1.61716C57.5967 2.16363 57.0572 2.89545 56.7656 3.80756C56.6577 4.14397 56.5983 4.48998 56.5821 4.84234C56.5811 4.86069 56.5772 4.8789 56.5748 4.89654C56.5748 5.00158 56.5748 5.10689 56.5748 5.21192C56.5811 5.27361 56.5861 5.33559 56.591 5.39728C56.6392 5.98187 56.8029 6.53243 57.0856 7.04545C57.5261 7.84235 58.1572 8.43753 58.9794 8.82758C59.4719 9.06051 59.9901 9.18728 60.5337 9.21368C60.5495 9.21439 60.5671 9.2182 60.5833 9.22032C60.6887 9.22032 60.7929 9.22032 60.8983 9.22032C60.9886 9.21255 61.0803 9.20521 61.1721 9.19533C61.6509 9.14606 62.1062 9.01604 62.539 8.80598C62.9767 8.59493 63.3662 8.31527 63.7048 7.96743C64.2455 7.4122 64.6075 6.75717 64.7862 6.00106C64.8435 5.76037 64.8779 5.51699 64.8906 5.26994L64.8905 5.27023ZM61.8991 1.3862C61.8916 1.39636 61.8853 1.40808 61.8765 1.41613C61.8519 1.44041 61.822 1.44718 61.7996 1.41712C61.7701 1.37985 61.7589 1.39523 61.7441 1.42841C61.7229 1.47457 61.6857 1.50238 61.6387 1.52215C61.621 1.52921 61.6053 1.54459 61.5926 1.56012C61.574 1.5844 61.5543 1.61052 61.543 1.63903C61.5082 1.7236 61.4453 1.75847 61.357 1.76553C61.3285 1.76793 61.2962 1.7884 61.2765 1.81028C61.1897 1.90783 61.1078 2.00933 61.0248 2.10942C60.9876 2.15417 60.9837 2.15487 60.9356 2.12071C60.8439 2.0562 60.8051 1.95935 60.7767 1.85686C60.7531 1.76877 60.7443 1.6828 60.7915 1.59725C60.8126 1.55744 60.8251 1.51339 60.8414 1.47076C60.8512 1.44295 60.8463 1.42149 60.8101 1.4222C60.7727 1.42319 60.7344 1.4253 60.6972 1.42742C60.7099 1.45947 60.7197 1.49335 60.7345 1.52356C60.7557 1.56196 60.7545 1.58666 60.7148 1.61405C60.6565 1.65457 60.6045 1.70242 60.5525 1.74971C60.525 1.774 60.5113 1.77823 60.4829 1.7476C60.4519 1.71343 60.4109 1.67743 60.3676 1.66755C60.3215 1.65626 60.2684 1.67419 60.2175 1.68124C60.2027 1.68308 60.1876 1.69183 60.1728 1.69423C60.1345 1.6996 60.0973 1.702 60.0698 1.66388C60.0502 1.63607 60.0242 1.64553 60.0016 1.66078C59.9496 1.69819 59.8976 1.73729 59.8456 1.7764C59.8355 1.78247 59.8255 1.78868 59.8172 1.79475C59.7329 1.84867 59.6991 1.93677 59.7254 2.03361C59.7412 2.08782 59.7809 2.10942 59.8329 2.08641C59.9198 2.049 60.003 2.0082 60.0439 1.91305C60.0477 1.90387 60.0773 1.89582 60.0874 1.90105C60.1518 1.93761 60.2003 1.91121 60.2474 1.86788C60.2744 1.84388 60.3043 1.82242 60.3367 1.80618C60.3701 1.78924 60.3986 1.80265 60.4235 1.83046C60.4506 1.86209 60.4816 1.89173 60.5139 1.91884C60.5574 1.95582 60.5659 1.98476 60.5388 2.03728C60.5226 2.06834 60.5026 2.09756 60.4868 2.1289C60.4805 2.14019 60.4829 2.15572 60.4816 2.16913C60.4943 2.16941 60.5079 2.17195 60.5188 2.16941C60.5708 2.15925 60.5736 2.15925 60.5623 2.21063C60.5497 2.26837 60.5388 2.32823 60.5139 2.38117C60.4731 2.47138 60.3937 2.48973 60.3107 2.43651C60.2175 2.37665 60.2003 2.38117 60.1331 2.47279C60.1208 2.49072 60.0973 2.50766 60.0762 2.51119C60.0139 2.52177 59.951 2.53194 59.8878 2.53053C59.7824 2.52799 59.6881 2.5637 59.594 2.6014C59.5528 2.61862 59.5121 2.64092 59.4698 2.65532C59.4473 2.66309 59.4188 2.66831 59.4002 2.65984C59.3628 2.64332 59.3419 2.66167 59.3172 2.68059C59.2142 2.76021 59.1013 2.82148 58.9786 2.86284C58.9526 2.87202 58.94 2.88529 58.9364 2.91324C58.9216 3.02109 58.904 3.12895 58.8854 3.23666C58.883 3.25177 58.8692 3.27435 58.8584 3.2769C58.8422 3.28042 58.8137 3.27266 58.8074 3.26038C58.7814 3.21422 58.7539 3.16636 58.7417 3.11526C58.7093 2.97126 58.6288 2.89785 58.4801 2.89997C58.2692 2.90279 58.1078 3.00288 57.9914 3.17158C57.9444 3.24104 57.9366 3.32941 57.9552 3.41398C57.969 3.4792 58.0224 3.51152 58.094 3.50418C58.1204 3.50178 58.1476 3.49684 58.1735 3.49148C58.2158 3.48202 58.2442 3.49924 58.2652 3.53481C58.2854 3.57011 58.2726 3.60286 58.2481 3.62813C58.2196 3.65566 58.1873 3.67881 58.1563 3.70351C58.1067 3.74375 58.1067 3.78483 58.1612 3.81772C58.1921 3.83636 58.1984 3.85725 58.1961 3.8907C58.1897 3.95804 58.1887 4.02595 58.1887 4.09399C58.1897 4.15738 58.2197 4.20538 58.2717 4.23912C58.3051 4.26057 58.3385 4.28316 58.3747 4.2994C58.4752 4.34485 58.5509 4.32128 58.6142 4.23107C58.681 4.1338 58.7296 4.1331 58.8272 4.20072C58.8954 4.24872 58.9749 4.28528 59.0544 4.31281C59.1574 4.3481 59.2491 4.39426 59.3185 4.48052C59.3361 4.50084 59.3631 4.51496 59.3891 4.52527C59.5417 4.58654 59.6755 4.67321 59.775 4.80648C59.7936 4.83048 59.8148 4.85406 59.8232 4.88187C59.8668 5.0253 59.9747 5.1323 60.0405 5.26345C60.0478 5.27785 60.069 5.29055 60.0862 5.29437C60.2324 5.32641 60.3703 5.37935 60.4869 5.4769C60.5921 5.56428 60.6072 5.6168 60.5699 5.7478C60.5439 5.83519 60.4954 5.90705 60.4223 5.96055C60.3889 5.98525 60.3677 6.01589 60.3555 6.05457C60.3343 6.11372 60.3094 6.17117 60.2897 6.23046C60.2499 6.35512 60.168 6.45549 60.0836 6.54937C60.0404 6.59934 59.9633 6.63111 59.8952 6.64692C59.801 6.66936 59.7329 6.71383 59.6819 6.79599C59.6372 6.86926 59.5814 6.93618 59.5381 7.01057C59.4774 7.11306 59.3993 7.19269 59.2987 7.25678C59.2105 7.31282 59.1315 7.38256 59.053 7.45159C59.0221 7.47912 59 7.51964 58.9774 7.5562C58.9588 7.58514 58.9514 7.62001 58.9342 7.64853C58.8857 7.72433 58.8846 7.80282 58.9043 7.88852C58.9268 7.97872 58.9401 8.07133 58.9577 8.16366C58.965 8.20064 58.9539 8.21222 58.918 8.19782C58.8782 8.18158 58.8399 8.16182 58.8062 8.13683C58.6849 8.04733 58.5943 7.92818 58.5261 7.79506C58.5025 7.74791 58.504 7.68791 58.4951 7.63328C58.4814 7.55295 58.4727 7.47263 58.4441 7.39371C58.4229 7.33513 58.4279 7.26581 58.4308 7.20129C58.4332 7.14214 58.4456 7.08328 58.4553 7.02441C58.4652 6.96357 58.4666 6.90639 58.449 6.8423C58.4332 6.77778 58.449 6.7031 58.4579 6.63365C58.4727 6.51662 58.4937 6.40114 58.5099 6.28524C58.5124 6.27254 58.5075 6.25461 58.5 6.24684C58.4195 6.17216 58.4107 6.07871 58.4356 5.98017C58.4441 5.94276 58.4342 5.92526 58.4043 5.90436C58.2557 5.80004 58.1515 5.65491 58.0549 5.50443C58.0412 5.48297 58.0347 5.45445 58.0313 5.42791C58.0212 5.36382 58.0151 5.29973 58.0078 5.23592C57.9927 5.11127 58.0038 4.99283 58.0859 4.88892C58.134 4.82695 58.1776 4.75961 58.2234 4.69482C58.2744 4.62225 58.2993 4.54052 58.2979 4.45144C58.297 4.40527 58.2793 4.36617 58.2396 4.33906C58.2283 4.33102 58.2185 4.32 58.2062 4.31407C58.1156 4.26791 58.0709 4.19253 58.0625 4.09385C58.0551 4.02411 58.0213 3.9716 57.9633 3.93489C57.9235 3.90849 57.9197 3.87391 57.927 3.8317C57.9421 3.74685 57.9407 3.74756 57.8652 3.70987C57.7847 3.67006 57.7088 3.62319 57.6542 3.54921C57.6208 3.50489 57.6032 3.4552 57.6096 3.39873C57.6145 3.34494 57.6194 3.29101 57.6282 3.23807C57.6429 3.15704 57.6194 3.08801 57.5722 3.0235C57.5167 2.94712 57.5167 2.94642 57.5687 2.8699C58.0496 2.17831 58.6849 1.69028 59.4784 1.40808C59.8679 1.26959 60.2795 1.20098 60.7313 1.19562C61.1194 1.19703 61.4977 1.25237 61.8685 1.36756C61.8793 1.37067 61.8882 1.37956 61.8995 1.38592L61.8991 1.3862ZM64.5828 5.01301C64.574 5.88361 64.3336 6.6376 63.8474 7.31127C63.5585 7.71191 63.2037 8.04296 62.7871 8.30864C62.7847 8.31005 62.7819 8.31217 62.7794 8.3133C62.7695 8.31682 62.7597 8.32035 62.7498 8.32417C62.7559 8.31499 62.7621 8.30581 62.767 8.29636C62.7894 8.25626 62.819 8.21787 62.8328 8.17453C62.8415 8.14672 62.8352 8.1045 62.818 8.0798C62.7905 8.03745 62.787 7.99835 62.8057 7.95571C62.8504 7.8504 62.8975 7.74537 62.9431 7.64076C62.9617 7.60024 62.9791 7.56001 62.9991 7.52133C63.0275 7.46529 63.0301 7.40755 63.0163 7.34797C63.005 7.30082 62.9951 7.25353 62.9868 7.20595C62.9605 7.0566 63.0325 6.93985 63.1155 6.82818C63.1418 6.79472 63.1738 6.76621 63.2024 6.73445C63.293 6.63266 63.329 6.51803 63.2794 6.38491C63.2657 6.34962 63.2558 6.31192 63.241 6.27677C63.2013 6.17781 63.2076 6.08054 63.247 5.983C63.262 5.9446 63.273 5.90507 63.2892 5.86737C63.3264 5.78112 63.324 5.69402 63.3019 5.60522C63.293 5.56852 63.2746 5.56259 63.2422 5.57487C63.2274 5.58193 63.2112 5.59322 63.195 5.59252C63.1738 5.59223 63.1444 5.58969 63.1307 5.57558C63.0945 5.53478 63.0488 5.51953 62.9992 5.51883C62.9075 5.51671 62.8143 5.51318 62.7239 5.52278C62.5825 5.5369 62.4571 5.49948 62.3492 5.41535C62.2167 5.31215 62.0926 5.19837 61.9684 5.08416C61.9449 5.06299 61.9364 5.01866 61.9336 4.98308C61.9188 4.82695 61.956 4.67688 61.9919 4.5264C62.0131 4.43407 62.0282 4.34076 62.0455 4.24773C62.0479 4.23389 62.0479 4.21709 62.0415 4.2058C62.0131 4.15653 62.0331 4.11347 62.0552 4.07014C62.1072 3.96793 62.1867 3.89607 62.296 3.86233C62.3417 3.84821 62.379 3.82534 62.404 3.78624C62.4708 3.68121 62.5651 3.62672 62.6853 3.59425C62.8553 3.5471 63.0213 3.53891 63.189 3.59608C63.2136 3.60526 63.2422 3.60526 63.2681 3.6071C63.3253 3.61133 63.3824 3.60851 63.4368 3.62079C63.4838 3.63138 63.531 3.65241 63.5706 3.67994C63.6539 3.7381 63.732 3.80502 63.8139 3.86459C63.836 3.88083 63.867 3.89 63.8943 3.8924C63.9762 3.90016 64.0582 3.9013 64.1397 3.90751C64.1671 3.90934 64.171 3.89946 64.1686 3.87645C64.1535 3.7405 64.0519 3.63646 63.9155 3.62107C63.8374 3.61232 63.8061 3.58366 63.784 3.50446C63.78 3.49006 63.7727 3.47623 63.7678 3.46211C63.7565 3.47228 63.7457 3.48258 63.7344 3.49176C63.7132 3.5094 63.6922 3.5262 63.6711 3.54314C63.6549 3.51985 63.6352 3.49811 63.6215 3.47312C63.6078 3.44884 63.6015 3.42061 63.5906 3.39421C63.5794 3.36809 63.5632 3.36315 63.5434 3.38644C63.5347 3.39746 63.526 3.41285 63.5147 3.41708C63.4886 3.42724 63.4592 3.44136 63.4342 3.43642C63.4018 3.42978 63.3797 3.40296 63.3773 3.36457C63.3759 3.33252 63.3735 3.30005 63.3686 3.268C63.365 3.24231 63.3524 3.23553 63.3278 3.25036C63.3142 3.25812 63.2916 3.26024 63.2782 3.25502C63.2112 3.22678 63.1454 3.19728 63.0821 3.16382C63.0576 3.15041 63.0526 3.15676 63.0497 3.17793C63.0398 3.24485 63.0289 3.31176 63.0212 3.37953C63.0188 3.4144 63.0078 3.43487 62.9716 3.44051C62.9406 3.44475 62.9097 3.45181 62.8813 3.46197C62.7425 3.50856 62.6493 3.45844 62.5698 3.34113C62.5252 3.27548 62.4918 3.20307 62.451 3.13432C62.4374 3.10933 62.4447 3.09634 62.4668 3.08363C62.5501 3.03606 62.6369 3.00542 62.7361 3.00472C62.8142 3.00429 62.8725 2.94867 62.9259 2.89588C62.953 2.86835 62.9755 2.83419 62.9967 2.80073C63.004 2.78915 63.008 2.76656 63.0016 2.75527C62.9682 2.69189 62.9605 2.62667 62.9781 2.55792C62.9868 2.52375 62.9781 2.50159 62.9369 2.50441C62.932 2.50441 62.9261 2.50131 62.9212 2.50159C62.8403 2.50413 62.7833 2.47335 62.7535 2.39416C62.7412 2.35886 62.7039 2.35647 62.6744 2.35745C62.5935 2.35999 62.5514 2.31129 62.5405 2.24226C62.5267 2.15629 62.5255 2.06791 62.5229 1.98053C62.5219 1.96994 62.5429 1.95159 62.5563 1.94919C62.5985 1.94072 62.6407 1.93761 62.6829 1.93437C62.7426 1.93013 62.7771 1.9002 62.7873 1.84176C62.7933 1.80689 62.8045 1.80435 62.8343 1.82411C63.4158 2.2088 63.8647 2.71123 64.1787 3.33591C64.3932 3.76365 64.5197 4.21639 64.5644 4.6927C64.5757 4.81241 64.5792 4.93297 64.583 5.01329L64.5828 5.01301ZM53.3912 15.5525C53.3912 15.0631 53.2685 14.5093 53.0252 13.8895C52.7809 13.2702 52.3011 12.7568 51.5856 12.3485C50.8688 11.9412 50.2015 11.7372 49.5839 11.7372C47.9566 11.7372 46.6073 12.5532 45.5332 14.1832C44.7531 15.3571 44.2968 16.6124 44.1667 17.9492V11.7374L34.7485 12.4713V12.9118C36.8295 12.9118 38.1639 12.9942 38.7493 13.1573C38.9455 13.2232 39.156 13.4204 39.3843 13.7492C39.5148 13.9141 39.579 14.3246 39.579 14.9821V30.2604C39.579 31.0485 39.4824 31.526 39.2865 31.6897C38.7331 31.8867 38.0747 32.0178 37.3108 32.084C36.5455 32.1495 35.6913 32.1823 34.7487 32.1823V32.6223H48.9985V32.1823C46.8516 32.1823 45.4366 32.0678 44.7531 31.8381C44.525 31.7405 44.3787 31.6421 44.313 31.5435C44.2164 31.3468 44.1667 30.9216 44.1667 30.2656V21.1231C44.1667 18.3384 44.783 16.0606 46.0145 14.2912C46.9531 12.9156 47.8936 12.2265 48.8322 12.2265C49.8046 12.2265 50.3875 12.5693 50.5823 13.254C49.9906 13.124 49.4734 13.3515 49.0295 13.9385C48.5855 14.5255 48.3647 15.1125 48.3647 15.6995C48.3647 16.6127 48.5942 17.2977 49.0545 17.7539C49.5143 18.2106 50.0726 18.4385 50.73 18.4385C51.1564 18.4385 51.5014 18.3734 51.7643 18.2427C52.8495 17.7539 53.3913 16.8574 53.3913 15.5529L53.3912 15.5525ZM30.3629 19.1692C28.5461 17.4086 25.6911 16.2829 21.7984 15.7939C25.4939 15.24 28.0068 14.2944 29.336 12.9579C30.3418 11.9795 30.8441 10.5129 30.8441 8.55667C30.8441 6.95919 30.0146 5.41111 28.3551 3.91061C26.2729 2.02034 23.4749 1.07478 19.9614 1.07478H0.000141055V1.51481C3.18882 1.51481 5.25368 1.69522 6.19867 2.05464C6.5559 2.18636 6.76685 2.31679 6.83252 2.44752C6.96259 2.70967 7.02839 3.29835 7.02839 4.21342V29.3857C7.02839 30.3342 6.96259 30.9309 6.83252 31.1761C6.70217 31.4223 6.47403 31.6102 6.14907 31.7403C5.46562 32.0024 3.41682 32.1331 0 32.1331V32.6222H22.7431C25.6712 32.6222 28.1106 31.6927 30.0627 29.8338C31.7545 28.2363 32.6014 26.5233 32.6014 24.6975C32.6014 22.4476 31.8547 20.6046 30.3626 19.1692H30.3629ZM17.5517 15.6012H13.0313V4.22387C13.0313 3.27181 13.0711 2.63231 13.1527 2.30367C13.2336 1.97488 13.4356 1.76172 13.7604 1.66318C14.0829 1.56492 14.5852 1.51481 15.2673 1.51481H17.5987C20.2245 1.51481 22.0874 2.07356 23.1885 3.18951C24.2899 4.30603 24.8419 6.24345 24.8419 9.0015C24.8419 11.4646 24.161 13.2217 22.8004 14.2715C21.6656 15.1579 19.9156 15.6012 17.5518 15.6012H17.5517ZM26.4031 24.7248C26.4031 27.0142 25.8796 28.7973 24.8356 30.073C23.692 31.4791 21.962 32.182 19.6442 32.182C17.423 32.182 16.0102 32.1662 15.4062 32.133C14.8022 32.101 14.3126 32.0107 13.9367 31.8631C13.5623 31.7165 13.3166 31.5114 13.2027 31.2504C13.0884 30.9894 13.0315 30.3668 13.0315 29.3855V16.0415H18.8106C21.358 16.0415 23.2842 16.8431 24.5902 18.4458C25.7982 19.9178 26.4031 22.0099 26.4031 24.7247V24.7248ZM99.564 39.9184L97.3081 43.2064H100.782V41.2591H100.709C100.623 41.9542 100.445 42.4591 100.173 42.773C99.9761 43.0069 99.7367 43.1238 99.4526 43.1238H98.5287C98.3998 43.1238 98.3351 43.1115 98.3351 43.0868C98.3351 43.0685 98.4356 42.9121 98.6392 42.6176L100.938 39.2831H97.7944V40.9553H97.8577C97.968 40.2654 98.1465 39.8127 98.3972 39.5971C98.567 39.4487 98.8683 39.3752 99.3001 39.3752H99.6646C99.8109 39.3752 99.8841 39.3907 99.8841 39.4214L99.5642 39.9184H99.564ZM100.847 37.4458C101.213 37.4458 101.448 37.4613 101.552 37.4915C101.589 37.5038 101.625 37.5349 101.662 37.5839C101.7 37.6331 101.717 37.7188 101.717 37.8414V43.2894H101.79L102.185 42.5783C102.387 42.8641 102.578 43.0537 102.758 43.1481C102.939 43.2419 103.215 43.2894 103.587 43.2894C103.997 43.2894 104.359 43.0918 104.674 42.6965C104.989 42.3015 105.146 41.8252 105.146 41.2674C105.146 40.8331 105.024 40.4194 104.779 40.0277C104.468 39.5316 104.037 39.2831 103.487 39.2831C103.243 39.2831 103.03 39.4068 102.849 39.6541C102.67 39.9015 102.579 40.165 102.579 40.4461V37.2068L100.846 37.3629V37.4458H100.847ZM102.579 41.2125C102.579 40.6149 102.677 40.1475 102.873 39.8092C103.038 39.5199 103.243 39.375 103.487 39.375C103.713 39.375 103.887 39.5199 104.009 39.8092C104.132 40.0984 104.193 40.5874 104.193 41.2769C104.193 41.8554 104.138 42.3216 104.028 42.6756C103.917 43.0294 103.737 43.2063 103.487 43.2063C103.23 43.2063 103.034 43.1389 102.9 43.0033C102.686 42.7877 102.579 42.3906 102.579 41.8125V41.2125ZM106.09 39.807C105.699 40.2112 105.504 40.7351 105.504 41.3777C105.504 41.9722 105.702 42.4527 106.1 42.8202C106.436 43.133 106.808 43.2894 107.217 43.2894C107.707 43.2894 108.098 43.1422 108.392 42.848C108.685 42.5542 108.831 42.1774 108.831 41.7181H108.758C108.758 42.1927 108.603 42.5682 108.29 42.8459C108.034 43.0741 107.737 43.1879 107.401 43.1879C107.083 43.1879 106.846 43.0403 106.69 42.7446C106.535 42.4495 106.457 41.972 106.457 41.3136H108.813C108.813 40.536 108.62 39.9759 108.236 39.6323C107.973 39.3998 107.643 39.2831 107.246 39.2831C106.818 39.2831 106.432 39.4575 106.09 39.807H106.09ZM106.457 41.2036C106.457 40.5785 106.525 40.1175 106.66 39.8207C106.797 39.5237 107.031 39.375 107.364 39.375C107.6 39.375 107.769 39.5315 107.875 39.8436C107.981 40.1561 108.034 40.6096 108.034 41.2036H106.457ZM109.858 43.059C109.73 43.1024 109.482 43.1238 109.115 43.1238V43.2063H111.481V43.1238C111.407 43.1238 111.313 43.1175 111.196 43.1052C111.081 43.0929 111 43.0778 110.954 43.0588C110.908 43.0407 110.878 43.0218 110.866 43.0034C110.849 42.9664 110.839 42.8865 110.839 42.7634V41.5525L111.325 41.0564L112.187 42.7729C112.235 42.8711 112.26 42.9388 112.26 42.9755C112.26 43.0558 112.205 43.1008 112.095 43.1097C111.985 43.1196 111.83 43.1238 111.628 43.1238V43.2063H113.864V43.1238C113.632 43.1238 113.466 43.1038 113.365 43.0636C113.263 43.0237 113.18 42.9356 113.112 42.8004L111.939 40.4553L112.507 39.8923C112.734 39.6831 112.912 39.5446 113.044 39.4766C113.175 39.4089 113.356 39.375 113.59 39.375V39.2831H111.49V39.375C111.753 39.375 111.949 39.4075 112.076 39.4726C112.205 39.5371 112.269 39.6283 112.269 39.746C112.269 39.8885 112.177 40.049 111.994 40.2281L110.839 41.3873V37.207L109.125 37.3631V37.4459C109.492 37.4459 109.724 37.4615 109.822 37.4917C109.851 37.498 109.885 37.5273 109.922 37.5798C109.959 37.6316 109.977 37.719 109.977 37.8426V42.7643C109.977 42.9119 109.959 43.001 109.922 43.0317L109.858 43.059H109.858ZM115.589 38.0891C115.686 37.9909 115.734 37.8686 115.734 37.7212C115.734 37.5743 115.686 37.452 115.589 37.3538C115.492 37.2558 115.371 37.2068 115.225 37.2068C115.08 37.2068 114.959 37.2558 114.862 37.3538C114.765 37.452 114.717 37.5744 114.717 37.7212C114.717 37.8685 114.765 37.9907 114.862 38.0891C114.959 38.1871 115.08 38.2361 115.225 38.2361C115.37 38.2361 115.492 38.1871 115.589 38.0891ZM115.707 39.2831L113.938 39.4304V39.5128C114.329 39.5128 114.579 39.5284 114.69 39.559C114.725 39.5717 114.765 39.6087 114.809 39.6704C114.832 39.7013 114.845 39.775 114.845 39.8927V42.7627C114.845 42.9107 114.827 43.0006 114.79 43.0312C114.686 43.0678 114.562 43.0929 114.419 43.1052C114.276 43.1175 114.114 43.1238 113.938 43.1238V43.2063H116.614V43.1238C116.212 43.1238 115.945 43.102 115.817 43.059C115.774 43.0407 115.746 43.0225 115.734 43.0037C115.717 42.967 115.707 42.8867 115.707 42.7634V39.2831H115.707ZM119.979 39.5682V39.651H120.712V42.26C120.712 42.5908 120.797 42.8452 120.969 43.0228C121.14 43.2006 121.409 43.2894 121.776 43.2894C122.161 43.2894 122.42 43.1785 122.555 42.9582C122.653 42.799 122.702 42.5052 122.702 42.0761C122.695 41.9477 122.693 41.8128 122.693 41.6719V41.2498H122.582V41.6881C122.582 42.2004 122.555 42.5474 122.502 42.7307C122.424 42.9992 122.261 43.133 122.016 43.133C121.805 43.133 121.669 43.0167 121.61 42.7842C121.586 42.6869 121.574 42.473 121.574 42.143V39.651H122.628V39.3844H121.574V37.4459H121.418C121.418 37.9072 121.316 38.3225 121.112 38.6918C120.858 39.153 120.48 39.4451 119.979 39.5683L119.979 39.5682ZM123.433 41.5136C123.178 41.7405 123.05 42.0196 123.05 42.3508C123.05 42.6876 123.181 42.9395 123.444 43.1048C123.634 43.2277 123.856 43.2894 124.113 43.2894C124.369 43.2894 124.574 43.2588 124.728 43.1978C124.985 43.0949 125.177 42.8944 125.305 42.5967C125.354 42.8582 125.456 43.0431 125.61 43.1523C125.739 43.2435 125.935 43.2894 126.199 43.2894C126.537 43.2894 126.762 43.2126 126.872 43.059C126.958 42.9368 127.001 42.6979 127.001 42.3427C126.995 42.2264 126.993 42.1043 126.993 41.9753V41.5711H126.882V41.6531C126.882 41.7443 126.883 41.8328 126.887 41.9181C126.89 42.0029 126.891 42.0886 126.891 42.1735C126.891 42.4842 126.864 42.7216 126.809 42.8862C126.753 43.0504 126.647 43.1329 126.488 43.1329C126.31 43.1329 126.2 43.029 126.158 42.821C126.139 42.7358 126.131 42.5092 126.131 42.1428V40.1173C126.131 39.8851 126.027 39.6924 125.818 39.5402C125.586 39.3687 125.244 39.283 124.791 39.283C124.541 39.283 124.294 39.3231 124.05 39.4024C123.708 39.5127 123.493 39.6875 123.407 39.926C123.371 40.0366 123.353 40.135 123.353 40.2202C123.353 40.3978 123.442 40.5451 123.621 40.661C123.682 40.7043 123.753 40.7258 123.834 40.7258C123.958 40.7258 124.066 40.6827 124.157 40.5972C124.251 40.5109 124.296 40.4009 124.296 40.2663C124.296 40.1497 124.26 40.0453 124.187 39.9538C124.113 39.8618 124.019 39.8158 123.902 39.8158C123.866 39.8158 123.835 39.8193 123.811 39.8252C123.86 39.6875 123.964 39.5782 124.121 39.4969C124.28 39.4158 124.465 39.3749 124.674 39.3749C124.932 39.3749 125.101 39.4182 125.179 39.5046C125.256 39.5906 125.296 39.7566 125.296 40.0028V40.5383C125.296 40.7712 125.231 40.9213 125.104 40.9889C124.976 41.0562 124.73 41.1059 124.364 41.1362C124 41.1668 123.689 41.2926 123.433 41.5135L123.433 41.5136ZM123.92 42.2832C123.92 41.9506 123.981 41.6924 124.104 41.508C124.208 41.3537 124.348 41.2554 124.526 41.2124C124.66 41.1937 124.8 41.174 124.942 41.1518C125.086 41.1306 125.195 41.0705 125.269 40.9725V42.2004C125.269 42.477 125.175 42.7127 124.988 42.9068C124.802 43.1007 124.593 43.1972 124.361 43.1972C124.208 43.1972 124.097 43.1341 124.026 43.0084C123.957 42.8819 123.92 42.6402 123.92 42.2833V42.2832Z" fill="black"/>
</svg>
