<svg width="4" height="201" viewBox="0 0 4 201" fill="none" xmlns="http://www.w3.org/2000/svg">
<path d="M2 0C0.666667 2.77778 0.666667 5.55556 2 8.33333C3.33333 11.1111 3.33333 13.8889 2 16.6667C0.666667 19.4444 0.666667 22.2222 2 25C3.33333 27.7778 3.33333 30.5556 2 33.3333C0.666667 36.1111 0.666667 38.8889 2 41.6667C3.33333 44.4444 3.33333 47.2222 2 50C0.666667 52.7778 0.666667 55.5556 2 58.3333C3.33333 61.1111 3.33333 63.8889 2 66.6667C0.666667 69.4444 0.666667 72.2222 2 75C3.33333 77.7778 3.33333 80.5556 2 83.3333C0.666667 86.1111 0.666667 88.8889 2 91.6667C3.33333 94.4444 3.33333 97.2222 2 100C0.666667 102.778 0.666667 105.556 2 108.333C3.33333 111.111 3.33333 113.889 2 116.667C0.666667 119.444 0.666667 122.222 2 125C3.33333 127.778 3.33333 130.556 2 133.333C0.666667 136.111 0.666667 138.889 2 141.667C3.33333 144.444 3.33333 147.222 2 150C0.666667 152.778 0.666667 155.556 2 158.333C3.33333 161.111 3.33333 163.889 2 166.667C0.666667 169.444 0.666667 172.222 2 175C3.33333 177.778 3.33333 180.556 2 183.333C0.666667 186.111 0.666667 188.889 2 191.667C3.33333 194.444 3.33333 197.222 2 200" stroke="rgba(11, 33, 43, 0.1)" stroke-width="2"/>
</svg>
