<?xml version="1.0" standalone="no"?>
<!DOCTYPE svg PUBLIC "-//W3C//DTD SVG 20010904//EN"
 "http://www.w3.org/TR/2001/REC-SVG-20010904/DTD/svg10.dtd">
<svg version="1.0" xmlns="http://www.w3.org/2000/svg"
 width="544.000000pt" height="544.000000pt" viewBox="0 0 544.000000 544.000000"
 preserveAspectRatio="xMidYMid meet">
<metadata>
Created by potrace 1.14, written by Peter Selinger 2001-2017
</metadata>
<g transform="translate(0.000000,544.000000) scale(0.100000,-0.100000)"
fill="#000000" stroke="none">
<path d="M2535 5299 c-692 -55 -1357 -410 -1803 -964 l-72 -90 30 -9 c16 -5
30 -13 30 -17 0 -13 -28 -11 -32 2 -2 6 -21 -14 -42 -45 -44 -64 -74 -93 -63
-61 l7 20 -16 -20 c-25 -32 -55 -95 -80 -169 -27 -77 -29 -90 -14 -81 6 3 10
1 10 -5 0 -7 -6 -10 -12 -7 -7 2 -26 -2 -41 -10 -25 -13 -28 -18 -23 -47 5
-23 -2 -52 -22 -102 -16 -38 -46 -121 -67 -184 -20 -63 -48 -126 -60 -140 -28
-32 -37 -67 -22 -90 8 -14 7 -49 -6 -142 -9 -68 -20 -153 -23 -190 -5 -47 -12
-72 -25 -84 -23 -20 -25 -38 -4 -30 12 4 15 -3 15 -29 0 -39 -15 -47 -25 -14
-4 11 -9 18 -12 15 -3 -3 4 -29 17 -57 21 -50 22 -63 19 -250 -2 -108 -1 -193
2 -187 6 10 19 -25 19 -52 -1 -11 -4 -10 -15 4 -18 24 -20 13 -3 -17 6 -12 20
-49 30 -82 12 -40 16 -47 13 -22 -10 64 13 41 35 -35 12 -40 31 -103 42 -141
19 -62 19 -69 4 -92 -18 -27 -22 -75 -6 -75 6 0 10 8 10 19 0 10 6 23 13 29
11 9 21 -7 50 -79 20 -49 37 -95 37 -101 0 -16 -48 30 -71 67 -11 17 -19 23
-19 15 1 -24 22 -53 75 -102 28 -25 69 -80 92 -121 37 -67 41 -79 33 -109 -6
-18 -10 -44 -9 -58 0 -24 1 -23 12 6 7 17 21 40 31 50 18 18 19 18 13 1 -7
-18 67 -160 104 -200 18 -19 32 -57 21 -57 -3 0 -29 18 -56 41 -43 34 -41 31
12 -18 34 -32 62 -62 62 -66 0 -5 11 -23 25 -41 14 -18 25 -35 25 -38 0 -33
198 -248 265 -288 22 -14 63 -45 90 -70 28 -25 41 -35 31 -22 -11 12 -15 22
-9 22 12 0 55 -45 48 -51 -2 -3 12 -21 32 -40 28 -26 33 -28 20 -9 -31 46 -38
60 -29 60 18 0 244 -111 238 -117 -3 -3 0 -13 7 -21 6 -9 -10 -3 -36 12 -26
16 -50 26 -53 23 -3 -2 16 -25 41 -50 50 -50 60 -70 19 -38 -15 12 -31 21 -37
21 -20 0 7 -18 103 -71 106 -57 293 -135 475 -197 255 -87 631 -137 840 -112
50 6 104 11 120 11 17 0 37 3 45 6 8 3 28 7 44 9 16 2 34 11 40 19 7 9 24 15
41 14 17 -2 59 -1 95 0 60 3 62 4 30 12 -19 5 -47 6 -62 3 -28 -6 -74 17 -61
29 3 4 1 7 -5 7 -7 0 -12 6 -12 14 0 8 -12 29 -26 46 -15 17 -23 35 -18 39 5
4 38 16 74 26 55 15 87 16 217 10 84 -4 153 -11 153 -15 0 -4 -33 -23 -72 -43
-91 -44 -108 -50 -133 -49 -20 2 -20 2 0 -7 17 -7 15 -10 -18 -20 -21 -7 -36
-15 -34 -17 2 -2 49 14 104 36 55 22 106 40 112 40 7 0 9 5 5 11 -4 8 1 9 17
4 17 -4 20 -3 10 3 -11 8 -7 14 18 27 38 19 56 11 26 -12 -14 -11 -15 -14 -3
-10 9 3 19 3 22 0 8 -8 -23 -63 -36 -63 -6 0 -8 -3 -5 -7 9 -8 67 47 67 64 0
20 54 42 127 52 37 5 55 9 38 10 l-30 2 35 20 c35 20 31 20 -47 -8 -23 -8 -59
-13 -80 -11 l-38 3 100 77 c55 42 127 99 160 127 32 28 67 51 76 51 18 0 89
-76 89 -95 0 -6 -45 -33 -100 -60 -55 -27 -98 -50 -96 -52 2 -2 45 17 96 41
51 25 96 43 101 40 10 -6 1 -33 -20 -58 -15 -18 -15 -18 6 -8 12 7 27 29 33
49 7 21 24 48 38 61 l27 23 -29 -13 c-25 -11 -30 -10 -42 7 -22 30 -17 44 19
50 17 3 54 9 82 14 27 5 52 8 53 6 2 -2 -15 -16 -37 -31 -54 -35 -53 -42 2 -9
74 46 168 81 153 56 -4 -6 13 1 38 17 25 15 46 33 46 40 0 8 -9 6 -27 -7 -28
-20 -83 -38 -83 -28 0 3 33 31 73 62 l72 56 5 -32 5 -33 27 40 c29 42 248 268
288 297 22 16 22 16 3 7 -29 -13 -29 -7 -1 30 25 35 43 39 35 9 -4 -16 -3 -18
9 -8 8 6 14 27 14 47 0 29 10 45 58 96 32 34 78 95 102 136 24 41 58 93 77
114 26 31 33 49 33 81 0 43 75 230 151 375 40 78 81 231 115 435 13 73 14 100
5 103 -6 2 -8 9 -4 15 5 7 9 32 10 57 0 25 4 90 8 146 13 183 -27 496 -95 738
-165 587 -542 1110 -1033 1436 -111 74 -120 78 -172 78 -31 0 -64 6 -77 14
-13 8 -60 29 -105 47 -46 18 -83 35 -83 37 0 2 30 1 68 -3 37 -3 63 -2 59 3
-4 4 -35 9 -68 10 -42 2 -67 8 -85 23 -15 11 -31 18 -36 15 -5 -3 -30 11 -56
31 l-47 37 40 -37 c32 -29 37 -38 25 -45 -13 -8 -12 -10 3 -10 18 0 57 -34 57
-50 0 -13 -123 32 -128 48 -2 7 7 12 25 13 l28 1 -30 7 c-16 4 -39 12 -50 18
-11 6 -29 7 -40 2 -20 -7 -20 -8 1 -8 11 -1 29 -10 39 -21 22 -24 17 -24 -49
-5 -28 8 -70 20 -93 25 -60 15 -56 34 5 27 26 -3 40 -3 32 1 -21 10 -25 42 -5
42 9 0 15 9 15 25 0 21 -7 27 -52 40 -102 29 -226 55 -329 70 -129 18 -141 18
-109 0 l25 -14 -38 -1 c-24 0 -40 5 -43 15 -4 8 -15 15 -26 15 -28 0 -8 -23
33 -40 43 -18 19 -30 -63 -30 -69 0 -168 17 -168 28 0 15 62 33 98 29 20 -2
29 -2 20 0 -10 2 -18 9 -18 14 0 11 -141 10 -295 -2z m279 -78 c20 -8 26 -15
19 -22 -12 -12 -181 17 -198 34 -14 13 142 3 179 -12z m311 -91 c-3 -5 -11
-10 -17 -10 -5 0 -21 -9 -35 -20 -18 -14 -41 -20 -76 -20 -61 0 -54 11 23 38
61 22 115 28 105 12z m151 -20 c91 -24 105 -33 81 -57 -23 -24 -168 -23 -192
1 -9 9 -27 16 -40 16 -38 0 -39 18 -3 40 41 25 56 25 154 0z m81 9 c43 -17 14
-21 -37 -5 -37 11 -40 14 -18 15 15 1 39 -4 55 -10z m-577 -9 c0 -5 -2 -10 -4
-10 -3 0 -8 5 -11 10 -3 6 -1 10 4 10 6 0 11 -4 11 -10z m-24 -31 l28 -10 -30
-19 c-35 -24 -48 -25 -40 -4 4 11 -1 18 -14 21 -11 3 -20 9 -20 14 0 12 43 11
76 -2z m114 -14 c0 -23 4 -25 48 -26 26 -1 53 -1 60 0 20 3 14 -6 -23 -35 -33
-25 -37 -26 -87 -14 -29 7 -64 17 -77 22 -23 8 -23 9 20 43 52 42 59 43 59 10z
m-420 -4 c0 -5 -7 -11 -15 -15 -8 -3 -15 -15 -15 -26 0 -11 -2 -20 -4 -20 -2
0 -13 -3 -23 -7 -17 -6 -17 -6 0 15 11 11 16 26 12 32 -4 7 -1 16 6 21 18 11
39 11 39 0z m978 -13 c-6 -18 -28 -21 -28 -4 0 9 7 16 16 16 9 0 14 -5 12 -12z
m-870 -40 c23 0 65 3 92 7 28 4 50 3 50 -2 0 -5 -15 -23 -32 -39 -64 -59 -61
-58 -135 -34 -82 27 -88 32 -73 59 8 17 17 20 33 15 12 -4 41 -7 65 -6z m-398
-17 c25 -6 72 -7 105 -4 74 7 65 -4 -32 -41 -40 -15 -73 -29 -73 -31 0 -3 19
-9 42 -16 l42 -11 -24 -19 c-63 -50 -61 -49 -125 -33 -68 18 -93 34 -53 34 14
0 28 6 31 14 5 11 -1 12 -29 4 -42 -11 -74 -3 -74 20 1 26 25 52 49 52 12 0
25 8 28 18 9 23 24 32 48 27 11 -3 40 -9 65 -14z m1515 9 c3 -5 1 -10 -4 -10
-6 0 -11 5 -11 10 0 6 2 10 4 10 3 0 8 -4 11 -10z m-1685 -10 c-34 -11 -60
-11 -35 0 11 5 29 8 40 8 16 0 15 -2 -5 -8z m839 -6 c40 -9 71 -20 69 -24 -2
-4 -22 -28 -46 -54 l-42 -46 -80 22 -81 21 48 49 c26 26 50 48 54 48 4 0 39
-7 78 -16z m921 -4 c12 -8 11 -10 -7 -10 -12 0 -25 5 -28 10 -8 13 15 13 35 0z
m-90 -21 c0 -6 -4 -7 -10 -4 -5 3 -10 11 -10 16 0 6 5 7 10 4 6 -3 10 -11 10
-16z m-1316 -4 c-22 -16 -44 -19 -44 -6 0 11 18 19 44 20 20 1 20 1 0 -14z
m124 -27 c14 -13 22 -17 18 -10 -4 7 -2 12 6 12 24 0 88 -21 88 -28 0 -4 -28
-39 -61 -77 -34 -39 -63 -72 -65 -74 -2 -2 -62 11 -134 29 -129 32 -131 33
-113 52 23 25 66 48 91 48 21 0 56 33 45 43 -3 4 2 14 13 22 26 21 80 12 112
-17z m555 -8 c19 -16 41 -30 49 -30 7 0 22 -6 33 -14 11 -7 22 -14 25 -14 43
-5 59 -43 31 -73 l-20 -22 -146 38 c-80 21 -145 43 -145 49 0 6 19 30 41 54
50 52 83 55 132 12z m-300 -56 c34 -9 63 -17 65 -19 6 -5 -110 -155 -117 -151
-3 2 -41 11 -83 21 -43 9 -78 21 -78 26 0 20 123 150 136 145 8 -3 43 -13 77
-22z m488 10 c7 -9 21 -13 33 -10 38 9 51 -8 40 -51 -5 -21 -13 -38 -19 -38
-10 0 -85 95 -85 108 0 12 17 8 31 -9z m-1391 -3 c0 -19 -30 -33 -60 -26 -52
11 -33 31 33 34 15 0 27 -3 27 -8z m206 -41 c48 -11 91 -23 96 -26 5 -3 -1
-17 -14 -31 -18 -19 -29 -23 -53 -19 -57 12 -225 68 -225 76 0 25 87 25 196 0z
m-268 -4 c3 -3 -24 -32 -59 -63 -35 -32 -100 -92 -144 -134 l-80 -76 -58 16
-57 16 57 56 c147 142 236 200 296 194 21 -2 41 -6 45 -9z m1345 -71 c36 -10
57 -21 57 -30 0 -8 5 -15 10 -15 6 0 10 -6 10 -13 0 -7 9 -33 21 -56 24 -50
19 -95 -9 -87 -9 3 -118 33 -241 66 -124 33 -227 63 -229 65 -6 5 14 36 66
101 l41 52 108 -33 c59 -19 134 -41 166 -50z m-1199 24 c56 -17 111 -35 124
-40 22 -8 17 -16 -95 -139 -65 -71 -125 -130 -133 -130 -8 0 -74 16 -147 36
-97 27 -130 40 -126 50 5 14 261 254 271 254 3 0 50 -14 106 -31z m-354 7 c-8
-8 -60 -53 -114 -100 -85 -74 -104 -86 -135 -86 -59 0 -71 16 -26 34 20 9 41
16 45 16 4 0 24 20 45 45 21 24 42 42 47 39 5 -3 16 0 25 8 22 18 95 55 113
57 13 1 13 -1 0 -13z m750 -21 c138 -33 133 -31 121 -52 -34 -58 -27 -57 -167
-18 -70 20 -132 39 -137 42 -14 8 34 53 57 53 12 0 68 -11 126 -25z m1176 -12
c51 -17 83 -36 110 -64 21 -21 35 -41 32 -44 -5 -5 -232 51 -285 70 -9 3 -10
12 -2 33 13 37 48 39 145 5z m-1254 -69 c67 -19 126 -39 130 -42 6 -6 -144
-238 -171 -265 -8 -8 -310 68 -324 82 -11 11 208 261 231 261 5 0 66 -16 134
-36z m422 -14 c5 -5 -1 -24 -13 -44 l-22 -34 -85 23 c-47 13 -88 25 -90 27 -2
2 10 20 26 40 l29 35 73 -19 c40 -11 77 -24 82 -28z m851 -21 c83 -23 159 -46
169 -52 18 -9 18 -10 -5 -22 -18 -10 -27 -10 -37 -2 -8 6 -32 12 -53 12 -38 1
-39 1 -54 -52 -10 -33 -21 -53 -30 -53 -8 0 -58 12 -110 27 -75 21 -94 30 -91
42 3 9 13 46 22 83 10 40 21 65 28 63 6 -2 79 -23 161 -46z m-541 -50 c127
-34 235 -65 239 -69 7 -6 -8 -90 -17 -90 -9 0 -521 141 -524 145 -9 8 40 75
55 75 9 0 120 -28 247 -61z m-436 0 c40 -13 71 -26 70 -30 -2 -4 -37 -65 -78
-137 l-74 -129 -95 24 c-53 14 -98 26 -100 28 -3 4 114 187 156 243 14 18 30
31 37 29 6 -2 44 -15 84 -28z m-1252 -29 c24 -10 25 -12 12 -28 -8 -9 -44 -51
-79 -92 -36 -41 -91 -109 -122 -151 l-57 -76 -47 8 c-57 11 -57 12 -43 41 l11
23 -19 -24 c-17 -20 -25 -23 -58 -17 -57 10 -74 16 -74 26 0 5 34 50 76 99
113 135 173 175 102 68 -20 -29 -46 -73 -58 -98 l-22 -44 27 25 c15 14 48 54
73 90 63 90 80 108 132 142 47 31 81 32 146 8z m1651 -80 c127 -34 236 -65
242 -69 7 -5 -1 -50 -28 -144 -21 -76 -40 -140 -43 -142 -5 -5 -597 150 -605
158 -2 3 29 64 69 136 72 129 74 132 104 127 16 -2 134 -32 261 -66z m-1539
44 c32 -9 59 -18 60 -19 2 -2 -25 -39 -60 -82 -49 -59 -162 -207 -185 -242 -5
-8 -112 11 -127 22 -14 11 -5 26 76 128 89 111 169 206 176 208 2 1 29 -6 60
-15z m-435 -39 c-15 -19 -32 -35 -37 -35 -5 0 -17 -6 -26 -12 -9 -7 6 8 34 35
27 26 51 47 53 47 2 0 -9 -16 -24 -35z m2633 10 c3 -14 4 -32 0 -40 -9 -24
-36 -6 -36 24 0 46 26 57 36 16z m-177 -26 c64 -17 120 -35 125 -39 5 -6 4
-16 -4 -25 -12 -14 -11 -18 1 -25 11 -7 15 -3 17 20 4 36 13 37 45 8 35 -33
72 -98 55 -98 -17 0 -377 95 -383 101 -5 6 16 89 23 89 3 0 57 -14 121 -31z
m-1765 -14 c70 -19 132 -37 136 -40 5 -3 -19 -45 -53 -94 -34 -49 -83 -123
-108 -164 l-47 -75 -163 39 c-90 22 -164 41 -166 43 -12 12 235 326 256 326
10 0 75 -16 145 -35z m335 -90 c74 -20 145 -41 157 -46 l23 -8 -48 -85 c-27
-46 -68 -121 -91 -165 -32 -61 -47 -80 -59 -77 -9 3 -90 24 -181 46 -91 23
-166 43 -169 45 -10 11 208 335 222 330 7 -2 72 -20 146 -40z m-1151 -30 c-44
-55 -78 -81 -78 -59 0 9 112 124 122 124 5 0 -15 -29 -44 -65z m2548 24 c108
-30 149 -49 106 -49 -28 0 -28 -7 4 -36 14 -14 37 -24 55 -24 19 0 29 -5 29
-15 0 -8 5 -15 10 -15 15 0 12 15 -10 43 -28 35 -26 49 8 41 71 -16 99 -29
129 -60 20 -21 42 -34 57 -34 15 0 33 -11 45 -26 18 -23 21 -41 21 -140 0 -89
-3 -114 -14 -114 -7 0 -42 15 -76 33 -45 22 -67 40 -74 60 -6 15 -16 25 -23
23 -20 -8 -57 54 -63 104 -5 48 -24 59 -44 28 -7 -12 -7 -26 2 -51 7 -18 12
-55 12 -81 0 -40 -3 -47 -17 -42 -10 2 -90 23 -178 46 -88 23 -162 43 -166 46
-6 3 56 268 67 286 7 10 -6 13 120 -23z m-2594 -26 c-24 -34 -62 -69 -62 -57
0 8 70 84 78 84 2 0 -5 -12 -16 -27z m1576 -69 c30 -9 52 -21 52 -29 0 -8 -24
-62 -53 -122 -29 -59 -61 -127 -70 -150 -15 -38 -20 -43 -49 -43 -32 0 -82 10
-161 31 l-37 10 60 117 c33 64 73 140 90 169 l29 51 43 -10 c24 -5 67 -16 96
-24z m420 -113 c161 -43 295 -81 298 -84 11 -10 -87 -347 -100 -347 -19 0
-603 159 -636 173 l-29 12 33 75 c78 177 116 250 128 250 7 0 145 -35 306 -79z
m-1830 49 c51 -12 70 -24 54 -34 -10 -6 -124 32 -137 46 -7 7 -4 9 10 5 11 -3
44 -11 73 -17z m-140 -17 c22 -20 36 -85 21 -100 -7 -7 1 -12 22 -17 18 -3 34
-4 36 -2 2 2 -1 23 -7 46 -6 23 -9 44 -7 47 8 7 86 -17 93 -29 4 -6 0 -16 -9
-23 -10 -7 -17 -19 -17 -28 0 -9 -4 -19 -10 -22 -5 -3 -17 -22 -26 -41 -13
-26 -21 -33 -35 -29 -21 7 -27 -11 -6 -18 8 -3 0 -28 -28 -86 -22 -45 -44 -80
-51 -77 -6 2 -56 10 -110 17 -54 6 -102 15 -106 18 -5 4 1 25 12 46 12 22 19
49 16 59 -6 23 -1 34 80 159 68 104 89 117 132 80z m325 -24 c34 -9 49 -31 28
-43 -10 -7 -131 33 -131 43 0 24 12 24 103 0z m-477 -64 c-20 -30 -47 -73 -61
-95 -27 -42 -35 -49 -35 -27 0 14 116 177 125 177 3 0 -10 -25 -29 -55z m751
0 c143 -35 152 -38 142 -57 -6 -10 -16 -21 -23 -24 -22 -8 -326 80 -326 95 0
14 24 31 40 27 8 -2 84 -21 167 -41z m-330 8 c29 -9 53 -20 53 -24 0 -4 -22
-45 -49 -91 -27 -46 -64 -110 -83 -143 -38 -67 -56 -74 -128 -55 l-41 11 39
72 39 72 51 -1 c29 -1 52 0 52 2 0 14 -27 62 -42 74 -18 15 -17 17 9 58 15 23
32 42 37 42 5 0 33 -8 63 -17z m2810 -55 c-3 -7 -5 -2 -5 12 0 14 2 19 5 13 2
-7 2 -19 0 -25z m-2484 -44 c45 -15 81 -33 87 -44 7 -14 -3 -45 -45 -134 -30
-64 -55 -121 -55 -126 0 -6 -6 -10 -12 -10 -17 0 -362 71 -367 76 -7 6 129
255 156 286 14 15 19 15 86 -3 40 -11 107 -31 150 -45z m2317 -111 c19 -9 41
-15 48 -14 6 1 12 -8 12 -19 0 -29 19 -62 31 -55 5 4 9 -20 9 -59 0 -71 -11
-86 -66 -86 -25 0 -70 -30 -125 -85 l-26 -26 -254 67 c-140 37 -258 70 -262
74 -6 5 57 285 77 346 4 12 489 -114 556 -143z m-1900 100 c74 -19 136 -36
138 -38 8 -8 -31 -66 -41 -62 -7 3 -57 17 -112 31 -242 65 -255 72 -222 105
16 16 67 9 237 -36z m2178 15 c7 -7 12 -40 12 -76 0 -54 -2 -63 -16 -58 -9 3
-19 6 -23 6 -4 0 -17 9 -29 20 -27 25 -31 90 -7 90 9 0 18 7 21 15 7 18 26 19
42 3z m-2245 -105 c128 -37 158 -49 154 -62 -3 -9 -28 -68 -56 -131 -45 -102
-53 -115 -73 -112 -47 6 -343 75 -351 82 -4 4 20 69 54 144 60 132 64 137 88
131 14 -3 97 -26 184 -52z m449 -9 c46 -15 46 -16 36 -45 -5 -16 -14 -32 -19
-35 -9 -5 -185 41 -208 56 -10 6 -10 14 3 38 l16 30 62 -14 c35 -8 84 -21 110
-30z m437 -113 c183 -49 334 -91 337 -93 4 -4 -14 -67 -22 -77 -3 -3 -676 178
-682 184 -4 4 26 75 31 75 2 0 154 -40 336 -89z m1271 52 c0 -10 -7 -27 -16
-38 -9 -12 -12 -30 -8 -47 3 -17 1 -28 -5 -28 -12 0 -15 87 -5 114 8 22 34 20
34 -1z m-1802 -28 l100 -27 -40 -112 c-22 -61 -43 -119 -45 -128 -3 -10 -11
-18 -19 -18 -22 0 -234 51 -234 56 0 6 59 148 90 217 14 31 26 47 35 44 7 -3
58 -18 113 -32z m-1628 -5 c0 -5 -5 -10 -11 -10 -5 0 -7 5 -4 10 3 6 8 10 11
10 2 0 4 -4 4 -10z m218 -11 c83 -11 84 -12 77 -38 -9 -37 -33 -71 -50 -71
-20 0 -194 70 -201 81 -3 5 0 18 6 30 10 17 18 20 48 15 20 -3 74 -11 120 -17z
m192 -30 c27 -6 50 -15 50 -20 0 -14 -48 -119 -55 -119 -3 0 -22 7 -43 17 -20
9 -43 15 -49 14 -19 -3 -16 35 7 79 23 45 20 44 90 29z m-455 -71 c-15 -34
-47 -116 -71 -183 -24 -66 -43 -113 -43 -105 -1 29 102 321 122 348 22 28 18
-1 -8 -60z m2175 -22 c173 -48 320 -89 327 -91 9 -3 10 -12 3 -32 -4 -15 -20
-71 -35 -123 -14 -52 -28 -96 -30 -98 -3 -3 -707 176 -712 182 -3 3 75 213 88
238 6 12 17 18 27 15 10 -3 159 -44 332 -91z m-1997 17 c20 -8 37 -19 37 -23
0 -4 -19 -29 -42 -56 l-43 -48 -5 35 c-5 31 -8 34 -38 33 -32 -2 -32 -2 -32
45 0 26 3 50 6 54 4 3 23 -1 43 -9 20 -9 53 -22 74 -31z m578 16 c86 -17 162
-35 168 -38 8 -5 1 -33 -20 -92 -17 -46 -32 -86 -34 -87 -2 -2 -87 24 -189 58
-208 69 -194 55 -146 150 15 29 27 40 43 40 12 0 92 -14 178 -31z m-716 -138
c4 -11 12 -5 26 18 14 24 24 30 31 23 12 -12 -10 -134 -35 -195 l-16 -37 -70
0 c-54 0 -71 3 -71 14 0 16 60 185 93 260 l22 51 7 -60 c4 -33 10 -66 13 -74z
m2859 33 c133 -36 242 -67 243 -68 2 -1 -12 -16 -30 -33 l-32 -31 -225 55
c-124 31 -229 59 -234 63 -11 10 12 80 27 80 6 0 119 -30 251 -66z m-1716 10
c188 -44 175 -25 120 -166 -19 -50 -35 -78 -45 -78 -12 0 -338 98 -351 106 -3
1 55 161 64 176 4 5 16 7 28 5 11 -3 94 -22 184 -43z m-753 -24 c3 -5 -1 -10
-9 -10 -8 0 -18 5 -21 10 -3 6 1 10 9 10 8 0 18 -4 21 -10z m425 -145 c0 -27
-45 -158 -57 -162 -7 -3 -33 -2 -58 1 -33 5 -46 12 -51 29 -16 53 -75 165 -90
171 -10 4 -14 13 -11 26 5 18 0 20 -53 20 -61 0 -80 11 -60 34 9 12 43 3 195
-48 102 -33 185 -65 185 -71z m748 70 c30 -7 56 -16 59 -18 3 -4 -55 -213 -63
-225 -3 -5 -230 59 -245 69 -12 7 5 68 52 176 l18 42 63 -15 c35 -8 87 -21
116 -29z m1182 -5 c277 -73 261 -67 254 -95 -4 -16 0 -35 11 -51 12 -19 13
-29 5 -39 -6 -8 -8 -29 -4 -54 6 -39 -9 -101 -25 -101 -15 0 -473 128 -479
134 -3 4 2 39 12 79 31 131 47 176 59 172 7 -2 82 -23 167 -45z m-680 -122
l322 -83 -6 -40 c-3 -22 -18 -79 -33 -126 l-28 -87 -295 82 c-429 120 -410
114 -410 134 0 10 14 62 31 116 l30 98 34 -5 c19 -3 178 -43 355 -89z m-1031
-2 c95 -30 175 -56 178 -59 5 -6 -36 -125 -46 -132 -6 -3 -352 65 -360 71 -4
3 47 174 52 174 2 0 81 -24 176 -54z m-1039 -42 c0 -3 -11 -20 -25 -38 -59
-76 -66 -79 -109 -45 -21 16 -25 26 -20 47 4 15 9 30 11 35 5 8 143 10 143 1z
m-194 -31 c-10 -10 -19 5 -10 18 6 11 8 11 12 0 2 -7 1 -15 -2 -18z m25 0 c-8
-15 -10 -15 -11 -2 0 17 10 32 18 25 2 -3 -1 -13 -7 -23z m1594 -43 c61 -18
114 -36 119 -41 10 -9 -9 -85 -25 -105 -7 -8 -45 -3 -136 18 -70 15 -129 30
-131 33 -9 8 42 136 52 132 6 -2 61 -19 121 -37z m1323 -62 c127 -34 232 -66
232 -71 0 -5 -13 -22 -30 -37 -27 -25 -29 -31 -19 -58 7 -22 7 -36 -1 -51 -6
-12 -11 -36 -12 -54 -1 -33 -2 -34 -32 -27 -17 5 -125 31 -241 59 -115 29
-211 54 -213 56 -9 8 61 245 72 245 6 0 116 -28 244 -62z m-2004 36 c22 -9 20
-34 -3 -34 -10 0 -29 9 -42 20 l-24 19 27 1 c14 0 33 -3 42 -6z m-858 -78 c-4
-17 -10 -51 -13 -76 -3 -24 -12 -55 -20 -70 -7 -14 -13 -46 -13 -71 0 -49 -9
-59 -52 -59 -20 0 -20 4 -14 68 7 69 43 259 52 274 3 5 19 -1 36 -13 26 -19
29 -26 24 -53z m1107 30 c86 -18 160 -36 164 -39 7 -8 -92 -336 -106 -350 -12
-12 -40 -2 -46 15 -2 7 -9 32 -15 55 -6 23 -26 61 -46 84 -25 30 -34 49 -30
64 4 16 -6 39 -35 79 -22 31 -43 56 -47 56 -12 0 -42 56 -35 64 10 10 30 7
196 -28z m677 3 c19 -5 172 -48 339 -94 166 -46 305 -85 307 -87 5 -6 -16 -81
-25 -91 -5 -4 -152 28 -327 72 -442 112 -397 96 -388 134 17 81 26 87 94 66z
m-287 -90 c106 -26 127 -34 123 -47 -5 -20 -75 -326 -82 -359 -2 -12 -10 -20
-17 -18 -6 2 -72 22 -145 45 -110 34 -132 44 -128 58 2 9 23 85 46 167 43 151
55 185 68 185 3 0 64 -14 135 -31z m3431 -38 c-6 -7 -11 2 -17 34 l-6 30 13
-30 c8 -16 12 -32 10 -34z m-2879 -96 c186 -47 341 -88 344 -90 2 -3 -10 -58
-28 -122 -18 -65 -40 -147 -48 -183 -8 -36 -18 -69 -23 -73 -8 -9 -150 21
-150 32 0 4 -12 8 -27 8 -31 1 -475 108 -511 123 -17 7 -21 16 -17 32 20 94
68 300 76 331 8 29 14 37 27 33 9 -3 170 -44 357 -91z m2910 -47 c22 -96 32
-258 16 -258 -6 0 -11 16 -11 38 0 20 -6 75 -14 122 -24 145 -27 170 -17 170
5 0 17 -33 26 -72z m-2130 -14 c167 -46 284 -83 290 -92 6 -8 20 -27 32 -42
12 -14 25 -39 29 -54 6 -24 4 -27 -12 -22 -16 4 -414 117 -611 172 -29 8 -53
16 -53 18 0 2 5 18 11 37 6 19 12 40 15 47 2 6 7 12 11 12 4 0 134 -34 288
-76z m-2860 -116 c4 -40 5 -85 3 -100 l-3 -27 -47 35 c-47 34 -48 35 -48 89 0
53 1 55 33 64 54 16 55 15 62 -61z m2730 6 c211 -56 435 -123 455 -135 12 -7
10 -8 -7 -9 -13 0 -23 -6 -23 -14 0 -18 -39 -66 -53 -66 -7 0 -23 20 -37 45
-14 25 -25 45 -25 45 0 0 -58 -7 -128 -15 -105 -12 -135 -19 -165 -40 -20 -14
-44 -25 -54 -25 -22 0 -34 -20 -19 -30 14 -8 -49 -63 -86 -74 -11 -4 -27 -13
-33 -21 -11 -13 -5 -15 35 -15 36 0 56 6 82 26 42 32 86 30 91 -4 4 -23 54
-62 81 -62 8 0 23 7 33 17 17 15 20 15 53 -2 42 -23 48 -18 33 23 -10 27 -9
34 6 51 24 26 69 41 137 44 30 2 63 8 74 15 20 11 20 11 1 25 -18 13 -16 15
27 21 26 4 51 4 57 1 18 -11 11 -43 -12 -60 -18 -12 -20 -17 -10 -24 11 -7 6
-32 -24 -131 -21 -67 -44 -124 -50 -127 -11 -4 -198 48 -604 168 -74 22 -136
42 -138 43 -1 2 21 89 49 195 43 159 55 191 68 186 9 -3 93 -26 186 -51z
m-1364 -110 c30 -8 85 -24 122 -35 l69 -20 -6 -37 c-17 -95 -15 -92 -49 -85
-18 3 -58 21 -90 39 -32 19 -64 34 -71 34 -17 0 -36 21 -36 40 0 9 -11 27 -25
40 -14 13 -25 27 -25 32 0 13 52 9 111 -8z m-1353 -67 c8 -10 19 -72 35 -191
2 -15 -9 -21 -57 -33 -33 -7 -61 -11 -63 -9 -6 6 -22 183 -23 248 l0 58 49
-30 c27 -17 53 -36 59 -43z m1927 -96 c383 -110 368 -105 359 -134 -4 -12 -24
-87 -45 -166 -21 -79 -39 -145 -41 -147 -2 -1 -42 8 -88 21 -47 13 -105 29
-129 35 l-44 12 29 23 c36 30 27 31 -23 5 -36 -18 -42 -19 -108 -5 -38 8 -73
15 -77 15 -5 0 -8 18 -8 39 0 61 -14 85 -60 106 -27 12 -57 39 -85 76 l-44 58
10 63 c13 81 16 88 31 88 7 0 153 -40 323 -89z m1405 -21 c0 -11 8 -23 18 -27
28 -10 82 -65 82 -85 0 -21 4 -22 30 -6 30 19 34 3 15 -64 -22 -80 -21 -79
-53 -68 l-27 10 27 -20 c32 -25 29 -65 -6 -56 -11 3 -27 6 -33 6 -7 0 -22 18
-33 39 -19 37 -54 71 -73 71 -5 0 5 -16 22 -35 35 -40 41 -69 14 -61 -10 3
-35 8 -55 12 -26 4 -38 11 -38 23 0 13 58 196 85 269 7 19 25 14 25 -8z
m-3443 -87 c-3 -10 -5 -2 -5 17 0 19 2 27 5 18 2 -10 2 -26 0 -35z m3769 -36
c18 -18 34 -23 94 -25 45 -2 77 2 87 9 18 15 173 26 173 12 0 -5 -15 -23 -33
-40 -21 -19 -39 -48 -47 -77 -11 -42 -11 -48 4 -59 16 -12 16 -16 -1 -62 -17
-46 -22 -50 -49 -47 -65 5 -356 66 -371 77 -14 11 -14 14 7 35 14 14 18 25 12
29 -11 6 15 132 32 160 12 19 69 12 92 -12z m-1086 -33 c80 -19 146 -37 148
-39 10 -9 -31 -65 -48 -65 -12 0 -35 -24 -67 -71 -37 -57 -57 -76 -91 -90 -24
-11 -52 -29 -62 -41 -17 -22 -21 -22 -76 -10 -32 6 -62 16 -67 21 -8 8 13 99
64 273 15 52 23 65 37 62 9 -2 82 -20 162 -40z m-2443 -86 c24 -46 35 -84 41
-141 5 -43 5 -80 2 -82 -8 -5 -138 75 -191 116 -34 27 -37 35 -49 109 -7 45
-10 84 -6 87 3 4 32 12 64 19 57 12 57 12 82 -16 14 -16 40 -57 57 -92z m-211
-10 c6 -66 -10 -36 -20 37 -5 38 -4 46 4 33 6 -10 13 -42 16 -70z m2971 13
c37 -10 43 -16 49 -47 11 -60 -5 -78 -90 -103 -85 -25 -106 -23 -106 11 0 24
27 145 35 158 5 8 31 3 112 -19z m1248 -13 c44 -3 51 -7 69 -37 19 -33 19 -34
0 -89 -31 -92 -33 -93 -139 -75 -49 8 -94 19 -98 23 -5 4 6 43 23 88 30 79 64
119 85 102 6 -5 33 -10 60 -12z m-1007 -46 c8 -6 10 -16 5 -30 -8 -21 -9 -21
-20 8 -12 31 -8 36 15 22z m220 -51 c86 -26 84 -4 21 -203 -42 -136 -60 -157
-78 -93 -5 20 -7 51 -4 71 5 28 3 33 -10 29 -12 -5 -18 6 -26 47 -15 68 -37
101 -62 95 -22 -6 -22 -6 -7 45 12 40 12 40 52 35 23 -2 74 -14 114 -26z
m-1358 -53 c107 -27 196 -50 197 -52 9 -9 -32 -148 -44 -153 -13 -5 -433 108
-509 137 l-27 11 46 29 c25 15 55 42 68 59 18 24 28 29 48 25 14 -3 114 -28
221 -56z m-1924 -34 c127 -84 144 -116 72 -134 -24 -6 -58 -17 -75 -25 -40
-18 -41 -17 -77 115 -26 93 -29 110 -23 110 2 0 48 -30 103 -66z m3800 -97 c9
-8 -176 -367 -189 -367 -7 1 -63 20 -126 44 -100 38 -118 48 -141 82 l-27 38
17 61 c24 84 82 269 86 276 3 6 370 -123 380 -134z m-151 108 c148 -24 202
-47 164 -70 -10 -6 -239 72 -239 82 0 2 8 2 18 0 9 -3 35 -8 57 -12z m360 -69
l60 -12 -4 -44 c-1 -25 -4 -46 -5 -47 -1 -1 -45 15 -99 35 -80 30 -97 41 -97
58 0 38 0 38 145 10z m-1710 -9 c18 -9 16 -12 -20 -43 -22 -19 -46 -34 -52
-34 -7 0 -16 -12 -19 -27 -9 -37 -14 -44 -24 -38 -4 3 1 41 12 85 l21 81 31
-7 c17 -3 40 -11 51 -17z m-513 -67 c155 -44 283 -81 285 -83 5 -5 -27 -140
-36 -156 -7 -11 -67 0 -297 54 -159 37 -295 68 -301 71 -9 2 -13 25 -13 69 0
62 2 68 32 96 18 16 36 29 41 29 4 0 134 -36 289 -80z m2172 -20 c57 -22 110
-48 119 -58 9 -9 20 -38 25 -62 13 -59 0 -197 -21 -235 -9 -16 -17 -42 -17
-57 0 -16 -4 -28 -8 -28 -5 0 -57 7 -116 15 -79 11 -131 25 -190 51 -44 20
-83 37 -85 39 -4 5 179 375 185 375 3 0 52 -18 108 -40z m-3840 -32 c3 -18 8
-64 11 -103 3 -38 13 -98 21 -132 9 -35 14 -67 12 -73 -1 -5 -23 4 -48 20 -41
26 -50 40 -87 128 -66 155 -66 147 9 171 81 26 76 26 82 -11z m2052 -148 c-1
-71 -4 -89 -14 -85 -8 3 -18 5 -24 5 -6 0 -8 12 -4 30 7 40 37 140 40 140 2 0
3 -41 2 -90z m-796 -47 c0 -65 -4 -125 -9 -133 -8 -12 -17 -12 -66 4 -31 9
-59 24 -62 32 -3 8 12 33 36 59 22 24 41 54 41 65 0 11 4 20 10 20 5 0 16 16
24 35 8 19 17 35 20 35 4 0 6 -53 6 -117z m178 82 c196 -43 457 -107 465 -115
6 -6 -58 -275 -69 -288 -4 -6 -319 90 -341 104 -13 8 -23 21 -23 28 0 8 -11
14 -25 14 -14 0 -25 -6 -25 -13 0 -11 -13 -10 -62 4 l-63 17 4 129 c3 122 6
145 17 145 2 0 57 -11 122 -25z m1977 -167 c34 -14 60 -30 60 -39 0 -17 -8
-16 -143 7 -102 18 -103 19 -97 44 4 14 11 30 17 37 10 13 11 12 163 -49z
m-1376 21 c33 -12 36 -23 32 -109 -1 -30 5 -40 39 -68 31 -26 47 -32 66 -28
17 5 26 2 30 -9 4 -11 20 -15 55 -15 40 0 53 5 79 30 17 17 37 30 44 30 8 0
17 8 20 17 6 14 9 15 15 4 6 -9 10 -7 14 10 5 19 8 20 21 9 9 -7 16 -19 16
-26 0 -8 5 -14 10 -14 6 0 10 5 10 10 0 6 8 10 19 10 31 0 121 -32 121 -43 0
-12 -96 -195 -113 -215 -14 -17 -33 -14 -235 34 -143 34 -152 37 -138 53 22
25 20 31 -12 31 -15 0 -33 5 -39 11 -8 8 -15 4 -27 -12 -15 -22 -18 -23 -73
-11 -31 6 -61 16 -66 21 -5 5 -2 32 8 68 33 115 66 223 69 223 2 0 17 -5 35
-11z m-1986 -91 c18 -22 23 -73 8 -83 -9 -5 -81 111 -81 130 0 10 51 -23 73
-47z m1007 27 c166 -44 189 -54 196 -82 4 -13 3 -28 -2 -33 -11 -11 -343 38
-361 53 -22 17 -16 67 10 77 34 14 55 12 157 -15z m-240 -31 c0 -29 -3 -35
-16 -30 -9 3 -22 6 -30 6 -22 0 -17 27 8 44 33 23 38 20 38 -20z m2519 6 c57
-11 106 -22 109 -25 7 -7 -168 -266 -185 -272 -13 -5 -220 74 -228 87 -10 17
41 96 94 146 35 33 57 62 54 70 -7 20 31 18 156 -6z m227 4 c17 -14 17 -15 1
-10 -10 3 -25 6 -33 6 -9 0 -12 5 -9 10 9 14 18 13 41 -6z m-899 -30 c3 -8 -1
-22 -10 -31 -13 -13 -21 -13 -53 -3 -46 15 -59 24 -50 39 11 18 106 14 113 -5z
m1883 -3 c0 -6 -4 -13 -10 -16 -5 -3 -10 1 -10 9 0 9 5 16 10 16 6 0 10 -4 10
-9z m-875 -31 c82 -19 157 -48 187 -72 16 -12 12 -20 -49 -98 -77 -100 -87
-122 -101 -213 -6 -38 -13 -71 -16 -74 -3 -4 -32 8 -63 26 -32 18 -117 61
-188 96 -72 35 -134 67 -137 70 -3 4 37 71 91 151 l96 144 50 -6 c28 -3 86
-14 130 -24z m-2869 2 c12 -7 31 -242 20 -242 -9 0 -66 189 -66 220 0 30 20
40 46 22z m571 -13 c39 -13 67 -29 78 -45 14 -22 14 -24 -2 -24 -26 1 -138 26
-151 34 -16 10 -15 56 1 56 7 0 41 -9 74 -21z m1372 -4 c37 -19 51 -49 18 -39
-66 20 -78 30 -60 47 9 9 10 9 42 -8z m-1624 -25 c65 -11 122 -25 125 -31 8
-12 32 -330 26 -336 -6 -7 -178 41 -286 79 l-95 34 -7 40 c-4 21 -7 86 -7 143
l-1 104 63 -7 c34 -3 116 -15 182 -26z m2804 4 c3 -3 0 -9 -6 -15 -8 -8 -22
-5 -49 10 l-39 22 45 -7 c25 -3 47 -8 49 -10z m-2234 -66 c127 -32 150 -43
120 -54 -31 -12 -243 45 -273 73 l-27 24 30 -5 c17 -4 84 -20 150 -38z m1097
11 c75 -27 90 -37 112 -70 15 -21 26 -43 26 -47 0 -12 -59 -142 -65 -142 -3 0
-198 40 -277 57 -16 3 -28 8 -28 11 0 5 72 138 102 190 11 17 25 32 31 32 6 0
51 -14 99 -31z m-2027 -56 c16 -43 30 -84 33 -90 2 -7 -2 -13 -9 -13 -17 0
-151 50 -163 60 -7 7 90 117 105 119 4 1 19 -34 34 -76z m688 47 c4 0 24 -18
45 -39 31 -33 42 -39 65 -34 22 4 26 9 21 26 -5 14 -3 19 7 15 8 -3 58 -16
113 -29 54 -13 100 -29 103 -36 4 -11 -62 -291 -72 -301 -4 -4 -302 56 -387
79 -32 8 -38 14 -38 37 -1 15 -5 87 -10 161 -5 74 -7 137 -5 141 3 4 37 1 77
-6 40 -8 77 -14 81 -14z m578 -94 c46 -13 167 -43 269 -66 102 -23 186 -43
188 -45 9 -9 -33 -56 -47 -52 -114 32 -527 169 -535 177 -17 17 36 12 125 -14z
m1075 -16 c42 -17 90 -38 106 -46 l29 -15 -32 -44 c-64 -89 -62 -88 -172 -67
-54 10 -100 21 -103 24 -6 7 78 178 88 178 4 0 42 -14 84 -30z m-2396 -39 c75
-28 130 -66 130 -90 0 -5 -71 -11 -157 -13 -176 -5 -187 -1 -179 58 2 18 0 36
-6 42 -6 6 -8 17 -5 24 10 26 122 15 217 -21z m1370 -16 c215 -64 343 -106
354 -116 11 -10 -157 -267 -179 -275 -10 -4 -351 97 -442 130 -7 3 2 49 31
144 54 175 53 173 68 167 7 -2 83 -25 168 -50z m1383 -107 c188 -97 186 -99
-50 -68 -196 26 -223 30 -223 40 0 15 84 110 98 110 8 0 87 -37 175 -82z
m-2982 46 c11 -9 19 -22 19 -28 0 -14 -95 -37 -117 -29 -11 4 -14 3 -9 -5 4
-7 5 -12 2 -12 -6 0 -46 75 -46 85 0 4 12 -3 26 -14 31 -24 44 -20 36 11 -5
20 -2 21 33 15 20 -3 46 -14 56 -23z m465 -10 c70 -24 79 -37 19 -29 -67 9
-75 12 -75 30 0 18 -4 18 56 -1z m1745 -9 c143 -29 159 -34 159 -44 0 -4 -13
-28 -29 -53 l-29 -46 -134 50 c-73 27 -137 54 -142 58 -14 14 11 60 32 60 11
0 75 -11 143 -25z m-1869 -34 c21 -8 25 -22 46 -141 13 -72 22 -133 20 -136
-3 -2 -47 14 -99 36 -91 39 -97 43 -161 123 -92 115 -93 115 -21 120 121 7
192 7 215 -2z m222 -16 c137 -18 234 -49 246 -79 13 -31 52 -247 46 -254 -8
-7 -278 26 -287 35 -24 27 -141 248 -146 277 -7 43 -14 42 141 21z m-452 -77
c36 -46 63 -84 58 -86 -14 -5 -261 121 -253 129 12 12 84 37 109 38 14 1 41
-24 86 -81z m2409 67 c46 -9 90 -18 97 -20 9 -3 -4 -25 -40 -66 -70 -81 -76
-83 -135 -58 -76 34 -76 33 -43 100 17 32 32 59 34 59 2 0 41 -7 87 -15z
m-361 -48 c115 -45 134 -56 132 -72 -4 -19 -95 -179 -125 -219 -14 -19 -16
-19 -103 -2 -116 22 -243 56 -249 66 -3 4 14 34 38 66 24 33 67 94 96 137 29
42 59 77 65 77 6 -1 72 -24 146 -53z m793 -16 c126 -16 232 -32 235 -36 14
-13 -284 -275 -313 -275 -4 0 -25 13 -49 29 -23 16 -94 57 -157 91 -63 34
-118 66 -124 71 -15 15 124 149 155 149 14 0 128 -13 253 -29z m-2695 -177
c34 -31 62 -59 62 -63 0 -3 -26 -17 -56 -30 -52 -22 -57 -23 -66 -8 -5 9 -14
17 -20 17 -6 0 -39 23 -72 51 -53 45 -55 46 -16 8 25 -24 62 -59 83 -77 38
-33 47 -52 24 -52 -25 0 -86 51 -136 113 -52 66 -64 90 -34 66 10 -8 -4 11
-31 41 -48 54 -86 108 -86 122 0 4 64 -24 143 -62 105 -51 158 -83 205 -126z
m816 160 c160 -35 194 -48 164 -59 -14 -6 -325 78 -337 91 -8 8 11 4 173 -32z
m-33 -39 c100 -30 184 -57 186 -59 7 -7 -35 -198 -45 -208 -9 -9 -281 46 -293
60 -3 4 -14 52 -23 107 -10 55 -19 112 -22 128 -3 15 -1 27 5 27 5 0 92 -25
192 -55z m-546 -71 c31 -52 54 -98 51 -101 -2 -3 -22 -1 -43 4 -37 8 -38 11
-50 68 -21 108 -24 125 -20 125 3 0 30 -43 62 -96z m1937 30 c59 -30 68 -13
-74 -137 -82 -72 -118 -90 -133 -67 -9 14 124 230 141 230 8 0 38 -12 66 -26z
m-925 -36 c89 -28 161 -53 159 -56 -5 -4 -295 65 -334 79 -22 9 -22 29 0 29 6
0 85 -23 175 -52z m-1452 -99 c4 -8 -11 4 -34 26 -42 39 -71 83 -71 105 0 10
85 -97 105 -131z m3526 104 c-33 -46 -110 -117 -118 -109 -7 7 117 136 132
136 3 0 -3 -12 -14 -27z m-2046 -58 c110 -26 201 -48 203 -49 7 -8 -144 -183
-170 -197 -14 -8 -26 -6 -43 5 -14 9 -38 16 -55 16 -25 0 -217 55 -228 65 -2
2 11 51 29 109 25 84 36 105 48 102 9 -3 106 -26 216 -51z m1243 -92 c79 -49
80 -57 19 -86 -29 -14 -46 -14 -162 -1 -159 18 -316 41 -322 47 -2 3 42 45 99
95 l103 91 95 -51 c52 -28 128 -71 168 -95z m-2425 92 c68 -28 79 -38 51 -49
-37 -14 -69 -5 -106 31 -38 37 -49 60 -25 50 6 -3 42 -17 80 -32z m2679 -62
c-65 -78 -97 -104 -116 -97 -9 4 -16 10 -14 15 4 11 162 137 167 133 2 -2 -15
-25 -37 -51z m44 -60 c-29 -59 -42 -71 -85 -79 -47 -10 -40 8 39 101 58 68 65
73 68 51 2 -13 -8 -46 -22 -73z m-1211 45 c71 -18 235 -90 235 -104 0 -7 -19
-37 -43 -66 -32 -40 -63 -63 -124 -95 -85 -44 -115 -46 -134 -12 -6 12 -21 19
-38 19 -35 0 -93 19 -87 29 3 4 -15 13 -40 20 -24 7 -44 16 -44 20 0 4 20 26
44 50 24 24 66 70 93 102 52 63 43 61 138 37z m-1316 1 c21 -7 64 -49 126
-121 52 -60 95 -113 95 -118 0 -5 -12 -4 -27 1 -74 25 -179 53 -189 51 -7 -1
-11 3 -11 10 1 7 -11 38 -25 68 -14 30 -29 70 -33 88 -6 27 -4 32 13 32 10 0
33 -5 51 -11z m280 -17 c37 -6 46 -12 54 -35 5 -16 7 -31 4 -34 -7 -6 -277 78
-277 87 0 6 142 -5 219 -18z m-383 -12 c7 -14 15 -36 19 -50 7 -22 2 -19 -41
20 -62 56 -64 62 -23 58 25 -2 37 -10 45 -28z m-29 -37 c77 -67 98 -101 76
-121 -16 -16 -46 -7 -120 35 -23 14 -46 24 -50 23 -15 -2 -83 33 -83 43 0 5 8
6 18 2 14 -5 15 -4 5 6 -7 7 -13 17 -13 21 0 12 62 48 83 48 11 0 48 -26 84
-57z m339 -3 c67 -23 128 -46 137 -53 8 -7 29 -45 45 -85 l30 -73 -46 6 c-104
13 -107 15 -159 68 -50 52 -143 164 -143 172 0 9 15 5 136 -35z m246 20 c159
-35 170 -39 166 -62 -6 -39 -51 -44 -156 -18 -96 24 -112 37 -112 86 0 17 -3
18 102 -6z m1097 4 c17 -4 31 -13 31 -20 0 -18 -8 -17 -50 6 -37 20 -32 24 19
14z m112 -44 c-12 -11 -27 -17 -33 -14 -14 9 12 34 36 34 21 -1 21 -1 -3 -20z
m297 -20 c84 -11 168 -20 187 -20 19 0 36 -4 39 -9 5 -8 -205 -128 -243 -138
-12 -3 -41 10 -78 34 -32 22 -87 57 -123 77 -36 21 -67 40 -70 43 -3 2 6 13
20 24 20 16 35 19 70 14 25 -3 114 -14 198 -25z m391 6 c15 -18 -3 -25 -47
-18 -30 4 -31 6 -15 18 23 17 48 18 62 0z m-1584 -27 c14 -6 5 -8 -29 -6 -31
1 -51 7 -54 16 -3 10 3 11 29 6 19 -4 43 -11 54 -16z m-326 -10 c17 -6 31 -16
31 -21 0 -6 18 -30 40 -54 22 -24 40 -53 40 -64 0 -18 -4 -20 -42 -14 -74 12
-83 19 -106 79 -34 88 -29 97 37 74z m1296 -50 c50 -28 105 -63 124 -77 32
-24 33 -26 15 -39 -39 -29 -174 -73 -223 -73 -64 0 -203 20 -215 31 -20 18
165 209 204 209 3 0 46 -23 95 -51z m579 43 c7 -11 -46 -61 -153 -147 -122
-97 -123 -97 -176 -45 l-44 43 92 47 c51 26 118 61 151 79 55 29 119 41 130
23z m-905 -148 c-16 -15 -34 -24 -45 -22 -16 3 -13 8 16 26 47 30 60 28 29 -4z
m550 -59 c22 -24 41 -48 41 -51 0 -7 -221 4 -259 13 -20 5 -7 13 70 43 52 21
97 38 100 39 4 1 25 -19 48 -44z m-442 -25 c106 -15 116 -19 73 -35 -45 -17
-107 -18 -117 -2 -4 6 -24 20 -43 29 -44 21 -25 22 87 8z m-19 -107 c32 -47
38 -60 21 -47 -8 7 -33 15 -56 19 -52 8 -60 19 -31 39 31 22 44 20 66 -11z"/>
<path d="M2938 5243 c7 -3 16 -2 19 1 4 3 -2 6 -13 5 -11 0 -14 -3 -6 -6z"/>
<path d="M639 4213 c-13 -16 -12 -17 4 -4 9 7 17 15 17 17 0 8 -8 3 -21 -13z"/>
<path d="M252 2085 c0 -11 4 -31 8 -45 6 -20 8 -21 8 -5 0 11 -4 31 -8 45 -6
20 -8 21 -8 5z"/>
<path d="M271 1994 c0 -11 3 -14 6 -6 3 7 2 16 -1 19 -3 4 -6 -2 -5 -13z"/>
<path d="M281 1954 c0 -11 3 -14 6 -6 3 7 2 16 -1 19 -3 4 -6 -2 -5 -13z"/>
<path d="M291 1914 c0 -11 3 -14 6 -6 3 7 2 16 -1 19 -3 4 -6 -2 -5 -13z"/>
<path d="M3858 353 c7 -3 16 -2 19 1 4 3 -2 6 -13 5 -11 0 -14 -3 -6 -6z"/>
<path d="M3793 343 c9 -2 23 -2 30 0 6 3 -1 5 -18 5 -16 0 -22 -2 -12 -5z"/>
</g>
</svg>
